G04 #@! TF.GenerationSoftware,KiCad,Pcbnew,(5.0.2)-1*
G04 #@! TF.CreationDate,2019-02-09T20:55:45-06:00*
G04 #@! TF.ProjectId,Halloween-Controller,48616c6c-6f77-4656-956e-2d436f6e7472,0.1*
G04 #@! TF.SameCoordinates,Original*
G04 #@! TF.FileFunction,Copper,L1,Top*
G04 #@! TF.FilePolarity,Positive*
%FSLAX46Y46*%
G04 Gerber Fmt 4.6, Leading zero omitted, Abs format (unit mm)*
G04 Created by KiCad (PCBNEW (5.0.2)-1) date 2/9/2019 8:55:45 PM*
%MOMM*%
%LPD*%
G01*
G04 APERTURE LIST*
G04 #@! TA.AperFunction,ComponentPad*
%ADD10R,1.600000X1.600000*%
G04 #@! TD*
G04 #@! TA.AperFunction,ComponentPad*
%ADD11O,1.600000X1.600000*%
G04 #@! TD*
G04 #@! TA.AperFunction,Conductor*
%ADD12C,0.100000*%
G04 #@! TD*
G04 #@! TA.AperFunction,SMDPad,CuDef*
%ADD13C,1.150000*%
G04 #@! TD*
G04 #@! TA.AperFunction,ComponentPad*
%ADD14O,1.700000X1.950000*%
G04 #@! TD*
G04 #@! TA.AperFunction,ComponentPad*
%ADD15C,1.700000*%
G04 #@! TD*
G04 #@! TA.AperFunction,ComponentPad*
%ADD16R,1.700000X1.700000*%
G04 #@! TD*
G04 #@! TA.AperFunction,ComponentPad*
%ADD17O,1.700000X1.700000*%
G04 #@! TD*
G04 #@! TA.AperFunction,SMDPad,CuDef*
%ADD18C,0.975000*%
G04 #@! TD*
G04 #@! TA.AperFunction,ComponentPad*
%ADD19C,1.501140*%
G04 #@! TD*
G04 #@! TA.AperFunction,ComponentPad*
%ADD20C,6.400000*%
G04 #@! TD*
G04 #@! TA.AperFunction,ComponentPad*
%ADD21C,2.000000*%
G04 #@! TD*
G04 #@! TA.AperFunction,ComponentPad*
%ADD22C,1.524000*%
G04 #@! TD*
G04 #@! TA.AperFunction,SMDPad,CuDef*
%ADD23C,1.425000*%
G04 #@! TD*
G04 #@! TA.AperFunction,Conductor*
%ADD24C,0.250000*%
G04 #@! TD*
G04 #@! TA.AperFunction,Conductor*
%ADD25C,0.500000*%
G04 #@! TD*
G04 #@! TA.AperFunction,Conductor*
%ADD26C,0.254000*%
G04 #@! TD*
G04 APERTURE END LIST*
D10*
G04 #@! TO.P,IC1,1*
G04 #@! TO.N,Net-(C1-Pad1)*
X120650000Y-83820000D03*
D11*
G04 #@! TO.P,IC1,15*
G04 #@! TO.N,N/C*
X153670000Y-76200000D03*
G04 #@! TO.P,IC1,2*
G04 #@! TO.N,Net-(IC1-Pad2)*
X123190000Y-83820000D03*
G04 #@! TO.P,IC1,16*
G04 #@! TO.N,/GPIO_10*
X151130000Y-76200000D03*
G04 #@! TO.P,IC1,3*
G04 #@! TO.N,Net-(IC1-Pad3)*
X125730000Y-83820000D03*
G04 #@! TO.P,IC1,17*
G04 #@! TO.N,Net-(IC1-Pad17)*
X148590000Y-76200000D03*
G04 #@! TO.P,IC1,4*
G04 #@! TO.N,/GPIO_2*
X128270000Y-83820000D03*
G04 #@! TO.P,IC1,18*
G04 #@! TO.N,Net-(IC1-Pad18)*
X146050000Y-76200000D03*
G04 #@! TO.P,IC1,5*
G04 #@! TO.N,/GPIO_3*
X130810000Y-83820000D03*
G04 #@! TO.P,IC1,19*
G04 #@! TO.N,Net-(IC1-Pad19)*
X143510000Y-76200000D03*
G04 #@! TO.P,IC1,6*
G04 #@! TO.N,/GPIO_4*
X133350000Y-83820000D03*
G04 #@! TO.P,IC1,20*
G04 #@! TO.N,+5V*
X140970000Y-76200000D03*
G04 #@! TO.P,IC1,7*
G04 #@! TO.N,Net-(D1-Pad1)*
X135890000Y-83820000D03*
G04 #@! TO.P,IC1,21*
G04 #@! TO.N,N/C*
X138430000Y-76200000D03*
G04 #@! TO.P,IC1,8*
G04 #@! TO.N,GND*
X138430000Y-83820000D03*
G04 #@! TO.P,IC1,22*
X135890000Y-76200000D03*
G04 #@! TO.P,IC1,9*
G04 #@! TO.N,Net-(C2-Pad1)*
X140970000Y-83820000D03*
G04 #@! TO.P,IC1,23*
G04 #@! TO.N,/AIO_0*
X133350000Y-76200000D03*
G04 #@! TO.P,IC1,10*
G04 #@! TO.N,Net-(C3-Pad1)*
X143510000Y-83820000D03*
G04 #@! TO.P,IC1,24*
G04 #@! TO.N,/AIO_1*
X130810000Y-76200000D03*
G04 #@! TO.P,IC1,11*
G04 #@! TO.N,/GPIO_5*
X146050000Y-83820000D03*
G04 #@! TO.P,IC1,25*
G04 #@! TO.N,/AIO_2*
X128270000Y-76200000D03*
G04 #@! TO.P,IC1,12*
G04 #@! TO.N,/GPIO_6*
X148590000Y-83820000D03*
G04 #@! TO.P,IC1,26*
G04 #@! TO.N,/AIO_3*
X125730000Y-76200000D03*
G04 #@! TO.P,IC1,13*
G04 #@! TO.N,/GPIO_7*
X151130000Y-83820000D03*
G04 #@! TO.P,IC1,27*
G04 #@! TO.N,Net-(IC1-Pad27)*
X123190000Y-76200000D03*
G04 #@! TO.P,IC1,14*
G04 #@! TO.N,/GPIO_8*
X153670000Y-83820000D03*
G04 #@! TO.P,IC1,28*
G04 #@! TO.N,Net-(IC1-Pad28)*
X120650000Y-76200000D03*
G04 #@! TD*
D12*
G04 #@! TO.N,Net-(C2-Pad1)*
G04 #@! TO.C,C2*
G36*
X138396505Y-91882204D02*
X138420773Y-91885804D01*
X138444572Y-91891765D01*
X138467671Y-91900030D01*
X138489850Y-91910520D01*
X138510893Y-91923132D01*
X138530599Y-91937747D01*
X138548777Y-91954223D01*
X138565253Y-91972401D01*
X138579868Y-91992107D01*
X138592480Y-92013150D01*
X138602970Y-92035329D01*
X138611235Y-92058428D01*
X138617196Y-92082227D01*
X138620796Y-92106495D01*
X138622000Y-92130999D01*
X138622000Y-92781001D01*
X138620796Y-92805505D01*
X138617196Y-92829773D01*
X138611235Y-92853572D01*
X138602970Y-92876671D01*
X138592480Y-92898850D01*
X138579868Y-92919893D01*
X138565253Y-92939599D01*
X138548777Y-92957777D01*
X138530599Y-92974253D01*
X138510893Y-92988868D01*
X138489850Y-93001480D01*
X138467671Y-93011970D01*
X138444572Y-93020235D01*
X138420773Y-93026196D01*
X138396505Y-93029796D01*
X138372001Y-93031000D01*
X137471999Y-93031000D01*
X137447495Y-93029796D01*
X137423227Y-93026196D01*
X137399428Y-93020235D01*
X137376329Y-93011970D01*
X137354150Y-93001480D01*
X137333107Y-92988868D01*
X137313401Y-92974253D01*
X137295223Y-92957777D01*
X137278747Y-92939599D01*
X137264132Y-92919893D01*
X137251520Y-92898850D01*
X137241030Y-92876671D01*
X137232765Y-92853572D01*
X137226804Y-92829773D01*
X137223204Y-92805505D01*
X137222000Y-92781001D01*
X137222000Y-92130999D01*
X137223204Y-92106495D01*
X137226804Y-92082227D01*
X137232765Y-92058428D01*
X137241030Y-92035329D01*
X137251520Y-92013150D01*
X137264132Y-91992107D01*
X137278747Y-91972401D01*
X137295223Y-91954223D01*
X137313401Y-91937747D01*
X137333107Y-91923132D01*
X137354150Y-91910520D01*
X137376329Y-91900030D01*
X137399428Y-91891765D01*
X137423227Y-91885804D01*
X137447495Y-91882204D01*
X137471999Y-91881000D01*
X138372001Y-91881000D01*
X138396505Y-91882204D01*
X138396505Y-91882204D01*
G37*
D13*
G04 #@! TD*
G04 #@! TO.P,C2,1*
G04 #@! TO.N,Net-(C2-Pad1)*
X137922000Y-92456000D03*
D12*
G04 #@! TO.N,GND*
G04 #@! TO.C,C2*
G36*
X138396505Y-93932204D02*
X138420773Y-93935804D01*
X138444572Y-93941765D01*
X138467671Y-93950030D01*
X138489850Y-93960520D01*
X138510893Y-93973132D01*
X138530599Y-93987747D01*
X138548777Y-94004223D01*
X138565253Y-94022401D01*
X138579868Y-94042107D01*
X138592480Y-94063150D01*
X138602970Y-94085329D01*
X138611235Y-94108428D01*
X138617196Y-94132227D01*
X138620796Y-94156495D01*
X138622000Y-94180999D01*
X138622000Y-94831001D01*
X138620796Y-94855505D01*
X138617196Y-94879773D01*
X138611235Y-94903572D01*
X138602970Y-94926671D01*
X138592480Y-94948850D01*
X138579868Y-94969893D01*
X138565253Y-94989599D01*
X138548777Y-95007777D01*
X138530599Y-95024253D01*
X138510893Y-95038868D01*
X138489850Y-95051480D01*
X138467671Y-95061970D01*
X138444572Y-95070235D01*
X138420773Y-95076196D01*
X138396505Y-95079796D01*
X138372001Y-95081000D01*
X137471999Y-95081000D01*
X137447495Y-95079796D01*
X137423227Y-95076196D01*
X137399428Y-95070235D01*
X137376329Y-95061970D01*
X137354150Y-95051480D01*
X137333107Y-95038868D01*
X137313401Y-95024253D01*
X137295223Y-95007777D01*
X137278747Y-94989599D01*
X137264132Y-94969893D01*
X137251520Y-94948850D01*
X137241030Y-94926671D01*
X137232765Y-94903572D01*
X137226804Y-94879773D01*
X137223204Y-94855505D01*
X137222000Y-94831001D01*
X137222000Y-94180999D01*
X137223204Y-94156495D01*
X137226804Y-94132227D01*
X137232765Y-94108428D01*
X137241030Y-94085329D01*
X137251520Y-94063150D01*
X137264132Y-94042107D01*
X137278747Y-94022401D01*
X137295223Y-94004223D01*
X137313401Y-93987747D01*
X137333107Y-93973132D01*
X137354150Y-93960520D01*
X137376329Y-93950030D01*
X137399428Y-93941765D01*
X137423227Y-93935804D01*
X137447495Y-93932204D01*
X137471999Y-93931000D01*
X138372001Y-93931000D01*
X138396505Y-93932204D01*
X138396505Y-93932204D01*
G37*
D13*
G04 #@! TD*
G04 #@! TO.P,C2,2*
G04 #@! TO.N,GND*
X137922000Y-94506000D03*
D12*
G04 #@! TO.N,GND*
G04 #@! TO.C,C3*
G36*
X143222505Y-93932204D02*
X143246773Y-93935804D01*
X143270572Y-93941765D01*
X143293671Y-93950030D01*
X143315850Y-93960520D01*
X143336893Y-93973132D01*
X143356599Y-93987747D01*
X143374777Y-94004223D01*
X143391253Y-94022401D01*
X143405868Y-94042107D01*
X143418480Y-94063150D01*
X143428970Y-94085329D01*
X143437235Y-94108428D01*
X143443196Y-94132227D01*
X143446796Y-94156495D01*
X143448000Y-94180999D01*
X143448000Y-94831001D01*
X143446796Y-94855505D01*
X143443196Y-94879773D01*
X143437235Y-94903572D01*
X143428970Y-94926671D01*
X143418480Y-94948850D01*
X143405868Y-94969893D01*
X143391253Y-94989599D01*
X143374777Y-95007777D01*
X143356599Y-95024253D01*
X143336893Y-95038868D01*
X143315850Y-95051480D01*
X143293671Y-95061970D01*
X143270572Y-95070235D01*
X143246773Y-95076196D01*
X143222505Y-95079796D01*
X143198001Y-95081000D01*
X142297999Y-95081000D01*
X142273495Y-95079796D01*
X142249227Y-95076196D01*
X142225428Y-95070235D01*
X142202329Y-95061970D01*
X142180150Y-95051480D01*
X142159107Y-95038868D01*
X142139401Y-95024253D01*
X142121223Y-95007777D01*
X142104747Y-94989599D01*
X142090132Y-94969893D01*
X142077520Y-94948850D01*
X142067030Y-94926671D01*
X142058765Y-94903572D01*
X142052804Y-94879773D01*
X142049204Y-94855505D01*
X142048000Y-94831001D01*
X142048000Y-94180999D01*
X142049204Y-94156495D01*
X142052804Y-94132227D01*
X142058765Y-94108428D01*
X142067030Y-94085329D01*
X142077520Y-94063150D01*
X142090132Y-94042107D01*
X142104747Y-94022401D01*
X142121223Y-94004223D01*
X142139401Y-93987747D01*
X142159107Y-93973132D01*
X142180150Y-93960520D01*
X142202329Y-93950030D01*
X142225428Y-93941765D01*
X142249227Y-93935804D01*
X142273495Y-93932204D01*
X142297999Y-93931000D01*
X143198001Y-93931000D01*
X143222505Y-93932204D01*
X143222505Y-93932204D01*
G37*
D13*
G04 #@! TD*
G04 #@! TO.P,C3,2*
G04 #@! TO.N,GND*
X142748000Y-94506000D03*
D12*
G04 #@! TO.N,Net-(C3-Pad1)*
G04 #@! TO.C,C3*
G36*
X143222505Y-91882204D02*
X143246773Y-91885804D01*
X143270572Y-91891765D01*
X143293671Y-91900030D01*
X143315850Y-91910520D01*
X143336893Y-91923132D01*
X143356599Y-91937747D01*
X143374777Y-91954223D01*
X143391253Y-91972401D01*
X143405868Y-91992107D01*
X143418480Y-92013150D01*
X143428970Y-92035329D01*
X143437235Y-92058428D01*
X143443196Y-92082227D01*
X143446796Y-92106495D01*
X143448000Y-92130999D01*
X143448000Y-92781001D01*
X143446796Y-92805505D01*
X143443196Y-92829773D01*
X143437235Y-92853572D01*
X143428970Y-92876671D01*
X143418480Y-92898850D01*
X143405868Y-92919893D01*
X143391253Y-92939599D01*
X143374777Y-92957777D01*
X143356599Y-92974253D01*
X143336893Y-92988868D01*
X143315850Y-93001480D01*
X143293671Y-93011970D01*
X143270572Y-93020235D01*
X143246773Y-93026196D01*
X143222505Y-93029796D01*
X143198001Y-93031000D01*
X142297999Y-93031000D01*
X142273495Y-93029796D01*
X142249227Y-93026196D01*
X142225428Y-93020235D01*
X142202329Y-93011970D01*
X142180150Y-93001480D01*
X142159107Y-92988868D01*
X142139401Y-92974253D01*
X142121223Y-92957777D01*
X142104747Y-92939599D01*
X142090132Y-92919893D01*
X142077520Y-92898850D01*
X142067030Y-92876671D01*
X142058765Y-92853572D01*
X142052804Y-92829773D01*
X142049204Y-92805505D01*
X142048000Y-92781001D01*
X142048000Y-92130999D01*
X142049204Y-92106495D01*
X142052804Y-92082227D01*
X142058765Y-92058428D01*
X142067030Y-92035329D01*
X142077520Y-92013150D01*
X142090132Y-91992107D01*
X142104747Y-91972401D01*
X142121223Y-91954223D01*
X142139401Y-91937747D01*
X142159107Y-91923132D01*
X142180150Y-91910520D01*
X142202329Y-91900030D01*
X142225428Y-91891765D01*
X142249227Y-91885804D01*
X142273495Y-91882204D01*
X142297999Y-91881000D01*
X143198001Y-91881000D01*
X143222505Y-91882204D01*
X143222505Y-91882204D01*
G37*
D13*
G04 #@! TD*
G04 #@! TO.P,C3,1*
G04 #@! TO.N,Net-(C3-Pad1)*
X142748000Y-92456000D03*
D14*
G04 #@! TO.P,J1,3*
G04 #@! TO.N,+5V*
X113665000Y-62865000D03*
G04 #@! TO.P,J1,2*
G04 #@! TO.N,Net-(J1-Pad2)*
X116165000Y-62865000D03*
D12*
G04 #@! TD*
G04 #@! TO.N,GND*
G04 #@! TO.C,J1*
G36*
X119289504Y-61891204D02*
X119313773Y-61894804D01*
X119337571Y-61900765D01*
X119360671Y-61909030D01*
X119382849Y-61919520D01*
X119403893Y-61932133D01*
X119423598Y-61946747D01*
X119441777Y-61963223D01*
X119458253Y-61981402D01*
X119472867Y-62001107D01*
X119485480Y-62022151D01*
X119495970Y-62044329D01*
X119504235Y-62067429D01*
X119510196Y-62091227D01*
X119513796Y-62115496D01*
X119515000Y-62140000D01*
X119515000Y-63590000D01*
X119513796Y-63614504D01*
X119510196Y-63638773D01*
X119504235Y-63662571D01*
X119495970Y-63685671D01*
X119485480Y-63707849D01*
X119472867Y-63728893D01*
X119458253Y-63748598D01*
X119441777Y-63766777D01*
X119423598Y-63783253D01*
X119403893Y-63797867D01*
X119382849Y-63810480D01*
X119360671Y-63820970D01*
X119337571Y-63829235D01*
X119313773Y-63835196D01*
X119289504Y-63838796D01*
X119265000Y-63840000D01*
X118065000Y-63840000D01*
X118040496Y-63838796D01*
X118016227Y-63835196D01*
X117992429Y-63829235D01*
X117969329Y-63820970D01*
X117947151Y-63810480D01*
X117926107Y-63797867D01*
X117906402Y-63783253D01*
X117888223Y-63766777D01*
X117871747Y-63748598D01*
X117857133Y-63728893D01*
X117844520Y-63707849D01*
X117834030Y-63685671D01*
X117825765Y-63662571D01*
X117819804Y-63638773D01*
X117816204Y-63614504D01*
X117815000Y-63590000D01*
X117815000Y-62140000D01*
X117816204Y-62115496D01*
X117819804Y-62091227D01*
X117825765Y-62067429D01*
X117834030Y-62044329D01*
X117844520Y-62022151D01*
X117857133Y-62001107D01*
X117871747Y-61981402D01*
X117888223Y-61963223D01*
X117906402Y-61946747D01*
X117926107Y-61932133D01*
X117947151Y-61919520D01*
X117969329Y-61909030D01*
X117992429Y-61900765D01*
X118016227Y-61894804D01*
X118040496Y-61891204D01*
X118065000Y-61890000D01*
X119265000Y-61890000D01*
X119289504Y-61891204D01*
X119289504Y-61891204D01*
G37*
D15*
G04 #@! TO.P,J1,1*
G04 #@! TO.N,GND*
X118665000Y-62865000D03*
G04 #@! TD*
D16*
G04 #@! TO.P,J2,1*
G04 #@! TO.N,GND*
X113030000Y-98552000D03*
D17*
G04 #@! TO.P,J2,2*
G04 #@! TO.N,+5V*
X115570000Y-98552000D03*
G04 #@! TO.P,J2,3*
G04 #@! TO.N,N/C*
X118110000Y-98552000D03*
G04 #@! TO.P,J2,4*
G04 #@! TO.N,Net-(IC1-Pad2)*
X120650000Y-98552000D03*
G04 #@! TO.P,J2,5*
G04 #@! TO.N,Net-(IC1-Pad3)*
X123190000Y-98552000D03*
G04 #@! TO.P,J2,6*
G04 #@! TO.N,Net-(C1-Pad2)*
X125730000Y-98552000D03*
G04 #@! TD*
D16*
G04 #@! TO.P,J3,1*
G04 #@! TO.N,+5V*
X161925000Y-69850000D03*
D17*
G04 #@! TO.P,J3,2*
G04 #@! TO.N,Net-(J3-Pad2)*
X161925000Y-72390000D03*
G04 #@! TO.P,J3,3*
G04 #@! TO.N,GND*
X161925000Y-74930000D03*
G04 #@! TO.P,J3,4*
G04 #@! TO.N,+5V*
X161925000Y-77470000D03*
G04 #@! TO.P,J3,5*
G04 #@! TO.N,Net-(J3-Pad5)*
X161925000Y-80010000D03*
G04 #@! TO.P,J3,6*
G04 #@! TO.N,GND*
X161925000Y-82550000D03*
G04 #@! TO.P,J3,7*
G04 #@! TO.N,+5V*
X161925000Y-85090000D03*
G04 #@! TO.P,J3,8*
G04 #@! TO.N,Net-(J3-Pad8)*
X161925000Y-87630000D03*
G04 #@! TO.P,J3,9*
G04 #@! TO.N,GND*
X161925000Y-90170000D03*
G04 #@! TD*
D12*
G04 #@! TO.N,GND*
G04 #@! TO.C,J4*
G36*
X130719504Y-61891204D02*
X130743773Y-61894804D01*
X130767571Y-61900765D01*
X130790671Y-61909030D01*
X130812849Y-61919520D01*
X130833893Y-61932133D01*
X130853598Y-61946747D01*
X130871777Y-61963223D01*
X130888253Y-61981402D01*
X130902867Y-62001107D01*
X130915480Y-62022151D01*
X130925970Y-62044329D01*
X130934235Y-62067429D01*
X130940196Y-62091227D01*
X130943796Y-62115496D01*
X130945000Y-62140000D01*
X130945000Y-63590000D01*
X130943796Y-63614504D01*
X130940196Y-63638773D01*
X130934235Y-63662571D01*
X130925970Y-63685671D01*
X130915480Y-63707849D01*
X130902867Y-63728893D01*
X130888253Y-63748598D01*
X130871777Y-63766777D01*
X130853598Y-63783253D01*
X130833893Y-63797867D01*
X130812849Y-63810480D01*
X130790671Y-63820970D01*
X130767571Y-63829235D01*
X130743773Y-63835196D01*
X130719504Y-63838796D01*
X130695000Y-63840000D01*
X129495000Y-63840000D01*
X129470496Y-63838796D01*
X129446227Y-63835196D01*
X129422429Y-63829235D01*
X129399329Y-63820970D01*
X129377151Y-63810480D01*
X129356107Y-63797867D01*
X129336402Y-63783253D01*
X129318223Y-63766777D01*
X129301747Y-63748598D01*
X129287133Y-63728893D01*
X129274520Y-63707849D01*
X129264030Y-63685671D01*
X129255765Y-63662571D01*
X129249804Y-63638773D01*
X129246204Y-63614504D01*
X129245000Y-63590000D01*
X129245000Y-62140000D01*
X129246204Y-62115496D01*
X129249804Y-62091227D01*
X129255765Y-62067429D01*
X129264030Y-62044329D01*
X129274520Y-62022151D01*
X129287133Y-62001107D01*
X129301747Y-61981402D01*
X129318223Y-61963223D01*
X129336402Y-61946747D01*
X129356107Y-61932133D01*
X129377151Y-61919520D01*
X129399329Y-61909030D01*
X129422429Y-61900765D01*
X129446227Y-61894804D01*
X129470496Y-61891204D01*
X129495000Y-61890000D01*
X130695000Y-61890000D01*
X130719504Y-61891204D01*
X130719504Y-61891204D01*
G37*
D15*
G04 #@! TD*
G04 #@! TO.P,J4,1*
G04 #@! TO.N,GND*
X130095000Y-62865000D03*
D14*
G04 #@! TO.P,J4,2*
G04 #@! TO.N,Net-(J4-Pad2)*
X127595000Y-62865000D03*
G04 #@! TO.P,J4,3*
G04 #@! TO.N,+5V*
X125095000Y-62865000D03*
G04 #@! TD*
D12*
G04 #@! TO.N,GND*
G04 #@! TO.C,J5*
G36*
X142149504Y-61891204D02*
X142173773Y-61894804D01*
X142197571Y-61900765D01*
X142220671Y-61909030D01*
X142242849Y-61919520D01*
X142263893Y-61932133D01*
X142283598Y-61946747D01*
X142301777Y-61963223D01*
X142318253Y-61981402D01*
X142332867Y-62001107D01*
X142345480Y-62022151D01*
X142355970Y-62044329D01*
X142364235Y-62067429D01*
X142370196Y-62091227D01*
X142373796Y-62115496D01*
X142375000Y-62140000D01*
X142375000Y-63590000D01*
X142373796Y-63614504D01*
X142370196Y-63638773D01*
X142364235Y-63662571D01*
X142355970Y-63685671D01*
X142345480Y-63707849D01*
X142332867Y-63728893D01*
X142318253Y-63748598D01*
X142301777Y-63766777D01*
X142283598Y-63783253D01*
X142263893Y-63797867D01*
X142242849Y-63810480D01*
X142220671Y-63820970D01*
X142197571Y-63829235D01*
X142173773Y-63835196D01*
X142149504Y-63838796D01*
X142125000Y-63840000D01*
X140925000Y-63840000D01*
X140900496Y-63838796D01*
X140876227Y-63835196D01*
X140852429Y-63829235D01*
X140829329Y-63820970D01*
X140807151Y-63810480D01*
X140786107Y-63797867D01*
X140766402Y-63783253D01*
X140748223Y-63766777D01*
X140731747Y-63748598D01*
X140717133Y-63728893D01*
X140704520Y-63707849D01*
X140694030Y-63685671D01*
X140685765Y-63662571D01*
X140679804Y-63638773D01*
X140676204Y-63614504D01*
X140675000Y-63590000D01*
X140675000Y-62140000D01*
X140676204Y-62115496D01*
X140679804Y-62091227D01*
X140685765Y-62067429D01*
X140694030Y-62044329D01*
X140704520Y-62022151D01*
X140717133Y-62001107D01*
X140731747Y-61981402D01*
X140748223Y-61963223D01*
X140766402Y-61946747D01*
X140786107Y-61932133D01*
X140807151Y-61919520D01*
X140829329Y-61909030D01*
X140852429Y-61900765D01*
X140876227Y-61894804D01*
X140900496Y-61891204D01*
X140925000Y-61890000D01*
X142125000Y-61890000D01*
X142149504Y-61891204D01*
X142149504Y-61891204D01*
G37*
D15*
G04 #@! TD*
G04 #@! TO.P,J5,1*
G04 #@! TO.N,GND*
X141525000Y-62865000D03*
D14*
G04 #@! TO.P,J5,2*
G04 #@! TO.N,Net-(J5-Pad2)*
X139025000Y-62865000D03*
G04 #@! TO.P,J5,3*
G04 #@! TO.N,+5V*
X136525000Y-62865000D03*
G04 #@! TD*
D16*
G04 #@! TO.P,J6,1*
G04 #@! TO.N,Net-(IC1-Pad27)*
X137160000Y-72136000D03*
D17*
G04 #@! TO.P,J6,2*
G04 #@! TO.N,Net-(IC1-Pad28)*
X139700000Y-72136000D03*
G04 #@! TO.P,J6,3*
G04 #@! TO.N,Net-(IC1-Pad18)*
X142240000Y-72136000D03*
G04 #@! TO.P,J6,4*
G04 #@! TO.N,Net-(IC1-Pad17)*
X144780000Y-72136000D03*
G04 #@! TO.P,J6,5*
G04 #@! TO.N,Net-(IC1-Pad19)*
X147320000Y-72136000D03*
G04 #@! TD*
D14*
G04 #@! TO.P,J7,3*
G04 #@! TO.N,+5V*
X147955000Y-62865000D03*
G04 #@! TO.P,J7,2*
G04 #@! TO.N,Net-(J7-Pad2)*
X150455000Y-62865000D03*
D12*
G04 #@! TD*
G04 #@! TO.N,GND*
G04 #@! TO.C,J7*
G36*
X153579504Y-61891204D02*
X153603773Y-61894804D01*
X153627571Y-61900765D01*
X153650671Y-61909030D01*
X153672849Y-61919520D01*
X153693893Y-61932133D01*
X153713598Y-61946747D01*
X153731777Y-61963223D01*
X153748253Y-61981402D01*
X153762867Y-62001107D01*
X153775480Y-62022151D01*
X153785970Y-62044329D01*
X153794235Y-62067429D01*
X153800196Y-62091227D01*
X153803796Y-62115496D01*
X153805000Y-62140000D01*
X153805000Y-63590000D01*
X153803796Y-63614504D01*
X153800196Y-63638773D01*
X153794235Y-63662571D01*
X153785970Y-63685671D01*
X153775480Y-63707849D01*
X153762867Y-63728893D01*
X153748253Y-63748598D01*
X153731777Y-63766777D01*
X153713598Y-63783253D01*
X153693893Y-63797867D01*
X153672849Y-63810480D01*
X153650671Y-63820970D01*
X153627571Y-63829235D01*
X153603773Y-63835196D01*
X153579504Y-63838796D01*
X153555000Y-63840000D01*
X152355000Y-63840000D01*
X152330496Y-63838796D01*
X152306227Y-63835196D01*
X152282429Y-63829235D01*
X152259329Y-63820970D01*
X152237151Y-63810480D01*
X152216107Y-63797867D01*
X152196402Y-63783253D01*
X152178223Y-63766777D01*
X152161747Y-63748598D01*
X152147133Y-63728893D01*
X152134520Y-63707849D01*
X152124030Y-63685671D01*
X152115765Y-63662571D01*
X152109804Y-63638773D01*
X152106204Y-63614504D01*
X152105000Y-63590000D01*
X152105000Y-62140000D01*
X152106204Y-62115496D01*
X152109804Y-62091227D01*
X152115765Y-62067429D01*
X152124030Y-62044329D01*
X152134520Y-62022151D01*
X152147133Y-62001107D01*
X152161747Y-61981402D01*
X152178223Y-61963223D01*
X152196402Y-61946747D01*
X152216107Y-61932133D01*
X152237151Y-61919520D01*
X152259329Y-61909030D01*
X152282429Y-61900765D01*
X152306227Y-61894804D01*
X152330496Y-61891204D01*
X152355000Y-61890000D01*
X153555000Y-61890000D01*
X153579504Y-61891204D01*
X153579504Y-61891204D01*
G37*
D15*
G04 #@! TO.P,J7,1*
G04 #@! TO.N,GND*
X152955000Y-62865000D03*
G04 #@! TD*
D12*
G04 #@! TO.N,/AIO_0*
G04 #@! TO.C,R1*
G36*
X157445142Y-71691174D02*
X157468803Y-71694684D01*
X157492007Y-71700496D01*
X157514529Y-71708554D01*
X157536153Y-71718782D01*
X157556670Y-71731079D01*
X157575883Y-71745329D01*
X157593607Y-71761393D01*
X157609671Y-71779117D01*
X157623921Y-71798330D01*
X157636218Y-71818847D01*
X157646446Y-71840471D01*
X157654504Y-71862993D01*
X157660316Y-71886197D01*
X157663826Y-71909858D01*
X157665000Y-71933750D01*
X157665000Y-72846250D01*
X157663826Y-72870142D01*
X157660316Y-72893803D01*
X157654504Y-72917007D01*
X157646446Y-72939529D01*
X157636218Y-72961153D01*
X157623921Y-72981670D01*
X157609671Y-73000883D01*
X157593607Y-73018607D01*
X157575883Y-73034671D01*
X157556670Y-73048921D01*
X157536153Y-73061218D01*
X157514529Y-73071446D01*
X157492007Y-73079504D01*
X157468803Y-73085316D01*
X157445142Y-73088826D01*
X157421250Y-73090000D01*
X156933750Y-73090000D01*
X156909858Y-73088826D01*
X156886197Y-73085316D01*
X156862993Y-73079504D01*
X156840471Y-73071446D01*
X156818847Y-73061218D01*
X156798330Y-73048921D01*
X156779117Y-73034671D01*
X156761393Y-73018607D01*
X156745329Y-73000883D01*
X156731079Y-72981670D01*
X156718782Y-72961153D01*
X156708554Y-72939529D01*
X156700496Y-72917007D01*
X156694684Y-72893803D01*
X156691174Y-72870142D01*
X156690000Y-72846250D01*
X156690000Y-71933750D01*
X156691174Y-71909858D01*
X156694684Y-71886197D01*
X156700496Y-71862993D01*
X156708554Y-71840471D01*
X156718782Y-71818847D01*
X156731079Y-71798330D01*
X156745329Y-71779117D01*
X156761393Y-71761393D01*
X156779117Y-71745329D01*
X156798330Y-71731079D01*
X156818847Y-71718782D01*
X156840471Y-71708554D01*
X156862993Y-71700496D01*
X156886197Y-71694684D01*
X156909858Y-71691174D01*
X156933750Y-71690000D01*
X157421250Y-71690000D01*
X157445142Y-71691174D01*
X157445142Y-71691174D01*
G37*
D18*
G04 #@! TD*
G04 #@! TO.P,R1,2*
G04 #@! TO.N,/AIO_0*
X157177500Y-72390000D03*
D12*
G04 #@! TO.N,Net-(J3-Pad2)*
G04 #@! TO.C,R1*
G36*
X159320142Y-71691174D02*
X159343803Y-71694684D01*
X159367007Y-71700496D01*
X159389529Y-71708554D01*
X159411153Y-71718782D01*
X159431670Y-71731079D01*
X159450883Y-71745329D01*
X159468607Y-71761393D01*
X159484671Y-71779117D01*
X159498921Y-71798330D01*
X159511218Y-71818847D01*
X159521446Y-71840471D01*
X159529504Y-71862993D01*
X159535316Y-71886197D01*
X159538826Y-71909858D01*
X159540000Y-71933750D01*
X159540000Y-72846250D01*
X159538826Y-72870142D01*
X159535316Y-72893803D01*
X159529504Y-72917007D01*
X159521446Y-72939529D01*
X159511218Y-72961153D01*
X159498921Y-72981670D01*
X159484671Y-73000883D01*
X159468607Y-73018607D01*
X159450883Y-73034671D01*
X159431670Y-73048921D01*
X159411153Y-73061218D01*
X159389529Y-73071446D01*
X159367007Y-73079504D01*
X159343803Y-73085316D01*
X159320142Y-73088826D01*
X159296250Y-73090000D01*
X158808750Y-73090000D01*
X158784858Y-73088826D01*
X158761197Y-73085316D01*
X158737993Y-73079504D01*
X158715471Y-73071446D01*
X158693847Y-73061218D01*
X158673330Y-73048921D01*
X158654117Y-73034671D01*
X158636393Y-73018607D01*
X158620329Y-73000883D01*
X158606079Y-72981670D01*
X158593782Y-72961153D01*
X158583554Y-72939529D01*
X158575496Y-72917007D01*
X158569684Y-72893803D01*
X158566174Y-72870142D01*
X158565000Y-72846250D01*
X158565000Y-71933750D01*
X158566174Y-71909858D01*
X158569684Y-71886197D01*
X158575496Y-71862993D01*
X158583554Y-71840471D01*
X158593782Y-71818847D01*
X158606079Y-71798330D01*
X158620329Y-71779117D01*
X158636393Y-71761393D01*
X158654117Y-71745329D01*
X158673330Y-71731079D01*
X158693847Y-71718782D01*
X158715471Y-71708554D01*
X158737993Y-71700496D01*
X158761197Y-71694684D01*
X158784858Y-71691174D01*
X158808750Y-71690000D01*
X159296250Y-71690000D01*
X159320142Y-71691174D01*
X159320142Y-71691174D01*
G37*
D18*
G04 #@! TD*
G04 #@! TO.P,R1,1*
G04 #@! TO.N,Net-(J3-Pad2)*
X159052500Y-72390000D03*
D12*
G04 #@! TO.N,/GPIO_2*
G04 #@! TO.C,R2*
G36*
X118347642Y-67246174D02*
X118371303Y-67249684D01*
X118394507Y-67255496D01*
X118417029Y-67263554D01*
X118438653Y-67273782D01*
X118459170Y-67286079D01*
X118478383Y-67300329D01*
X118496107Y-67316393D01*
X118512171Y-67334117D01*
X118526421Y-67353330D01*
X118538718Y-67373847D01*
X118548946Y-67395471D01*
X118557004Y-67417993D01*
X118562816Y-67441197D01*
X118566326Y-67464858D01*
X118567500Y-67488750D01*
X118567500Y-68401250D01*
X118566326Y-68425142D01*
X118562816Y-68448803D01*
X118557004Y-68472007D01*
X118548946Y-68494529D01*
X118538718Y-68516153D01*
X118526421Y-68536670D01*
X118512171Y-68555883D01*
X118496107Y-68573607D01*
X118478383Y-68589671D01*
X118459170Y-68603921D01*
X118438653Y-68616218D01*
X118417029Y-68626446D01*
X118394507Y-68634504D01*
X118371303Y-68640316D01*
X118347642Y-68643826D01*
X118323750Y-68645000D01*
X117836250Y-68645000D01*
X117812358Y-68643826D01*
X117788697Y-68640316D01*
X117765493Y-68634504D01*
X117742971Y-68626446D01*
X117721347Y-68616218D01*
X117700830Y-68603921D01*
X117681617Y-68589671D01*
X117663893Y-68573607D01*
X117647829Y-68555883D01*
X117633579Y-68536670D01*
X117621282Y-68516153D01*
X117611054Y-68494529D01*
X117602996Y-68472007D01*
X117597184Y-68448803D01*
X117593674Y-68425142D01*
X117592500Y-68401250D01*
X117592500Y-67488750D01*
X117593674Y-67464858D01*
X117597184Y-67441197D01*
X117602996Y-67417993D01*
X117611054Y-67395471D01*
X117621282Y-67373847D01*
X117633579Y-67353330D01*
X117647829Y-67334117D01*
X117663893Y-67316393D01*
X117681617Y-67300329D01*
X117700830Y-67286079D01*
X117721347Y-67273782D01*
X117742971Y-67263554D01*
X117765493Y-67255496D01*
X117788697Y-67249684D01*
X117812358Y-67246174D01*
X117836250Y-67245000D01*
X118323750Y-67245000D01*
X118347642Y-67246174D01*
X118347642Y-67246174D01*
G37*
D18*
G04 #@! TD*
G04 #@! TO.P,R2,2*
G04 #@! TO.N,/GPIO_2*
X118080000Y-67945000D03*
D12*
G04 #@! TO.N,Net-(J1-Pad2)*
G04 #@! TO.C,R2*
G36*
X116472642Y-67246174D02*
X116496303Y-67249684D01*
X116519507Y-67255496D01*
X116542029Y-67263554D01*
X116563653Y-67273782D01*
X116584170Y-67286079D01*
X116603383Y-67300329D01*
X116621107Y-67316393D01*
X116637171Y-67334117D01*
X116651421Y-67353330D01*
X116663718Y-67373847D01*
X116673946Y-67395471D01*
X116682004Y-67417993D01*
X116687816Y-67441197D01*
X116691326Y-67464858D01*
X116692500Y-67488750D01*
X116692500Y-68401250D01*
X116691326Y-68425142D01*
X116687816Y-68448803D01*
X116682004Y-68472007D01*
X116673946Y-68494529D01*
X116663718Y-68516153D01*
X116651421Y-68536670D01*
X116637171Y-68555883D01*
X116621107Y-68573607D01*
X116603383Y-68589671D01*
X116584170Y-68603921D01*
X116563653Y-68616218D01*
X116542029Y-68626446D01*
X116519507Y-68634504D01*
X116496303Y-68640316D01*
X116472642Y-68643826D01*
X116448750Y-68645000D01*
X115961250Y-68645000D01*
X115937358Y-68643826D01*
X115913697Y-68640316D01*
X115890493Y-68634504D01*
X115867971Y-68626446D01*
X115846347Y-68616218D01*
X115825830Y-68603921D01*
X115806617Y-68589671D01*
X115788893Y-68573607D01*
X115772829Y-68555883D01*
X115758579Y-68536670D01*
X115746282Y-68516153D01*
X115736054Y-68494529D01*
X115727996Y-68472007D01*
X115722184Y-68448803D01*
X115718674Y-68425142D01*
X115717500Y-68401250D01*
X115717500Y-67488750D01*
X115718674Y-67464858D01*
X115722184Y-67441197D01*
X115727996Y-67417993D01*
X115736054Y-67395471D01*
X115746282Y-67373847D01*
X115758579Y-67353330D01*
X115772829Y-67334117D01*
X115788893Y-67316393D01*
X115806617Y-67300329D01*
X115825830Y-67286079D01*
X115846347Y-67273782D01*
X115867971Y-67263554D01*
X115890493Y-67255496D01*
X115913697Y-67249684D01*
X115937358Y-67246174D01*
X115961250Y-67245000D01*
X116448750Y-67245000D01*
X116472642Y-67246174D01*
X116472642Y-67246174D01*
G37*
D18*
G04 #@! TD*
G04 #@! TO.P,R2,1*
G04 #@! TO.N,Net-(J1-Pad2)*
X116205000Y-67945000D03*
D12*
G04 #@! TO.N,Net-(J3-Pad5)*
G04 #@! TO.C,R4*
G36*
X159320142Y-79311174D02*
X159343803Y-79314684D01*
X159367007Y-79320496D01*
X159389529Y-79328554D01*
X159411153Y-79338782D01*
X159431670Y-79351079D01*
X159450883Y-79365329D01*
X159468607Y-79381393D01*
X159484671Y-79399117D01*
X159498921Y-79418330D01*
X159511218Y-79438847D01*
X159521446Y-79460471D01*
X159529504Y-79482993D01*
X159535316Y-79506197D01*
X159538826Y-79529858D01*
X159540000Y-79553750D01*
X159540000Y-80466250D01*
X159538826Y-80490142D01*
X159535316Y-80513803D01*
X159529504Y-80537007D01*
X159521446Y-80559529D01*
X159511218Y-80581153D01*
X159498921Y-80601670D01*
X159484671Y-80620883D01*
X159468607Y-80638607D01*
X159450883Y-80654671D01*
X159431670Y-80668921D01*
X159411153Y-80681218D01*
X159389529Y-80691446D01*
X159367007Y-80699504D01*
X159343803Y-80705316D01*
X159320142Y-80708826D01*
X159296250Y-80710000D01*
X158808750Y-80710000D01*
X158784858Y-80708826D01*
X158761197Y-80705316D01*
X158737993Y-80699504D01*
X158715471Y-80691446D01*
X158693847Y-80681218D01*
X158673330Y-80668921D01*
X158654117Y-80654671D01*
X158636393Y-80638607D01*
X158620329Y-80620883D01*
X158606079Y-80601670D01*
X158593782Y-80581153D01*
X158583554Y-80559529D01*
X158575496Y-80537007D01*
X158569684Y-80513803D01*
X158566174Y-80490142D01*
X158565000Y-80466250D01*
X158565000Y-79553750D01*
X158566174Y-79529858D01*
X158569684Y-79506197D01*
X158575496Y-79482993D01*
X158583554Y-79460471D01*
X158593782Y-79438847D01*
X158606079Y-79418330D01*
X158620329Y-79399117D01*
X158636393Y-79381393D01*
X158654117Y-79365329D01*
X158673330Y-79351079D01*
X158693847Y-79338782D01*
X158715471Y-79328554D01*
X158737993Y-79320496D01*
X158761197Y-79314684D01*
X158784858Y-79311174D01*
X158808750Y-79310000D01*
X159296250Y-79310000D01*
X159320142Y-79311174D01*
X159320142Y-79311174D01*
G37*
D18*
G04 #@! TD*
G04 #@! TO.P,R4,1*
G04 #@! TO.N,Net-(J3-Pad5)*
X159052500Y-80010000D03*
D12*
G04 #@! TO.N,/AIO_1*
G04 #@! TO.C,R4*
G36*
X157445142Y-79311174D02*
X157468803Y-79314684D01*
X157492007Y-79320496D01*
X157514529Y-79328554D01*
X157536153Y-79338782D01*
X157556670Y-79351079D01*
X157575883Y-79365329D01*
X157593607Y-79381393D01*
X157609671Y-79399117D01*
X157623921Y-79418330D01*
X157636218Y-79438847D01*
X157646446Y-79460471D01*
X157654504Y-79482993D01*
X157660316Y-79506197D01*
X157663826Y-79529858D01*
X157665000Y-79553750D01*
X157665000Y-80466250D01*
X157663826Y-80490142D01*
X157660316Y-80513803D01*
X157654504Y-80537007D01*
X157646446Y-80559529D01*
X157636218Y-80581153D01*
X157623921Y-80601670D01*
X157609671Y-80620883D01*
X157593607Y-80638607D01*
X157575883Y-80654671D01*
X157556670Y-80668921D01*
X157536153Y-80681218D01*
X157514529Y-80691446D01*
X157492007Y-80699504D01*
X157468803Y-80705316D01*
X157445142Y-80708826D01*
X157421250Y-80710000D01*
X156933750Y-80710000D01*
X156909858Y-80708826D01*
X156886197Y-80705316D01*
X156862993Y-80699504D01*
X156840471Y-80691446D01*
X156818847Y-80681218D01*
X156798330Y-80668921D01*
X156779117Y-80654671D01*
X156761393Y-80638607D01*
X156745329Y-80620883D01*
X156731079Y-80601670D01*
X156718782Y-80581153D01*
X156708554Y-80559529D01*
X156700496Y-80537007D01*
X156694684Y-80513803D01*
X156691174Y-80490142D01*
X156690000Y-80466250D01*
X156690000Y-79553750D01*
X156691174Y-79529858D01*
X156694684Y-79506197D01*
X156700496Y-79482993D01*
X156708554Y-79460471D01*
X156718782Y-79438847D01*
X156731079Y-79418330D01*
X156745329Y-79399117D01*
X156761393Y-79381393D01*
X156779117Y-79365329D01*
X156798330Y-79351079D01*
X156818847Y-79338782D01*
X156840471Y-79328554D01*
X156862993Y-79320496D01*
X156886197Y-79314684D01*
X156909858Y-79311174D01*
X156933750Y-79310000D01*
X157421250Y-79310000D01*
X157445142Y-79311174D01*
X157445142Y-79311174D01*
G37*
D18*
G04 #@! TD*
G04 #@! TO.P,R4,2*
G04 #@! TO.N,/AIO_1*
X157177500Y-80010000D03*
D12*
G04 #@! TO.N,/GPIO_3*
G04 #@! TO.C,R5*
G36*
X129777642Y-67246174D02*
X129801303Y-67249684D01*
X129824507Y-67255496D01*
X129847029Y-67263554D01*
X129868653Y-67273782D01*
X129889170Y-67286079D01*
X129908383Y-67300329D01*
X129926107Y-67316393D01*
X129942171Y-67334117D01*
X129956421Y-67353330D01*
X129968718Y-67373847D01*
X129978946Y-67395471D01*
X129987004Y-67417993D01*
X129992816Y-67441197D01*
X129996326Y-67464858D01*
X129997500Y-67488750D01*
X129997500Y-68401250D01*
X129996326Y-68425142D01*
X129992816Y-68448803D01*
X129987004Y-68472007D01*
X129978946Y-68494529D01*
X129968718Y-68516153D01*
X129956421Y-68536670D01*
X129942171Y-68555883D01*
X129926107Y-68573607D01*
X129908383Y-68589671D01*
X129889170Y-68603921D01*
X129868653Y-68616218D01*
X129847029Y-68626446D01*
X129824507Y-68634504D01*
X129801303Y-68640316D01*
X129777642Y-68643826D01*
X129753750Y-68645000D01*
X129266250Y-68645000D01*
X129242358Y-68643826D01*
X129218697Y-68640316D01*
X129195493Y-68634504D01*
X129172971Y-68626446D01*
X129151347Y-68616218D01*
X129130830Y-68603921D01*
X129111617Y-68589671D01*
X129093893Y-68573607D01*
X129077829Y-68555883D01*
X129063579Y-68536670D01*
X129051282Y-68516153D01*
X129041054Y-68494529D01*
X129032996Y-68472007D01*
X129027184Y-68448803D01*
X129023674Y-68425142D01*
X129022500Y-68401250D01*
X129022500Y-67488750D01*
X129023674Y-67464858D01*
X129027184Y-67441197D01*
X129032996Y-67417993D01*
X129041054Y-67395471D01*
X129051282Y-67373847D01*
X129063579Y-67353330D01*
X129077829Y-67334117D01*
X129093893Y-67316393D01*
X129111617Y-67300329D01*
X129130830Y-67286079D01*
X129151347Y-67273782D01*
X129172971Y-67263554D01*
X129195493Y-67255496D01*
X129218697Y-67249684D01*
X129242358Y-67246174D01*
X129266250Y-67245000D01*
X129753750Y-67245000D01*
X129777642Y-67246174D01*
X129777642Y-67246174D01*
G37*
D18*
G04 #@! TD*
G04 #@! TO.P,R5,2*
G04 #@! TO.N,/GPIO_3*
X129510000Y-67945000D03*
D12*
G04 #@! TO.N,Net-(J4-Pad2)*
G04 #@! TO.C,R5*
G36*
X127902642Y-67246174D02*
X127926303Y-67249684D01*
X127949507Y-67255496D01*
X127972029Y-67263554D01*
X127993653Y-67273782D01*
X128014170Y-67286079D01*
X128033383Y-67300329D01*
X128051107Y-67316393D01*
X128067171Y-67334117D01*
X128081421Y-67353330D01*
X128093718Y-67373847D01*
X128103946Y-67395471D01*
X128112004Y-67417993D01*
X128117816Y-67441197D01*
X128121326Y-67464858D01*
X128122500Y-67488750D01*
X128122500Y-68401250D01*
X128121326Y-68425142D01*
X128117816Y-68448803D01*
X128112004Y-68472007D01*
X128103946Y-68494529D01*
X128093718Y-68516153D01*
X128081421Y-68536670D01*
X128067171Y-68555883D01*
X128051107Y-68573607D01*
X128033383Y-68589671D01*
X128014170Y-68603921D01*
X127993653Y-68616218D01*
X127972029Y-68626446D01*
X127949507Y-68634504D01*
X127926303Y-68640316D01*
X127902642Y-68643826D01*
X127878750Y-68645000D01*
X127391250Y-68645000D01*
X127367358Y-68643826D01*
X127343697Y-68640316D01*
X127320493Y-68634504D01*
X127297971Y-68626446D01*
X127276347Y-68616218D01*
X127255830Y-68603921D01*
X127236617Y-68589671D01*
X127218893Y-68573607D01*
X127202829Y-68555883D01*
X127188579Y-68536670D01*
X127176282Y-68516153D01*
X127166054Y-68494529D01*
X127157996Y-68472007D01*
X127152184Y-68448803D01*
X127148674Y-68425142D01*
X127147500Y-68401250D01*
X127147500Y-67488750D01*
X127148674Y-67464858D01*
X127152184Y-67441197D01*
X127157996Y-67417993D01*
X127166054Y-67395471D01*
X127176282Y-67373847D01*
X127188579Y-67353330D01*
X127202829Y-67334117D01*
X127218893Y-67316393D01*
X127236617Y-67300329D01*
X127255830Y-67286079D01*
X127276347Y-67273782D01*
X127297971Y-67263554D01*
X127320493Y-67255496D01*
X127343697Y-67249684D01*
X127367358Y-67246174D01*
X127391250Y-67245000D01*
X127878750Y-67245000D01*
X127902642Y-67246174D01*
X127902642Y-67246174D01*
G37*
D18*
G04 #@! TD*
G04 #@! TO.P,R5,1*
G04 #@! TO.N,Net-(J4-Pad2)*
X127635000Y-67945000D03*
D12*
G04 #@! TO.N,/AIO_2*
G04 #@! TO.C,R6*
G36*
X157445142Y-86931174D02*
X157468803Y-86934684D01*
X157492007Y-86940496D01*
X157514529Y-86948554D01*
X157536153Y-86958782D01*
X157556670Y-86971079D01*
X157575883Y-86985329D01*
X157593607Y-87001393D01*
X157609671Y-87019117D01*
X157623921Y-87038330D01*
X157636218Y-87058847D01*
X157646446Y-87080471D01*
X157654504Y-87102993D01*
X157660316Y-87126197D01*
X157663826Y-87149858D01*
X157665000Y-87173750D01*
X157665000Y-88086250D01*
X157663826Y-88110142D01*
X157660316Y-88133803D01*
X157654504Y-88157007D01*
X157646446Y-88179529D01*
X157636218Y-88201153D01*
X157623921Y-88221670D01*
X157609671Y-88240883D01*
X157593607Y-88258607D01*
X157575883Y-88274671D01*
X157556670Y-88288921D01*
X157536153Y-88301218D01*
X157514529Y-88311446D01*
X157492007Y-88319504D01*
X157468803Y-88325316D01*
X157445142Y-88328826D01*
X157421250Y-88330000D01*
X156933750Y-88330000D01*
X156909858Y-88328826D01*
X156886197Y-88325316D01*
X156862993Y-88319504D01*
X156840471Y-88311446D01*
X156818847Y-88301218D01*
X156798330Y-88288921D01*
X156779117Y-88274671D01*
X156761393Y-88258607D01*
X156745329Y-88240883D01*
X156731079Y-88221670D01*
X156718782Y-88201153D01*
X156708554Y-88179529D01*
X156700496Y-88157007D01*
X156694684Y-88133803D01*
X156691174Y-88110142D01*
X156690000Y-88086250D01*
X156690000Y-87173750D01*
X156691174Y-87149858D01*
X156694684Y-87126197D01*
X156700496Y-87102993D01*
X156708554Y-87080471D01*
X156718782Y-87058847D01*
X156731079Y-87038330D01*
X156745329Y-87019117D01*
X156761393Y-87001393D01*
X156779117Y-86985329D01*
X156798330Y-86971079D01*
X156818847Y-86958782D01*
X156840471Y-86948554D01*
X156862993Y-86940496D01*
X156886197Y-86934684D01*
X156909858Y-86931174D01*
X156933750Y-86930000D01*
X157421250Y-86930000D01*
X157445142Y-86931174D01*
X157445142Y-86931174D01*
G37*
D18*
G04 #@! TD*
G04 #@! TO.P,R6,2*
G04 #@! TO.N,/AIO_2*
X157177500Y-87630000D03*
D12*
G04 #@! TO.N,Net-(J3-Pad8)*
G04 #@! TO.C,R6*
G36*
X159320142Y-86931174D02*
X159343803Y-86934684D01*
X159367007Y-86940496D01*
X159389529Y-86948554D01*
X159411153Y-86958782D01*
X159431670Y-86971079D01*
X159450883Y-86985329D01*
X159468607Y-87001393D01*
X159484671Y-87019117D01*
X159498921Y-87038330D01*
X159511218Y-87058847D01*
X159521446Y-87080471D01*
X159529504Y-87102993D01*
X159535316Y-87126197D01*
X159538826Y-87149858D01*
X159540000Y-87173750D01*
X159540000Y-88086250D01*
X159538826Y-88110142D01*
X159535316Y-88133803D01*
X159529504Y-88157007D01*
X159521446Y-88179529D01*
X159511218Y-88201153D01*
X159498921Y-88221670D01*
X159484671Y-88240883D01*
X159468607Y-88258607D01*
X159450883Y-88274671D01*
X159431670Y-88288921D01*
X159411153Y-88301218D01*
X159389529Y-88311446D01*
X159367007Y-88319504D01*
X159343803Y-88325316D01*
X159320142Y-88328826D01*
X159296250Y-88330000D01*
X158808750Y-88330000D01*
X158784858Y-88328826D01*
X158761197Y-88325316D01*
X158737993Y-88319504D01*
X158715471Y-88311446D01*
X158693847Y-88301218D01*
X158673330Y-88288921D01*
X158654117Y-88274671D01*
X158636393Y-88258607D01*
X158620329Y-88240883D01*
X158606079Y-88221670D01*
X158593782Y-88201153D01*
X158583554Y-88179529D01*
X158575496Y-88157007D01*
X158569684Y-88133803D01*
X158566174Y-88110142D01*
X158565000Y-88086250D01*
X158565000Y-87173750D01*
X158566174Y-87149858D01*
X158569684Y-87126197D01*
X158575496Y-87102993D01*
X158583554Y-87080471D01*
X158593782Y-87058847D01*
X158606079Y-87038330D01*
X158620329Y-87019117D01*
X158636393Y-87001393D01*
X158654117Y-86985329D01*
X158673330Y-86971079D01*
X158693847Y-86958782D01*
X158715471Y-86948554D01*
X158737993Y-86940496D01*
X158761197Y-86934684D01*
X158784858Y-86931174D01*
X158808750Y-86930000D01*
X159296250Y-86930000D01*
X159320142Y-86931174D01*
X159320142Y-86931174D01*
G37*
D18*
G04 #@! TD*
G04 #@! TO.P,R6,1*
G04 #@! TO.N,Net-(J3-Pad8)*
X159052500Y-87630000D03*
D12*
G04 #@! TO.N,/GPIO_4*
G04 #@! TO.C,R7*
G36*
X141207642Y-67246174D02*
X141231303Y-67249684D01*
X141254507Y-67255496D01*
X141277029Y-67263554D01*
X141298653Y-67273782D01*
X141319170Y-67286079D01*
X141338383Y-67300329D01*
X141356107Y-67316393D01*
X141372171Y-67334117D01*
X141386421Y-67353330D01*
X141398718Y-67373847D01*
X141408946Y-67395471D01*
X141417004Y-67417993D01*
X141422816Y-67441197D01*
X141426326Y-67464858D01*
X141427500Y-67488750D01*
X141427500Y-68401250D01*
X141426326Y-68425142D01*
X141422816Y-68448803D01*
X141417004Y-68472007D01*
X141408946Y-68494529D01*
X141398718Y-68516153D01*
X141386421Y-68536670D01*
X141372171Y-68555883D01*
X141356107Y-68573607D01*
X141338383Y-68589671D01*
X141319170Y-68603921D01*
X141298653Y-68616218D01*
X141277029Y-68626446D01*
X141254507Y-68634504D01*
X141231303Y-68640316D01*
X141207642Y-68643826D01*
X141183750Y-68645000D01*
X140696250Y-68645000D01*
X140672358Y-68643826D01*
X140648697Y-68640316D01*
X140625493Y-68634504D01*
X140602971Y-68626446D01*
X140581347Y-68616218D01*
X140560830Y-68603921D01*
X140541617Y-68589671D01*
X140523893Y-68573607D01*
X140507829Y-68555883D01*
X140493579Y-68536670D01*
X140481282Y-68516153D01*
X140471054Y-68494529D01*
X140462996Y-68472007D01*
X140457184Y-68448803D01*
X140453674Y-68425142D01*
X140452500Y-68401250D01*
X140452500Y-67488750D01*
X140453674Y-67464858D01*
X140457184Y-67441197D01*
X140462996Y-67417993D01*
X140471054Y-67395471D01*
X140481282Y-67373847D01*
X140493579Y-67353330D01*
X140507829Y-67334117D01*
X140523893Y-67316393D01*
X140541617Y-67300329D01*
X140560830Y-67286079D01*
X140581347Y-67273782D01*
X140602971Y-67263554D01*
X140625493Y-67255496D01*
X140648697Y-67249684D01*
X140672358Y-67246174D01*
X140696250Y-67245000D01*
X141183750Y-67245000D01*
X141207642Y-67246174D01*
X141207642Y-67246174D01*
G37*
D18*
G04 #@! TD*
G04 #@! TO.P,R7,2*
G04 #@! TO.N,/GPIO_4*
X140940000Y-67945000D03*
D12*
G04 #@! TO.N,Net-(J5-Pad2)*
G04 #@! TO.C,R7*
G36*
X139332642Y-67246174D02*
X139356303Y-67249684D01*
X139379507Y-67255496D01*
X139402029Y-67263554D01*
X139423653Y-67273782D01*
X139444170Y-67286079D01*
X139463383Y-67300329D01*
X139481107Y-67316393D01*
X139497171Y-67334117D01*
X139511421Y-67353330D01*
X139523718Y-67373847D01*
X139533946Y-67395471D01*
X139542004Y-67417993D01*
X139547816Y-67441197D01*
X139551326Y-67464858D01*
X139552500Y-67488750D01*
X139552500Y-68401250D01*
X139551326Y-68425142D01*
X139547816Y-68448803D01*
X139542004Y-68472007D01*
X139533946Y-68494529D01*
X139523718Y-68516153D01*
X139511421Y-68536670D01*
X139497171Y-68555883D01*
X139481107Y-68573607D01*
X139463383Y-68589671D01*
X139444170Y-68603921D01*
X139423653Y-68616218D01*
X139402029Y-68626446D01*
X139379507Y-68634504D01*
X139356303Y-68640316D01*
X139332642Y-68643826D01*
X139308750Y-68645000D01*
X138821250Y-68645000D01*
X138797358Y-68643826D01*
X138773697Y-68640316D01*
X138750493Y-68634504D01*
X138727971Y-68626446D01*
X138706347Y-68616218D01*
X138685830Y-68603921D01*
X138666617Y-68589671D01*
X138648893Y-68573607D01*
X138632829Y-68555883D01*
X138618579Y-68536670D01*
X138606282Y-68516153D01*
X138596054Y-68494529D01*
X138587996Y-68472007D01*
X138582184Y-68448803D01*
X138578674Y-68425142D01*
X138577500Y-68401250D01*
X138577500Y-67488750D01*
X138578674Y-67464858D01*
X138582184Y-67441197D01*
X138587996Y-67417993D01*
X138596054Y-67395471D01*
X138606282Y-67373847D01*
X138618579Y-67353330D01*
X138632829Y-67334117D01*
X138648893Y-67316393D01*
X138666617Y-67300329D01*
X138685830Y-67286079D01*
X138706347Y-67273782D01*
X138727971Y-67263554D01*
X138750493Y-67255496D01*
X138773697Y-67249684D01*
X138797358Y-67246174D01*
X138821250Y-67245000D01*
X139308750Y-67245000D01*
X139332642Y-67246174D01*
X139332642Y-67246174D01*
G37*
D18*
G04 #@! TD*
G04 #@! TO.P,R7,1*
G04 #@! TO.N,Net-(J5-Pad2)*
X139065000Y-67945000D03*
D12*
G04 #@! TO.N,Net-(J7-Pad2)*
G04 #@! TO.C,R8*
G36*
X150762642Y-67246174D02*
X150786303Y-67249684D01*
X150809507Y-67255496D01*
X150832029Y-67263554D01*
X150853653Y-67273782D01*
X150874170Y-67286079D01*
X150893383Y-67300329D01*
X150911107Y-67316393D01*
X150927171Y-67334117D01*
X150941421Y-67353330D01*
X150953718Y-67373847D01*
X150963946Y-67395471D01*
X150972004Y-67417993D01*
X150977816Y-67441197D01*
X150981326Y-67464858D01*
X150982500Y-67488750D01*
X150982500Y-68401250D01*
X150981326Y-68425142D01*
X150977816Y-68448803D01*
X150972004Y-68472007D01*
X150963946Y-68494529D01*
X150953718Y-68516153D01*
X150941421Y-68536670D01*
X150927171Y-68555883D01*
X150911107Y-68573607D01*
X150893383Y-68589671D01*
X150874170Y-68603921D01*
X150853653Y-68616218D01*
X150832029Y-68626446D01*
X150809507Y-68634504D01*
X150786303Y-68640316D01*
X150762642Y-68643826D01*
X150738750Y-68645000D01*
X150251250Y-68645000D01*
X150227358Y-68643826D01*
X150203697Y-68640316D01*
X150180493Y-68634504D01*
X150157971Y-68626446D01*
X150136347Y-68616218D01*
X150115830Y-68603921D01*
X150096617Y-68589671D01*
X150078893Y-68573607D01*
X150062829Y-68555883D01*
X150048579Y-68536670D01*
X150036282Y-68516153D01*
X150026054Y-68494529D01*
X150017996Y-68472007D01*
X150012184Y-68448803D01*
X150008674Y-68425142D01*
X150007500Y-68401250D01*
X150007500Y-67488750D01*
X150008674Y-67464858D01*
X150012184Y-67441197D01*
X150017996Y-67417993D01*
X150026054Y-67395471D01*
X150036282Y-67373847D01*
X150048579Y-67353330D01*
X150062829Y-67334117D01*
X150078893Y-67316393D01*
X150096617Y-67300329D01*
X150115830Y-67286079D01*
X150136347Y-67273782D01*
X150157971Y-67263554D01*
X150180493Y-67255496D01*
X150203697Y-67249684D01*
X150227358Y-67246174D01*
X150251250Y-67245000D01*
X150738750Y-67245000D01*
X150762642Y-67246174D01*
X150762642Y-67246174D01*
G37*
D18*
G04 #@! TD*
G04 #@! TO.P,R8,1*
G04 #@! TO.N,Net-(J7-Pad2)*
X150495000Y-67945000D03*
D12*
G04 #@! TO.N,/GPIO_5*
G04 #@! TO.C,R8*
G36*
X152637642Y-67246174D02*
X152661303Y-67249684D01*
X152684507Y-67255496D01*
X152707029Y-67263554D01*
X152728653Y-67273782D01*
X152749170Y-67286079D01*
X152768383Y-67300329D01*
X152786107Y-67316393D01*
X152802171Y-67334117D01*
X152816421Y-67353330D01*
X152828718Y-67373847D01*
X152838946Y-67395471D01*
X152847004Y-67417993D01*
X152852816Y-67441197D01*
X152856326Y-67464858D01*
X152857500Y-67488750D01*
X152857500Y-68401250D01*
X152856326Y-68425142D01*
X152852816Y-68448803D01*
X152847004Y-68472007D01*
X152838946Y-68494529D01*
X152828718Y-68516153D01*
X152816421Y-68536670D01*
X152802171Y-68555883D01*
X152786107Y-68573607D01*
X152768383Y-68589671D01*
X152749170Y-68603921D01*
X152728653Y-68616218D01*
X152707029Y-68626446D01*
X152684507Y-68634504D01*
X152661303Y-68640316D01*
X152637642Y-68643826D01*
X152613750Y-68645000D01*
X152126250Y-68645000D01*
X152102358Y-68643826D01*
X152078697Y-68640316D01*
X152055493Y-68634504D01*
X152032971Y-68626446D01*
X152011347Y-68616218D01*
X151990830Y-68603921D01*
X151971617Y-68589671D01*
X151953893Y-68573607D01*
X151937829Y-68555883D01*
X151923579Y-68536670D01*
X151911282Y-68516153D01*
X151901054Y-68494529D01*
X151892996Y-68472007D01*
X151887184Y-68448803D01*
X151883674Y-68425142D01*
X151882500Y-68401250D01*
X151882500Y-67488750D01*
X151883674Y-67464858D01*
X151887184Y-67441197D01*
X151892996Y-67417993D01*
X151901054Y-67395471D01*
X151911282Y-67373847D01*
X151923579Y-67353330D01*
X151937829Y-67334117D01*
X151953893Y-67316393D01*
X151971617Y-67300329D01*
X151990830Y-67286079D01*
X152011347Y-67273782D01*
X152032971Y-67263554D01*
X152055493Y-67255496D01*
X152078697Y-67249684D01*
X152102358Y-67246174D01*
X152126250Y-67245000D01*
X152613750Y-67245000D01*
X152637642Y-67246174D01*
X152637642Y-67246174D01*
G37*
D18*
G04 #@! TD*
G04 #@! TO.P,R8,2*
G04 #@! TO.N,/GPIO_5*
X152370000Y-67945000D03*
D19*
G04 #@! TO.P,Y1,1*
G04 #@! TO.N,Net-(C2-Pad1)*
X137866120Y-88773000D03*
G04 #@! TO.P,Y1,2*
G04 #@! TO.N,Net-(C3-Pad1)*
X142748000Y-88773000D03*
G04 #@! TD*
D20*
G04 #@! TO.P,H4,1*
G04 #@! TO.N,GND*
X160791000Y-62536000D03*
G04 #@! TD*
D21*
G04 #@! TO.P,C1,1*
G04 #@! TO.N,Net-(C1-Pad1)*
X118230000Y-92710000D03*
G04 #@! TO.P,C1,2*
G04 #@! TO.N,Net-(C1-Pad2)*
X125730000Y-92710000D03*
G04 #@! TD*
D16*
G04 #@! TO.P,VTR1,1*
G04 #@! TO.N,N/C*
X104216200Y-73761600D03*
D17*
G04 #@! TO.P,VTR1,2*
X104216200Y-76301600D03*
G04 #@! TO.P,VTR1,3*
X104216200Y-78841600D03*
G04 #@! TO.P,VTR1,4*
G04 #@! TO.N,Net-(SW1-Pad2)*
X104216200Y-81381600D03*
G04 #@! TO.P,VTR1,5*
G04 #@! TO.N,N/C*
X104216200Y-83921600D03*
G04 #@! TO.P,VTR1,6*
G04 #@! TO.N,/GPIO_10*
X104216200Y-86461600D03*
G04 #@! TO.P,VTR1,7*
G04 #@! TO.N,GND*
X104216200Y-89001600D03*
G04 #@! TO.P,VTR1,8*
G04 #@! TO.N,+5V*
X104216200Y-91541600D03*
G04 #@! TD*
D22*
G04 #@! TO.P,RV1,1*
G04 #@! TO.N,+5V*
X148590000Y-96520000D03*
G04 #@! TO.P,RV1,2*
G04 #@! TO.N,/AIO_3*
X151130000Y-96520000D03*
G04 #@! TO.P,RV1,3*
G04 #@! TO.N,GND*
X153670000Y-96520000D03*
G04 #@! TD*
D16*
G04 #@! TO.P,SW1,1*
G04 #@! TO.N,GND*
X133858000Y-98552000D03*
D17*
G04 #@! TO.P,SW1,2*
G04 #@! TO.N,Net-(SW1-Pad2)*
X131318000Y-98552000D03*
G04 #@! TD*
D12*
G04 #@! TO.N,+5V*
G04 #@! TO.C,C4*
G36*
X109453004Y-92598204D02*
X109477273Y-92601804D01*
X109501071Y-92607765D01*
X109524171Y-92616030D01*
X109546349Y-92626520D01*
X109567393Y-92639133D01*
X109587098Y-92653747D01*
X109605277Y-92670223D01*
X109621753Y-92688402D01*
X109636367Y-92708107D01*
X109648980Y-92729151D01*
X109659470Y-92751329D01*
X109667735Y-92774429D01*
X109673696Y-92798227D01*
X109677296Y-92822496D01*
X109678500Y-92847000D01*
X109678500Y-94097000D01*
X109677296Y-94121504D01*
X109673696Y-94145773D01*
X109667735Y-94169571D01*
X109659470Y-94192671D01*
X109648980Y-94214849D01*
X109636367Y-94235893D01*
X109621753Y-94255598D01*
X109605277Y-94273777D01*
X109587098Y-94290253D01*
X109567393Y-94304867D01*
X109546349Y-94317480D01*
X109524171Y-94327970D01*
X109501071Y-94336235D01*
X109477273Y-94342196D01*
X109453004Y-94345796D01*
X109428500Y-94347000D01*
X108503500Y-94347000D01*
X108478996Y-94345796D01*
X108454727Y-94342196D01*
X108430929Y-94336235D01*
X108407829Y-94327970D01*
X108385651Y-94317480D01*
X108364607Y-94304867D01*
X108344902Y-94290253D01*
X108326723Y-94273777D01*
X108310247Y-94255598D01*
X108295633Y-94235893D01*
X108283020Y-94214849D01*
X108272530Y-94192671D01*
X108264265Y-94169571D01*
X108258304Y-94145773D01*
X108254704Y-94121504D01*
X108253500Y-94097000D01*
X108253500Y-92847000D01*
X108254704Y-92822496D01*
X108258304Y-92798227D01*
X108264265Y-92774429D01*
X108272530Y-92751329D01*
X108283020Y-92729151D01*
X108295633Y-92708107D01*
X108310247Y-92688402D01*
X108326723Y-92670223D01*
X108344902Y-92653747D01*
X108364607Y-92639133D01*
X108385651Y-92626520D01*
X108407829Y-92616030D01*
X108430929Y-92607765D01*
X108454727Y-92601804D01*
X108478996Y-92598204D01*
X108503500Y-92597000D01*
X109428500Y-92597000D01*
X109453004Y-92598204D01*
X109453004Y-92598204D01*
G37*
D23*
G04 #@! TD*
G04 #@! TO.P,C4,1*
G04 #@! TO.N,+5V*
X108966000Y-93472000D03*
D12*
G04 #@! TO.N,GND*
G04 #@! TO.C,C4*
G36*
X112428004Y-92598204D02*
X112452273Y-92601804D01*
X112476071Y-92607765D01*
X112499171Y-92616030D01*
X112521349Y-92626520D01*
X112542393Y-92639133D01*
X112562098Y-92653747D01*
X112580277Y-92670223D01*
X112596753Y-92688402D01*
X112611367Y-92708107D01*
X112623980Y-92729151D01*
X112634470Y-92751329D01*
X112642735Y-92774429D01*
X112648696Y-92798227D01*
X112652296Y-92822496D01*
X112653500Y-92847000D01*
X112653500Y-94097000D01*
X112652296Y-94121504D01*
X112648696Y-94145773D01*
X112642735Y-94169571D01*
X112634470Y-94192671D01*
X112623980Y-94214849D01*
X112611367Y-94235893D01*
X112596753Y-94255598D01*
X112580277Y-94273777D01*
X112562098Y-94290253D01*
X112542393Y-94304867D01*
X112521349Y-94317480D01*
X112499171Y-94327970D01*
X112476071Y-94336235D01*
X112452273Y-94342196D01*
X112428004Y-94345796D01*
X112403500Y-94347000D01*
X111478500Y-94347000D01*
X111453996Y-94345796D01*
X111429727Y-94342196D01*
X111405929Y-94336235D01*
X111382829Y-94327970D01*
X111360651Y-94317480D01*
X111339607Y-94304867D01*
X111319902Y-94290253D01*
X111301723Y-94273777D01*
X111285247Y-94255598D01*
X111270633Y-94235893D01*
X111258020Y-94214849D01*
X111247530Y-94192671D01*
X111239265Y-94169571D01*
X111233304Y-94145773D01*
X111229704Y-94121504D01*
X111228500Y-94097000D01*
X111228500Y-92847000D01*
X111229704Y-92822496D01*
X111233304Y-92798227D01*
X111239265Y-92774429D01*
X111247530Y-92751329D01*
X111258020Y-92729151D01*
X111270633Y-92708107D01*
X111285247Y-92688402D01*
X111301723Y-92670223D01*
X111319902Y-92653747D01*
X111339607Y-92639133D01*
X111360651Y-92626520D01*
X111382829Y-92616030D01*
X111405929Y-92607765D01*
X111429727Y-92601804D01*
X111453996Y-92598204D01*
X111478500Y-92597000D01*
X112403500Y-92597000D01*
X112428004Y-92598204D01*
X112428004Y-92598204D01*
G37*
D23*
G04 #@! TD*
G04 #@! TO.P,C4,2*
G04 #@! TO.N,GND*
X111941000Y-93472000D03*
D16*
G04 #@! TO.P,J8,1*
G04 #@! TO.N,/GPIO_6*
X148590000Y-88138000D03*
D17*
G04 #@! TO.P,J8,2*
G04 #@! TO.N,/GPIO_7*
X151130000Y-88138000D03*
G04 #@! TO.P,J8,3*
G04 #@! TO.N,/GPIO_8*
X153670000Y-88138000D03*
G04 #@! TD*
D24*
G04 #@! TO.N,/GPIO_2*
X117602000Y-81534000D02*
X115570000Y-79502000D01*
X115570000Y-79502000D02*
X115570000Y-72390000D01*
X118080000Y-69880000D02*
X117856000Y-70104000D01*
X118080000Y-67945000D02*
X118080000Y-69880000D01*
X115570000Y-72390000D02*
X117856000Y-70104000D01*
X128270000Y-83820000D02*
X128270000Y-82296000D01*
X127508000Y-81534000D02*
X127000000Y-81534000D01*
X128270000Y-82296000D02*
X127508000Y-81534000D01*
X127115370Y-81534000D02*
X127000000Y-81534000D01*
X127000000Y-81534000D02*
X117602000Y-81534000D01*
G04 #@! TO.N,/GPIO_3*
X129510000Y-67945000D02*
X126843000Y-70612000D01*
X126843000Y-70612000D02*
X118235590Y-70612000D01*
X127958011Y-80968011D02*
X130010001Y-83020001D01*
X130010001Y-83020001D02*
X130810000Y-83820000D01*
X117923600Y-80968011D02*
X127958011Y-80968011D01*
X116135989Y-79180400D02*
X117923600Y-80968011D01*
X116135989Y-72711600D02*
X116135989Y-79180400D01*
X118235590Y-70612000D02*
X116135989Y-72711600D01*
G04 #@! TO.N,/GPIO_4*
X116586000Y-78994000D02*
X118110000Y-80518000D01*
X116586000Y-72898000D02*
X116586000Y-78994000D01*
X140940000Y-69118000D02*
X140208000Y-69850000D01*
X140940000Y-67945000D02*
X140940000Y-69118000D01*
X140208000Y-69850000D02*
X130302000Y-69850000D01*
X130302000Y-69850000D02*
X128778000Y-71374000D01*
X128778000Y-71374000D02*
X118110000Y-71374000D01*
X118110000Y-71374000D02*
X116586000Y-72898000D01*
X129794000Y-81788000D02*
X128524000Y-80518000D01*
X131318000Y-81788000D02*
X129794000Y-81788000D01*
X133350000Y-83820000D02*
X131318000Y-81788000D01*
X118110000Y-80518000D02*
X128524000Y-80518000D01*
D25*
G04 #@! TO.N,+5V*
X107035600Y-91541600D02*
X108966000Y-93472000D01*
X104216200Y-91541600D02*
X107035600Y-91541600D01*
D24*
G04 #@! TO.N,Net-(C2-Pad1)*
X138120120Y-92400120D02*
X138176000Y-92456000D01*
X137866120Y-88773000D02*
X137866120Y-92400120D01*
X137866120Y-88773000D02*
X140970000Y-85669120D01*
X140970000Y-85669120D02*
X140970000Y-83820000D01*
G04 #@! TO.N,/AIO_0*
X157177500Y-76248500D02*
X157177500Y-75946000D01*
X153924000Y-79502000D02*
X157177500Y-76248500D01*
X157177500Y-75946000D02*
X157177500Y-75994500D01*
X157177500Y-72390000D02*
X157177500Y-75946000D01*
X133350000Y-76200000D02*
X135185990Y-78035990D01*
X135185990Y-78035990D02*
X144712400Y-78035990D01*
X144712400Y-78035990D02*
X146178410Y-79502000D01*
X146178410Y-79502000D02*
X153924000Y-79502000D01*
G04 #@! TO.N,Net-(C3-Pad1)*
X142748000Y-88773000D02*
X142748000Y-92456000D01*
X142748000Y-88773000D02*
X142748000Y-86614000D01*
X143510000Y-85852000D02*
X143510000Y-83820000D01*
X142748000Y-86614000D02*
X143510000Y-85852000D01*
G04 #@! TO.N,/AIO_1*
X133096000Y-78486000D02*
X130810000Y-76200000D01*
X144526000Y-78486000D02*
X133096000Y-78486000D01*
X157177500Y-80010000D02*
X146050000Y-80010000D01*
X146050000Y-80010000D02*
X144526000Y-78486000D01*
G04 #@! TO.N,/GPIO_5*
X152370000Y-67945000D02*
X152370000Y-69372000D01*
X152370000Y-69372000D02*
X151384000Y-70358000D01*
X151384000Y-70358000D02*
X130810000Y-70358000D01*
X130810000Y-70358000D02*
X129286000Y-71882000D01*
X129286000Y-71882000D02*
X118364000Y-71882000D01*
X118364000Y-71882000D02*
X117094000Y-73152000D01*
X117094000Y-73152000D02*
X117094000Y-78740000D01*
X117094000Y-78740000D02*
X118364000Y-80010000D01*
X130048000Y-81280000D02*
X128778000Y-80010000D01*
X143510000Y-81280000D02*
X130048000Y-81280000D01*
X146050000Y-83820000D02*
X143510000Y-81280000D01*
X118364000Y-80010000D02*
X128778000Y-80010000D01*
G04 #@! TO.N,/AIO_2*
X145863600Y-80460011D02*
X144339601Y-78936011D01*
X153866011Y-80460011D02*
X145863600Y-80460011D01*
X157177500Y-83771500D02*
X153866011Y-80460011D01*
X157177500Y-87630000D02*
X157177500Y-83771500D01*
X131629989Y-77978000D02*
X132588000Y-78936011D01*
X130048000Y-77978000D02*
X131629989Y-77978000D01*
X128270000Y-76200000D02*
X130048000Y-77978000D01*
X144339601Y-78936011D02*
X132588000Y-78936011D01*
G04 #@! TO.N,Net-(J1-Pad2)*
X116165000Y-67905000D02*
X116205000Y-67945000D01*
X116165000Y-62865000D02*
X116165000Y-67905000D01*
G04 #@! TO.N,Net-(C1-Pad2)*
X125730000Y-94124213D02*
X125730000Y-98425000D01*
X125730000Y-92710000D02*
X125730000Y-94124213D01*
G04 #@! TO.N,Net-(J3-Pad2)*
X159640000Y-72390000D02*
X161925000Y-72390000D01*
X159052500Y-72390000D02*
X159640000Y-72390000D01*
G04 #@! TO.N,Net-(J3-Pad5)*
X159052500Y-80010000D02*
X161925000Y-80010000D01*
G04 #@! TO.N,Net-(J3-Pad8)*
X159052500Y-87630000D02*
X161925000Y-87630000D01*
G04 #@! TO.N,Net-(J4-Pad2)*
X127595000Y-67905000D02*
X127635000Y-67945000D01*
X127595000Y-62865000D02*
X127595000Y-67905000D01*
G04 #@! TO.N,Net-(J5-Pad2)*
X139025000Y-67905000D02*
X139065000Y-67945000D01*
X139025000Y-62865000D02*
X139025000Y-67905000D01*
G04 #@! TO.N,Net-(J7-Pad2)*
X150455000Y-67905000D02*
X150495000Y-67945000D01*
X150455000Y-62865000D02*
X150455000Y-67905000D01*
G04 #@! TO.N,Net-(SW1-Pad2)*
X104216200Y-81381600D02*
X105511600Y-81381600D01*
X105511600Y-81381600D02*
X113284000Y-89154000D01*
X113284000Y-89154000D02*
X127000000Y-89154000D01*
X131318000Y-93472000D02*
X131318000Y-98552000D01*
X127000000Y-89154000D02*
X131318000Y-93472000D01*
G04 #@! TD*
D26*
G04 #@! TO.N,GND*
G36*
X158640754Y-59270181D02*
X158596640Y-59299657D01*
X158229695Y-59795090D01*
X160791000Y-62356395D01*
X163352305Y-59795090D01*
X162985360Y-59299657D01*
X162612614Y-59142289D01*
X163013698Y-59192958D01*
X163438893Y-59361305D01*
X163808858Y-59630101D01*
X164100356Y-59982462D01*
X164295067Y-60396244D01*
X164387093Y-60878662D01*
X164390000Y-60971164D01*
X164390000Y-61205817D01*
X164056819Y-60385754D01*
X164027343Y-60341640D01*
X163531910Y-59974695D01*
X160970605Y-62536000D01*
X163531910Y-65097305D01*
X164027343Y-64730360D01*
X164390000Y-63871358D01*
X164390001Y-99015326D01*
X164327042Y-99513699D01*
X164158697Y-99938889D01*
X163889899Y-100308859D01*
X163537541Y-100600355D01*
X163123756Y-100795067D01*
X162641339Y-100887093D01*
X162548836Y-100890000D01*
X104184667Y-100890000D01*
X103686301Y-100827042D01*
X103261111Y-100658697D01*
X102891141Y-100389899D01*
X102599645Y-100037541D01*
X102404933Y-99623756D01*
X102312907Y-99141339D01*
X102310000Y-99048836D01*
X102310000Y-97091431D01*
X103556000Y-97091431D01*
X103556000Y-97980569D01*
X103896259Y-98802026D01*
X104524974Y-99430741D01*
X105346431Y-99771000D01*
X106235569Y-99771000D01*
X107057026Y-99430741D01*
X107650017Y-98837750D01*
X111545000Y-98837750D01*
X111545000Y-99528309D01*
X111641673Y-99761698D01*
X111820301Y-99940327D01*
X112053690Y-100037000D01*
X112744250Y-100037000D01*
X112903000Y-99878250D01*
X112903000Y-98679000D01*
X111703750Y-98679000D01*
X111545000Y-98837750D01*
X107650017Y-98837750D01*
X107685741Y-98802026D01*
X108026000Y-97980569D01*
X108026000Y-97575691D01*
X111545000Y-97575691D01*
X111545000Y-98266250D01*
X111703750Y-98425000D01*
X112903000Y-98425000D01*
X112903000Y-97225750D01*
X113157000Y-97225750D01*
X113157000Y-98425000D01*
X113177000Y-98425000D01*
X113177000Y-98679000D01*
X113157000Y-98679000D01*
X113157000Y-99878250D01*
X113315750Y-100037000D01*
X114006310Y-100037000D01*
X114239699Y-99940327D01*
X114418327Y-99761698D01*
X114484904Y-99600967D01*
X114499375Y-99622625D01*
X114990582Y-99950839D01*
X115423744Y-100037000D01*
X115716256Y-100037000D01*
X116149418Y-99950839D01*
X116640625Y-99622625D01*
X116840000Y-99324239D01*
X117039375Y-99622625D01*
X117530582Y-99950839D01*
X117963744Y-100037000D01*
X118256256Y-100037000D01*
X118689418Y-99950839D01*
X119180625Y-99622625D01*
X119380000Y-99324239D01*
X119579375Y-99622625D01*
X120070582Y-99950839D01*
X120503744Y-100037000D01*
X120796256Y-100037000D01*
X121229418Y-99950839D01*
X121720625Y-99622625D01*
X121920000Y-99324239D01*
X122119375Y-99622625D01*
X122610582Y-99950839D01*
X123043744Y-100037000D01*
X123336256Y-100037000D01*
X123769418Y-99950839D01*
X124260625Y-99622625D01*
X124460000Y-99324239D01*
X124659375Y-99622625D01*
X125150582Y-99950839D01*
X125583744Y-100037000D01*
X125876256Y-100037000D01*
X126309418Y-99950839D01*
X126800625Y-99622625D01*
X127128839Y-99131418D01*
X127244092Y-98552000D01*
X127128839Y-97972582D01*
X126800625Y-97481375D01*
X126490000Y-97273822D01*
X126490000Y-94164909D01*
X126656153Y-94096086D01*
X127116086Y-93636153D01*
X127365000Y-93035222D01*
X127365000Y-92384778D01*
X127116086Y-91783847D01*
X126656153Y-91323914D01*
X126055222Y-91075000D01*
X125404778Y-91075000D01*
X124803847Y-91323914D01*
X124343914Y-91783847D01*
X124095000Y-92384778D01*
X124095000Y-93035222D01*
X124343914Y-93636153D01*
X124803847Y-94096086D01*
X124970000Y-94164909D01*
X124970001Y-97273822D01*
X124659375Y-97481375D01*
X124460000Y-97779761D01*
X124260625Y-97481375D01*
X123769418Y-97153161D01*
X123336256Y-97067000D01*
X123043744Y-97067000D01*
X122610582Y-97153161D01*
X122119375Y-97481375D01*
X121920000Y-97779761D01*
X121720625Y-97481375D01*
X121229418Y-97153161D01*
X120796256Y-97067000D01*
X120503744Y-97067000D01*
X120070582Y-97153161D01*
X119579375Y-97481375D01*
X119380000Y-97779761D01*
X119180625Y-97481375D01*
X118689418Y-97153161D01*
X118256256Y-97067000D01*
X117963744Y-97067000D01*
X117530582Y-97153161D01*
X117039375Y-97481375D01*
X116840000Y-97779761D01*
X116640625Y-97481375D01*
X116149418Y-97153161D01*
X115716256Y-97067000D01*
X115423744Y-97067000D01*
X114990582Y-97153161D01*
X114499375Y-97481375D01*
X114484904Y-97503033D01*
X114418327Y-97342302D01*
X114239699Y-97163673D01*
X114006310Y-97067000D01*
X113315750Y-97067000D01*
X113157000Y-97225750D01*
X112903000Y-97225750D01*
X112744250Y-97067000D01*
X112053690Y-97067000D01*
X111820301Y-97163673D01*
X111641673Y-97342302D01*
X111545000Y-97575691D01*
X108026000Y-97575691D01*
X108026000Y-97091431D01*
X107685741Y-96269974D01*
X107057026Y-95641259D01*
X106235569Y-95301000D01*
X105346431Y-95301000D01*
X104524974Y-95641259D01*
X103896259Y-96269974D01*
X103556000Y-97091431D01*
X102310000Y-97091431D01*
X102310000Y-91541600D01*
X102702108Y-91541600D01*
X102817361Y-92121018D01*
X103145575Y-92612225D01*
X103636782Y-92940439D01*
X104069944Y-93026600D01*
X104362456Y-93026600D01*
X104795618Y-92940439D01*
X105286825Y-92612225D01*
X105410856Y-92426600D01*
X106669022Y-92426600D01*
X107606060Y-93363639D01*
X107606060Y-94097000D01*
X107674374Y-94440435D01*
X107868914Y-94731586D01*
X108160065Y-94926126D01*
X108503500Y-94994440D01*
X109428500Y-94994440D01*
X109771935Y-94926126D01*
X110063086Y-94731586D01*
X110257626Y-94440435D01*
X110325940Y-94097000D01*
X110325940Y-93757750D01*
X110593500Y-93757750D01*
X110593500Y-94473310D01*
X110690173Y-94706699D01*
X110868802Y-94885327D01*
X111102191Y-94982000D01*
X111655250Y-94982000D01*
X111814000Y-94823250D01*
X111814000Y-93599000D01*
X112068000Y-93599000D01*
X112068000Y-94823250D01*
X112226750Y-94982000D01*
X112779809Y-94982000D01*
X113013198Y-94885327D01*
X113191827Y-94706699D01*
X113288500Y-94473310D01*
X113288500Y-93757750D01*
X113129750Y-93599000D01*
X112068000Y-93599000D01*
X111814000Y-93599000D01*
X110752250Y-93599000D01*
X110593500Y-93757750D01*
X110325940Y-93757750D01*
X110325940Y-92847000D01*
X110257626Y-92503565D01*
X110235660Y-92470690D01*
X110593500Y-92470690D01*
X110593500Y-93186250D01*
X110752250Y-93345000D01*
X111814000Y-93345000D01*
X111814000Y-92120750D01*
X112068000Y-92120750D01*
X112068000Y-93345000D01*
X113129750Y-93345000D01*
X113288500Y-93186250D01*
X113288500Y-92470690D01*
X113252915Y-92384778D01*
X116595000Y-92384778D01*
X116595000Y-93035222D01*
X116843914Y-93636153D01*
X117303847Y-94096086D01*
X117904778Y-94345000D01*
X118555222Y-94345000D01*
X119156153Y-94096086D01*
X119616086Y-93636153D01*
X119865000Y-93035222D01*
X119865000Y-92384778D01*
X119616086Y-91783847D01*
X119156153Y-91323914D01*
X118555222Y-91075000D01*
X117904778Y-91075000D01*
X117303847Y-91323914D01*
X116843914Y-91783847D01*
X116595000Y-92384778D01*
X113252915Y-92384778D01*
X113191827Y-92237301D01*
X113013198Y-92058673D01*
X112779809Y-91962000D01*
X112226750Y-91962000D01*
X112068000Y-92120750D01*
X111814000Y-92120750D01*
X111655250Y-91962000D01*
X111102191Y-91962000D01*
X110868802Y-92058673D01*
X110690173Y-92237301D01*
X110593500Y-92470690D01*
X110235660Y-92470690D01*
X110063086Y-92212414D01*
X109771935Y-92017874D01*
X109428500Y-91949560D01*
X108695139Y-91949560D01*
X107723025Y-90977447D01*
X107673649Y-90903551D01*
X107380910Y-90707948D01*
X107122765Y-90656600D01*
X107122761Y-90656600D01*
X107035600Y-90639263D01*
X106948439Y-90656600D01*
X105410856Y-90656600D01*
X105286825Y-90470975D01*
X104967722Y-90257757D01*
X105097558Y-90196783D01*
X105487845Y-89768524D01*
X105657676Y-89358490D01*
X105536355Y-89128600D01*
X104343200Y-89128600D01*
X104343200Y-89148600D01*
X104089200Y-89148600D01*
X104089200Y-89128600D01*
X102896045Y-89128600D01*
X102774724Y-89358490D01*
X102944555Y-89768524D01*
X103334842Y-90196783D01*
X103464678Y-90257757D01*
X103145575Y-90470975D01*
X102817361Y-90962182D01*
X102702108Y-91541600D01*
X102310000Y-91541600D01*
X102310000Y-76301600D01*
X102702108Y-76301600D01*
X102817361Y-76881018D01*
X103145575Y-77372225D01*
X103443961Y-77571600D01*
X103145575Y-77770975D01*
X102817361Y-78262182D01*
X102702108Y-78841600D01*
X102817361Y-79421018D01*
X103145575Y-79912225D01*
X103443961Y-80111600D01*
X103145575Y-80310975D01*
X102817361Y-80802182D01*
X102702108Y-81381600D01*
X102817361Y-81961018D01*
X103145575Y-82452225D01*
X103443961Y-82651600D01*
X103145575Y-82850975D01*
X102817361Y-83342182D01*
X102702108Y-83921600D01*
X102817361Y-84501018D01*
X103145575Y-84992225D01*
X103443961Y-85191600D01*
X103145575Y-85390975D01*
X102817361Y-85882182D01*
X102702108Y-86461600D01*
X102817361Y-87041018D01*
X103145575Y-87532225D01*
X103464678Y-87745443D01*
X103334842Y-87806417D01*
X102944555Y-88234676D01*
X102774724Y-88644710D01*
X102896045Y-88874600D01*
X104089200Y-88874600D01*
X104089200Y-88854600D01*
X104343200Y-88854600D01*
X104343200Y-88874600D01*
X105536355Y-88874600D01*
X105657676Y-88644710D01*
X105487845Y-88234676D01*
X105097558Y-87806417D01*
X104967722Y-87745443D01*
X105286825Y-87532225D01*
X105615039Y-87041018D01*
X105730292Y-86461600D01*
X105615039Y-85882182D01*
X105286825Y-85390975D01*
X104988439Y-85191600D01*
X105286825Y-84992225D01*
X105615039Y-84501018D01*
X105730292Y-83921600D01*
X105615039Y-83342182D01*
X105286825Y-82850975D01*
X104988439Y-82651600D01*
X105286825Y-82452225D01*
X105375185Y-82319986D01*
X112693673Y-89638476D01*
X112736071Y-89701929D01*
X112799524Y-89744327D01*
X112799526Y-89744329D01*
X112835737Y-89768524D01*
X112987463Y-89869904D01*
X113209148Y-89914000D01*
X113209152Y-89914000D01*
X113283999Y-89928888D01*
X113358846Y-89914000D01*
X126685199Y-89914000D01*
X130558000Y-93786802D01*
X130558001Y-97273822D01*
X130247375Y-97481375D01*
X129919161Y-97972582D01*
X129803908Y-98552000D01*
X129919161Y-99131418D01*
X130247375Y-99622625D01*
X130738582Y-99950839D01*
X131171744Y-100037000D01*
X131464256Y-100037000D01*
X131897418Y-99950839D01*
X132388625Y-99622625D01*
X132403096Y-99600967D01*
X132469673Y-99761698D01*
X132648301Y-99940327D01*
X132881690Y-100037000D01*
X133572250Y-100037000D01*
X133731000Y-99878250D01*
X133731000Y-98679000D01*
X133985000Y-98679000D01*
X133985000Y-99878250D01*
X134143750Y-100037000D01*
X134834310Y-100037000D01*
X135067699Y-99940327D01*
X135246327Y-99761698D01*
X135343000Y-99528309D01*
X135343000Y-98837750D01*
X135184250Y-98679000D01*
X133985000Y-98679000D01*
X133731000Y-98679000D01*
X133711000Y-98679000D01*
X133711000Y-98425000D01*
X133731000Y-98425000D01*
X133731000Y-97225750D01*
X133985000Y-97225750D01*
X133985000Y-98425000D01*
X135184250Y-98425000D01*
X135343000Y-98266250D01*
X135343000Y-97575691D01*
X135246327Y-97342302D01*
X135067699Y-97163673D01*
X134834310Y-97067000D01*
X134143750Y-97067000D01*
X133985000Y-97225750D01*
X133731000Y-97225750D01*
X133572250Y-97067000D01*
X132881690Y-97067000D01*
X132648301Y-97163673D01*
X132469673Y-97342302D01*
X132403096Y-97503033D01*
X132388625Y-97481375D01*
X132078000Y-97273822D01*
X132078000Y-96242119D01*
X147193000Y-96242119D01*
X147193000Y-96797881D01*
X147405680Y-97311337D01*
X147798663Y-97704320D01*
X148312119Y-97917000D01*
X148867881Y-97917000D01*
X149381337Y-97704320D01*
X149774320Y-97311337D01*
X149860000Y-97104487D01*
X149945680Y-97311337D01*
X150338663Y-97704320D01*
X150852119Y-97917000D01*
X151407881Y-97917000D01*
X151921337Y-97704320D01*
X152125444Y-97500213D01*
X152869392Y-97500213D01*
X152938857Y-97742397D01*
X153462302Y-97929144D01*
X154017368Y-97901362D01*
X154401143Y-97742397D01*
X154470608Y-97500213D01*
X153670000Y-96699605D01*
X152869392Y-97500213D01*
X152125444Y-97500213D01*
X152314320Y-97311337D01*
X152393428Y-97120353D01*
X152447603Y-97251143D01*
X152689787Y-97320608D01*
X153490395Y-96520000D01*
X153849605Y-96520000D01*
X154650213Y-97320608D01*
X154892397Y-97251143D01*
X154949376Y-97091431D01*
X158556000Y-97091431D01*
X158556000Y-97980569D01*
X158896259Y-98802026D01*
X159524974Y-99430741D01*
X160346431Y-99771000D01*
X161235569Y-99771000D01*
X162057026Y-99430741D01*
X162685741Y-98802026D01*
X163026000Y-97980569D01*
X163026000Y-97091431D01*
X162685741Y-96269974D01*
X162057026Y-95641259D01*
X161235569Y-95301000D01*
X160346431Y-95301000D01*
X159524974Y-95641259D01*
X158896259Y-96269974D01*
X158556000Y-97091431D01*
X154949376Y-97091431D01*
X155079144Y-96727698D01*
X155051362Y-96172632D01*
X154892397Y-95788857D01*
X154650213Y-95719392D01*
X153849605Y-96520000D01*
X153490395Y-96520000D01*
X152689787Y-95719392D01*
X152447603Y-95788857D01*
X152397465Y-95929393D01*
X152314320Y-95728663D01*
X152125444Y-95539787D01*
X152869392Y-95539787D01*
X153670000Y-96340395D01*
X154470608Y-95539787D01*
X154401143Y-95297603D01*
X153877698Y-95110856D01*
X153322632Y-95138638D01*
X152938857Y-95297603D01*
X152869392Y-95539787D01*
X152125444Y-95539787D01*
X151921337Y-95335680D01*
X151407881Y-95123000D01*
X150852119Y-95123000D01*
X150338663Y-95335680D01*
X149945680Y-95728663D01*
X149860000Y-95935513D01*
X149774320Y-95728663D01*
X149381337Y-95335680D01*
X148867881Y-95123000D01*
X148312119Y-95123000D01*
X147798663Y-95335680D01*
X147405680Y-95728663D01*
X147193000Y-96242119D01*
X132078000Y-96242119D01*
X132078000Y-94791750D01*
X136587000Y-94791750D01*
X136587000Y-95207309D01*
X136683673Y-95440698D01*
X136862301Y-95619327D01*
X137095690Y-95716000D01*
X137636250Y-95716000D01*
X137795000Y-95557250D01*
X137795000Y-94633000D01*
X138049000Y-94633000D01*
X138049000Y-95557250D01*
X138207750Y-95716000D01*
X138748310Y-95716000D01*
X138981699Y-95619327D01*
X139160327Y-95440698D01*
X139257000Y-95207309D01*
X139257000Y-94791750D01*
X141413000Y-94791750D01*
X141413000Y-95207309D01*
X141509673Y-95440698D01*
X141688301Y-95619327D01*
X141921690Y-95716000D01*
X142462250Y-95716000D01*
X142621000Y-95557250D01*
X142621000Y-94633000D01*
X142875000Y-94633000D01*
X142875000Y-95557250D01*
X143033750Y-95716000D01*
X143574310Y-95716000D01*
X143807699Y-95619327D01*
X143986327Y-95440698D01*
X144083000Y-95207309D01*
X144083000Y-94791750D01*
X143924250Y-94633000D01*
X142875000Y-94633000D01*
X142621000Y-94633000D01*
X141571750Y-94633000D01*
X141413000Y-94791750D01*
X139257000Y-94791750D01*
X139098250Y-94633000D01*
X138049000Y-94633000D01*
X137795000Y-94633000D01*
X136745750Y-94633000D01*
X136587000Y-94791750D01*
X132078000Y-94791750D01*
X132078000Y-93546846D01*
X132092888Y-93471999D01*
X132078000Y-93397152D01*
X132078000Y-93397148D01*
X132033904Y-93175463D01*
X131865929Y-92924071D01*
X131802473Y-92881671D01*
X127590331Y-88669530D01*
X127547929Y-88606071D01*
X127296537Y-88438096D01*
X127074852Y-88394000D01*
X127074847Y-88394000D01*
X127000000Y-88379112D01*
X126925153Y-88394000D01*
X113598803Y-88394000D01*
X106101931Y-80897130D01*
X106059529Y-80833671D01*
X105808137Y-80665696D01*
X105586452Y-80621600D01*
X105586447Y-80621600D01*
X105511600Y-80606712D01*
X105487618Y-80611482D01*
X105286825Y-80310975D01*
X104988439Y-80111600D01*
X105286825Y-79912225D01*
X105615039Y-79421018D01*
X105730292Y-78841600D01*
X105615039Y-78262182D01*
X105286825Y-77770975D01*
X104988439Y-77571600D01*
X105286825Y-77372225D01*
X105615039Y-76881018D01*
X105730292Y-76301600D01*
X105615039Y-75722182D01*
X105286825Y-75230975D01*
X105268581Y-75218784D01*
X105313965Y-75209757D01*
X105524009Y-75069409D01*
X105664357Y-74859365D01*
X105713640Y-74611600D01*
X105713640Y-72911600D01*
X105664357Y-72663835D01*
X105524009Y-72453791D01*
X105313965Y-72313443D01*
X105066200Y-72264160D01*
X103366200Y-72264160D01*
X103118435Y-72313443D01*
X102908391Y-72453791D01*
X102768043Y-72663835D01*
X102718760Y-72911600D01*
X102718760Y-74611600D01*
X102768043Y-74859365D01*
X102908391Y-75069409D01*
X103118435Y-75209757D01*
X103163819Y-75218784D01*
X103145575Y-75230975D01*
X102817361Y-75722182D01*
X102702108Y-76301600D01*
X102310000Y-76301600D01*
X102310000Y-62091431D01*
X103556000Y-62091431D01*
X103556000Y-62980569D01*
X103896259Y-63802026D01*
X104524974Y-64430741D01*
X105346431Y-64771000D01*
X106235569Y-64771000D01*
X107057026Y-64430741D01*
X107685741Y-63802026D01*
X108026000Y-62980569D01*
X108026000Y-62593744D01*
X112180000Y-62593744D01*
X112180000Y-63136255D01*
X112266161Y-63569417D01*
X112594375Y-64060625D01*
X113085582Y-64388839D01*
X113665000Y-64504092D01*
X114244417Y-64388839D01*
X114735625Y-64060625D01*
X114915000Y-63792171D01*
X115094375Y-64060625D01*
X115405000Y-64268178D01*
X115405001Y-66809194D01*
X115331084Y-66858584D01*
X115137898Y-67147706D01*
X115070060Y-67488750D01*
X115070060Y-68401250D01*
X115137898Y-68742294D01*
X115331084Y-69031416D01*
X115620206Y-69224602D01*
X115961250Y-69292440D01*
X116448750Y-69292440D01*
X116789794Y-69224602D01*
X117078916Y-69031416D01*
X117142500Y-68936256D01*
X117206084Y-69031416D01*
X117320001Y-69107533D01*
X117320001Y-69565197D01*
X115085528Y-71799671D01*
X115022072Y-71842071D01*
X114979672Y-71905527D01*
X114979671Y-71905528D01*
X114854097Y-72093463D01*
X114795112Y-72390000D01*
X114810001Y-72464852D01*
X114810000Y-79427153D01*
X114795112Y-79502000D01*
X114810000Y-79576847D01*
X114810000Y-79576851D01*
X114854096Y-79798536D01*
X115022071Y-80049929D01*
X115085530Y-80092331D01*
X117011670Y-82018472D01*
X117054071Y-82081929D01*
X117305463Y-82249904D01*
X117527148Y-82294000D01*
X117527153Y-82294000D01*
X117602000Y-82308888D01*
X117676847Y-82294000D01*
X127193199Y-82294000D01*
X127504698Y-82605499D01*
X127235423Y-82785423D01*
X127000000Y-83137758D01*
X126764577Y-82785423D01*
X126289909Y-82468260D01*
X125871333Y-82385000D01*
X125588667Y-82385000D01*
X125170091Y-82468260D01*
X124695423Y-82785423D01*
X124460000Y-83137758D01*
X124224577Y-82785423D01*
X123749909Y-82468260D01*
X123331333Y-82385000D01*
X123048667Y-82385000D01*
X122630091Y-82468260D01*
X122155423Y-82785423D01*
X122074785Y-82906106D01*
X122048157Y-82772235D01*
X121907809Y-82562191D01*
X121697765Y-82421843D01*
X121450000Y-82372560D01*
X119850000Y-82372560D01*
X119602235Y-82421843D01*
X119392191Y-82562191D01*
X119251843Y-82772235D01*
X119202560Y-83020000D01*
X119202560Y-84620000D01*
X119251843Y-84867765D01*
X119392191Y-85077809D01*
X119602235Y-85218157D01*
X119850000Y-85267440D01*
X121450000Y-85267440D01*
X121697765Y-85218157D01*
X121907809Y-85077809D01*
X122048157Y-84867765D01*
X122074785Y-84733894D01*
X122155423Y-84854577D01*
X122630091Y-85171740D01*
X123048667Y-85255000D01*
X123331333Y-85255000D01*
X123749909Y-85171740D01*
X124224577Y-84854577D01*
X124460000Y-84502242D01*
X124695423Y-84854577D01*
X125170091Y-85171740D01*
X125588667Y-85255000D01*
X125871333Y-85255000D01*
X126289909Y-85171740D01*
X126764577Y-84854577D01*
X127000000Y-84502242D01*
X127235423Y-84854577D01*
X127710091Y-85171740D01*
X128128667Y-85255000D01*
X128411333Y-85255000D01*
X128829909Y-85171740D01*
X129304577Y-84854577D01*
X129540000Y-84502242D01*
X129775423Y-84854577D01*
X130250091Y-85171740D01*
X130668667Y-85255000D01*
X130951333Y-85255000D01*
X131369909Y-85171740D01*
X131844577Y-84854577D01*
X132080000Y-84502242D01*
X132315423Y-84854577D01*
X132790091Y-85171740D01*
X133208667Y-85255000D01*
X133491333Y-85255000D01*
X133909909Y-85171740D01*
X134384577Y-84854577D01*
X134620000Y-84502242D01*
X134855423Y-84854577D01*
X135330091Y-85171740D01*
X135748667Y-85255000D01*
X136031333Y-85255000D01*
X136449909Y-85171740D01*
X136924577Y-84854577D01*
X137180947Y-84470892D01*
X137277611Y-84675134D01*
X137692577Y-85051041D01*
X138080961Y-85211904D01*
X138303000Y-85089915D01*
X138303000Y-83947000D01*
X138283000Y-83947000D01*
X138283000Y-83693000D01*
X138303000Y-83693000D01*
X138303000Y-82550085D01*
X138080961Y-82428096D01*
X137692577Y-82588959D01*
X137277611Y-82964866D01*
X137180947Y-83169108D01*
X136924577Y-82785423D01*
X136449909Y-82468260D01*
X136031333Y-82385000D01*
X135748667Y-82385000D01*
X135330091Y-82468260D01*
X134855423Y-82785423D01*
X134620000Y-83137758D01*
X134384577Y-82785423D01*
X133909909Y-82468260D01*
X133491333Y-82385000D01*
X133208667Y-82385000D01*
X133026114Y-82421312D01*
X132644801Y-82040000D01*
X143195199Y-82040000D01*
X143540199Y-82385000D01*
X143368667Y-82385000D01*
X142950091Y-82468260D01*
X142475423Y-82785423D01*
X142240000Y-83137758D01*
X142004577Y-82785423D01*
X141529909Y-82468260D01*
X141111333Y-82385000D01*
X140828667Y-82385000D01*
X140410091Y-82468260D01*
X139935423Y-82785423D01*
X139679053Y-83169108D01*
X139582389Y-82964866D01*
X139167423Y-82588959D01*
X138779039Y-82428096D01*
X138557000Y-82550085D01*
X138557000Y-83693000D01*
X138577000Y-83693000D01*
X138577000Y-83947000D01*
X138557000Y-83947000D01*
X138557000Y-85089915D01*
X138779039Y-85211904D01*
X139167423Y-85051041D01*
X139582389Y-84675134D01*
X139679053Y-84470892D01*
X139935423Y-84854577D01*
X140210000Y-85038044D01*
X140210000Y-85354318D01*
X138166590Y-87397729D01*
X138141727Y-87387430D01*
X137590513Y-87387430D01*
X137081258Y-87598370D01*
X136691490Y-87988138D01*
X136480550Y-88497393D01*
X136480550Y-89048607D01*
X136691490Y-89557862D01*
X137081258Y-89947630D01*
X137106120Y-89957928D01*
X137106121Y-91316869D01*
X136837414Y-91496414D01*
X136642873Y-91787564D01*
X136574560Y-92130999D01*
X136574560Y-92781001D01*
X136642873Y-93124436D01*
X136837414Y-93415586D01*
X136838597Y-93416377D01*
X136683673Y-93571302D01*
X136587000Y-93804691D01*
X136587000Y-94220250D01*
X136745750Y-94379000D01*
X137795000Y-94379000D01*
X137795000Y-94359000D01*
X138049000Y-94359000D01*
X138049000Y-94379000D01*
X139098250Y-94379000D01*
X139257000Y-94220250D01*
X139257000Y-93804691D01*
X139160327Y-93571302D01*
X139005403Y-93416377D01*
X139006586Y-93415586D01*
X139201127Y-93124436D01*
X139269440Y-92781001D01*
X139269440Y-92130999D01*
X139201127Y-91787564D01*
X139006586Y-91496414D01*
X138715436Y-91301873D01*
X138626120Y-91284107D01*
X138626120Y-89957928D01*
X138650982Y-89947630D01*
X139040750Y-89557862D01*
X139251690Y-89048607D01*
X139251690Y-88497393D01*
X139241391Y-88472530D01*
X141454473Y-86259449D01*
X141517929Y-86217049D01*
X141685904Y-85965657D01*
X141730000Y-85743972D01*
X141730000Y-85743968D01*
X141744888Y-85669121D01*
X141730000Y-85594274D01*
X141730000Y-85038043D01*
X142004577Y-84854577D01*
X142240000Y-84502242D01*
X142475423Y-84854577D01*
X142750000Y-85038044D01*
X142750000Y-85537198D01*
X142263528Y-86023671D01*
X142200072Y-86066071D01*
X142157672Y-86129527D01*
X142157671Y-86129528D01*
X142032097Y-86317463D01*
X141973112Y-86614000D01*
X141988001Y-86688852D01*
X141988001Y-87588072D01*
X141963138Y-87598370D01*
X141573370Y-87988138D01*
X141362430Y-88497393D01*
X141362430Y-89048607D01*
X141573370Y-89557862D01*
X141963138Y-89947630D01*
X141988000Y-89957928D01*
X141988001Y-91295222D01*
X141954564Y-91301873D01*
X141663414Y-91496414D01*
X141468873Y-91787564D01*
X141400560Y-92130999D01*
X141400560Y-92781001D01*
X141468873Y-93124436D01*
X141663414Y-93415586D01*
X141664597Y-93416377D01*
X141509673Y-93571302D01*
X141413000Y-93804691D01*
X141413000Y-94220250D01*
X141571750Y-94379000D01*
X142621000Y-94379000D01*
X142621000Y-94359000D01*
X142875000Y-94359000D01*
X142875000Y-94379000D01*
X143924250Y-94379000D01*
X144083000Y-94220250D01*
X144083000Y-93804691D01*
X143986327Y-93571302D01*
X143831403Y-93416377D01*
X143832586Y-93415586D01*
X144027127Y-93124436D01*
X144095440Y-92781001D01*
X144095440Y-92130999D01*
X144027127Y-91787564D01*
X143832586Y-91496414D01*
X143541436Y-91301873D01*
X143508000Y-91295222D01*
X143508000Y-90526890D01*
X160483524Y-90526890D01*
X160653355Y-90936924D01*
X161043642Y-91365183D01*
X161568108Y-91611486D01*
X161798000Y-91490819D01*
X161798000Y-90297000D01*
X162052000Y-90297000D01*
X162052000Y-91490819D01*
X162281892Y-91611486D01*
X162806358Y-91365183D01*
X163196645Y-90936924D01*
X163366476Y-90526890D01*
X163245155Y-90297000D01*
X162052000Y-90297000D01*
X161798000Y-90297000D01*
X160604845Y-90297000D01*
X160483524Y-90526890D01*
X143508000Y-90526890D01*
X143508000Y-89957928D01*
X143532862Y-89947630D01*
X143922630Y-89557862D01*
X144133570Y-89048607D01*
X144133570Y-88497393D01*
X143922630Y-87988138D01*
X143532862Y-87598370D01*
X143508000Y-87588072D01*
X143508000Y-87288000D01*
X147092560Y-87288000D01*
X147092560Y-88988000D01*
X147141843Y-89235765D01*
X147282191Y-89445809D01*
X147492235Y-89586157D01*
X147740000Y-89635440D01*
X149440000Y-89635440D01*
X149687765Y-89586157D01*
X149897809Y-89445809D01*
X150038157Y-89235765D01*
X150047184Y-89190381D01*
X150059375Y-89208625D01*
X150550582Y-89536839D01*
X150983744Y-89623000D01*
X151276256Y-89623000D01*
X151709418Y-89536839D01*
X152200625Y-89208625D01*
X152400000Y-88910239D01*
X152599375Y-89208625D01*
X153090582Y-89536839D01*
X153523744Y-89623000D01*
X153816256Y-89623000D01*
X154249418Y-89536839D01*
X154740625Y-89208625D01*
X155068839Y-88717418D01*
X155184092Y-88138000D01*
X155068839Y-87558582D01*
X154740625Y-87067375D01*
X154249418Y-86739161D01*
X153816256Y-86653000D01*
X153523744Y-86653000D01*
X153090582Y-86739161D01*
X152599375Y-87067375D01*
X152400000Y-87365761D01*
X152200625Y-87067375D01*
X151709418Y-86739161D01*
X151276256Y-86653000D01*
X150983744Y-86653000D01*
X150550582Y-86739161D01*
X150059375Y-87067375D01*
X150047184Y-87085619D01*
X150038157Y-87040235D01*
X149897809Y-86830191D01*
X149687765Y-86689843D01*
X149440000Y-86640560D01*
X147740000Y-86640560D01*
X147492235Y-86689843D01*
X147282191Y-86830191D01*
X147141843Y-87040235D01*
X147092560Y-87288000D01*
X143508000Y-87288000D01*
X143508000Y-86928801D01*
X143994473Y-86442329D01*
X144057929Y-86399929D01*
X144136353Y-86282560D01*
X144225904Y-86148538D01*
X144235480Y-86100395D01*
X144270000Y-85926852D01*
X144270000Y-85926848D01*
X144284888Y-85852000D01*
X144270000Y-85777152D01*
X144270000Y-85038043D01*
X144544577Y-84854577D01*
X144780000Y-84502242D01*
X145015423Y-84854577D01*
X145490091Y-85171740D01*
X145908667Y-85255000D01*
X146191333Y-85255000D01*
X146609909Y-85171740D01*
X147084577Y-84854577D01*
X147320000Y-84502242D01*
X147555423Y-84854577D01*
X148030091Y-85171740D01*
X148448667Y-85255000D01*
X148731333Y-85255000D01*
X149149909Y-85171740D01*
X149624577Y-84854577D01*
X149860000Y-84502242D01*
X150095423Y-84854577D01*
X150570091Y-85171740D01*
X150988667Y-85255000D01*
X151271333Y-85255000D01*
X151689909Y-85171740D01*
X152164577Y-84854577D01*
X152400000Y-84502242D01*
X152635423Y-84854577D01*
X153110091Y-85171740D01*
X153528667Y-85255000D01*
X153811333Y-85255000D01*
X154229909Y-85171740D01*
X154704577Y-84854577D01*
X155021740Y-84379909D01*
X155133113Y-83820000D01*
X155021740Y-83260091D01*
X154704577Y-82785423D01*
X154229909Y-82468260D01*
X153811333Y-82385000D01*
X153528667Y-82385000D01*
X153110091Y-82468260D01*
X152635423Y-82785423D01*
X152400000Y-83137758D01*
X152164577Y-82785423D01*
X151689909Y-82468260D01*
X151271333Y-82385000D01*
X150988667Y-82385000D01*
X150570091Y-82468260D01*
X150095423Y-82785423D01*
X149860000Y-83137758D01*
X149624577Y-82785423D01*
X149149909Y-82468260D01*
X148731333Y-82385000D01*
X148448667Y-82385000D01*
X148030091Y-82468260D01*
X147555423Y-82785423D01*
X147320000Y-83137758D01*
X147084577Y-82785423D01*
X146609909Y-82468260D01*
X146191333Y-82385000D01*
X145908667Y-82385000D01*
X145726114Y-82421312D01*
X144100331Y-80795530D01*
X144057929Y-80732071D01*
X143806537Y-80564096D01*
X143584852Y-80520000D01*
X143584847Y-80520000D01*
X143510000Y-80505112D01*
X143435153Y-80520000D01*
X130362802Y-80520000D01*
X129368331Y-79525530D01*
X129325929Y-79462071D01*
X129074537Y-79294096D01*
X128852852Y-79250000D01*
X128852847Y-79250000D01*
X128778000Y-79235112D01*
X128703153Y-79250000D01*
X118678802Y-79250000D01*
X117854000Y-78425199D01*
X117854000Y-76200000D01*
X119186887Y-76200000D01*
X119298260Y-76759909D01*
X119615423Y-77234577D01*
X120090091Y-77551740D01*
X120508667Y-77635000D01*
X120791333Y-77635000D01*
X121209909Y-77551740D01*
X121684577Y-77234577D01*
X121920000Y-76882242D01*
X122155423Y-77234577D01*
X122630091Y-77551740D01*
X123048667Y-77635000D01*
X123331333Y-77635000D01*
X123749909Y-77551740D01*
X124224577Y-77234577D01*
X124460000Y-76882242D01*
X124695423Y-77234577D01*
X125170091Y-77551740D01*
X125588667Y-77635000D01*
X125871333Y-77635000D01*
X126289909Y-77551740D01*
X126764577Y-77234577D01*
X127000000Y-76882242D01*
X127235423Y-77234577D01*
X127710091Y-77551740D01*
X128128667Y-77635000D01*
X128411333Y-77635000D01*
X128593886Y-77598688D01*
X129457670Y-78462472D01*
X129500071Y-78525929D01*
X129563527Y-78568329D01*
X129751462Y-78693904D01*
X129769355Y-78697463D01*
X129973148Y-78738000D01*
X129973152Y-78738000D01*
X130048000Y-78752888D01*
X130122848Y-78738000D01*
X131315188Y-78738000D01*
X131997670Y-79420483D01*
X132040071Y-79483940D01*
X132291463Y-79651915D01*
X132513148Y-79696011D01*
X132513152Y-79696011D01*
X132587999Y-79710899D01*
X132662846Y-79696011D01*
X144024800Y-79696011D01*
X145273270Y-80944483D01*
X145315671Y-81007940D01*
X145567063Y-81175915D01*
X145788748Y-81220011D01*
X145788752Y-81220011D01*
X145863599Y-81234899D01*
X145938447Y-81220011D01*
X153551210Y-81220011D01*
X156417501Y-84086303D01*
X156417500Y-86467467D01*
X156303584Y-86543584D01*
X156110398Y-86832706D01*
X156042560Y-87173750D01*
X156042560Y-88086250D01*
X156110398Y-88427294D01*
X156303584Y-88716416D01*
X156592706Y-88909602D01*
X156933750Y-88977440D01*
X157421250Y-88977440D01*
X157762294Y-88909602D01*
X158051416Y-88716416D01*
X158115000Y-88621256D01*
X158178584Y-88716416D01*
X158467706Y-88909602D01*
X158808750Y-88977440D01*
X159296250Y-88977440D01*
X159637294Y-88909602D01*
X159926416Y-88716416D01*
X160119602Y-88427294D01*
X160127020Y-88390000D01*
X160646822Y-88390000D01*
X160854375Y-88700625D01*
X161173478Y-88913843D01*
X161043642Y-88974817D01*
X160653355Y-89403076D01*
X160483524Y-89813110D01*
X160604845Y-90043000D01*
X161798000Y-90043000D01*
X161798000Y-90023000D01*
X162052000Y-90023000D01*
X162052000Y-90043000D01*
X163245155Y-90043000D01*
X163366476Y-89813110D01*
X163196645Y-89403076D01*
X162806358Y-88974817D01*
X162676522Y-88913843D01*
X162995625Y-88700625D01*
X163323839Y-88209418D01*
X163439092Y-87630000D01*
X163323839Y-87050582D01*
X162995625Y-86559375D01*
X162697239Y-86360000D01*
X162995625Y-86160625D01*
X163323839Y-85669418D01*
X163439092Y-85090000D01*
X163323839Y-84510582D01*
X162995625Y-84019375D01*
X162676522Y-83806157D01*
X162806358Y-83745183D01*
X163196645Y-83316924D01*
X163366476Y-82906890D01*
X163245155Y-82677000D01*
X162052000Y-82677000D01*
X162052000Y-82697000D01*
X161798000Y-82697000D01*
X161798000Y-82677000D01*
X160604845Y-82677000D01*
X160483524Y-82906890D01*
X160653355Y-83316924D01*
X161043642Y-83745183D01*
X161173478Y-83806157D01*
X160854375Y-84019375D01*
X160526161Y-84510582D01*
X160410908Y-85090000D01*
X160526161Y-85669418D01*
X160854375Y-86160625D01*
X161152761Y-86360000D01*
X160854375Y-86559375D01*
X160646822Y-86870000D01*
X160127020Y-86870000D01*
X160119602Y-86832706D01*
X159926416Y-86543584D01*
X159637294Y-86350398D01*
X159296250Y-86282560D01*
X158808750Y-86282560D01*
X158467706Y-86350398D01*
X158178584Y-86543584D01*
X158115000Y-86638744D01*
X158051416Y-86543584D01*
X157937500Y-86467467D01*
X157937500Y-83846348D01*
X157952388Y-83771500D01*
X157937500Y-83696652D01*
X157937500Y-83696648D01*
X157893404Y-83474963D01*
X157893404Y-83474962D01*
X157767829Y-83287027D01*
X157725429Y-83223571D01*
X157661973Y-83181171D01*
X155250801Y-80770000D01*
X156102980Y-80770000D01*
X156110398Y-80807294D01*
X156303584Y-81096416D01*
X156592706Y-81289602D01*
X156933750Y-81357440D01*
X157421250Y-81357440D01*
X157762294Y-81289602D01*
X158051416Y-81096416D01*
X158115000Y-81001256D01*
X158178584Y-81096416D01*
X158467706Y-81289602D01*
X158808750Y-81357440D01*
X159296250Y-81357440D01*
X159637294Y-81289602D01*
X159926416Y-81096416D01*
X160119602Y-80807294D01*
X160127020Y-80770000D01*
X160646822Y-80770000D01*
X160854375Y-81080625D01*
X161173478Y-81293843D01*
X161043642Y-81354817D01*
X160653355Y-81783076D01*
X160483524Y-82193110D01*
X160604845Y-82423000D01*
X161798000Y-82423000D01*
X161798000Y-82403000D01*
X162052000Y-82403000D01*
X162052000Y-82423000D01*
X163245155Y-82423000D01*
X163366476Y-82193110D01*
X163196645Y-81783076D01*
X162806358Y-81354817D01*
X162676522Y-81293843D01*
X162995625Y-81080625D01*
X163323839Y-80589418D01*
X163439092Y-80010000D01*
X163323839Y-79430582D01*
X162995625Y-78939375D01*
X162697239Y-78740000D01*
X162995625Y-78540625D01*
X163323839Y-78049418D01*
X163439092Y-77470000D01*
X163323839Y-76890582D01*
X162995625Y-76399375D01*
X162676522Y-76186157D01*
X162806358Y-76125183D01*
X163196645Y-75696924D01*
X163366476Y-75286890D01*
X163245155Y-75057000D01*
X162052000Y-75057000D01*
X162052000Y-75077000D01*
X161798000Y-75077000D01*
X161798000Y-75057000D01*
X160604845Y-75057000D01*
X160483524Y-75286890D01*
X160653355Y-75696924D01*
X161043642Y-76125183D01*
X161173478Y-76186157D01*
X160854375Y-76399375D01*
X160526161Y-76890582D01*
X160410908Y-77470000D01*
X160526161Y-78049418D01*
X160854375Y-78540625D01*
X161152761Y-78740000D01*
X160854375Y-78939375D01*
X160646822Y-79250000D01*
X160127020Y-79250000D01*
X160119602Y-79212706D01*
X159926416Y-78923584D01*
X159637294Y-78730398D01*
X159296250Y-78662560D01*
X158808750Y-78662560D01*
X158467706Y-78730398D01*
X158178584Y-78923584D01*
X158115000Y-79018744D01*
X158051416Y-78923584D01*
X157762294Y-78730398D01*
X157421250Y-78662560D01*
X156933750Y-78662560D01*
X156592706Y-78730398D01*
X156303584Y-78923584D01*
X156110398Y-79212706D01*
X156102980Y-79250000D01*
X155250801Y-79250000D01*
X157661973Y-76838829D01*
X157725429Y-76796429D01*
X157782909Y-76710404D01*
X157893404Y-76545038D01*
X157922378Y-76399375D01*
X157937500Y-76323352D01*
X157937500Y-76323348D01*
X157952388Y-76248500D01*
X157937500Y-76173652D01*
X157937500Y-73552533D01*
X158051416Y-73476416D01*
X158115000Y-73381256D01*
X158178584Y-73476416D01*
X158467706Y-73669602D01*
X158808750Y-73737440D01*
X159296250Y-73737440D01*
X159637294Y-73669602D01*
X159926416Y-73476416D01*
X160119602Y-73187294D01*
X160127020Y-73150000D01*
X160646822Y-73150000D01*
X160854375Y-73460625D01*
X161173478Y-73673843D01*
X161043642Y-73734817D01*
X160653355Y-74163076D01*
X160483524Y-74573110D01*
X160604845Y-74803000D01*
X161798000Y-74803000D01*
X161798000Y-74783000D01*
X162052000Y-74783000D01*
X162052000Y-74803000D01*
X163245155Y-74803000D01*
X163366476Y-74573110D01*
X163196645Y-74163076D01*
X162806358Y-73734817D01*
X162676522Y-73673843D01*
X162995625Y-73460625D01*
X163323839Y-72969418D01*
X163439092Y-72390000D01*
X163323839Y-71810582D01*
X162995625Y-71319375D01*
X162977381Y-71307184D01*
X163022765Y-71298157D01*
X163232809Y-71157809D01*
X163373157Y-70947765D01*
X163422440Y-70700000D01*
X163422440Y-69000000D01*
X163373157Y-68752235D01*
X163232809Y-68542191D01*
X163022765Y-68401843D01*
X162775000Y-68352560D01*
X161075000Y-68352560D01*
X160827235Y-68401843D01*
X160617191Y-68542191D01*
X160476843Y-68752235D01*
X160427560Y-69000000D01*
X160427560Y-70700000D01*
X160476843Y-70947765D01*
X160617191Y-71157809D01*
X160827235Y-71298157D01*
X160872619Y-71307184D01*
X160854375Y-71319375D01*
X160646822Y-71630000D01*
X160127020Y-71630000D01*
X160119602Y-71592706D01*
X159926416Y-71303584D01*
X159637294Y-71110398D01*
X159296250Y-71042560D01*
X158808750Y-71042560D01*
X158467706Y-71110398D01*
X158178584Y-71303584D01*
X158115000Y-71398744D01*
X158051416Y-71303584D01*
X157762294Y-71110398D01*
X157421250Y-71042560D01*
X156933750Y-71042560D01*
X156592706Y-71110398D01*
X156303584Y-71303584D01*
X156110398Y-71592706D01*
X156042560Y-71933750D01*
X156042560Y-72846250D01*
X156110398Y-73187294D01*
X156303584Y-73476416D01*
X156417500Y-73552533D01*
X156417501Y-75871143D01*
X156417500Y-75871148D01*
X156417500Y-75933698D01*
X153609199Y-78742000D01*
X146493212Y-78742000D01*
X145302731Y-77551520D01*
X145260329Y-77488061D01*
X145008937Y-77320086D01*
X144787252Y-77275990D01*
X144787247Y-77275990D01*
X144712400Y-77261102D01*
X144637553Y-77275990D01*
X144482598Y-77275990D01*
X144544577Y-77234577D01*
X144780000Y-76882242D01*
X145015423Y-77234577D01*
X145490091Y-77551740D01*
X145908667Y-77635000D01*
X146191333Y-77635000D01*
X146609909Y-77551740D01*
X147084577Y-77234577D01*
X147320000Y-76882242D01*
X147555423Y-77234577D01*
X148030091Y-77551740D01*
X148448667Y-77635000D01*
X148731333Y-77635000D01*
X149149909Y-77551740D01*
X149624577Y-77234577D01*
X149860000Y-76882242D01*
X150095423Y-77234577D01*
X150570091Y-77551740D01*
X150988667Y-77635000D01*
X151271333Y-77635000D01*
X151689909Y-77551740D01*
X152164577Y-77234577D01*
X152400000Y-76882242D01*
X152635423Y-77234577D01*
X153110091Y-77551740D01*
X153528667Y-77635000D01*
X153811333Y-77635000D01*
X154229909Y-77551740D01*
X154704577Y-77234577D01*
X155021740Y-76759909D01*
X155133113Y-76200000D01*
X155021740Y-75640091D01*
X154704577Y-75165423D01*
X154229909Y-74848260D01*
X153811333Y-74765000D01*
X153528667Y-74765000D01*
X153110091Y-74848260D01*
X152635423Y-75165423D01*
X152400000Y-75517758D01*
X152164577Y-75165423D01*
X151689909Y-74848260D01*
X151271333Y-74765000D01*
X150988667Y-74765000D01*
X150570091Y-74848260D01*
X150095423Y-75165423D01*
X149860000Y-75517758D01*
X149624577Y-75165423D01*
X149149909Y-74848260D01*
X148731333Y-74765000D01*
X148448667Y-74765000D01*
X148030091Y-74848260D01*
X147555423Y-75165423D01*
X147320000Y-75517758D01*
X147084577Y-75165423D01*
X146609909Y-74848260D01*
X146191333Y-74765000D01*
X145908667Y-74765000D01*
X145490091Y-74848260D01*
X145015423Y-75165423D01*
X144780000Y-75517758D01*
X144544577Y-75165423D01*
X144069909Y-74848260D01*
X143651333Y-74765000D01*
X143368667Y-74765000D01*
X142950091Y-74848260D01*
X142475423Y-75165423D01*
X142240000Y-75517758D01*
X142004577Y-75165423D01*
X141529909Y-74848260D01*
X141111333Y-74765000D01*
X140828667Y-74765000D01*
X140410091Y-74848260D01*
X139935423Y-75165423D01*
X139700000Y-75517758D01*
X139464577Y-75165423D01*
X138989909Y-74848260D01*
X138571333Y-74765000D01*
X138288667Y-74765000D01*
X137870091Y-74848260D01*
X137395423Y-75165423D01*
X137139053Y-75549108D01*
X137042389Y-75344866D01*
X136627423Y-74968959D01*
X136239039Y-74808096D01*
X136017000Y-74930085D01*
X136017000Y-76073000D01*
X136037000Y-76073000D01*
X136037000Y-76327000D01*
X136017000Y-76327000D01*
X136017000Y-76347000D01*
X135763000Y-76347000D01*
X135763000Y-76327000D01*
X135743000Y-76327000D01*
X135743000Y-76073000D01*
X135763000Y-76073000D01*
X135763000Y-74930085D01*
X135540961Y-74808096D01*
X135152577Y-74968959D01*
X134737611Y-75344866D01*
X134640947Y-75549108D01*
X134384577Y-75165423D01*
X133909909Y-74848260D01*
X133491333Y-74765000D01*
X133208667Y-74765000D01*
X132790091Y-74848260D01*
X132315423Y-75165423D01*
X132080000Y-75517758D01*
X131844577Y-75165423D01*
X131369909Y-74848260D01*
X130951333Y-74765000D01*
X130668667Y-74765000D01*
X130250091Y-74848260D01*
X129775423Y-75165423D01*
X129540000Y-75517758D01*
X129304577Y-75165423D01*
X128829909Y-74848260D01*
X128411333Y-74765000D01*
X128128667Y-74765000D01*
X127710091Y-74848260D01*
X127235423Y-75165423D01*
X127000000Y-75517758D01*
X126764577Y-75165423D01*
X126289909Y-74848260D01*
X125871333Y-74765000D01*
X125588667Y-74765000D01*
X125170091Y-74848260D01*
X124695423Y-75165423D01*
X124460000Y-75517758D01*
X124224577Y-75165423D01*
X123749909Y-74848260D01*
X123331333Y-74765000D01*
X123048667Y-74765000D01*
X122630091Y-74848260D01*
X122155423Y-75165423D01*
X121920000Y-75517758D01*
X121684577Y-75165423D01*
X121209909Y-74848260D01*
X120791333Y-74765000D01*
X120508667Y-74765000D01*
X120090091Y-74848260D01*
X119615423Y-75165423D01*
X119298260Y-75640091D01*
X119186887Y-76200000D01*
X117854000Y-76200000D01*
X117854000Y-73466801D01*
X118678802Y-72642000D01*
X129211153Y-72642000D01*
X129286000Y-72656888D01*
X129360847Y-72642000D01*
X129360852Y-72642000D01*
X129582537Y-72597904D01*
X129833929Y-72429929D01*
X129876331Y-72366470D01*
X131124803Y-71118000D01*
X135695977Y-71118000D01*
X135662560Y-71286000D01*
X135662560Y-72986000D01*
X135711843Y-73233765D01*
X135852191Y-73443809D01*
X136062235Y-73584157D01*
X136310000Y-73633440D01*
X138010000Y-73633440D01*
X138257765Y-73584157D01*
X138467809Y-73443809D01*
X138608157Y-73233765D01*
X138617184Y-73188381D01*
X138629375Y-73206625D01*
X139120582Y-73534839D01*
X139553744Y-73621000D01*
X139846256Y-73621000D01*
X140279418Y-73534839D01*
X140770625Y-73206625D01*
X140970000Y-72908239D01*
X141169375Y-73206625D01*
X141660582Y-73534839D01*
X142093744Y-73621000D01*
X142386256Y-73621000D01*
X142819418Y-73534839D01*
X143310625Y-73206625D01*
X143510000Y-72908239D01*
X143709375Y-73206625D01*
X144200582Y-73534839D01*
X144633744Y-73621000D01*
X144926256Y-73621000D01*
X145359418Y-73534839D01*
X145850625Y-73206625D01*
X146050000Y-72908239D01*
X146249375Y-73206625D01*
X146740582Y-73534839D01*
X147173744Y-73621000D01*
X147466256Y-73621000D01*
X147899418Y-73534839D01*
X148390625Y-73206625D01*
X148718839Y-72715418D01*
X148834092Y-72136000D01*
X148718839Y-71556582D01*
X148425788Y-71118000D01*
X151309153Y-71118000D01*
X151384000Y-71132888D01*
X151458847Y-71118000D01*
X151458852Y-71118000D01*
X151680537Y-71073904D01*
X151931929Y-70905929D01*
X151974331Y-70842470D01*
X152854473Y-69962329D01*
X152917929Y-69919929D01*
X153085904Y-69668537D01*
X153130000Y-69446852D01*
X153130000Y-69446848D01*
X153144888Y-69372000D01*
X153130000Y-69297152D01*
X153130000Y-69107533D01*
X153243916Y-69031416D01*
X153437102Y-68742294D01*
X153504940Y-68401250D01*
X153504940Y-67488750D01*
X153437102Y-67147706D01*
X153243916Y-66858584D01*
X152954794Y-66665398D01*
X152613750Y-66597560D01*
X152126250Y-66597560D01*
X151785206Y-66665398D01*
X151496084Y-66858584D01*
X151432500Y-66953744D01*
X151368916Y-66858584D01*
X151215000Y-66755740D01*
X151215000Y-65276910D01*
X158229695Y-65276910D01*
X158596640Y-65772343D01*
X160002171Y-66365736D01*
X161527793Y-66376087D01*
X162941246Y-65801819D01*
X162985360Y-65772343D01*
X163352305Y-65276910D01*
X160791000Y-62715605D01*
X158229695Y-65276910D01*
X151215000Y-65276910D01*
X151215000Y-64268178D01*
X151512656Y-64069291D01*
X151566673Y-64199699D01*
X151745302Y-64378327D01*
X151978691Y-64475000D01*
X152669250Y-64475000D01*
X152828000Y-64316250D01*
X152828000Y-62992000D01*
X153082000Y-62992000D01*
X153082000Y-64316250D01*
X153240750Y-64475000D01*
X153931309Y-64475000D01*
X154164698Y-64378327D01*
X154343327Y-64199699D01*
X154440000Y-63966310D01*
X154440000Y-63272793D01*
X156950913Y-63272793D01*
X157525181Y-64686246D01*
X157554657Y-64730360D01*
X158050090Y-65097305D01*
X160611395Y-62536000D01*
X158050090Y-59974695D01*
X157554657Y-60341640D01*
X156961264Y-61747171D01*
X156950913Y-63272793D01*
X154440000Y-63272793D01*
X154440000Y-63150750D01*
X154281250Y-62992000D01*
X153082000Y-62992000D01*
X152828000Y-62992000D01*
X152808000Y-62992000D01*
X152808000Y-62738000D01*
X152828000Y-62738000D01*
X152828000Y-61413750D01*
X153082000Y-61413750D01*
X153082000Y-62738000D01*
X154281250Y-62738000D01*
X154440000Y-62579250D01*
X154440000Y-61763690D01*
X154343327Y-61530301D01*
X154164698Y-61351673D01*
X153931309Y-61255000D01*
X153240750Y-61255000D01*
X153082000Y-61413750D01*
X152828000Y-61413750D01*
X152669250Y-61255000D01*
X151978691Y-61255000D01*
X151745302Y-61351673D01*
X151566673Y-61530301D01*
X151512656Y-61660709D01*
X151034418Y-61341161D01*
X150455000Y-61225908D01*
X149875583Y-61341161D01*
X149384375Y-61669375D01*
X149205000Y-61937829D01*
X149025625Y-61669375D01*
X148534418Y-61341161D01*
X147955000Y-61225908D01*
X147375583Y-61341161D01*
X146884375Y-61669375D01*
X146556161Y-62160582D01*
X146470000Y-62593744D01*
X146470000Y-63136255D01*
X146556161Y-63569417D01*
X146884375Y-64060625D01*
X147375582Y-64388839D01*
X147955000Y-64504092D01*
X148534417Y-64388839D01*
X149025625Y-64060625D01*
X149205000Y-63792171D01*
X149384375Y-64060625D01*
X149695000Y-64268178D01*
X149695001Y-66809194D01*
X149621084Y-66858584D01*
X149427898Y-67147706D01*
X149360060Y-67488750D01*
X149360060Y-68401250D01*
X149427898Y-68742294D01*
X149621084Y-69031416D01*
X149910206Y-69224602D01*
X150251250Y-69292440D01*
X150738750Y-69292440D01*
X151079794Y-69224602D01*
X151368916Y-69031416D01*
X151432500Y-68936256D01*
X151496084Y-69031416D01*
X151579827Y-69087371D01*
X151069199Y-69598000D01*
X141533318Y-69598000D01*
X141655903Y-69414538D01*
X141655904Y-69414537D01*
X141700000Y-69192852D01*
X141700000Y-69192848D01*
X141714888Y-69118001D01*
X141711303Y-69099980D01*
X141813916Y-69031416D01*
X142007102Y-68742294D01*
X142074940Y-68401250D01*
X142074940Y-67488750D01*
X142007102Y-67147706D01*
X141813916Y-66858584D01*
X141524794Y-66665398D01*
X141183750Y-66597560D01*
X140696250Y-66597560D01*
X140355206Y-66665398D01*
X140066084Y-66858584D01*
X140002500Y-66953744D01*
X139938916Y-66858584D01*
X139785000Y-66755740D01*
X139785000Y-64268178D01*
X140082656Y-64069291D01*
X140136673Y-64199699D01*
X140315302Y-64378327D01*
X140548691Y-64475000D01*
X141239250Y-64475000D01*
X141398000Y-64316250D01*
X141398000Y-62992000D01*
X141652000Y-62992000D01*
X141652000Y-64316250D01*
X141810750Y-64475000D01*
X142501309Y-64475000D01*
X142734698Y-64378327D01*
X142913327Y-64199699D01*
X143010000Y-63966310D01*
X143010000Y-63150750D01*
X142851250Y-62992000D01*
X141652000Y-62992000D01*
X141398000Y-62992000D01*
X141378000Y-62992000D01*
X141378000Y-62738000D01*
X141398000Y-62738000D01*
X141398000Y-61413750D01*
X141652000Y-61413750D01*
X141652000Y-62738000D01*
X142851250Y-62738000D01*
X143010000Y-62579250D01*
X143010000Y-61763690D01*
X142913327Y-61530301D01*
X142734698Y-61351673D01*
X142501309Y-61255000D01*
X141810750Y-61255000D01*
X141652000Y-61413750D01*
X141398000Y-61413750D01*
X141239250Y-61255000D01*
X140548691Y-61255000D01*
X140315302Y-61351673D01*
X140136673Y-61530301D01*
X140082656Y-61660709D01*
X139604418Y-61341161D01*
X139025000Y-61225908D01*
X138445583Y-61341161D01*
X137954375Y-61669375D01*
X137775000Y-61937829D01*
X137595625Y-61669375D01*
X137104418Y-61341161D01*
X136525000Y-61225908D01*
X135945583Y-61341161D01*
X135454375Y-61669375D01*
X135126161Y-62160582D01*
X135040000Y-62593744D01*
X135040000Y-63136255D01*
X135126161Y-63569417D01*
X135454375Y-64060625D01*
X135945582Y-64388839D01*
X136525000Y-64504092D01*
X137104417Y-64388839D01*
X137595625Y-64060625D01*
X137775000Y-63792171D01*
X137954375Y-64060625D01*
X138265000Y-64268178D01*
X138265001Y-66809194D01*
X138191084Y-66858584D01*
X137997898Y-67147706D01*
X137930060Y-67488750D01*
X137930060Y-68401250D01*
X137997898Y-68742294D01*
X138191084Y-69031416D01*
X138278761Y-69090000D01*
X130376846Y-69090000D01*
X130314731Y-69077644D01*
X130383916Y-69031416D01*
X130577102Y-68742294D01*
X130644940Y-68401250D01*
X130644940Y-67488750D01*
X130577102Y-67147706D01*
X130383916Y-66858584D01*
X130094794Y-66665398D01*
X129753750Y-66597560D01*
X129266250Y-66597560D01*
X128925206Y-66665398D01*
X128636084Y-66858584D01*
X128572500Y-66953744D01*
X128508916Y-66858584D01*
X128355000Y-66755740D01*
X128355000Y-64268178D01*
X128652656Y-64069291D01*
X128706673Y-64199699D01*
X128885302Y-64378327D01*
X129118691Y-64475000D01*
X129809250Y-64475000D01*
X129968000Y-64316250D01*
X129968000Y-62992000D01*
X130222000Y-62992000D01*
X130222000Y-64316250D01*
X130380750Y-64475000D01*
X131071309Y-64475000D01*
X131304698Y-64378327D01*
X131483327Y-64199699D01*
X131580000Y-63966310D01*
X131580000Y-63150750D01*
X131421250Y-62992000D01*
X130222000Y-62992000D01*
X129968000Y-62992000D01*
X129948000Y-62992000D01*
X129948000Y-62738000D01*
X129968000Y-62738000D01*
X129968000Y-61413750D01*
X130222000Y-61413750D01*
X130222000Y-62738000D01*
X131421250Y-62738000D01*
X131580000Y-62579250D01*
X131580000Y-61763690D01*
X131483327Y-61530301D01*
X131304698Y-61351673D01*
X131071309Y-61255000D01*
X130380750Y-61255000D01*
X130222000Y-61413750D01*
X129968000Y-61413750D01*
X129809250Y-61255000D01*
X129118691Y-61255000D01*
X128885302Y-61351673D01*
X128706673Y-61530301D01*
X128652656Y-61660709D01*
X128174418Y-61341161D01*
X127595000Y-61225908D01*
X127015583Y-61341161D01*
X126524375Y-61669375D01*
X126345000Y-61937829D01*
X126165625Y-61669375D01*
X125674418Y-61341161D01*
X125095000Y-61225908D01*
X124515583Y-61341161D01*
X124024375Y-61669375D01*
X123696161Y-62160582D01*
X123610000Y-62593744D01*
X123610000Y-63136255D01*
X123696161Y-63569417D01*
X124024375Y-64060625D01*
X124515582Y-64388839D01*
X125095000Y-64504092D01*
X125674417Y-64388839D01*
X126165625Y-64060625D01*
X126345000Y-63792171D01*
X126524375Y-64060625D01*
X126835000Y-64268178D01*
X126835001Y-66809194D01*
X126761084Y-66858584D01*
X126567898Y-67147706D01*
X126500060Y-67488750D01*
X126500060Y-68401250D01*
X126567898Y-68742294D01*
X126761084Y-69031416D01*
X127050206Y-69224602D01*
X127138111Y-69242087D01*
X126528199Y-69852000D01*
X118849319Y-69852000D01*
X118840000Y-69805152D01*
X118840000Y-69107533D01*
X118953916Y-69031416D01*
X119147102Y-68742294D01*
X119214940Y-68401250D01*
X119214940Y-67488750D01*
X119147102Y-67147706D01*
X118953916Y-66858584D01*
X118664794Y-66665398D01*
X118323750Y-66597560D01*
X117836250Y-66597560D01*
X117495206Y-66665398D01*
X117206084Y-66858584D01*
X117142500Y-66953744D01*
X117078916Y-66858584D01*
X116925000Y-66755740D01*
X116925000Y-64268178D01*
X117222656Y-64069291D01*
X117276673Y-64199699D01*
X117455302Y-64378327D01*
X117688691Y-64475000D01*
X118379250Y-64475000D01*
X118538000Y-64316250D01*
X118538000Y-62992000D01*
X118792000Y-62992000D01*
X118792000Y-64316250D01*
X118950750Y-64475000D01*
X119641309Y-64475000D01*
X119874698Y-64378327D01*
X120053327Y-64199699D01*
X120150000Y-63966310D01*
X120150000Y-63150750D01*
X119991250Y-62992000D01*
X118792000Y-62992000D01*
X118538000Y-62992000D01*
X118518000Y-62992000D01*
X118518000Y-62738000D01*
X118538000Y-62738000D01*
X118538000Y-61413750D01*
X118792000Y-61413750D01*
X118792000Y-62738000D01*
X119991250Y-62738000D01*
X120150000Y-62579250D01*
X120150000Y-61763690D01*
X120053327Y-61530301D01*
X119874698Y-61351673D01*
X119641309Y-61255000D01*
X118950750Y-61255000D01*
X118792000Y-61413750D01*
X118538000Y-61413750D01*
X118379250Y-61255000D01*
X117688691Y-61255000D01*
X117455302Y-61351673D01*
X117276673Y-61530301D01*
X117222656Y-61660709D01*
X116744418Y-61341161D01*
X116165000Y-61225908D01*
X115585583Y-61341161D01*
X115094375Y-61669375D01*
X114915000Y-61937829D01*
X114735625Y-61669375D01*
X114244418Y-61341161D01*
X113665000Y-61225908D01*
X113085583Y-61341161D01*
X112594375Y-61669375D01*
X112266161Y-62160582D01*
X112180000Y-62593744D01*
X108026000Y-62593744D01*
X108026000Y-62091431D01*
X107685741Y-61269974D01*
X107057026Y-60641259D01*
X106235569Y-60301000D01*
X105346431Y-60301000D01*
X104524974Y-60641259D01*
X103896259Y-61269974D01*
X103556000Y-62091431D01*
X102310000Y-62091431D01*
X102310000Y-61004666D01*
X102372958Y-60506302D01*
X102541305Y-60081107D01*
X102810101Y-59711142D01*
X103162462Y-59419644D01*
X103576244Y-59224933D01*
X104058662Y-59132907D01*
X104151164Y-59130000D01*
X158985783Y-59130000D01*
X158640754Y-59270181D01*
X158640754Y-59270181D01*
G37*
X158640754Y-59270181D02*
X158596640Y-59299657D01*
X158229695Y-59795090D01*
X160791000Y-62356395D01*
X163352305Y-59795090D01*
X162985360Y-59299657D01*
X162612614Y-59142289D01*
X163013698Y-59192958D01*
X163438893Y-59361305D01*
X163808858Y-59630101D01*
X164100356Y-59982462D01*
X164295067Y-60396244D01*
X164387093Y-60878662D01*
X164390000Y-60971164D01*
X164390000Y-61205817D01*
X164056819Y-60385754D01*
X164027343Y-60341640D01*
X163531910Y-59974695D01*
X160970605Y-62536000D01*
X163531910Y-65097305D01*
X164027343Y-64730360D01*
X164390000Y-63871358D01*
X164390001Y-99015326D01*
X164327042Y-99513699D01*
X164158697Y-99938889D01*
X163889899Y-100308859D01*
X163537541Y-100600355D01*
X163123756Y-100795067D01*
X162641339Y-100887093D01*
X162548836Y-100890000D01*
X104184667Y-100890000D01*
X103686301Y-100827042D01*
X103261111Y-100658697D01*
X102891141Y-100389899D01*
X102599645Y-100037541D01*
X102404933Y-99623756D01*
X102312907Y-99141339D01*
X102310000Y-99048836D01*
X102310000Y-97091431D01*
X103556000Y-97091431D01*
X103556000Y-97980569D01*
X103896259Y-98802026D01*
X104524974Y-99430741D01*
X105346431Y-99771000D01*
X106235569Y-99771000D01*
X107057026Y-99430741D01*
X107650017Y-98837750D01*
X111545000Y-98837750D01*
X111545000Y-99528309D01*
X111641673Y-99761698D01*
X111820301Y-99940327D01*
X112053690Y-100037000D01*
X112744250Y-100037000D01*
X112903000Y-99878250D01*
X112903000Y-98679000D01*
X111703750Y-98679000D01*
X111545000Y-98837750D01*
X107650017Y-98837750D01*
X107685741Y-98802026D01*
X108026000Y-97980569D01*
X108026000Y-97575691D01*
X111545000Y-97575691D01*
X111545000Y-98266250D01*
X111703750Y-98425000D01*
X112903000Y-98425000D01*
X112903000Y-97225750D01*
X113157000Y-97225750D01*
X113157000Y-98425000D01*
X113177000Y-98425000D01*
X113177000Y-98679000D01*
X113157000Y-98679000D01*
X113157000Y-99878250D01*
X113315750Y-100037000D01*
X114006310Y-100037000D01*
X114239699Y-99940327D01*
X114418327Y-99761698D01*
X114484904Y-99600967D01*
X114499375Y-99622625D01*
X114990582Y-99950839D01*
X115423744Y-100037000D01*
X115716256Y-100037000D01*
X116149418Y-99950839D01*
X116640625Y-99622625D01*
X116840000Y-99324239D01*
X117039375Y-99622625D01*
X117530582Y-99950839D01*
X117963744Y-100037000D01*
X118256256Y-100037000D01*
X118689418Y-99950839D01*
X119180625Y-99622625D01*
X119380000Y-99324239D01*
X119579375Y-99622625D01*
X120070582Y-99950839D01*
X120503744Y-100037000D01*
X120796256Y-100037000D01*
X121229418Y-99950839D01*
X121720625Y-99622625D01*
X121920000Y-99324239D01*
X122119375Y-99622625D01*
X122610582Y-99950839D01*
X123043744Y-100037000D01*
X123336256Y-100037000D01*
X123769418Y-99950839D01*
X124260625Y-99622625D01*
X124460000Y-99324239D01*
X124659375Y-99622625D01*
X125150582Y-99950839D01*
X125583744Y-100037000D01*
X125876256Y-100037000D01*
X126309418Y-99950839D01*
X126800625Y-99622625D01*
X127128839Y-99131418D01*
X127244092Y-98552000D01*
X127128839Y-97972582D01*
X126800625Y-97481375D01*
X126490000Y-97273822D01*
X126490000Y-94164909D01*
X126656153Y-94096086D01*
X127116086Y-93636153D01*
X127365000Y-93035222D01*
X127365000Y-92384778D01*
X127116086Y-91783847D01*
X126656153Y-91323914D01*
X126055222Y-91075000D01*
X125404778Y-91075000D01*
X124803847Y-91323914D01*
X124343914Y-91783847D01*
X124095000Y-92384778D01*
X124095000Y-93035222D01*
X124343914Y-93636153D01*
X124803847Y-94096086D01*
X124970000Y-94164909D01*
X124970001Y-97273822D01*
X124659375Y-97481375D01*
X124460000Y-97779761D01*
X124260625Y-97481375D01*
X123769418Y-97153161D01*
X123336256Y-97067000D01*
X123043744Y-97067000D01*
X122610582Y-97153161D01*
X122119375Y-97481375D01*
X121920000Y-97779761D01*
X121720625Y-97481375D01*
X121229418Y-97153161D01*
X120796256Y-97067000D01*
X120503744Y-97067000D01*
X120070582Y-97153161D01*
X119579375Y-97481375D01*
X119380000Y-97779761D01*
X119180625Y-97481375D01*
X118689418Y-97153161D01*
X118256256Y-97067000D01*
X117963744Y-97067000D01*
X117530582Y-97153161D01*
X117039375Y-97481375D01*
X116840000Y-97779761D01*
X116640625Y-97481375D01*
X116149418Y-97153161D01*
X115716256Y-97067000D01*
X115423744Y-97067000D01*
X114990582Y-97153161D01*
X114499375Y-97481375D01*
X114484904Y-97503033D01*
X114418327Y-97342302D01*
X114239699Y-97163673D01*
X114006310Y-97067000D01*
X113315750Y-97067000D01*
X113157000Y-97225750D01*
X112903000Y-97225750D01*
X112744250Y-97067000D01*
X112053690Y-97067000D01*
X111820301Y-97163673D01*
X111641673Y-97342302D01*
X111545000Y-97575691D01*
X108026000Y-97575691D01*
X108026000Y-97091431D01*
X107685741Y-96269974D01*
X107057026Y-95641259D01*
X106235569Y-95301000D01*
X105346431Y-95301000D01*
X104524974Y-95641259D01*
X103896259Y-96269974D01*
X103556000Y-97091431D01*
X102310000Y-97091431D01*
X102310000Y-91541600D01*
X102702108Y-91541600D01*
X102817361Y-92121018D01*
X103145575Y-92612225D01*
X103636782Y-92940439D01*
X104069944Y-93026600D01*
X104362456Y-93026600D01*
X104795618Y-92940439D01*
X105286825Y-92612225D01*
X105410856Y-92426600D01*
X106669022Y-92426600D01*
X107606060Y-93363639D01*
X107606060Y-94097000D01*
X107674374Y-94440435D01*
X107868914Y-94731586D01*
X108160065Y-94926126D01*
X108503500Y-94994440D01*
X109428500Y-94994440D01*
X109771935Y-94926126D01*
X110063086Y-94731586D01*
X110257626Y-94440435D01*
X110325940Y-94097000D01*
X110325940Y-93757750D01*
X110593500Y-93757750D01*
X110593500Y-94473310D01*
X110690173Y-94706699D01*
X110868802Y-94885327D01*
X111102191Y-94982000D01*
X111655250Y-94982000D01*
X111814000Y-94823250D01*
X111814000Y-93599000D01*
X112068000Y-93599000D01*
X112068000Y-94823250D01*
X112226750Y-94982000D01*
X112779809Y-94982000D01*
X113013198Y-94885327D01*
X113191827Y-94706699D01*
X113288500Y-94473310D01*
X113288500Y-93757750D01*
X113129750Y-93599000D01*
X112068000Y-93599000D01*
X111814000Y-93599000D01*
X110752250Y-93599000D01*
X110593500Y-93757750D01*
X110325940Y-93757750D01*
X110325940Y-92847000D01*
X110257626Y-92503565D01*
X110235660Y-92470690D01*
X110593500Y-92470690D01*
X110593500Y-93186250D01*
X110752250Y-93345000D01*
X111814000Y-93345000D01*
X111814000Y-92120750D01*
X112068000Y-92120750D01*
X112068000Y-93345000D01*
X113129750Y-93345000D01*
X113288500Y-93186250D01*
X113288500Y-92470690D01*
X113252915Y-92384778D01*
X116595000Y-92384778D01*
X116595000Y-93035222D01*
X116843914Y-93636153D01*
X117303847Y-94096086D01*
X117904778Y-94345000D01*
X118555222Y-94345000D01*
X119156153Y-94096086D01*
X119616086Y-93636153D01*
X119865000Y-93035222D01*
X119865000Y-92384778D01*
X119616086Y-91783847D01*
X119156153Y-91323914D01*
X118555222Y-91075000D01*
X117904778Y-91075000D01*
X117303847Y-91323914D01*
X116843914Y-91783847D01*
X116595000Y-92384778D01*
X113252915Y-92384778D01*
X113191827Y-92237301D01*
X113013198Y-92058673D01*
X112779809Y-91962000D01*
X112226750Y-91962000D01*
X112068000Y-92120750D01*
X111814000Y-92120750D01*
X111655250Y-91962000D01*
X111102191Y-91962000D01*
X110868802Y-92058673D01*
X110690173Y-92237301D01*
X110593500Y-92470690D01*
X110235660Y-92470690D01*
X110063086Y-92212414D01*
X109771935Y-92017874D01*
X109428500Y-91949560D01*
X108695139Y-91949560D01*
X107723025Y-90977447D01*
X107673649Y-90903551D01*
X107380910Y-90707948D01*
X107122765Y-90656600D01*
X107122761Y-90656600D01*
X107035600Y-90639263D01*
X106948439Y-90656600D01*
X105410856Y-90656600D01*
X105286825Y-90470975D01*
X104967722Y-90257757D01*
X105097558Y-90196783D01*
X105487845Y-89768524D01*
X105657676Y-89358490D01*
X105536355Y-89128600D01*
X104343200Y-89128600D01*
X104343200Y-89148600D01*
X104089200Y-89148600D01*
X104089200Y-89128600D01*
X102896045Y-89128600D01*
X102774724Y-89358490D01*
X102944555Y-89768524D01*
X103334842Y-90196783D01*
X103464678Y-90257757D01*
X103145575Y-90470975D01*
X102817361Y-90962182D01*
X102702108Y-91541600D01*
X102310000Y-91541600D01*
X102310000Y-76301600D01*
X102702108Y-76301600D01*
X102817361Y-76881018D01*
X103145575Y-77372225D01*
X103443961Y-77571600D01*
X103145575Y-77770975D01*
X102817361Y-78262182D01*
X102702108Y-78841600D01*
X102817361Y-79421018D01*
X103145575Y-79912225D01*
X103443961Y-80111600D01*
X103145575Y-80310975D01*
X102817361Y-80802182D01*
X102702108Y-81381600D01*
X102817361Y-81961018D01*
X103145575Y-82452225D01*
X103443961Y-82651600D01*
X103145575Y-82850975D01*
X102817361Y-83342182D01*
X102702108Y-83921600D01*
X102817361Y-84501018D01*
X103145575Y-84992225D01*
X103443961Y-85191600D01*
X103145575Y-85390975D01*
X102817361Y-85882182D01*
X102702108Y-86461600D01*
X102817361Y-87041018D01*
X103145575Y-87532225D01*
X103464678Y-87745443D01*
X103334842Y-87806417D01*
X102944555Y-88234676D01*
X102774724Y-88644710D01*
X102896045Y-88874600D01*
X104089200Y-88874600D01*
X104089200Y-88854600D01*
X104343200Y-88854600D01*
X104343200Y-88874600D01*
X105536355Y-88874600D01*
X105657676Y-88644710D01*
X105487845Y-88234676D01*
X105097558Y-87806417D01*
X104967722Y-87745443D01*
X105286825Y-87532225D01*
X105615039Y-87041018D01*
X105730292Y-86461600D01*
X105615039Y-85882182D01*
X105286825Y-85390975D01*
X104988439Y-85191600D01*
X105286825Y-84992225D01*
X105615039Y-84501018D01*
X105730292Y-83921600D01*
X105615039Y-83342182D01*
X105286825Y-82850975D01*
X104988439Y-82651600D01*
X105286825Y-82452225D01*
X105375185Y-82319986D01*
X112693673Y-89638476D01*
X112736071Y-89701929D01*
X112799524Y-89744327D01*
X112799526Y-89744329D01*
X112835737Y-89768524D01*
X112987463Y-89869904D01*
X113209148Y-89914000D01*
X113209152Y-89914000D01*
X113283999Y-89928888D01*
X113358846Y-89914000D01*
X126685199Y-89914000D01*
X130558000Y-93786802D01*
X130558001Y-97273822D01*
X130247375Y-97481375D01*
X129919161Y-97972582D01*
X129803908Y-98552000D01*
X129919161Y-99131418D01*
X130247375Y-99622625D01*
X130738582Y-99950839D01*
X131171744Y-100037000D01*
X131464256Y-100037000D01*
X131897418Y-99950839D01*
X132388625Y-99622625D01*
X132403096Y-99600967D01*
X132469673Y-99761698D01*
X132648301Y-99940327D01*
X132881690Y-100037000D01*
X133572250Y-100037000D01*
X133731000Y-99878250D01*
X133731000Y-98679000D01*
X133985000Y-98679000D01*
X133985000Y-99878250D01*
X134143750Y-100037000D01*
X134834310Y-100037000D01*
X135067699Y-99940327D01*
X135246327Y-99761698D01*
X135343000Y-99528309D01*
X135343000Y-98837750D01*
X135184250Y-98679000D01*
X133985000Y-98679000D01*
X133731000Y-98679000D01*
X133711000Y-98679000D01*
X133711000Y-98425000D01*
X133731000Y-98425000D01*
X133731000Y-97225750D01*
X133985000Y-97225750D01*
X133985000Y-98425000D01*
X135184250Y-98425000D01*
X135343000Y-98266250D01*
X135343000Y-97575691D01*
X135246327Y-97342302D01*
X135067699Y-97163673D01*
X134834310Y-97067000D01*
X134143750Y-97067000D01*
X133985000Y-97225750D01*
X133731000Y-97225750D01*
X133572250Y-97067000D01*
X132881690Y-97067000D01*
X132648301Y-97163673D01*
X132469673Y-97342302D01*
X132403096Y-97503033D01*
X132388625Y-97481375D01*
X132078000Y-97273822D01*
X132078000Y-96242119D01*
X147193000Y-96242119D01*
X147193000Y-96797881D01*
X147405680Y-97311337D01*
X147798663Y-97704320D01*
X148312119Y-97917000D01*
X148867881Y-97917000D01*
X149381337Y-97704320D01*
X149774320Y-97311337D01*
X149860000Y-97104487D01*
X149945680Y-97311337D01*
X150338663Y-97704320D01*
X150852119Y-97917000D01*
X151407881Y-97917000D01*
X151921337Y-97704320D01*
X152125444Y-97500213D01*
X152869392Y-97500213D01*
X152938857Y-97742397D01*
X153462302Y-97929144D01*
X154017368Y-97901362D01*
X154401143Y-97742397D01*
X154470608Y-97500213D01*
X153670000Y-96699605D01*
X152869392Y-97500213D01*
X152125444Y-97500213D01*
X152314320Y-97311337D01*
X152393428Y-97120353D01*
X152447603Y-97251143D01*
X152689787Y-97320608D01*
X153490395Y-96520000D01*
X153849605Y-96520000D01*
X154650213Y-97320608D01*
X154892397Y-97251143D01*
X154949376Y-97091431D01*
X158556000Y-97091431D01*
X158556000Y-97980569D01*
X158896259Y-98802026D01*
X159524974Y-99430741D01*
X160346431Y-99771000D01*
X161235569Y-99771000D01*
X162057026Y-99430741D01*
X162685741Y-98802026D01*
X163026000Y-97980569D01*
X163026000Y-97091431D01*
X162685741Y-96269974D01*
X162057026Y-95641259D01*
X161235569Y-95301000D01*
X160346431Y-95301000D01*
X159524974Y-95641259D01*
X158896259Y-96269974D01*
X158556000Y-97091431D01*
X154949376Y-97091431D01*
X155079144Y-96727698D01*
X155051362Y-96172632D01*
X154892397Y-95788857D01*
X154650213Y-95719392D01*
X153849605Y-96520000D01*
X153490395Y-96520000D01*
X152689787Y-95719392D01*
X152447603Y-95788857D01*
X152397465Y-95929393D01*
X152314320Y-95728663D01*
X152125444Y-95539787D01*
X152869392Y-95539787D01*
X153670000Y-96340395D01*
X154470608Y-95539787D01*
X154401143Y-95297603D01*
X153877698Y-95110856D01*
X153322632Y-95138638D01*
X152938857Y-95297603D01*
X152869392Y-95539787D01*
X152125444Y-95539787D01*
X151921337Y-95335680D01*
X151407881Y-95123000D01*
X150852119Y-95123000D01*
X150338663Y-95335680D01*
X149945680Y-95728663D01*
X149860000Y-95935513D01*
X149774320Y-95728663D01*
X149381337Y-95335680D01*
X148867881Y-95123000D01*
X148312119Y-95123000D01*
X147798663Y-95335680D01*
X147405680Y-95728663D01*
X147193000Y-96242119D01*
X132078000Y-96242119D01*
X132078000Y-94791750D01*
X136587000Y-94791750D01*
X136587000Y-95207309D01*
X136683673Y-95440698D01*
X136862301Y-95619327D01*
X137095690Y-95716000D01*
X137636250Y-95716000D01*
X137795000Y-95557250D01*
X137795000Y-94633000D01*
X138049000Y-94633000D01*
X138049000Y-95557250D01*
X138207750Y-95716000D01*
X138748310Y-95716000D01*
X138981699Y-95619327D01*
X139160327Y-95440698D01*
X139257000Y-95207309D01*
X139257000Y-94791750D01*
X141413000Y-94791750D01*
X141413000Y-95207309D01*
X141509673Y-95440698D01*
X141688301Y-95619327D01*
X141921690Y-95716000D01*
X142462250Y-95716000D01*
X142621000Y-95557250D01*
X142621000Y-94633000D01*
X142875000Y-94633000D01*
X142875000Y-95557250D01*
X143033750Y-95716000D01*
X143574310Y-95716000D01*
X143807699Y-95619327D01*
X143986327Y-95440698D01*
X144083000Y-95207309D01*
X144083000Y-94791750D01*
X143924250Y-94633000D01*
X142875000Y-94633000D01*
X142621000Y-94633000D01*
X141571750Y-94633000D01*
X141413000Y-94791750D01*
X139257000Y-94791750D01*
X139098250Y-94633000D01*
X138049000Y-94633000D01*
X137795000Y-94633000D01*
X136745750Y-94633000D01*
X136587000Y-94791750D01*
X132078000Y-94791750D01*
X132078000Y-93546846D01*
X132092888Y-93471999D01*
X132078000Y-93397152D01*
X132078000Y-93397148D01*
X132033904Y-93175463D01*
X131865929Y-92924071D01*
X131802473Y-92881671D01*
X127590331Y-88669530D01*
X127547929Y-88606071D01*
X127296537Y-88438096D01*
X127074852Y-88394000D01*
X127074847Y-88394000D01*
X127000000Y-88379112D01*
X126925153Y-88394000D01*
X113598803Y-88394000D01*
X106101931Y-80897130D01*
X106059529Y-80833671D01*
X105808137Y-80665696D01*
X105586452Y-80621600D01*
X105586447Y-80621600D01*
X105511600Y-80606712D01*
X105487618Y-80611482D01*
X105286825Y-80310975D01*
X104988439Y-80111600D01*
X105286825Y-79912225D01*
X105615039Y-79421018D01*
X105730292Y-78841600D01*
X105615039Y-78262182D01*
X105286825Y-77770975D01*
X104988439Y-77571600D01*
X105286825Y-77372225D01*
X105615039Y-76881018D01*
X105730292Y-76301600D01*
X105615039Y-75722182D01*
X105286825Y-75230975D01*
X105268581Y-75218784D01*
X105313965Y-75209757D01*
X105524009Y-75069409D01*
X105664357Y-74859365D01*
X105713640Y-74611600D01*
X105713640Y-72911600D01*
X105664357Y-72663835D01*
X105524009Y-72453791D01*
X105313965Y-72313443D01*
X105066200Y-72264160D01*
X103366200Y-72264160D01*
X103118435Y-72313443D01*
X102908391Y-72453791D01*
X102768043Y-72663835D01*
X102718760Y-72911600D01*
X102718760Y-74611600D01*
X102768043Y-74859365D01*
X102908391Y-75069409D01*
X103118435Y-75209757D01*
X103163819Y-75218784D01*
X103145575Y-75230975D01*
X102817361Y-75722182D01*
X102702108Y-76301600D01*
X102310000Y-76301600D01*
X102310000Y-62091431D01*
X103556000Y-62091431D01*
X103556000Y-62980569D01*
X103896259Y-63802026D01*
X104524974Y-64430741D01*
X105346431Y-64771000D01*
X106235569Y-64771000D01*
X107057026Y-64430741D01*
X107685741Y-63802026D01*
X108026000Y-62980569D01*
X108026000Y-62593744D01*
X112180000Y-62593744D01*
X112180000Y-63136255D01*
X112266161Y-63569417D01*
X112594375Y-64060625D01*
X113085582Y-64388839D01*
X113665000Y-64504092D01*
X114244417Y-64388839D01*
X114735625Y-64060625D01*
X114915000Y-63792171D01*
X115094375Y-64060625D01*
X115405000Y-64268178D01*
X115405001Y-66809194D01*
X115331084Y-66858584D01*
X115137898Y-67147706D01*
X115070060Y-67488750D01*
X115070060Y-68401250D01*
X115137898Y-68742294D01*
X115331084Y-69031416D01*
X115620206Y-69224602D01*
X115961250Y-69292440D01*
X116448750Y-69292440D01*
X116789794Y-69224602D01*
X117078916Y-69031416D01*
X117142500Y-68936256D01*
X117206084Y-69031416D01*
X117320001Y-69107533D01*
X117320001Y-69565197D01*
X115085528Y-71799671D01*
X115022072Y-71842071D01*
X114979672Y-71905527D01*
X114979671Y-71905528D01*
X114854097Y-72093463D01*
X114795112Y-72390000D01*
X114810001Y-72464852D01*
X114810000Y-79427153D01*
X114795112Y-79502000D01*
X114810000Y-79576847D01*
X114810000Y-79576851D01*
X114854096Y-79798536D01*
X115022071Y-80049929D01*
X115085530Y-80092331D01*
X117011670Y-82018472D01*
X117054071Y-82081929D01*
X117305463Y-82249904D01*
X117527148Y-82294000D01*
X117527153Y-82294000D01*
X117602000Y-82308888D01*
X117676847Y-82294000D01*
X127193199Y-82294000D01*
X127504698Y-82605499D01*
X127235423Y-82785423D01*
X127000000Y-83137758D01*
X126764577Y-82785423D01*
X126289909Y-82468260D01*
X125871333Y-82385000D01*
X125588667Y-82385000D01*
X125170091Y-82468260D01*
X124695423Y-82785423D01*
X124460000Y-83137758D01*
X124224577Y-82785423D01*
X123749909Y-82468260D01*
X123331333Y-82385000D01*
X123048667Y-82385000D01*
X122630091Y-82468260D01*
X122155423Y-82785423D01*
X122074785Y-82906106D01*
X122048157Y-82772235D01*
X121907809Y-82562191D01*
X121697765Y-82421843D01*
X121450000Y-82372560D01*
X119850000Y-82372560D01*
X119602235Y-82421843D01*
X119392191Y-82562191D01*
X119251843Y-82772235D01*
X119202560Y-83020000D01*
X119202560Y-84620000D01*
X119251843Y-84867765D01*
X119392191Y-85077809D01*
X119602235Y-85218157D01*
X119850000Y-85267440D01*
X121450000Y-85267440D01*
X121697765Y-85218157D01*
X121907809Y-85077809D01*
X122048157Y-84867765D01*
X122074785Y-84733894D01*
X122155423Y-84854577D01*
X122630091Y-85171740D01*
X123048667Y-85255000D01*
X123331333Y-85255000D01*
X123749909Y-85171740D01*
X124224577Y-84854577D01*
X124460000Y-84502242D01*
X124695423Y-84854577D01*
X125170091Y-85171740D01*
X125588667Y-85255000D01*
X125871333Y-85255000D01*
X126289909Y-85171740D01*
X126764577Y-84854577D01*
X127000000Y-84502242D01*
X127235423Y-84854577D01*
X127710091Y-85171740D01*
X128128667Y-85255000D01*
X128411333Y-85255000D01*
X128829909Y-85171740D01*
X129304577Y-84854577D01*
X129540000Y-84502242D01*
X129775423Y-84854577D01*
X130250091Y-85171740D01*
X130668667Y-85255000D01*
X130951333Y-85255000D01*
X131369909Y-85171740D01*
X131844577Y-84854577D01*
X132080000Y-84502242D01*
X132315423Y-84854577D01*
X132790091Y-85171740D01*
X133208667Y-85255000D01*
X133491333Y-85255000D01*
X133909909Y-85171740D01*
X134384577Y-84854577D01*
X134620000Y-84502242D01*
X134855423Y-84854577D01*
X135330091Y-85171740D01*
X135748667Y-85255000D01*
X136031333Y-85255000D01*
X136449909Y-85171740D01*
X136924577Y-84854577D01*
X137180947Y-84470892D01*
X137277611Y-84675134D01*
X137692577Y-85051041D01*
X138080961Y-85211904D01*
X138303000Y-85089915D01*
X138303000Y-83947000D01*
X138283000Y-83947000D01*
X138283000Y-83693000D01*
X138303000Y-83693000D01*
X138303000Y-82550085D01*
X138080961Y-82428096D01*
X137692577Y-82588959D01*
X137277611Y-82964866D01*
X137180947Y-83169108D01*
X136924577Y-82785423D01*
X136449909Y-82468260D01*
X136031333Y-82385000D01*
X135748667Y-82385000D01*
X135330091Y-82468260D01*
X134855423Y-82785423D01*
X134620000Y-83137758D01*
X134384577Y-82785423D01*
X133909909Y-82468260D01*
X133491333Y-82385000D01*
X133208667Y-82385000D01*
X133026114Y-82421312D01*
X132644801Y-82040000D01*
X143195199Y-82040000D01*
X143540199Y-82385000D01*
X143368667Y-82385000D01*
X142950091Y-82468260D01*
X142475423Y-82785423D01*
X142240000Y-83137758D01*
X142004577Y-82785423D01*
X141529909Y-82468260D01*
X141111333Y-82385000D01*
X140828667Y-82385000D01*
X140410091Y-82468260D01*
X139935423Y-82785423D01*
X139679053Y-83169108D01*
X139582389Y-82964866D01*
X139167423Y-82588959D01*
X138779039Y-82428096D01*
X138557000Y-82550085D01*
X138557000Y-83693000D01*
X138577000Y-83693000D01*
X138577000Y-83947000D01*
X138557000Y-83947000D01*
X138557000Y-85089915D01*
X138779039Y-85211904D01*
X139167423Y-85051041D01*
X139582389Y-84675134D01*
X139679053Y-84470892D01*
X139935423Y-84854577D01*
X140210000Y-85038044D01*
X140210000Y-85354318D01*
X138166590Y-87397729D01*
X138141727Y-87387430D01*
X137590513Y-87387430D01*
X137081258Y-87598370D01*
X136691490Y-87988138D01*
X136480550Y-88497393D01*
X136480550Y-89048607D01*
X136691490Y-89557862D01*
X137081258Y-89947630D01*
X137106120Y-89957928D01*
X137106121Y-91316869D01*
X136837414Y-91496414D01*
X136642873Y-91787564D01*
X136574560Y-92130999D01*
X136574560Y-92781001D01*
X136642873Y-93124436D01*
X136837414Y-93415586D01*
X136838597Y-93416377D01*
X136683673Y-93571302D01*
X136587000Y-93804691D01*
X136587000Y-94220250D01*
X136745750Y-94379000D01*
X137795000Y-94379000D01*
X137795000Y-94359000D01*
X138049000Y-94359000D01*
X138049000Y-94379000D01*
X139098250Y-94379000D01*
X139257000Y-94220250D01*
X139257000Y-93804691D01*
X139160327Y-93571302D01*
X139005403Y-93416377D01*
X139006586Y-93415586D01*
X139201127Y-93124436D01*
X139269440Y-92781001D01*
X139269440Y-92130999D01*
X139201127Y-91787564D01*
X139006586Y-91496414D01*
X138715436Y-91301873D01*
X138626120Y-91284107D01*
X138626120Y-89957928D01*
X138650982Y-89947630D01*
X139040750Y-89557862D01*
X139251690Y-89048607D01*
X139251690Y-88497393D01*
X139241391Y-88472530D01*
X141454473Y-86259449D01*
X141517929Y-86217049D01*
X141685904Y-85965657D01*
X141730000Y-85743972D01*
X141730000Y-85743968D01*
X141744888Y-85669121D01*
X141730000Y-85594274D01*
X141730000Y-85038043D01*
X142004577Y-84854577D01*
X142240000Y-84502242D01*
X142475423Y-84854577D01*
X142750000Y-85038044D01*
X142750000Y-85537198D01*
X142263528Y-86023671D01*
X142200072Y-86066071D01*
X142157672Y-86129527D01*
X142157671Y-86129528D01*
X142032097Y-86317463D01*
X141973112Y-86614000D01*
X141988001Y-86688852D01*
X141988001Y-87588072D01*
X141963138Y-87598370D01*
X141573370Y-87988138D01*
X141362430Y-88497393D01*
X141362430Y-89048607D01*
X141573370Y-89557862D01*
X141963138Y-89947630D01*
X141988000Y-89957928D01*
X141988001Y-91295222D01*
X141954564Y-91301873D01*
X141663414Y-91496414D01*
X141468873Y-91787564D01*
X141400560Y-92130999D01*
X141400560Y-92781001D01*
X141468873Y-93124436D01*
X141663414Y-93415586D01*
X141664597Y-93416377D01*
X141509673Y-93571302D01*
X141413000Y-93804691D01*
X141413000Y-94220250D01*
X141571750Y-94379000D01*
X142621000Y-94379000D01*
X142621000Y-94359000D01*
X142875000Y-94359000D01*
X142875000Y-94379000D01*
X143924250Y-94379000D01*
X144083000Y-94220250D01*
X144083000Y-93804691D01*
X143986327Y-93571302D01*
X143831403Y-93416377D01*
X143832586Y-93415586D01*
X144027127Y-93124436D01*
X144095440Y-92781001D01*
X144095440Y-92130999D01*
X144027127Y-91787564D01*
X143832586Y-91496414D01*
X143541436Y-91301873D01*
X143508000Y-91295222D01*
X143508000Y-90526890D01*
X160483524Y-90526890D01*
X160653355Y-90936924D01*
X161043642Y-91365183D01*
X161568108Y-91611486D01*
X161798000Y-91490819D01*
X161798000Y-90297000D01*
X162052000Y-90297000D01*
X162052000Y-91490819D01*
X162281892Y-91611486D01*
X162806358Y-91365183D01*
X163196645Y-90936924D01*
X163366476Y-90526890D01*
X163245155Y-90297000D01*
X162052000Y-90297000D01*
X161798000Y-90297000D01*
X160604845Y-90297000D01*
X160483524Y-90526890D01*
X143508000Y-90526890D01*
X143508000Y-89957928D01*
X143532862Y-89947630D01*
X143922630Y-89557862D01*
X144133570Y-89048607D01*
X144133570Y-88497393D01*
X143922630Y-87988138D01*
X143532862Y-87598370D01*
X143508000Y-87588072D01*
X143508000Y-87288000D01*
X147092560Y-87288000D01*
X147092560Y-88988000D01*
X147141843Y-89235765D01*
X147282191Y-89445809D01*
X147492235Y-89586157D01*
X147740000Y-89635440D01*
X149440000Y-89635440D01*
X149687765Y-89586157D01*
X149897809Y-89445809D01*
X150038157Y-89235765D01*
X150047184Y-89190381D01*
X150059375Y-89208625D01*
X150550582Y-89536839D01*
X150983744Y-89623000D01*
X151276256Y-89623000D01*
X151709418Y-89536839D01*
X152200625Y-89208625D01*
X152400000Y-88910239D01*
X152599375Y-89208625D01*
X153090582Y-89536839D01*
X153523744Y-89623000D01*
X153816256Y-89623000D01*
X154249418Y-89536839D01*
X154740625Y-89208625D01*
X155068839Y-88717418D01*
X155184092Y-88138000D01*
X155068839Y-87558582D01*
X154740625Y-87067375D01*
X154249418Y-86739161D01*
X153816256Y-86653000D01*
X153523744Y-86653000D01*
X153090582Y-86739161D01*
X152599375Y-87067375D01*
X152400000Y-87365761D01*
X152200625Y-87067375D01*
X151709418Y-86739161D01*
X151276256Y-86653000D01*
X150983744Y-86653000D01*
X150550582Y-86739161D01*
X150059375Y-87067375D01*
X150047184Y-87085619D01*
X150038157Y-87040235D01*
X149897809Y-86830191D01*
X149687765Y-86689843D01*
X149440000Y-86640560D01*
X147740000Y-86640560D01*
X147492235Y-86689843D01*
X147282191Y-86830191D01*
X147141843Y-87040235D01*
X147092560Y-87288000D01*
X143508000Y-87288000D01*
X143508000Y-86928801D01*
X143994473Y-86442329D01*
X144057929Y-86399929D01*
X144136353Y-86282560D01*
X144225904Y-86148538D01*
X144235480Y-86100395D01*
X144270000Y-85926852D01*
X144270000Y-85926848D01*
X144284888Y-85852000D01*
X144270000Y-85777152D01*
X144270000Y-85038043D01*
X144544577Y-84854577D01*
X144780000Y-84502242D01*
X145015423Y-84854577D01*
X145490091Y-85171740D01*
X145908667Y-85255000D01*
X146191333Y-85255000D01*
X146609909Y-85171740D01*
X147084577Y-84854577D01*
X147320000Y-84502242D01*
X147555423Y-84854577D01*
X148030091Y-85171740D01*
X148448667Y-85255000D01*
X148731333Y-85255000D01*
X149149909Y-85171740D01*
X149624577Y-84854577D01*
X149860000Y-84502242D01*
X150095423Y-84854577D01*
X150570091Y-85171740D01*
X150988667Y-85255000D01*
X151271333Y-85255000D01*
X151689909Y-85171740D01*
X152164577Y-84854577D01*
X152400000Y-84502242D01*
X152635423Y-84854577D01*
X153110091Y-85171740D01*
X153528667Y-85255000D01*
X153811333Y-85255000D01*
X154229909Y-85171740D01*
X154704577Y-84854577D01*
X155021740Y-84379909D01*
X155133113Y-83820000D01*
X155021740Y-83260091D01*
X154704577Y-82785423D01*
X154229909Y-82468260D01*
X153811333Y-82385000D01*
X153528667Y-82385000D01*
X153110091Y-82468260D01*
X152635423Y-82785423D01*
X152400000Y-83137758D01*
X152164577Y-82785423D01*
X151689909Y-82468260D01*
X151271333Y-82385000D01*
X150988667Y-82385000D01*
X150570091Y-82468260D01*
X150095423Y-82785423D01*
X149860000Y-83137758D01*
X149624577Y-82785423D01*
X149149909Y-82468260D01*
X148731333Y-82385000D01*
X148448667Y-82385000D01*
X148030091Y-82468260D01*
X147555423Y-82785423D01*
X147320000Y-83137758D01*
X147084577Y-82785423D01*
X146609909Y-82468260D01*
X146191333Y-82385000D01*
X145908667Y-82385000D01*
X145726114Y-82421312D01*
X144100331Y-80795530D01*
X144057929Y-80732071D01*
X143806537Y-80564096D01*
X143584852Y-80520000D01*
X143584847Y-80520000D01*
X143510000Y-80505112D01*
X143435153Y-80520000D01*
X130362802Y-80520000D01*
X129368331Y-79525530D01*
X129325929Y-79462071D01*
X129074537Y-79294096D01*
X128852852Y-79250000D01*
X128852847Y-79250000D01*
X128778000Y-79235112D01*
X128703153Y-79250000D01*
X118678802Y-79250000D01*
X117854000Y-78425199D01*
X117854000Y-76200000D01*
X119186887Y-76200000D01*
X119298260Y-76759909D01*
X119615423Y-77234577D01*
X120090091Y-77551740D01*
X120508667Y-77635000D01*
X120791333Y-77635000D01*
X121209909Y-77551740D01*
X121684577Y-77234577D01*
X121920000Y-76882242D01*
X122155423Y-77234577D01*
X122630091Y-77551740D01*
X123048667Y-77635000D01*
X123331333Y-77635000D01*
X123749909Y-77551740D01*
X124224577Y-77234577D01*
X124460000Y-76882242D01*
X124695423Y-77234577D01*
X125170091Y-77551740D01*
X125588667Y-77635000D01*
X125871333Y-77635000D01*
X126289909Y-77551740D01*
X126764577Y-77234577D01*
X127000000Y-76882242D01*
X127235423Y-77234577D01*
X127710091Y-77551740D01*
X128128667Y-77635000D01*
X128411333Y-77635000D01*
X128593886Y-77598688D01*
X129457670Y-78462472D01*
X129500071Y-78525929D01*
X129563527Y-78568329D01*
X129751462Y-78693904D01*
X129769355Y-78697463D01*
X129973148Y-78738000D01*
X129973152Y-78738000D01*
X130048000Y-78752888D01*
X130122848Y-78738000D01*
X131315188Y-78738000D01*
X131997670Y-79420483D01*
X132040071Y-79483940D01*
X132291463Y-79651915D01*
X132513148Y-79696011D01*
X132513152Y-79696011D01*
X132587999Y-79710899D01*
X132662846Y-79696011D01*
X144024800Y-79696011D01*
X145273270Y-80944483D01*
X145315671Y-81007940D01*
X145567063Y-81175915D01*
X145788748Y-81220011D01*
X145788752Y-81220011D01*
X145863599Y-81234899D01*
X145938447Y-81220011D01*
X153551210Y-81220011D01*
X156417501Y-84086303D01*
X156417500Y-86467467D01*
X156303584Y-86543584D01*
X156110398Y-86832706D01*
X156042560Y-87173750D01*
X156042560Y-88086250D01*
X156110398Y-88427294D01*
X156303584Y-88716416D01*
X156592706Y-88909602D01*
X156933750Y-88977440D01*
X157421250Y-88977440D01*
X157762294Y-88909602D01*
X158051416Y-88716416D01*
X158115000Y-88621256D01*
X158178584Y-88716416D01*
X158467706Y-88909602D01*
X158808750Y-88977440D01*
X159296250Y-88977440D01*
X159637294Y-88909602D01*
X159926416Y-88716416D01*
X160119602Y-88427294D01*
X160127020Y-88390000D01*
X160646822Y-88390000D01*
X160854375Y-88700625D01*
X161173478Y-88913843D01*
X161043642Y-88974817D01*
X160653355Y-89403076D01*
X160483524Y-89813110D01*
X160604845Y-90043000D01*
X161798000Y-90043000D01*
X161798000Y-90023000D01*
X162052000Y-90023000D01*
X162052000Y-90043000D01*
X163245155Y-90043000D01*
X163366476Y-89813110D01*
X163196645Y-89403076D01*
X162806358Y-88974817D01*
X162676522Y-88913843D01*
X162995625Y-88700625D01*
X163323839Y-88209418D01*
X163439092Y-87630000D01*
X163323839Y-87050582D01*
X162995625Y-86559375D01*
X162697239Y-86360000D01*
X162995625Y-86160625D01*
X163323839Y-85669418D01*
X163439092Y-85090000D01*
X163323839Y-84510582D01*
X162995625Y-84019375D01*
X162676522Y-83806157D01*
X162806358Y-83745183D01*
X163196645Y-83316924D01*
X163366476Y-82906890D01*
X163245155Y-82677000D01*
X162052000Y-82677000D01*
X162052000Y-82697000D01*
X161798000Y-82697000D01*
X161798000Y-82677000D01*
X160604845Y-82677000D01*
X160483524Y-82906890D01*
X160653355Y-83316924D01*
X161043642Y-83745183D01*
X161173478Y-83806157D01*
X160854375Y-84019375D01*
X160526161Y-84510582D01*
X160410908Y-85090000D01*
X160526161Y-85669418D01*
X160854375Y-86160625D01*
X161152761Y-86360000D01*
X160854375Y-86559375D01*
X160646822Y-86870000D01*
X160127020Y-86870000D01*
X160119602Y-86832706D01*
X159926416Y-86543584D01*
X159637294Y-86350398D01*
X159296250Y-86282560D01*
X158808750Y-86282560D01*
X158467706Y-86350398D01*
X158178584Y-86543584D01*
X158115000Y-86638744D01*
X158051416Y-86543584D01*
X157937500Y-86467467D01*
X157937500Y-83846348D01*
X157952388Y-83771500D01*
X157937500Y-83696652D01*
X157937500Y-83696648D01*
X157893404Y-83474963D01*
X157893404Y-83474962D01*
X157767829Y-83287027D01*
X157725429Y-83223571D01*
X157661973Y-83181171D01*
X155250801Y-80770000D01*
X156102980Y-80770000D01*
X156110398Y-80807294D01*
X156303584Y-81096416D01*
X156592706Y-81289602D01*
X156933750Y-81357440D01*
X157421250Y-81357440D01*
X157762294Y-81289602D01*
X158051416Y-81096416D01*
X158115000Y-81001256D01*
X158178584Y-81096416D01*
X158467706Y-81289602D01*
X158808750Y-81357440D01*
X159296250Y-81357440D01*
X159637294Y-81289602D01*
X159926416Y-81096416D01*
X160119602Y-80807294D01*
X160127020Y-80770000D01*
X160646822Y-80770000D01*
X160854375Y-81080625D01*
X161173478Y-81293843D01*
X161043642Y-81354817D01*
X160653355Y-81783076D01*
X160483524Y-82193110D01*
X160604845Y-82423000D01*
X161798000Y-82423000D01*
X161798000Y-82403000D01*
X162052000Y-82403000D01*
X162052000Y-82423000D01*
X163245155Y-82423000D01*
X163366476Y-82193110D01*
X163196645Y-81783076D01*
X162806358Y-81354817D01*
X162676522Y-81293843D01*
X162995625Y-81080625D01*
X163323839Y-80589418D01*
X163439092Y-80010000D01*
X163323839Y-79430582D01*
X162995625Y-78939375D01*
X162697239Y-78740000D01*
X162995625Y-78540625D01*
X163323839Y-78049418D01*
X163439092Y-77470000D01*
X163323839Y-76890582D01*
X162995625Y-76399375D01*
X162676522Y-76186157D01*
X162806358Y-76125183D01*
X163196645Y-75696924D01*
X163366476Y-75286890D01*
X163245155Y-75057000D01*
X162052000Y-75057000D01*
X162052000Y-75077000D01*
X161798000Y-75077000D01*
X161798000Y-75057000D01*
X160604845Y-75057000D01*
X160483524Y-75286890D01*
X160653355Y-75696924D01*
X161043642Y-76125183D01*
X161173478Y-76186157D01*
X160854375Y-76399375D01*
X160526161Y-76890582D01*
X160410908Y-77470000D01*
X160526161Y-78049418D01*
X160854375Y-78540625D01*
X161152761Y-78740000D01*
X160854375Y-78939375D01*
X160646822Y-79250000D01*
X160127020Y-79250000D01*
X160119602Y-79212706D01*
X159926416Y-78923584D01*
X159637294Y-78730398D01*
X159296250Y-78662560D01*
X158808750Y-78662560D01*
X158467706Y-78730398D01*
X158178584Y-78923584D01*
X158115000Y-79018744D01*
X158051416Y-78923584D01*
X157762294Y-78730398D01*
X157421250Y-78662560D01*
X156933750Y-78662560D01*
X156592706Y-78730398D01*
X156303584Y-78923584D01*
X156110398Y-79212706D01*
X156102980Y-79250000D01*
X155250801Y-79250000D01*
X157661973Y-76838829D01*
X157725429Y-76796429D01*
X157782909Y-76710404D01*
X157893404Y-76545038D01*
X157922378Y-76399375D01*
X157937500Y-76323352D01*
X157937500Y-76323348D01*
X157952388Y-76248500D01*
X157937500Y-76173652D01*
X157937500Y-73552533D01*
X158051416Y-73476416D01*
X158115000Y-73381256D01*
X158178584Y-73476416D01*
X158467706Y-73669602D01*
X158808750Y-73737440D01*
X159296250Y-73737440D01*
X159637294Y-73669602D01*
X159926416Y-73476416D01*
X160119602Y-73187294D01*
X160127020Y-73150000D01*
X160646822Y-73150000D01*
X160854375Y-73460625D01*
X161173478Y-73673843D01*
X161043642Y-73734817D01*
X160653355Y-74163076D01*
X160483524Y-74573110D01*
X160604845Y-74803000D01*
X161798000Y-74803000D01*
X161798000Y-74783000D01*
X162052000Y-74783000D01*
X162052000Y-74803000D01*
X163245155Y-74803000D01*
X163366476Y-74573110D01*
X163196645Y-74163076D01*
X162806358Y-73734817D01*
X162676522Y-73673843D01*
X162995625Y-73460625D01*
X163323839Y-72969418D01*
X163439092Y-72390000D01*
X163323839Y-71810582D01*
X162995625Y-71319375D01*
X162977381Y-71307184D01*
X163022765Y-71298157D01*
X163232809Y-71157809D01*
X163373157Y-70947765D01*
X163422440Y-70700000D01*
X163422440Y-69000000D01*
X163373157Y-68752235D01*
X163232809Y-68542191D01*
X163022765Y-68401843D01*
X162775000Y-68352560D01*
X161075000Y-68352560D01*
X160827235Y-68401843D01*
X160617191Y-68542191D01*
X160476843Y-68752235D01*
X160427560Y-69000000D01*
X160427560Y-70700000D01*
X160476843Y-70947765D01*
X160617191Y-71157809D01*
X160827235Y-71298157D01*
X160872619Y-71307184D01*
X160854375Y-71319375D01*
X160646822Y-71630000D01*
X160127020Y-71630000D01*
X160119602Y-71592706D01*
X159926416Y-71303584D01*
X159637294Y-71110398D01*
X159296250Y-71042560D01*
X158808750Y-71042560D01*
X158467706Y-71110398D01*
X158178584Y-71303584D01*
X158115000Y-71398744D01*
X158051416Y-71303584D01*
X157762294Y-71110398D01*
X157421250Y-71042560D01*
X156933750Y-71042560D01*
X156592706Y-71110398D01*
X156303584Y-71303584D01*
X156110398Y-71592706D01*
X156042560Y-71933750D01*
X156042560Y-72846250D01*
X156110398Y-73187294D01*
X156303584Y-73476416D01*
X156417500Y-73552533D01*
X156417501Y-75871143D01*
X156417500Y-75871148D01*
X156417500Y-75933698D01*
X153609199Y-78742000D01*
X146493212Y-78742000D01*
X145302731Y-77551520D01*
X145260329Y-77488061D01*
X145008937Y-77320086D01*
X144787252Y-77275990D01*
X144787247Y-77275990D01*
X144712400Y-77261102D01*
X144637553Y-77275990D01*
X144482598Y-77275990D01*
X144544577Y-77234577D01*
X144780000Y-76882242D01*
X145015423Y-77234577D01*
X145490091Y-77551740D01*
X145908667Y-77635000D01*
X146191333Y-77635000D01*
X146609909Y-77551740D01*
X147084577Y-77234577D01*
X147320000Y-76882242D01*
X147555423Y-77234577D01*
X148030091Y-77551740D01*
X148448667Y-77635000D01*
X148731333Y-77635000D01*
X149149909Y-77551740D01*
X149624577Y-77234577D01*
X149860000Y-76882242D01*
X150095423Y-77234577D01*
X150570091Y-77551740D01*
X150988667Y-77635000D01*
X151271333Y-77635000D01*
X151689909Y-77551740D01*
X152164577Y-77234577D01*
X152400000Y-76882242D01*
X152635423Y-77234577D01*
X153110091Y-77551740D01*
X153528667Y-77635000D01*
X153811333Y-77635000D01*
X154229909Y-77551740D01*
X154704577Y-77234577D01*
X155021740Y-76759909D01*
X155133113Y-76200000D01*
X155021740Y-75640091D01*
X154704577Y-75165423D01*
X154229909Y-74848260D01*
X153811333Y-74765000D01*
X153528667Y-74765000D01*
X153110091Y-74848260D01*
X152635423Y-75165423D01*
X152400000Y-75517758D01*
X152164577Y-75165423D01*
X151689909Y-74848260D01*
X151271333Y-74765000D01*
X150988667Y-74765000D01*
X150570091Y-74848260D01*
X150095423Y-75165423D01*
X149860000Y-75517758D01*
X149624577Y-75165423D01*
X149149909Y-74848260D01*
X148731333Y-74765000D01*
X148448667Y-74765000D01*
X148030091Y-74848260D01*
X147555423Y-75165423D01*
X147320000Y-75517758D01*
X147084577Y-75165423D01*
X146609909Y-74848260D01*
X146191333Y-74765000D01*
X145908667Y-74765000D01*
X145490091Y-74848260D01*
X145015423Y-75165423D01*
X144780000Y-75517758D01*
X144544577Y-75165423D01*
X144069909Y-74848260D01*
X143651333Y-74765000D01*
X143368667Y-74765000D01*
X142950091Y-74848260D01*
X142475423Y-75165423D01*
X142240000Y-75517758D01*
X142004577Y-75165423D01*
X141529909Y-74848260D01*
X141111333Y-74765000D01*
X140828667Y-74765000D01*
X140410091Y-74848260D01*
X139935423Y-75165423D01*
X139700000Y-75517758D01*
X139464577Y-75165423D01*
X138989909Y-74848260D01*
X138571333Y-74765000D01*
X138288667Y-74765000D01*
X137870091Y-74848260D01*
X137395423Y-75165423D01*
X137139053Y-75549108D01*
X137042389Y-75344866D01*
X136627423Y-74968959D01*
X136239039Y-74808096D01*
X136017000Y-74930085D01*
X136017000Y-76073000D01*
X136037000Y-76073000D01*
X136037000Y-76327000D01*
X136017000Y-76327000D01*
X136017000Y-76347000D01*
X135763000Y-76347000D01*
X135763000Y-76327000D01*
X135743000Y-76327000D01*
X135743000Y-76073000D01*
X135763000Y-76073000D01*
X135763000Y-74930085D01*
X135540961Y-74808096D01*
X135152577Y-74968959D01*
X134737611Y-75344866D01*
X134640947Y-75549108D01*
X134384577Y-75165423D01*
X133909909Y-74848260D01*
X133491333Y-74765000D01*
X133208667Y-74765000D01*
X132790091Y-74848260D01*
X132315423Y-75165423D01*
X132080000Y-75517758D01*
X131844577Y-75165423D01*
X131369909Y-74848260D01*
X130951333Y-74765000D01*
X130668667Y-74765000D01*
X130250091Y-74848260D01*
X129775423Y-75165423D01*
X129540000Y-75517758D01*
X129304577Y-75165423D01*
X128829909Y-74848260D01*
X128411333Y-74765000D01*
X128128667Y-74765000D01*
X127710091Y-74848260D01*
X127235423Y-75165423D01*
X127000000Y-75517758D01*
X126764577Y-75165423D01*
X126289909Y-74848260D01*
X125871333Y-74765000D01*
X125588667Y-74765000D01*
X125170091Y-74848260D01*
X124695423Y-75165423D01*
X124460000Y-75517758D01*
X124224577Y-75165423D01*
X123749909Y-74848260D01*
X123331333Y-74765000D01*
X123048667Y-74765000D01*
X122630091Y-74848260D01*
X122155423Y-75165423D01*
X121920000Y-75517758D01*
X121684577Y-75165423D01*
X121209909Y-74848260D01*
X120791333Y-74765000D01*
X120508667Y-74765000D01*
X120090091Y-74848260D01*
X119615423Y-75165423D01*
X119298260Y-75640091D01*
X119186887Y-76200000D01*
X117854000Y-76200000D01*
X117854000Y-73466801D01*
X118678802Y-72642000D01*
X129211153Y-72642000D01*
X129286000Y-72656888D01*
X129360847Y-72642000D01*
X129360852Y-72642000D01*
X129582537Y-72597904D01*
X129833929Y-72429929D01*
X129876331Y-72366470D01*
X131124803Y-71118000D01*
X135695977Y-71118000D01*
X135662560Y-71286000D01*
X135662560Y-72986000D01*
X135711843Y-73233765D01*
X135852191Y-73443809D01*
X136062235Y-73584157D01*
X136310000Y-73633440D01*
X138010000Y-73633440D01*
X138257765Y-73584157D01*
X138467809Y-73443809D01*
X138608157Y-73233765D01*
X138617184Y-73188381D01*
X138629375Y-73206625D01*
X139120582Y-73534839D01*
X139553744Y-73621000D01*
X139846256Y-73621000D01*
X140279418Y-73534839D01*
X140770625Y-73206625D01*
X140970000Y-72908239D01*
X141169375Y-73206625D01*
X141660582Y-73534839D01*
X142093744Y-73621000D01*
X142386256Y-73621000D01*
X142819418Y-73534839D01*
X143310625Y-73206625D01*
X143510000Y-72908239D01*
X143709375Y-73206625D01*
X144200582Y-73534839D01*
X144633744Y-73621000D01*
X144926256Y-73621000D01*
X145359418Y-73534839D01*
X145850625Y-73206625D01*
X146050000Y-72908239D01*
X146249375Y-73206625D01*
X146740582Y-73534839D01*
X147173744Y-73621000D01*
X147466256Y-73621000D01*
X147899418Y-73534839D01*
X148390625Y-73206625D01*
X148718839Y-72715418D01*
X148834092Y-72136000D01*
X148718839Y-71556582D01*
X148425788Y-71118000D01*
X151309153Y-71118000D01*
X151384000Y-71132888D01*
X151458847Y-71118000D01*
X151458852Y-71118000D01*
X151680537Y-71073904D01*
X151931929Y-70905929D01*
X151974331Y-70842470D01*
X152854473Y-69962329D01*
X152917929Y-69919929D01*
X153085904Y-69668537D01*
X153130000Y-69446852D01*
X153130000Y-69446848D01*
X153144888Y-69372000D01*
X153130000Y-69297152D01*
X153130000Y-69107533D01*
X153243916Y-69031416D01*
X153437102Y-68742294D01*
X153504940Y-68401250D01*
X153504940Y-67488750D01*
X153437102Y-67147706D01*
X153243916Y-66858584D01*
X152954794Y-66665398D01*
X152613750Y-66597560D01*
X152126250Y-66597560D01*
X151785206Y-66665398D01*
X151496084Y-66858584D01*
X151432500Y-66953744D01*
X151368916Y-66858584D01*
X151215000Y-66755740D01*
X151215000Y-65276910D01*
X158229695Y-65276910D01*
X158596640Y-65772343D01*
X160002171Y-66365736D01*
X161527793Y-66376087D01*
X162941246Y-65801819D01*
X162985360Y-65772343D01*
X163352305Y-65276910D01*
X160791000Y-62715605D01*
X158229695Y-65276910D01*
X151215000Y-65276910D01*
X151215000Y-64268178D01*
X151512656Y-64069291D01*
X151566673Y-64199699D01*
X151745302Y-64378327D01*
X151978691Y-64475000D01*
X152669250Y-64475000D01*
X152828000Y-64316250D01*
X152828000Y-62992000D01*
X153082000Y-62992000D01*
X153082000Y-64316250D01*
X153240750Y-64475000D01*
X153931309Y-64475000D01*
X154164698Y-64378327D01*
X154343327Y-64199699D01*
X154440000Y-63966310D01*
X154440000Y-63272793D01*
X156950913Y-63272793D01*
X157525181Y-64686246D01*
X157554657Y-64730360D01*
X158050090Y-65097305D01*
X160611395Y-62536000D01*
X158050090Y-59974695D01*
X157554657Y-60341640D01*
X156961264Y-61747171D01*
X156950913Y-63272793D01*
X154440000Y-63272793D01*
X154440000Y-63150750D01*
X154281250Y-62992000D01*
X153082000Y-62992000D01*
X152828000Y-62992000D01*
X152808000Y-62992000D01*
X152808000Y-62738000D01*
X152828000Y-62738000D01*
X152828000Y-61413750D01*
X153082000Y-61413750D01*
X153082000Y-62738000D01*
X154281250Y-62738000D01*
X154440000Y-62579250D01*
X154440000Y-61763690D01*
X154343327Y-61530301D01*
X154164698Y-61351673D01*
X153931309Y-61255000D01*
X153240750Y-61255000D01*
X153082000Y-61413750D01*
X152828000Y-61413750D01*
X152669250Y-61255000D01*
X151978691Y-61255000D01*
X151745302Y-61351673D01*
X151566673Y-61530301D01*
X151512656Y-61660709D01*
X151034418Y-61341161D01*
X150455000Y-61225908D01*
X149875583Y-61341161D01*
X149384375Y-61669375D01*
X149205000Y-61937829D01*
X149025625Y-61669375D01*
X148534418Y-61341161D01*
X147955000Y-61225908D01*
X147375583Y-61341161D01*
X146884375Y-61669375D01*
X146556161Y-62160582D01*
X146470000Y-62593744D01*
X146470000Y-63136255D01*
X146556161Y-63569417D01*
X146884375Y-64060625D01*
X147375582Y-64388839D01*
X147955000Y-64504092D01*
X148534417Y-64388839D01*
X149025625Y-64060625D01*
X149205000Y-63792171D01*
X149384375Y-64060625D01*
X149695000Y-64268178D01*
X149695001Y-66809194D01*
X149621084Y-66858584D01*
X149427898Y-67147706D01*
X149360060Y-67488750D01*
X149360060Y-68401250D01*
X149427898Y-68742294D01*
X149621084Y-69031416D01*
X149910206Y-69224602D01*
X150251250Y-69292440D01*
X150738750Y-69292440D01*
X151079794Y-69224602D01*
X151368916Y-69031416D01*
X151432500Y-68936256D01*
X151496084Y-69031416D01*
X151579827Y-69087371D01*
X151069199Y-69598000D01*
X141533318Y-69598000D01*
X141655903Y-69414538D01*
X141655904Y-69414537D01*
X141700000Y-69192852D01*
X141700000Y-69192848D01*
X141714888Y-69118001D01*
X141711303Y-69099980D01*
X141813916Y-69031416D01*
X142007102Y-68742294D01*
X142074940Y-68401250D01*
X142074940Y-67488750D01*
X142007102Y-67147706D01*
X141813916Y-66858584D01*
X141524794Y-66665398D01*
X141183750Y-66597560D01*
X140696250Y-66597560D01*
X140355206Y-66665398D01*
X140066084Y-66858584D01*
X140002500Y-66953744D01*
X139938916Y-66858584D01*
X139785000Y-66755740D01*
X139785000Y-64268178D01*
X140082656Y-64069291D01*
X140136673Y-64199699D01*
X140315302Y-64378327D01*
X140548691Y-64475000D01*
X141239250Y-64475000D01*
X141398000Y-64316250D01*
X141398000Y-62992000D01*
X141652000Y-62992000D01*
X141652000Y-64316250D01*
X141810750Y-64475000D01*
X142501309Y-64475000D01*
X142734698Y-64378327D01*
X142913327Y-64199699D01*
X143010000Y-63966310D01*
X143010000Y-63150750D01*
X142851250Y-62992000D01*
X141652000Y-62992000D01*
X141398000Y-62992000D01*
X141378000Y-62992000D01*
X141378000Y-62738000D01*
X141398000Y-62738000D01*
X141398000Y-61413750D01*
X141652000Y-61413750D01*
X141652000Y-62738000D01*
X142851250Y-62738000D01*
X143010000Y-62579250D01*
X143010000Y-61763690D01*
X142913327Y-61530301D01*
X142734698Y-61351673D01*
X142501309Y-61255000D01*
X141810750Y-61255000D01*
X141652000Y-61413750D01*
X141398000Y-61413750D01*
X141239250Y-61255000D01*
X140548691Y-61255000D01*
X140315302Y-61351673D01*
X140136673Y-61530301D01*
X140082656Y-61660709D01*
X139604418Y-61341161D01*
X139025000Y-61225908D01*
X138445583Y-61341161D01*
X137954375Y-61669375D01*
X137775000Y-61937829D01*
X137595625Y-61669375D01*
X137104418Y-61341161D01*
X136525000Y-61225908D01*
X135945583Y-61341161D01*
X135454375Y-61669375D01*
X135126161Y-62160582D01*
X135040000Y-62593744D01*
X135040000Y-63136255D01*
X135126161Y-63569417D01*
X135454375Y-64060625D01*
X135945582Y-64388839D01*
X136525000Y-64504092D01*
X137104417Y-64388839D01*
X137595625Y-64060625D01*
X137775000Y-63792171D01*
X137954375Y-64060625D01*
X138265000Y-64268178D01*
X138265001Y-66809194D01*
X138191084Y-66858584D01*
X137997898Y-67147706D01*
X137930060Y-67488750D01*
X137930060Y-68401250D01*
X137997898Y-68742294D01*
X138191084Y-69031416D01*
X138278761Y-69090000D01*
X130376846Y-69090000D01*
X130314731Y-69077644D01*
X130383916Y-69031416D01*
X130577102Y-68742294D01*
X130644940Y-68401250D01*
X130644940Y-67488750D01*
X130577102Y-67147706D01*
X130383916Y-66858584D01*
X130094794Y-66665398D01*
X129753750Y-66597560D01*
X129266250Y-66597560D01*
X128925206Y-66665398D01*
X128636084Y-66858584D01*
X128572500Y-66953744D01*
X128508916Y-66858584D01*
X128355000Y-66755740D01*
X128355000Y-64268178D01*
X128652656Y-64069291D01*
X128706673Y-64199699D01*
X128885302Y-64378327D01*
X129118691Y-64475000D01*
X129809250Y-64475000D01*
X129968000Y-64316250D01*
X129968000Y-62992000D01*
X130222000Y-62992000D01*
X130222000Y-64316250D01*
X130380750Y-64475000D01*
X131071309Y-64475000D01*
X131304698Y-64378327D01*
X131483327Y-64199699D01*
X131580000Y-63966310D01*
X131580000Y-63150750D01*
X131421250Y-62992000D01*
X130222000Y-62992000D01*
X129968000Y-62992000D01*
X129948000Y-62992000D01*
X129948000Y-62738000D01*
X129968000Y-62738000D01*
X129968000Y-61413750D01*
X130222000Y-61413750D01*
X130222000Y-62738000D01*
X131421250Y-62738000D01*
X131580000Y-62579250D01*
X131580000Y-61763690D01*
X131483327Y-61530301D01*
X131304698Y-61351673D01*
X131071309Y-61255000D01*
X130380750Y-61255000D01*
X130222000Y-61413750D01*
X129968000Y-61413750D01*
X129809250Y-61255000D01*
X129118691Y-61255000D01*
X128885302Y-61351673D01*
X128706673Y-61530301D01*
X128652656Y-61660709D01*
X128174418Y-61341161D01*
X127595000Y-61225908D01*
X127015583Y-61341161D01*
X126524375Y-61669375D01*
X126345000Y-61937829D01*
X126165625Y-61669375D01*
X125674418Y-61341161D01*
X125095000Y-61225908D01*
X124515583Y-61341161D01*
X124024375Y-61669375D01*
X123696161Y-62160582D01*
X123610000Y-62593744D01*
X123610000Y-63136255D01*
X123696161Y-63569417D01*
X124024375Y-64060625D01*
X124515582Y-64388839D01*
X125095000Y-64504092D01*
X125674417Y-64388839D01*
X126165625Y-64060625D01*
X126345000Y-63792171D01*
X126524375Y-64060625D01*
X126835000Y-64268178D01*
X126835001Y-66809194D01*
X126761084Y-66858584D01*
X126567898Y-67147706D01*
X126500060Y-67488750D01*
X126500060Y-68401250D01*
X126567898Y-68742294D01*
X126761084Y-69031416D01*
X127050206Y-69224602D01*
X127138111Y-69242087D01*
X126528199Y-69852000D01*
X118849319Y-69852000D01*
X118840000Y-69805152D01*
X118840000Y-69107533D01*
X118953916Y-69031416D01*
X119147102Y-68742294D01*
X119214940Y-68401250D01*
X119214940Y-67488750D01*
X119147102Y-67147706D01*
X118953916Y-66858584D01*
X118664794Y-66665398D01*
X118323750Y-66597560D01*
X117836250Y-66597560D01*
X117495206Y-66665398D01*
X117206084Y-66858584D01*
X117142500Y-66953744D01*
X117078916Y-66858584D01*
X116925000Y-66755740D01*
X116925000Y-64268178D01*
X117222656Y-64069291D01*
X117276673Y-64199699D01*
X117455302Y-64378327D01*
X117688691Y-64475000D01*
X118379250Y-64475000D01*
X118538000Y-64316250D01*
X118538000Y-62992000D01*
X118792000Y-62992000D01*
X118792000Y-64316250D01*
X118950750Y-64475000D01*
X119641309Y-64475000D01*
X119874698Y-64378327D01*
X120053327Y-64199699D01*
X120150000Y-63966310D01*
X120150000Y-63150750D01*
X119991250Y-62992000D01*
X118792000Y-62992000D01*
X118538000Y-62992000D01*
X118518000Y-62992000D01*
X118518000Y-62738000D01*
X118538000Y-62738000D01*
X118538000Y-61413750D01*
X118792000Y-61413750D01*
X118792000Y-62738000D01*
X119991250Y-62738000D01*
X120150000Y-62579250D01*
X120150000Y-61763690D01*
X120053327Y-61530301D01*
X119874698Y-61351673D01*
X119641309Y-61255000D01*
X118950750Y-61255000D01*
X118792000Y-61413750D01*
X118538000Y-61413750D01*
X118379250Y-61255000D01*
X117688691Y-61255000D01*
X117455302Y-61351673D01*
X117276673Y-61530301D01*
X117222656Y-61660709D01*
X116744418Y-61341161D01*
X116165000Y-61225908D01*
X115585583Y-61341161D01*
X115094375Y-61669375D01*
X114915000Y-61937829D01*
X114735625Y-61669375D01*
X114244418Y-61341161D01*
X113665000Y-61225908D01*
X113085583Y-61341161D01*
X112594375Y-61669375D01*
X112266161Y-62160582D01*
X112180000Y-62593744D01*
X108026000Y-62593744D01*
X108026000Y-62091431D01*
X107685741Y-61269974D01*
X107057026Y-60641259D01*
X106235569Y-60301000D01*
X105346431Y-60301000D01*
X104524974Y-60641259D01*
X103896259Y-61269974D01*
X103556000Y-62091431D01*
X102310000Y-62091431D01*
X102310000Y-61004666D01*
X102372958Y-60506302D01*
X102541305Y-60081107D01*
X102810101Y-59711142D01*
X103162462Y-59419644D01*
X103576244Y-59224933D01*
X104058662Y-59132907D01*
X104151164Y-59130000D01*
X158985783Y-59130000D01*
X158640754Y-59270181D01*
G04 #@! TD*
M02*
