G04 #@! TF.GenerationSoftware,KiCad,Pcbnew,(5.0.2)-1*
G04 #@! TF.CreationDate,2019-02-09T20:55:45-06:00*
G04 #@! TF.ProjectId,Halloween-Controller,48616c6c-6f77-4656-956e-2d436f6e7472,0.1*
G04 #@! TF.SameCoordinates,Original*
G04 #@! TF.FileFunction,Legend,Bot*
G04 #@! TF.FilePolarity,Positive*
%FSLAX46Y46*%
G04 Gerber Fmt 4.6, Leading zero omitted, Abs format (unit mm)*
G04 Created by KiCad (PCBNEW (5.0.2)-1) date 2/9/2019 8:55:45 PM*
%MOMM*%
%LPD*%
G01*
G04 APERTURE LIST*
%ADD10C,0.150000*%
%ADD11C,0.120000*%
G04 APERTURE END LIST*
D10*
X131182285Y-71255380D02*
X131182285Y-70255380D01*
X131182285Y-70731571D02*
X130610857Y-70731571D01*
X130610857Y-71255380D02*
X130610857Y-70255380D01*
X129706095Y-71255380D02*
X129706095Y-70731571D01*
X129753714Y-70636333D01*
X129848952Y-70588714D01*
X130039428Y-70588714D01*
X130134666Y-70636333D01*
X129706095Y-71207761D02*
X129801333Y-71255380D01*
X130039428Y-71255380D01*
X130134666Y-71207761D01*
X130182285Y-71112523D01*
X130182285Y-71017285D01*
X130134666Y-70922047D01*
X130039428Y-70874428D01*
X129801333Y-70874428D01*
X129706095Y-70826809D01*
X129087047Y-71255380D02*
X129182285Y-71207761D01*
X129229904Y-71112523D01*
X129229904Y-70255380D01*
X128563238Y-71255380D02*
X128658476Y-71207761D01*
X128706095Y-71112523D01*
X128706095Y-70255380D01*
X128039428Y-71255380D02*
X128134666Y-71207761D01*
X128182285Y-71160142D01*
X128229904Y-71064904D01*
X128229904Y-70779190D01*
X128182285Y-70683952D01*
X128134666Y-70636333D01*
X128039428Y-70588714D01*
X127896571Y-70588714D01*
X127801333Y-70636333D01*
X127753714Y-70683952D01*
X127706095Y-70779190D01*
X127706095Y-71064904D01*
X127753714Y-71160142D01*
X127801333Y-71207761D01*
X127896571Y-71255380D01*
X128039428Y-71255380D01*
X127372761Y-70588714D02*
X127182285Y-71255380D01*
X126991809Y-70779190D01*
X126801333Y-71255380D01*
X126610857Y-70588714D01*
X125848952Y-71207761D02*
X125944190Y-71255380D01*
X126134666Y-71255380D01*
X126229904Y-71207761D01*
X126277523Y-71112523D01*
X126277523Y-70731571D01*
X126229904Y-70636333D01*
X126134666Y-70588714D01*
X125944190Y-70588714D01*
X125848952Y-70636333D01*
X125801333Y-70731571D01*
X125801333Y-70826809D01*
X126277523Y-70922047D01*
X124991809Y-71207761D02*
X125087047Y-71255380D01*
X125277523Y-71255380D01*
X125372761Y-71207761D01*
X125420380Y-71112523D01*
X125420380Y-70731571D01*
X125372761Y-70636333D01*
X125277523Y-70588714D01*
X125087047Y-70588714D01*
X124991809Y-70636333D01*
X124944190Y-70731571D01*
X124944190Y-70826809D01*
X125420380Y-70922047D01*
X124515619Y-70588714D02*
X124515619Y-71255380D01*
X124515619Y-70683952D02*
X124468000Y-70636333D01*
X124372761Y-70588714D01*
X124229904Y-70588714D01*
X124134666Y-70636333D01*
X124087047Y-70731571D01*
X124087047Y-71255380D01*
X123610857Y-70874428D02*
X122848952Y-70874428D01*
X121944190Y-71255380D02*
X121944190Y-70255380D01*
X121944190Y-71207761D02*
X122039428Y-71255380D01*
X122229904Y-71255380D01*
X122325142Y-71207761D01*
X122372761Y-71160142D01*
X122420380Y-71064904D01*
X122420380Y-70779190D01*
X122372761Y-70683952D01*
X122325142Y-70636333D01*
X122229904Y-70588714D01*
X122039428Y-70588714D01*
X121944190Y-70636333D01*
X121039428Y-70588714D02*
X121039428Y-71255380D01*
X121468000Y-70588714D02*
X121468000Y-71112523D01*
X121420380Y-71207761D01*
X121325142Y-71255380D01*
X121182285Y-71255380D01*
X121087047Y-71207761D01*
X121039428Y-71160142D01*
X120563238Y-71255380D02*
X120563238Y-70588714D01*
X120563238Y-70255380D02*
X120610857Y-70303000D01*
X120563238Y-70350619D01*
X120515619Y-70303000D01*
X120563238Y-70255380D01*
X120563238Y-70350619D01*
X120087047Y-70588714D02*
X120087047Y-71255380D01*
X120087047Y-70683952D02*
X120039428Y-70636333D01*
X119944190Y-70588714D01*
X119801333Y-70588714D01*
X119706095Y-70636333D01*
X119658476Y-70731571D01*
X119658476Y-71255380D01*
X119039428Y-71255380D02*
X119134666Y-71207761D01*
X119182285Y-71160142D01*
X119229904Y-71064904D01*
X119229904Y-70779190D01*
X119182285Y-70683952D01*
X119134666Y-70636333D01*
X119039428Y-70588714D01*
X118896571Y-70588714D01*
X118801333Y-70636333D01*
X118753714Y-70683952D01*
X118706095Y-70779190D01*
X118706095Y-71064904D01*
X118753714Y-71160142D01*
X118801333Y-71207761D01*
X118896571Y-71255380D01*
X119039428Y-71255380D01*
X129491809Y-72238714D02*
X129253714Y-72905380D01*
X129015619Y-72238714D01*
X128682285Y-72000619D02*
X128634666Y-71953000D01*
X128539428Y-71905380D01*
X128301333Y-71905380D01*
X128206095Y-71953000D01*
X128158476Y-72000619D01*
X128110857Y-72095857D01*
X128110857Y-72191095D01*
X128158476Y-72333952D01*
X128729904Y-72905380D01*
X128110857Y-72905380D01*
X127491809Y-71905380D02*
X127396571Y-71905380D01*
X127301333Y-71953000D01*
X127253714Y-72000619D01*
X127206095Y-72095857D01*
X127158476Y-72286333D01*
X127158476Y-72524428D01*
X127206095Y-72714904D01*
X127253714Y-72810142D01*
X127301333Y-72857761D01*
X127396571Y-72905380D01*
X127491809Y-72905380D01*
X127587047Y-72857761D01*
X127634666Y-72810142D01*
X127682285Y-72714904D01*
X127729904Y-72524428D01*
X127729904Y-72286333D01*
X127682285Y-72095857D01*
X127634666Y-72000619D01*
X127587047Y-71953000D01*
X127491809Y-71905380D01*
X126206095Y-72905380D02*
X126777523Y-72905380D01*
X126491809Y-72905380D02*
X126491809Y-71905380D01*
X126587047Y-72048238D01*
X126682285Y-72143476D01*
X126777523Y-72191095D01*
X125729904Y-72905380D02*
X125539428Y-72905380D01*
X125444190Y-72857761D01*
X125396571Y-72810142D01*
X125301333Y-72667285D01*
X125253714Y-72476809D01*
X125253714Y-72095857D01*
X125301333Y-72000619D01*
X125348952Y-71953000D01*
X125444190Y-71905380D01*
X125634666Y-71905380D01*
X125729904Y-71953000D01*
X125777523Y-72000619D01*
X125825142Y-72095857D01*
X125825142Y-72333952D01*
X125777523Y-72429190D01*
X125729904Y-72476809D01*
X125634666Y-72524428D01*
X125444190Y-72524428D01*
X125348952Y-72476809D01*
X125301333Y-72429190D01*
X125253714Y-72333952D01*
X124825142Y-72810142D02*
X124777523Y-72857761D01*
X124825142Y-72905380D01*
X124872761Y-72857761D01*
X124825142Y-72810142D01*
X124825142Y-72905380D01*
X124158476Y-71905380D02*
X124063238Y-71905380D01*
X123968000Y-71953000D01*
X123920380Y-72000619D01*
X123872761Y-72095857D01*
X123825142Y-72286333D01*
X123825142Y-72524428D01*
X123872761Y-72714904D01*
X123920380Y-72810142D01*
X123968000Y-72857761D01*
X124063238Y-72905380D01*
X124158476Y-72905380D01*
X124253714Y-72857761D01*
X124301333Y-72810142D01*
X124348952Y-72714904D01*
X124396571Y-72524428D01*
X124396571Y-72286333D01*
X124348952Y-72095857D01*
X124301333Y-72000619D01*
X124253714Y-71953000D01*
X124158476Y-71905380D01*
X123444190Y-72000619D02*
X123396571Y-71953000D01*
X123301333Y-71905380D01*
X123063238Y-71905380D01*
X122968000Y-71953000D01*
X122920380Y-72000619D01*
X122872761Y-72095857D01*
X122872761Y-72191095D01*
X122920380Y-72333952D01*
X123491809Y-72905380D01*
X122872761Y-72905380D01*
X122444190Y-72810142D02*
X122396571Y-72857761D01*
X122444190Y-72905380D01*
X122491809Y-72857761D01*
X122444190Y-72810142D01*
X122444190Y-72905380D01*
X121777523Y-71905380D02*
X121682285Y-71905380D01*
X121587047Y-71953000D01*
X121539428Y-72000619D01*
X121491809Y-72095857D01*
X121444190Y-72286333D01*
X121444190Y-72524428D01*
X121491809Y-72714904D01*
X121539428Y-72810142D01*
X121587047Y-72857761D01*
X121682285Y-72905380D01*
X121777523Y-72905380D01*
X121872761Y-72857761D01*
X121920380Y-72810142D01*
X121968000Y-72714904D01*
X122015619Y-72524428D01*
X122015619Y-72286333D01*
X121968000Y-72095857D01*
X121920380Y-72000619D01*
X121872761Y-71953000D01*
X121777523Y-71905380D01*
X120968000Y-72905380D02*
X120777523Y-72905380D01*
X120682285Y-72857761D01*
X120634666Y-72810142D01*
X120539428Y-72667285D01*
X120491809Y-72476809D01*
X120491809Y-72095857D01*
X120539428Y-72000619D01*
X120587047Y-71953000D01*
X120682285Y-71905380D01*
X120872761Y-71905380D01*
X120968000Y-71953000D01*
X121015619Y-72000619D01*
X121063238Y-72095857D01*
X121063238Y-72333952D01*
X121015619Y-72429190D01*
X120968000Y-72476809D01*
X120872761Y-72524428D01*
X120682285Y-72524428D01*
X120587047Y-72476809D01*
X120539428Y-72429190D01*
X120491809Y-72333952D01*
D11*
G04 #@! TO.C,D1*
X137897000Y-81986000D02*
X135037000Y-81986000D01*
X135037000Y-81986000D02*
X135037000Y-80066000D01*
X135037000Y-80066000D02*
X137897000Y-80066000D01*
G04 #@! TO.C,R3*
X113738922Y-93420000D02*
X114256078Y-93420000D01*
X113738922Y-92000000D02*
X114256078Y-92000000D01*
G04 #@! TO.C,D1*
D10*
X134596095Y-81478380D02*
X134596095Y-80478380D01*
X134358000Y-80478380D01*
X134215142Y-80526000D01*
X134119904Y-80621238D01*
X134072285Y-80716476D01*
X134024666Y-80906952D01*
X134024666Y-81049809D01*
X134072285Y-81240285D01*
X134119904Y-81335523D01*
X134215142Y-81430761D01*
X134358000Y-81478380D01*
X134596095Y-81478380D01*
X133072285Y-81478380D02*
X133643714Y-81478380D01*
X133358000Y-81478380D02*
X133358000Y-80478380D01*
X133453238Y-80621238D01*
X133548476Y-80716476D01*
X133643714Y-80764095D01*
G04 #@! TO.C,R3*
X114164166Y-94812380D02*
X114497500Y-94336190D01*
X114735595Y-94812380D02*
X114735595Y-93812380D01*
X114354642Y-93812380D01*
X114259404Y-93860000D01*
X114211785Y-93907619D01*
X114164166Y-94002857D01*
X114164166Y-94145714D01*
X114211785Y-94240952D01*
X114259404Y-94288571D01*
X114354642Y-94336190D01*
X114735595Y-94336190D01*
X113830833Y-93812380D02*
X113211785Y-93812380D01*
X113545119Y-94193333D01*
X113402261Y-94193333D01*
X113307023Y-94240952D01*
X113259404Y-94288571D01*
X113211785Y-94383809D01*
X113211785Y-94621904D01*
X113259404Y-94717142D01*
X113307023Y-94764761D01*
X113402261Y-94812380D01*
X113687976Y-94812380D01*
X113783214Y-94764761D01*
X113830833Y-94717142D01*
G04 #@! TD*
M02*
