M48
;DRILL file {KiCad (5.0.2)-1} date 2/9/2019 8:55:48 PM
;FORMAT={-:-/ absolute / inch / decimal}
FMAT,2
INCH,TZ
T1C0.0300
T2C0.0315
T3C0.0315
T4C0.0374
T5C0.0394
T6C0.1260
%
G90
G05
T1
X5.85Y-3.8
X5.95Y-3.8
X6.05Y-3.8
T2
X4.75Y-3.
X4.75Y-3.3
X4.85Y-3.
X4.85Y-3.3
X4.95Y-3.
X4.95Y-3.3
X5.05Y-3.
X5.05Y-3.3
X5.15Y-3.
X5.15Y-3.3
X5.25Y-3.
X5.25Y-3.3
X5.35Y-3.
X5.35Y-3.3
X5.45Y-3.
X5.45Y-3.3
X5.55Y-3.
X5.55Y-3.3
X5.65Y-3.
X5.65Y-3.3
X5.75Y-3.
X5.75Y-3.3
X5.85Y-3.
X5.85Y-3.3
X5.95Y-3.
X5.95Y-3.3
X6.05Y-3.
X6.05Y-3.3
T3
X5.4278Y-3.495
X5.62Y-3.495
T4
X4.925Y-2.475
X5.0234Y-2.475
X5.1219Y-2.475
X5.375Y-2.475
X5.4734Y-2.475
X5.5719Y-2.475
X5.825Y-2.475
X5.9234Y-2.475
X6.0219Y-2.475
X4.475Y-2.475
X4.5734Y-2.475
X4.6719Y-2.475
T5
X5.4Y-2.84
X5.5Y-2.84
X5.6Y-2.84
X5.7Y-2.84
X5.8Y-2.84
X4.103Y-2.904
X4.103Y-3.004
X4.103Y-3.104
X4.103Y-3.204
X4.103Y-3.304
X4.103Y-3.404
X4.103Y-3.504
X4.103Y-3.604
X5.85Y-3.47
X5.95Y-3.47
X6.05Y-3.47
X5.17Y-3.88
X5.27Y-3.88
X4.6547Y-3.65
X4.95Y-3.65
X6.375Y-2.75
X6.375Y-2.85
X6.375Y-2.95
X6.375Y-3.05
X6.375Y-3.15
X6.375Y-3.25
X6.375Y-3.35
X6.375Y-3.45
X6.375Y-3.55
X4.45Y-3.88
X4.55Y-3.88
X4.65Y-3.88
X4.75Y-3.88
X4.85Y-3.88
X4.95Y-3.88
T6
X6.3304Y-2.462
T0
M30
