G04 #@! TF.GenerationSoftware,KiCad,Pcbnew,(5.0.2)-1*
G04 #@! TF.CreationDate,2019-02-09T20:55:45-06:00*
G04 #@! TF.ProjectId,Halloween-Controller,48616c6c-6f77-4656-956e-2d436f6e7472,0.1*
G04 #@! TF.SameCoordinates,Original*
G04 #@! TF.FileFunction,Copper,L2,Bot*
G04 #@! TF.FilePolarity,Positive*
%FSLAX46Y46*%
G04 Gerber Fmt 4.6, Leading zero omitted, Abs format (unit mm)*
G04 Created by KiCad (PCBNEW (5.0.2)-1) date 2/9/2019 8:55:45 PM*
%MOMM*%
%LPD*%
G01*
G04 APERTURE LIST*
G04 #@! TA.AperFunction,ComponentPad*
%ADD10R,1.600000X1.600000*%
G04 #@! TD*
G04 #@! TA.AperFunction,ComponentPad*
%ADD11O,1.600000X1.600000*%
G04 #@! TD*
G04 #@! TA.AperFunction,Conductor*
%ADD12C,0.100000*%
G04 #@! TD*
G04 #@! TA.AperFunction,SMDPad,CuDef*
%ADD13C,1.150000*%
G04 #@! TD*
G04 #@! TA.AperFunction,ComponentPad*
%ADD14O,1.700000X1.950000*%
G04 #@! TD*
G04 #@! TA.AperFunction,ComponentPad*
%ADD15C,1.700000*%
G04 #@! TD*
G04 #@! TA.AperFunction,ComponentPad*
%ADD16R,1.700000X1.700000*%
G04 #@! TD*
G04 #@! TA.AperFunction,ComponentPad*
%ADD17O,1.700000X1.700000*%
G04 #@! TD*
G04 #@! TA.AperFunction,SMDPad,CuDef*
%ADD18C,0.975000*%
G04 #@! TD*
G04 #@! TA.AperFunction,ComponentPad*
%ADD19C,1.501140*%
G04 #@! TD*
G04 #@! TA.AperFunction,ComponentPad*
%ADD20C,6.400000*%
G04 #@! TD*
G04 #@! TA.AperFunction,ComponentPad*
%ADD21C,2.000000*%
G04 #@! TD*
G04 #@! TA.AperFunction,ComponentPad*
%ADD22C,1.524000*%
G04 #@! TD*
G04 #@! TA.AperFunction,Conductor*
%ADD23C,0.250000*%
G04 #@! TD*
G04 #@! TA.AperFunction,Conductor*
%ADD24C,0.254000*%
G04 #@! TD*
G04 APERTURE END LIST*
D10*
G04 #@! TO.P,IC1,1*
G04 #@! TO.N,Net-(C1-Pad1)*
X120650000Y-83820000D03*
D11*
G04 #@! TO.P,IC1,15*
G04 #@! TO.N,N/C*
X153670000Y-76200000D03*
G04 #@! TO.P,IC1,2*
G04 #@! TO.N,Net-(IC1-Pad2)*
X123190000Y-83820000D03*
G04 #@! TO.P,IC1,16*
G04 #@! TO.N,/GPIO_10*
X151130000Y-76200000D03*
G04 #@! TO.P,IC1,3*
G04 #@! TO.N,Net-(IC1-Pad3)*
X125730000Y-83820000D03*
G04 #@! TO.P,IC1,17*
G04 #@! TO.N,Net-(IC1-Pad17)*
X148590000Y-76200000D03*
G04 #@! TO.P,IC1,4*
G04 #@! TO.N,/GPIO_2*
X128270000Y-83820000D03*
G04 #@! TO.P,IC1,18*
G04 #@! TO.N,Net-(IC1-Pad18)*
X146050000Y-76200000D03*
G04 #@! TO.P,IC1,5*
G04 #@! TO.N,/GPIO_3*
X130810000Y-83820000D03*
G04 #@! TO.P,IC1,19*
G04 #@! TO.N,Net-(IC1-Pad19)*
X143510000Y-76200000D03*
G04 #@! TO.P,IC1,6*
G04 #@! TO.N,/GPIO_4*
X133350000Y-83820000D03*
G04 #@! TO.P,IC1,20*
G04 #@! TO.N,+5V*
X140970000Y-76200000D03*
G04 #@! TO.P,IC1,7*
G04 #@! TO.N,Net-(D1-Pad1)*
X135890000Y-83820000D03*
G04 #@! TO.P,IC1,21*
G04 #@! TO.N,N/C*
X138430000Y-76200000D03*
G04 #@! TO.P,IC1,8*
G04 #@! TO.N,GND*
X138430000Y-83820000D03*
G04 #@! TO.P,IC1,22*
X135890000Y-76200000D03*
G04 #@! TO.P,IC1,9*
G04 #@! TO.N,Net-(C2-Pad1)*
X140970000Y-83820000D03*
G04 #@! TO.P,IC1,23*
G04 #@! TO.N,/AIO_0*
X133350000Y-76200000D03*
G04 #@! TO.P,IC1,10*
G04 #@! TO.N,Net-(C3-Pad1)*
X143510000Y-83820000D03*
G04 #@! TO.P,IC1,24*
G04 #@! TO.N,/AIO_1*
X130810000Y-76200000D03*
G04 #@! TO.P,IC1,11*
G04 #@! TO.N,/GPIO_5*
X146050000Y-83820000D03*
G04 #@! TO.P,IC1,25*
G04 #@! TO.N,/AIO_2*
X128270000Y-76200000D03*
G04 #@! TO.P,IC1,12*
G04 #@! TO.N,/GPIO_6*
X148590000Y-83820000D03*
G04 #@! TO.P,IC1,26*
G04 #@! TO.N,/AIO_3*
X125730000Y-76200000D03*
G04 #@! TO.P,IC1,13*
G04 #@! TO.N,/GPIO_7*
X151130000Y-83820000D03*
G04 #@! TO.P,IC1,27*
G04 #@! TO.N,Net-(IC1-Pad27)*
X123190000Y-76200000D03*
G04 #@! TO.P,IC1,14*
G04 #@! TO.N,/GPIO_8*
X153670000Y-83820000D03*
G04 #@! TO.P,IC1,28*
G04 #@! TO.N,Net-(IC1-Pad28)*
X120650000Y-76200000D03*
G04 #@! TD*
D12*
G04 #@! TO.N,Net-(D1-Pad1)*
G04 #@! TO.C,D1*
G36*
X136221505Y-80327204D02*
X136245773Y-80330804D01*
X136269572Y-80336765D01*
X136292671Y-80345030D01*
X136314850Y-80355520D01*
X136335893Y-80368132D01*
X136355599Y-80382747D01*
X136373777Y-80399223D01*
X136390253Y-80417401D01*
X136404868Y-80437107D01*
X136417480Y-80458150D01*
X136427970Y-80480329D01*
X136436235Y-80503428D01*
X136442196Y-80527227D01*
X136445796Y-80551495D01*
X136447000Y-80575999D01*
X136447000Y-81476001D01*
X136445796Y-81500505D01*
X136442196Y-81524773D01*
X136436235Y-81548572D01*
X136427970Y-81571671D01*
X136417480Y-81593850D01*
X136404868Y-81614893D01*
X136390253Y-81634599D01*
X136373777Y-81652777D01*
X136355599Y-81669253D01*
X136335893Y-81683868D01*
X136314850Y-81696480D01*
X136292671Y-81706970D01*
X136269572Y-81715235D01*
X136245773Y-81721196D01*
X136221505Y-81724796D01*
X136197001Y-81726000D01*
X135546999Y-81726000D01*
X135522495Y-81724796D01*
X135498227Y-81721196D01*
X135474428Y-81715235D01*
X135451329Y-81706970D01*
X135429150Y-81696480D01*
X135408107Y-81683868D01*
X135388401Y-81669253D01*
X135370223Y-81652777D01*
X135353747Y-81634599D01*
X135339132Y-81614893D01*
X135326520Y-81593850D01*
X135316030Y-81571671D01*
X135307765Y-81548572D01*
X135301804Y-81524773D01*
X135298204Y-81500505D01*
X135297000Y-81476001D01*
X135297000Y-80575999D01*
X135298204Y-80551495D01*
X135301804Y-80527227D01*
X135307765Y-80503428D01*
X135316030Y-80480329D01*
X135326520Y-80458150D01*
X135339132Y-80437107D01*
X135353747Y-80417401D01*
X135370223Y-80399223D01*
X135388401Y-80382747D01*
X135408107Y-80368132D01*
X135429150Y-80355520D01*
X135451329Y-80345030D01*
X135474428Y-80336765D01*
X135498227Y-80330804D01*
X135522495Y-80327204D01*
X135546999Y-80326000D01*
X136197001Y-80326000D01*
X136221505Y-80327204D01*
X136221505Y-80327204D01*
G37*
D13*
G04 #@! TD*
G04 #@! TO.P,D1,1*
G04 #@! TO.N,Net-(D1-Pad1)*
X135872000Y-81026000D03*
D12*
G04 #@! TO.N,+5V*
G04 #@! TO.C,D1*
G36*
X138271505Y-80327204D02*
X138295773Y-80330804D01*
X138319572Y-80336765D01*
X138342671Y-80345030D01*
X138364850Y-80355520D01*
X138385893Y-80368132D01*
X138405599Y-80382747D01*
X138423777Y-80399223D01*
X138440253Y-80417401D01*
X138454868Y-80437107D01*
X138467480Y-80458150D01*
X138477970Y-80480329D01*
X138486235Y-80503428D01*
X138492196Y-80527227D01*
X138495796Y-80551495D01*
X138497000Y-80575999D01*
X138497000Y-81476001D01*
X138495796Y-81500505D01*
X138492196Y-81524773D01*
X138486235Y-81548572D01*
X138477970Y-81571671D01*
X138467480Y-81593850D01*
X138454868Y-81614893D01*
X138440253Y-81634599D01*
X138423777Y-81652777D01*
X138405599Y-81669253D01*
X138385893Y-81683868D01*
X138364850Y-81696480D01*
X138342671Y-81706970D01*
X138319572Y-81715235D01*
X138295773Y-81721196D01*
X138271505Y-81724796D01*
X138247001Y-81726000D01*
X137596999Y-81726000D01*
X137572495Y-81724796D01*
X137548227Y-81721196D01*
X137524428Y-81715235D01*
X137501329Y-81706970D01*
X137479150Y-81696480D01*
X137458107Y-81683868D01*
X137438401Y-81669253D01*
X137420223Y-81652777D01*
X137403747Y-81634599D01*
X137389132Y-81614893D01*
X137376520Y-81593850D01*
X137366030Y-81571671D01*
X137357765Y-81548572D01*
X137351804Y-81524773D01*
X137348204Y-81500505D01*
X137347000Y-81476001D01*
X137347000Y-80575999D01*
X137348204Y-80551495D01*
X137351804Y-80527227D01*
X137357765Y-80503428D01*
X137366030Y-80480329D01*
X137376520Y-80458150D01*
X137389132Y-80437107D01*
X137403747Y-80417401D01*
X137420223Y-80399223D01*
X137438401Y-80382747D01*
X137458107Y-80368132D01*
X137479150Y-80355520D01*
X137501329Y-80345030D01*
X137524428Y-80336765D01*
X137548227Y-80330804D01*
X137572495Y-80327204D01*
X137596999Y-80326000D01*
X138247001Y-80326000D01*
X138271505Y-80327204D01*
X138271505Y-80327204D01*
G37*
D13*
G04 #@! TD*
G04 #@! TO.P,D1,2*
G04 #@! TO.N,+5V*
X137922000Y-81026000D03*
D14*
G04 #@! TO.P,J1,3*
G04 #@! TO.N,+5V*
X113665000Y-62865000D03*
G04 #@! TO.P,J1,2*
G04 #@! TO.N,Net-(J1-Pad2)*
X116165000Y-62865000D03*
D12*
G04 #@! TD*
G04 #@! TO.N,GND*
G04 #@! TO.C,J1*
G36*
X119289504Y-61891204D02*
X119313773Y-61894804D01*
X119337571Y-61900765D01*
X119360671Y-61909030D01*
X119382849Y-61919520D01*
X119403893Y-61932133D01*
X119423598Y-61946747D01*
X119441777Y-61963223D01*
X119458253Y-61981402D01*
X119472867Y-62001107D01*
X119485480Y-62022151D01*
X119495970Y-62044329D01*
X119504235Y-62067429D01*
X119510196Y-62091227D01*
X119513796Y-62115496D01*
X119515000Y-62140000D01*
X119515000Y-63590000D01*
X119513796Y-63614504D01*
X119510196Y-63638773D01*
X119504235Y-63662571D01*
X119495970Y-63685671D01*
X119485480Y-63707849D01*
X119472867Y-63728893D01*
X119458253Y-63748598D01*
X119441777Y-63766777D01*
X119423598Y-63783253D01*
X119403893Y-63797867D01*
X119382849Y-63810480D01*
X119360671Y-63820970D01*
X119337571Y-63829235D01*
X119313773Y-63835196D01*
X119289504Y-63838796D01*
X119265000Y-63840000D01*
X118065000Y-63840000D01*
X118040496Y-63838796D01*
X118016227Y-63835196D01*
X117992429Y-63829235D01*
X117969329Y-63820970D01*
X117947151Y-63810480D01*
X117926107Y-63797867D01*
X117906402Y-63783253D01*
X117888223Y-63766777D01*
X117871747Y-63748598D01*
X117857133Y-63728893D01*
X117844520Y-63707849D01*
X117834030Y-63685671D01*
X117825765Y-63662571D01*
X117819804Y-63638773D01*
X117816204Y-63614504D01*
X117815000Y-63590000D01*
X117815000Y-62140000D01*
X117816204Y-62115496D01*
X117819804Y-62091227D01*
X117825765Y-62067429D01*
X117834030Y-62044329D01*
X117844520Y-62022151D01*
X117857133Y-62001107D01*
X117871747Y-61981402D01*
X117888223Y-61963223D01*
X117906402Y-61946747D01*
X117926107Y-61932133D01*
X117947151Y-61919520D01*
X117969329Y-61909030D01*
X117992429Y-61900765D01*
X118016227Y-61894804D01*
X118040496Y-61891204D01*
X118065000Y-61890000D01*
X119265000Y-61890000D01*
X119289504Y-61891204D01*
X119289504Y-61891204D01*
G37*
D15*
G04 #@! TO.P,J1,1*
G04 #@! TO.N,GND*
X118665000Y-62865000D03*
G04 #@! TD*
D16*
G04 #@! TO.P,J2,1*
G04 #@! TO.N,GND*
X113030000Y-98552000D03*
D17*
G04 #@! TO.P,J2,2*
G04 #@! TO.N,+5V*
X115570000Y-98552000D03*
G04 #@! TO.P,J2,3*
G04 #@! TO.N,N/C*
X118110000Y-98552000D03*
G04 #@! TO.P,J2,4*
G04 #@! TO.N,Net-(IC1-Pad2)*
X120650000Y-98552000D03*
G04 #@! TO.P,J2,5*
G04 #@! TO.N,Net-(IC1-Pad3)*
X123190000Y-98552000D03*
G04 #@! TO.P,J2,6*
G04 #@! TO.N,Net-(C1-Pad2)*
X125730000Y-98552000D03*
G04 #@! TD*
D16*
G04 #@! TO.P,J3,1*
G04 #@! TO.N,+5V*
X161925000Y-69850000D03*
D17*
G04 #@! TO.P,J3,2*
G04 #@! TO.N,Net-(J3-Pad2)*
X161925000Y-72390000D03*
G04 #@! TO.P,J3,3*
G04 #@! TO.N,GND*
X161925000Y-74930000D03*
G04 #@! TO.P,J3,4*
G04 #@! TO.N,+5V*
X161925000Y-77470000D03*
G04 #@! TO.P,J3,5*
G04 #@! TO.N,Net-(J3-Pad5)*
X161925000Y-80010000D03*
G04 #@! TO.P,J3,6*
G04 #@! TO.N,GND*
X161925000Y-82550000D03*
G04 #@! TO.P,J3,7*
G04 #@! TO.N,+5V*
X161925000Y-85090000D03*
G04 #@! TO.P,J3,8*
G04 #@! TO.N,Net-(J3-Pad8)*
X161925000Y-87630000D03*
G04 #@! TO.P,J3,9*
G04 #@! TO.N,GND*
X161925000Y-90170000D03*
G04 #@! TD*
D12*
G04 #@! TO.N,GND*
G04 #@! TO.C,J4*
G36*
X130719504Y-61891204D02*
X130743773Y-61894804D01*
X130767571Y-61900765D01*
X130790671Y-61909030D01*
X130812849Y-61919520D01*
X130833893Y-61932133D01*
X130853598Y-61946747D01*
X130871777Y-61963223D01*
X130888253Y-61981402D01*
X130902867Y-62001107D01*
X130915480Y-62022151D01*
X130925970Y-62044329D01*
X130934235Y-62067429D01*
X130940196Y-62091227D01*
X130943796Y-62115496D01*
X130945000Y-62140000D01*
X130945000Y-63590000D01*
X130943796Y-63614504D01*
X130940196Y-63638773D01*
X130934235Y-63662571D01*
X130925970Y-63685671D01*
X130915480Y-63707849D01*
X130902867Y-63728893D01*
X130888253Y-63748598D01*
X130871777Y-63766777D01*
X130853598Y-63783253D01*
X130833893Y-63797867D01*
X130812849Y-63810480D01*
X130790671Y-63820970D01*
X130767571Y-63829235D01*
X130743773Y-63835196D01*
X130719504Y-63838796D01*
X130695000Y-63840000D01*
X129495000Y-63840000D01*
X129470496Y-63838796D01*
X129446227Y-63835196D01*
X129422429Y-63829235D01*
X129399329Y-63820970D01*
X129377151Y-63810480D01*
X129356107Y-63797867D01*
X129336402Y-63783253D01*
X129318223Y-63766777D01*
X129301747Y-63748598D01*
X129287133Y-63728893D01*
X129274520Y-63707849D01*
X129264030Y-63685671D01*
X129255765Y-63662571D01*
X129249804Y-63638773D01*
X129246204Y-63614504D01*
X129245000Y-63590000D01*
X129245000Y-62140000D01*
X129246204Y-62115496D01*
X129249804Y-62091227D01*
X129255765Y-62067429D01*
X129264030Y-62044329D01*
X129274520Y-62022151D01*
X129287133Y-62001107D01*
X129301747Y-61981402D01*
X129318223Y-61963223D01*
X129336402Y-61946747D01*
X129356107Y-61932133D01*
X129377151Y-61919520D01*
X129399329Y-61909030D01*
X129422429Y-61900765D01*
X129446227Y-61894804D01*
X129470496Y-61891204D01*
X129495000Y-61890000D01*
X130695000Y-61890000D01*
X130719504Y-61891204D01*
X130719504Y-61891204D01*
G37*
D15*
G04 #@! TD*
G04 #@! TO.P,J4,1*
G04 #@! TO.N,GND*
X130095000Y-62865000D03*
D14*
G04 #@! TO.P,J4,2*
G04 #@! TO.N,Net-(J4-Pad2)*
X127595000Y-62865000D03*
G04 #@! TO.P,J4,3*
G04 #@! TO.N,+5V*
X125095000Y-62865000D03*
G04 #@! TD*
D12*
G04 #@! TO.N,GND*
G04 #@! TO.C,J5*
G36*
X142149504Y-61891204D02*
X142173773Y-61894804D01*
X142197571Y-61900765D01*
X142220671Y-61909030D01*
X142242849Y-61919520D01*
X142263893Y-61932133D01*
X142283598Y-61946747D01*
X142301777Y-61963223D01*
X142318253Y-61981402D01*
X142332867Y-62001107D01*
X142345480Y-62022151D01*
X142355970Y-62044329D01*
X142364235Y-62067429D01*
X142370196Y-62091227D01*
X142373796Y-62115496D01*
X142375000Y-62140000D01*
X142375000Y-63590000D01*
X142373796Y-63614504D01*
X142370196Y-63638773D01*
X142364235Y-63662571D01*
X142355970Y-63685671D01*
X142345480Y-63707849D01*
X142332867Y-63728893D01*
X142318253Y-63748598D01*
X142301777Y-63766777D01*
X142283598Y-63783253D01*
X142263893Y-63797867D01*
X142242849Y-63810480D01*
X142220671Y-63820970D01*
X142197571Y-63829235D01*
X142173773Y-63835196D01*
X142149504Y-63838796D01*
X142125000Y-63840000D01*
X140925000Y-63840000D01*
X140900496Y-63838796D01*
X140876227Y-63835196D01*
X140852429Y-63829235D01*
X140829329Y-63820970D01*
X140807151Y-63810480D01*
X140786107Y-63797867D01*
X140766402Y-63783253D01*
X140748223Y-63766777D01*
X140731747Y-63748598D01*
X140717133Y-63728893D01*
X140704520Y-63707849D01*
X140694030Y-63685671D01*
X140685765Y-63662571D01*
X140679804Y-63638773D01*
X140676204Y-63614504D01*
X140675000Y-63590000D01*
X140675000Y-62140000D01*
X140676204Y-62115496D01*
X140679804Y-62091227D01*
X140685765Y-62067429D01*
X140694030Y-62044329D01*
X140704520Y-62022151D01*
X140717133Y-62001107D01*
X140731747Y-61981402D01*
X140748223Y-61963223D01*
X140766402Y-61946747D01*
X140786107Y-61932133D01*
X140807151Y-61919520D01*
X140829329Y-61909030D01*
X140852429Y-61900765D01*
X140876227Y-61894804D01*
X140900496Y-61891204D01*
X140925000Y-61890000D01*
X142125000Y-61890000D01*
X142149504Y-61891204D01*
X142149504Y-61891204D01*
G37*
D15*
G04 #@! TD*
G04 #@! TO.P,J5,1*
G04 #@! TO.N,GND*
X141525000Y-62865000D03*
D14*
G04 #@! TO.P,J5,2*
G04 #@! TO.N,Net-(J5-Pad2)*
X139025000Y-62865000D03*
G04 #@! TO.P,J5,3*
G04 #@! TO.N,+5V*
X136525000Y-62865000D03*
G04 #@! TD*
D16*
G04 #@! TO.P,J6,1*
G04 #@! TO.N,Net-(IC1-Pad27)*
X137160000Y-72136000D03*
D17*
G04 #@! TO.P,J6,2*
G04 #@! TO.N,Net-(IC1-Pad28)*
X139700000Y-72136000D03*
G04 #@! TO.P,J6,3*
G04 #@! TO.N,Net-(IC1-Pad18)*
X142240000Y-72136000D03*
G04 #@! TO.P,J6,4*
G04 #@! TO.N,Net-(IC1-Pad17)*
X144780000Y-72136000D03*
G04 #@! TO.P,J6,5*
G04 #@! TO.N,Net-(IC1-Pad19)*
X147320000Y-72136000D03*
G04 #@! TD*
D14*
G04 #@! TO.P,J7,3*
G04 #@! TO.N,+5V*
X147955000Y-62865000D03*
G04 #@! TO.P,J7,2*
G04 #@! TO.N,Net-(J7-Pad2)*
X150455000Y-62865000D03*
D12*
G04 #@! TD*
G04 #@! TO.N,GND*
G04 #@! TO.C,J7*
G36*
X153579504Y-61891204D02*
X153603773Y-61894804D01*
X153627571Y-61900765D01*
X153650671Y-61909030D01*
X153672849Y-61919520D01*
X153693893Y-61932133D01*
X153713598Y-61946747D01*
X153731777Y-61963223D01*
X153748253Y-61981402D01*
X153762867Y-62001107D01*
X153775480Y-62022151D01*
X153785970Y-62044329D01*
X153794235Y-62067429D01*
X153800196Y-62091227D01*
X153803796Y-62115496D01*
X153805000Y-62140000D01*
X153805000Y-63590000D01*
X153803796Y-63614504D01*
X153800196Y-63638773D01*
X153794235Y-63662571D01*
X153785970Y-63685671D01*
X153775480Y-63707849D01*
X153762867Y-63728893D01*
X153748253Y-63748598D01*
X153731777Y-63766777D01*
X153713598Y-63783253D01*
X153693893Y-63797867D01*
X153672849Y-63810480D01*
X153650671Y-63820970D01*
X153627571Y-63829235D01*
X153603773Y-63835196D01*
X153579504Y-63838796D01*
X153555000Y-63840000D01*
X152355000Y-63840000D01*
X152330496Y-63838796D01*
X152306227Y-63835196D01*
X152282429Y-63829235D01*
X152259329Y-63820970D01*
X152237151Y-63810480D01*
X152216107Y-63797867D01*
X152196402Y-63783253D01*
X152178223Y-63766777D01*
X152161747Y-63748598D01*
X152147133Y-63728893D01*
X152134520Y-63707849D01*
X152124030Y-63685671D01*
X152115765Y-63662571D01*
X152109804Y-63638773D01*
X152106204Y-63614504D01*
X152105000Y-63590000D01*
X152105000Y-62140000D01*
X152106204Y-62115496D01*
X152109804Y-62091227D01*
X152115765Y-62067429D01*
X152124030Y-62044329D01*
X152134520Y-62022151D01*
X152147133Y-62001107D01*
X152161747Y-61981402D01*
X152178223Y-61963223D01*
X152196402Y-61946747D01*
X152216107Y-61932133D01*
X152237151Y-61919520D01*
X152259329Y-61909030D01*
X152282429Y-61900765D01*
X152306227Y-61894804D01*
X152330496Y-61891204D01*
X152355000Y-61890000D01*
X153555000Y-61890000D01*
X153579504Y-61891204D01*
X153579504Y-61891204D01*
G37*
D15*
G04 #@! TO.P,J7,1*
G04 #@! TO.N,GND*
X152955000Y-62865000D03*
G04 #@! TD*
D12*
G04 #@! TO.N,+5V*
G04 #@! TO.C,R3*
G36*
X113327642Y-92011174D02*
X113351303Y-92014684D01*
X113374507Y-92020496D01*
X113397029Y-92028554D01*
X113418653Y-92038782D01*
X113439170Y-92051079D01*
X113458383Y-92065329D01*
X113476107Y-92081393D01*
X113492171Y-92099117D01*
X113506421Y-92118330D01*
X113518718Y-92138847D01*
X113528946Y-92160471D01*
X113537004Y-92182993D01*
X113542816Y-92206197D01*
X113546326Y-92229858D01*
X113547500Y-92253750D01*
X113547500Y-93166250D01*
X113546326Y-93190142D01*
X113542816Y-93213803D01*
X113537004Y-93237007D01*
X113528946Y-93259529D01*
X113518718Y-93281153D01*
X113506421Y-93301670D01*
X113492171Y-93320883D01*
X113476107Y-93338607D01*
X113458383Y-93354671D01*
X113439170Y-93368921D01*
X113418653Y-93381218D01*
X113397029Y-93391446D01*
X113374507Y-93399504D01*
X113351303Y-93405316D01*
X113327642Y-93408826D01*
X113303750Y-93410000D01*
X112816250Y-93410000D01*
X112792358Y-93408826D01*
X112768697Y-93405316D01*
X112745493Y-93399504D01*
X112722971Y-93391446D01*
X112701347Y-93381218D01*
X112680830Y-93368921D01*
X112661617Y-93354671D01*
X112643893Y-93338607D01*
X112627829Y-93320883D01*
X112613579Y-93301670D01*
X112601282Y-93281153D01*
X112591054Y-93259529D01*
X112582996Y-93237007D01*
X112577184Y-93213803D01*
X112573674Y-93190142D01*
X112572500Y-93166250D01*
X112572500Y-92253750D01*
X112573674Y-92229858D01*
X112577184Y-92206197D01*
X112582996Y-92182993D01*
X112591054Y-92160471D01*
X112601282Y-92138847D01*
X112613579Y-92118330D01*
X112627829Y-92099117D01*
X112643893Y-92081393D01*
X112661617Y-92065329D01*
X112680830Y-92051079D01*
X112701347Y-92038782D01*
X112722971Y-92028554D01*
X112745493Y-92020496D01*
X112768697Y-92014684D01*
X112792358Y-92011174D01*
X112816250Y-92010000D01*
X113303750Y-92010000D01*
X113327642Y-92011174D01*
X113327642Y-92011174D01*
G37*
D18*
G04 #@! TD*
G04 #@! TO.P,R3,1*
G04 #@! TO.N,+5V*
X113060000Y-92710000D03*
D12*
G04 #@! TO.N,Net-(C1-Pad1)*
G04 #@! TO.C,R3*
G36*
X115202642Y-92011174D02*
X115226303Y-92014684D01*
X115249507Y-92020496D01*
X115272029Y-92028554D01*
X115293653Y-92038782D01*
X115314170Y-92051079D01*
X115333383Y-92065329D01*
X115351107Y-92081393D01*
X115367171Y-92099117D01*
X115381421Y-92118330D01*
X115393718Y-92138847D01*
X115403946Y-92160471D01*
X115412004Y-92182993D01*
X115417816Y-92206197D01*
X115421326Y-92229858D01*
X115422500Y-92253750D01*
X115422500Y-93166250D01*
X115421326Y-93190142D01*
X115417816Y-93213803D01*
X115412004Y-93237007D01*
X115403946Y-93259529D01*
X115393718Y-93281153D01*
X115381421Y-93301670D01*
X115367171Y-93320883D01*
X115351107Y-93338607D01*
X115333383Y-93354671D01*
X115314170Y-93368921D01*
X115293653Y-93381218D01*
X115272029Y-93391446D01*
X115249507Y-93399504D01*
X115226303Y-93405316D01*
X115202642Y-93408826D01*
X115178750Y-93410000D01*
X114691250Y-93410000D01*
X114667358Y-93408826D01*
X114643697Y-93405316D01*
X114620493Y-93399504D01*
X114597971Y-93391446D01*
X114576347Y-93381218D01*
X114555830Y-93368921D01*
X114536617Y-93354671D01*
X114518893Y-93338607D01*
X114502829Y-93320883D01*
X114488579Y-93301670D01*
X114476282Y-93281153D01*
X114466054Y-93259529D01*
X114457996Y-93237007D01*
X114452184Y-93213803D01*
X114448674Y-93190142D01*
X114447500Y-93166250D01*
X114447500Y-92253750D01*
X114448674Y-92229858D01*
X114452184Y-92206197D01*
X114457996Y-92182993D01*
X114466054Y-92160471D01*
X114476282Y-92138847D01*
X114488579Y-92118330D01*
X114502829Y-92099117D01*
X114518893Y-92081393D01*
X114536617Y-92065329D01*
X114555830Y-92051079D01*
X114576347Y-92038782D01*
X114597971Y-92028554D01*
X114620493Y-92020496D01*
X114643697Y-92014684D01*
X114667358Y-92011174D01*
X114691250Y-92010000D01*
X115178750Y-92010000D01*
X115202642Y-92011174D01*
X115202642Y-92011174D01*
G37*
D18*
G04 #@! TD*
G04 #@! TO.P,R3,2*
G04 #@! TO.N,Net-(C1-Pad1)*
X114935000Y-92710000D03*
D19*
G04 #@! TO.P,Y1,1*
G04 #@! TO.N,Net-(C2-Pad1)*
X137866120Y-88773000D03*
G04 #@! TO.P,Y1,2*
G04 #@! TO.N,Net-(C3-Pad1)*
X142748000Y-88773000D03*
G04 #@! TD*
D20*
G04 #@! TO.P,H4,1*
G04 #@! TO.N,GND*
X160791000Y-62536000D03*
G04 #@! TD*
D21*
G04 #@! TO.P,C1,1*
G04 #@! TO.N,Net-(C1-Pad1)*
X118230000Y-92710000D03*
G04 #@! TO.P,C1,2*
G04 #@! TO.N,Net-(C1-Pad2)*
X125730000Y-92710000D03*
G04 #@! TD*
D16*
G04 #@! TO.P,VTR1,1*
G04 #@! TO.N,N/C*
X104216200Y-73761600D03*
D17*
G04 #@! TO.P,VTR1,2*
X104216200Y-76301600D03*
G04 #@! TO.P,VTR1,3*
X104216200Y-78841600D03*
G04 #@! TO.P,VTR1,4*
G04 #@! TO.N,Net-(SW1-Pad2)*
X104216200Y-81381600D03*
G04 #@! TO.P,VTR1,5*
G04 #@! TO.N,N/C*
X104216200Y-83921600D03*
G04 #@! TO.P,VTR1,6*
G04 #@! TO.N,/GPIO_10*
X104216200Y-86461600D03*
G04 #@! TO.P,VTR1,7*
G04 #@! TO.N,GND*
X104216200Y-89001600D03*
G04 #@! TO.P,VTR1,8*
G04 #@! TO.N,+5V*
X104216200Y-91541600D03*
G04 #@! TD*
D22*
G04 #@! TO.P,RV1,1*
G04 #@! TO.N,+5V*
X148590000Y-96520000D03*
G04 #@! TO.P,RV1,2*
G04 #@! TO.N,/AIO_3*
X151130000Y-96520000D03*
G04 #@! TO.P,RV1,3*
G04 #@! TO.N,GND*
X153670000Y-96520000D03*
G04 #@! TD*
D16*
G04 #@! TO.P,SW1,1*
G04 #@! TO.N,GND*
X133858000Y-98552000D03*
D17*
G04 #@! TO.P,SW1,2*
G04 #@! TO.N,Net-(SW1-Pad2)*
X131318000Y-98552000D03*
G04 #@! TD*
D16*
G04 #@! TO.P,J8,1*
G04 #@! TO.N,/GPIO_6*
X148590000Y-88138000D03*
D17*
G04 #@! TO.P,J8,2*
G04 #@! TO.N,/GPIO_7*
X151130000Y-88138000D03*
G04 #@! TO.P,J8,3*
G04 #@! TO.N,/GPIO_8*
X153670000Y-88138000D03*
G04 #@! TD*
D23*
G04 #@! TO.N,Net-(C1-Pad1)*
X115522500Y-92710000D02*
X118230000Y-92710000D01*
X114935000Y-92710000D02*
X115522500Y-92710000D01*
X120650000Y-90290000D02*
X120650000Y-83820000D01*
X118230000Y-92710000D02*
X120650000Y-90290000D01*
G04 #@! TO.N,Net-(IC1-Pad2)*
X122739989Y-96462011D02*
X122739989Y-85401381D01*
X120650000Y-98552000D02*
X122739989Y-96462011D01*
X123190000Y-84951370D02*
X123190000Y-83820000D01*
X122739989Y-85401381D02*
X123190000Y-84951370D01*
G04 #@! TO.N,Net-(IC1-Pad3)*
X123190000Y-86360000D02*
X125730000Y-83820000D01*
X123190000Y-98552000D02*
X123190000Y-86360000D01*
G04 #@! TO.N,Net-(IC1-Pad17)*
X148590000Y-75946000D02*
X148590000Y-76200000D01*
X144780000Y-72136000D02*
X148590000Y-75946000D01*
G04 #@! TO.N,Net-(IC1-Pad18)*
X146050000Y-75946000D02*
X146050000Y-76200000D01*
X142240000Y-72136000D02*
X146050000Y-75946000D01*
G04 #@! TO.N,Net-(IC1-Pad19)*
X141064999Y-73754999D02*
X141064999Y-70771001D01*
X143510000Y-76200000D02*
X141064999Y-73754999D01*
X141064999Y-70771001D02*
X141478000Y-70358000D01*
X145542000Y-70358000D02*
X147320000Y-72136000D01*
X141478000Y-70358000D02*
X145542000Y-70358000D01*
G04 #@! TO.N,Net-(D1-Pad1)*
X135872000Y-83802000D02*
X135890000Y-83820000D01*
X135872000Y-81026000D02*
X135872000Y-83802000D01*
G04 #@! TO.N,Net-(IC1-Pad27)*
X137160000Y-72136000D02*
X127254000Y-72136000D01*
X127254000Y-72136000D02*
X123190000Y-76200000D01*
G04 #@! TO.N,Net-(IC1-Pad28)*
X139700000Y-72136000D02*
X137922000Y-70358000D01*
X134874000Y-71628000D02*
X136144000Y-70358000D01*
X137922000Y-70358000D02*
X136144000Y-70358000D01*
X120650000Y-76200000D02*
X122428000Y-74422000D01*
X122428000Y-74422000D02*
X124206000Y-74422000D01*
X124206000Y-74422000D02*
X127000000Y-71628000D01*
X127000000Y-71628000D02*
X134874000Y-71628000D01*
G04 #@! TO.N,/GPIO_10*
X104216200Y-86461600D02*
X106832400Y-86461600D01*
X106832400Y-86461600D02*
X124968000Y-68326000D01*
X124968000Y-68326000D02*
X147574000Y-68326000D01*
X151130000Y-71882000D02*
X151130000Y-76200000D01*
X147574000Y-68326000D02*
X151130000Y-71882000D01*
G04 #@! TO.N,/GPIO_6*
X148590000Y-84951370D02*
X148590000Y-88138000D01*
X148590000Y-83820000D02*
X148590000Y-84951370D01*
G04 #@! TO.N,/AIO_3*
X126529999Y-76999999D02*
X125730000Y-76200000D01*
X126855001Y-77325001D02*
X126529999Y-76999999D01*
X126855001Y-86215001D02*
X126855001Y-77325001D01*
X134620000Y-93980000D02*
X126855001Y-86215001D01*
X148590000Y-93980000D02*
X148082000Y-93980000D01*
X151130000Y-96520000D02*
X148590000Y-93980000D01*
X148082000Y-93980000D02*
X134620000Y-93980000D01*
G04 #@! TO.N,/GPIO_7*
X151130000Y-83820000D02*
X151130000Y-88138000D01*
G04 #@! TO.N,/GPIO_8*
X153670000Y-84951370D02*
X153670000Y-88138000D01*
X153670000Y-83820000D02*
X153670000Y-84951370D01*
G04 #@! TD*
D24*
G04 #@! TO.N,+5V*
G36*
X158618647Y-59284844D02*
X157539844Y-60363647D01*
X156956000Y-61773171D01*
X156956000Y-63298829D01*
X157539844Y-64708353D01*
X158618647Y-65787156D01*
X160028171Y-66371000D01*
X161553829Y-66371000D01*
X162963353Y-65787156D01*
X164042156Y-64708353D01*
X164390000Y-63868583D01*
X164390001Y-99015326D01*
X164327042Y-99513699D01*
X164158697Y-99938889D01*
X163889899Y-100308859D01*
X163537541Y-100600355D01*
X163123756Y-100795067D01*
X162641339Y-100887093D01*
X162548836Y-100890000D01*
X104184667Y-100890000D01*
X103686301Y-100827042D01*
X103261111Y-100658697D01*
X102891141Y-100389899D01*
X102599645Y-100037541D01*
X102404933Y-99623756D01*
X102312907Y-99141339D01*
X102310000Y-99048836D01*
X102310000Y-97091431D01*
X103556000Y-97091431D01*
X103556000Y-97980569D01*
X103896259Y-98802026D01*
X104524974Y-99430741D01*
X105346431Y-99771000D01*
X106235569Y-99771000D01*
X107057026Y-99430741D01*
X107685741Y-98802026D01*
X108026000Y-97980569D01*
X108026000Y-97702000D01*
X111532560Y-97702000D01*
X111532560Y-99402000D01*
X111581843Y-99649765D01*
X111722191Y-99859809D01*
X111932235Y-100000157D01*
X112180000Y-100049440D01*
X113880000Y-100049440D01*
X114127765Y-100000157D01*
X114337809Y-99859809D01*
X114478157Y-99649765D01*
X114498739Y-99546292D01*
X114803076Y-99823645D01*
X115213110Y-99993476D01*
X115443000Y-99872155D01*
X115443000Y-98679000D01*
X115423000Y-98679000D01*
X115423000Y-98425000D01*
X115443000Y-98425000D01*
X115443000Y-97231845D01*
X115213110Y-97110524D01*
X114803076Y-97280355D01*
X114498739Y-97557708D01*
X114478157Y-97454235D01*
X114337809Y-97244191D01*
X114127765Y-97103843D01*
X113880000Y-97054560D01*
X112180000Y-97054560D01*
X111932235Y-97103843D01*
X111722191Y-97244191D01*
X111581843Y-97454235D01*
X111532560Y-97702000D01*
X108026000Y-97702000D01*
X108026000Y-97091431D01*
X107685741Y-96269974D01*
X107057026Y-95641259D01*
X106235569Y-95301000D01*
X105346431Y-95301000D01*
X104524974Y-95641259D01*
X103896259Y-96269974D01*
X103556000Y-97091431D01*
X102310000Y-97091431D01*
X102310000Y-92995750D01*
X111937500Y-92995750D01*
X111937500Y-93536310D01*
X112034173Y-93769699D01*
X112212802Y-93948327D01*
X112446191Y-94045000D01*
X112774250Y-94045000D01*
X112933000Y-93886250D01*
X112933000Y-92837000D01*
X112096250Y-92837000D01*
X111937500Y-92995750D01*
X102310000Y-92995750D01*
X102310000Y-91898490D01*
X102774724Y-91898490D01*
X102944555Y-92308524D01*
X103334842Y-92736783D01*
X103859308Y-92983086D01*
X104089200Y-92862419D01*
X104089200Y-91668600D01*
X104343200Y-91668600D01*
X104343200Y-92862419D01*
X104573092Y-92983086D01*
X105097558Y-92736783D01*
X105487845Y-92308524D01*
X105657676Y-91898490D01*
X105649866Y-91883690D01*
X111937500Y-91883690D01*
X111937500Y-92424250D01*
X112096250Y-92583000D01*
X112933000Y-92583000D01*
X112933000Y-91533750D01*
X112774250Y-91375000D01*
X112446191Y-91375000D01*
X112212802Y-91471673D01*
X112034173Y-91650301D01*
X111937500Y-91883690D01*
X105649866Y-91883690D01*
X105536355Y-91668600D01*
X104343200Y-91668600D01*
X104089200Y-91668600D01*
X102896045Y-91668600D01*
X102774724Y-91898490D01*
X102310000Y-91898490D01*
X102310000Y-76301600D01*
X102702108Y-76301600D01*
X102817361Y-76881018D01*
X103145575Y-77372225D01*
X103443961Y-77571600D01*
X103145575Y-77770975D01*
X102817361Y-78262182D01*
X102702108Y-78841600D01*
X102817361Y-79421018D01*
X103145575Y-79912225D01*
X103443961Y-80111600D01*
X103145575Y-80310975D01*
X102817361Y-80802182D01*
X102702108Y-81381600D01*
X102817361Y-81961018D01*
X103145575Y-82452225D01*
X103443961Y-82651600D01*
X103145575Y-82850975D01*
X102817361Y-83342182D01*
X102702108Y-83921600D01*
X102817361Y-84501018D01*
X103145575Y-84992225D01*
X103443961Y-85191600D01*
X103145575Y-85390975D01*
X102817361Y-85882182D01*
X102702108Y-86461600D01*
X102817361Y-87041018D01*
X103145575Y-87532225D01*
X103443961Y-87731600D01*
X103145575Y-87930975D01*
X102817361Y-88422182D01*
X102702108Y-89001600D01*
X102817361Y-89581018D01*
X103145575Y-90072225D01*
X103464678Y-90285443D01*
X103334842Y-90346417D01*
X102944555Y-90774676D01*
X102774724Y-91184710D01*
X102896045Y-91414600D01*
X104089200Y-91414600D01*
X104089200Y-91394600D01*
X104343200Y-91394600D01*
X104343200Y-91414600D01*
X105536355Y-91414600D01*
X105657676Y-91184710D01*
X105487845Y-90774676D01*
X105097558Y-90346417D01*
X104967722Y-90285443D01*
X105286825Y-90072225D01*
X105615039Y-89581018D01*
X105730292Y-89001600D01*
X105615039Y-88422182D01*
X105286825Y-87930975D01*
X104988439Y-87731600D01*
X105286825Y-87532225D01*
X105494378Y-87221600D01*
X106757553Y-87221600D01*
X106832400Y-87236488D01*
X106907247Y-87221600D01*
X106907252Y-87221600D01*
X107128937Y-87177504D01*
X107380329Y-87009529D01*
X107422731Y-86946070D01*
X125282803Y-69086000D01*
X147259199Y-69086000D01*
X150370000Y-72196803D01*
X150370001Y-74981956D01*
X150095423Y-75165423D01*
X149860000Y-75517758D01*
X149624577Y-75165423D01*
X149149909Y-74848260D01*
X148731333Y-74765000D01*
X148483802Y-74765000D01*
X147339802Y-73621000D01*
X147466256Y-73621000D01*
X147899418Y-73534839D01*
X148390625Y-73206625D01*
X148718839Y-72715418D01*
X148834092Y-72136000D01*
X148718839Y-71556582D01*
X148390625Y-71065375D01*
X147899418Y-70737161D01*
X147466256Y-70651000D01*
X147173744Y-70651000D01*
X146953592Y-70694791D01*
X146132331Y-69873530D01*
X146089929Y-69810071D01*
X145838537Y-69642096D01*
X145616852Y-69598000D01*
X145616847Y-69598000D01*
X145542000Y-69583112D01*
X145467153Y-69598000D01*
X141552848Y-69598000D01*
X141478000Y-69583112D01*
X141403152Y-69598000D01*
X141403148Y-69598000D01*
X141181463Y-69642096D01*
X140930071Y-69810071D01*
X140887669Y-69873530D01*
X140580527Y-70180672D01*
X140517071Y-70223072D01*
X140474671Y-70286528D01*
X140474670Y-70286529D01*
X140349096Y-70474464D01*
X140294798Y-70747438D01*
X140279418Y-70737161D01*
X139846256Y-70651000D01*
X139553744Y-70651000D01*
X139333592Y-70694791D01*
X138512331Y-69873530D01*
X138469929Y-69810071D01*
X138218537Y-69642096D01*
X137996852Y-69598000D01*
X137996847Y-69598000D01*
X137922000Y-69583112D01*
X137847153Y-69598000D01*
X136218846Y-69598000D01*
X136143999Y-69583112D01*
X136069152Y-69598000D01*
X136069148Y-69598000D01*
X135847463Y-69642096D01*
X135596071Y-69810071D01*
X135553671Y-69873527D01*
X134559199Y-70868000D01*
X127074848Y-70868000D01*
X127000000Y-70853112D01*
X126925152Y-70868000D01*
X126925148Y-70868000D01*
X126751605Y-70902520D01*
X126703462Y-70912096D01*
X126585134Y-70991161D01*
X126452071Y-71080071D01*
X126409671Y-71143527D01*
X123891199Y-73662000D01*
X122502848Y-73662000D01*
X122428000Y-73647112D01*
X122353152Y-73662000D01*
X122353148Y-73662000D01*
X122179605Y-73696520D01*
X122131462Y-73706096D01*
X121946252Y-73829850D01*
X121880071Y-73874071D01*
X121837671Y-73937527D01*
X120973886Y-74801312D01*
X120791333Y-74765000D01*
X120508667Y-74765000D01*
X120090091Y-74848260D01*
X119615423Y-75165423D01*
X119298260Y-75640091D01*
X119186887Y-76200000D01*
X119298260Y-76759909D01*
X119615423Y-77234577D01*
X120090091Y-77551740D01*
X120508667Y-77635000D01*
X120791333Y-77635000D01*
X121209909Y-77551740D01*
X121684577Y-77234577D01*
X121920000Y-76882242D01*
X122155423Y-77234577D01*
X122630091Y-77551740D01*
X123048667Y-77635000D01*
X123331333Y-77635000D01*
X123749909Y-77551740D01*
X124224577Y-77234577D01*
X124460000Y-76882242D01*
X124695423Y-77234577D01*
X125170091Y-77551740D01*
X125588667Y-77635000D01*
X125871333Y-77635000D01*
X126053887Y-77598688D01*
X126095002Y-77639803D01*
X126095001Y-82429490D01*
X125871333Y-82385000D01*
X125588667Y-82385000D01*
X125170091Y-82468260D01*
X124695423Y-82785423D01*
X124460000Y-83137758D01*
X124224577Y-82785423D01*
X123749909Y-82468260D01*
X123331333Y-82385000D01*
X123048667Y-82385000D01*
X122630091Y-82468260D01*
X122155423Y-82785423D01*
X122074785Y-82906106D01*
X122048157Y-82772235D01*
X121907809Y-82562191D01*
X121697765Y-82421843D01*
X121450000Y-82372560D01*
X119850000Y-82372560D01*
X119602235Y-82421843D01*
X119392191Y-82562191D01*
X119251843Y-82772235D01*
X119202560Y-83020000D01*
X119202560Y-84620000D01*
X119251843Y-84867765D01*
X119392191Y-85077809D01*
X119602235Y-85218157D01*
X119850000Y-85267440D01*
X119890001Y-85267440D01*
X119890000Y-89975198D01*
X118721375Y-91143823D01*
X118555222Y-91075000D01*
X117904778Y-91075000D01*
X117303847Y-91323914D01*
X116843914Y-91783847D01*
X116775091Y-91950000D01*
X116009520Y-91950000D01*
X116002102Y-91912706D01*
X115808916Y-91623584D01*
X115519794Y-91430398D01*
X115178750Y-91362560D01*
X114691250Y-91362560D01*
X114350206Y-91430398D01*
X114061084Y-91623584D01*
X114060293Y-91624767D01*
X113907198Y-91471673D01*
X113673809Y-91375000D01*
X113345750Y-91375000D01*
X113187000Y-91533750D01*
X113187000Y-92583000D01*
X113207000Y-92583000D01*
X113207000Y-92837000D01*
X113187000Y-92837000D01*
X113187000Y-93886250D01*
X113345750Y-94045000D01*
X113673809Y-94045000D01*
X113907198Y-93948327D01*
X114060293Y-93795233D01*
X114061084Y-93796416D01*
X114350206Y-93989602D01*
X114691250Y-94057440D01*
X115178750Y-94057440D01*
X115519794Y-93989602D01*
X115808916Y-93796416D01*
X116002102Y-93507294D01*
X116009520Y-93470000D01*
X116775091Y-93470000D01*
X116843914Y-93636153D01*
X117303847Y-94096086D01*
X117904778Y-94345000D01*
X118555222Y-94345000D01*
X119156153Y-94096086D01*
X119616086Y-93636153D01*
X119865000Y-93035222D01*
X119865000Y-92384778D01*
X119796177Y-92218625D01*
X121134473Y-90880329D01*
X121197929Y-90837929D01*
X121257070Y-90749418D01*
X121365904Y-90586538D01*
X121402921Y-90400439D01*
X121410000Y-90364852D01*
X121410000Y-90364848D01*
X121424888Y-90290000D01*
X121410000Y-90215152D01*
X121410000Y-85267440D01*
X121450000Y-85267440D01*
X121697765Y-85218157D01*
X121907809Y-85077809D01*
X122048157Y-84867765D01*
X122074785Y-84733894D01*
X122155423Y-84854577D01*
X122180233Y-84871154D01*
X122149661Y-84916908D01*
X122149660Y-84916909D01*
X122024086Y-85104844D01*
X121965101Y-85401381D01*
X121979990Y-85476233D01*
X121979989Y-96147209D01*
X121016408Y-97110791D01*
X120796256Y-97067000D01*
X120503744Y-97067000D01*
X120070582Y-97153161D01*
X119579375Y-97481375D01*
X119380000Y-97779761D01*
X119180625Y-97481375D01*
X118689418Y-97153161D01*
X118256256Y-97067000D01*
X117963744Y-97067000D01*
X117530582Y-97153161D01*
X117039375Y-97481375D01*
X116826157Y-97800478D01*
X116765183Y-97670642D01*
X116336924Y-97280355D01*
X115926890Y-97110524D01*
X115697000Y-97231845D01*
X115697000Y-98425000D01*
X115717000Y-98425000D01*
X115717000Y-98679000D01*
X115697000Y-98679000D01*
X115697000Y-99872155D01*
X115926890Y-99993476D01*
X116336924Y-99823645D01*
X116765183Y-99433358D01*
X116826157Y-99303522D01*
X117039375Y-99622625D01*
X117530582Y-99950839D01*
X117963744Y-100037000D01*
X118256256Y-100037000D01*
X118689418Y-99950839D01*
X119180625Y-99622625D01*
X119380000Y-99324239D01*
X119579375Y-99622625D01*
X120070582Y-99950839D01*
X120503744Y-100037000D01*
X120796256Y-100037000D01*
X121229418Y-99950839D01*
X121720625Y-99622625D01*
X121920000Y-99324239D01*
X122119375Y-99622625D01*
X122610582Y-99950839D01*
X123043744Y-100037000D01*
X123336256Y-100037000D01*
X123769418Y-99950839D01*
X124260625Y-99622625D01*
X124460000Y-99324239D01*
X124659375Y-99622625D01*
X125150582Y-99950839D01*
X125583744Y-100037000D01*
X125876256Y-100037000D01*
X126309418Y-99950839D01*
X126800625Y-99622625D01*
X127128839Y-99131418D01*
X127244092Y-98552000D01*
X129803908Y-98552000D01*
X129919161Y-99131418D01*
X130247375Y-99622625D01*
X130738582Y-99950839D01*
X131171744Y-100037000D01*
X131464256Y-100037000D01*
X131897418Y-99950839D01*
X132388625Y-99622625D01*
X132400816Y-99604381D01*
X132409843Y-99649765D01*
X132550191Y-99859809D01*
X132760235Y-100000157D01*
X133008000Y-100049440D01*
X134708000Y-100049440D01*
X134955765Y-100000157D01*
X135165809Y-99859809D01*
X135306157Y-99649765D01*
X135355440Y-99402000D01*
X135355440Y-97702000D01*
X135315303Y-97500213D01*
X147789392Y-97500213D01*
X147858857Y-97742397D01*
X148382302Y-97929144D01*
X148937368Y-97901362D01*
X149321143Y-97742397D01*
X149390608Y-97500213D01*
X148590000Y-96699605D01*
X147789392Y-97500213D01*
X135315303Y-97500213D01*
X135306157Y-97454235D01*
X135165809Y-97244191D01*
X134955765Y-97103843D01*
X134708000Y-97054560D01*
X133008000Y-97054560D01*
X132760235Y-97103843D01*
X132550191Y-97244191D01*
X132409843Y-97454235D01*
X132400816Y-97499619D01*
X132388625Y-97481375D01*
X131897418Y-97153161D01*
X131464256Y-97067000D01*
X131171744Y-97067000D01*
X130738582Y-97153161D01*
X130247375Y-97481375D01*
X129919161Y-97972582D01*
X129803908Y-98552000D01*
X127244092Y-98552000D01*
X127128839Y-97972582D01*
X126800625Y-97481375D01*
X126309418Y-97153161D01*
X125876256Y-97067000D01*
X125583744Y-97067000D01*
X125150582Y-97153161D01*
X124659375Y-97481375D01*
X124460000Y-97779761D01*
X124260625Y-97481375D01*
X123950000Y-97273822D01*
X123950000Y-96312302D01*
X147180856Y-96312302D01*
X147208638Y-96867368D01*
X147367603Y-97251143D01*
X147609787Y-97320608D01*
X148410395Y-96520000D01*
X147609787Y-95719392D01*
X147367603Y-95788857D01*
X147180856Y-96312302D01*
X123950000Y-96312302D01*
X123950000Y-92384778D01*
X124095000Y-92384778D01*
X124095000Y-93035222D01*
X124343914Y-93636153D01*
X124803847Y-94096086D01*
X125404778Y-94345000D01*
X126055222Y-94345000D01*
X126656153Y-94096086D01*
X127116086Y-93636153D01*
X127365000Y-93035222D01*
X127365000Y-92384778D01*
X127116086Y-91783847D01*
X126656153Y-91323914D01*
X126055222Y-91075000D01*
X125404778Y-91075000D01*
X124803847Y-91323914D01*
X124343914Y-91783847D01*
X124095000Y-92384778D01*
X123950000Y-92384778D01*
X123950000Y-86674801D01*
X125406114Y-85218688D01*
X125588667Y-85255000D01*
X125871333Y-85255000D01*
X126095001Y-85210510D01*
X126095001Y-86140154D01*
X126080113Y-86215001D01*
X126095001Y-86289848D01*
X126095001Y-86289852D01*
X126139097Y-86511537D01*
X126307072Y-86762930D01*
X126370531Y-86805332D01*
X134029670Y-94464472D01*
X134072071Y-94527929D01*
X134323463Y-94695904D01*
X134545148Y-94740000D01*
X134545153Y-94740000D01*
X134620000Y-94754888D01*
X134694847Y-94740000D01*
X148275199Y-94740000D01*
X148653283Y-95118084D01*
X148242632Y-95138638D01*
X147858857Y-95297603D01*
X147789392Y-95539787D01*
X148590000Y-96340395D01*
X148604143Y-96326253D01*
X148783748Y-96505858D01*
X148769605Y-96520000D01*
X149570213Y-97320608D01*
X149812397Y-97251143D01*
X149862535Y-97110607D01*
X149945680Y-97311337D01*
X150338663Y-97704320D01*
X150852119Y-97917000D01*
X151407881Y-97917000D01*
X151921337Y-97704320D01*
X152314320Y-97311337D01*
X152400000Y-97104487D01*
X152485680Y-97311337D01*
X152878663Y-97704320D01*
X153392119Y-97917000D01*
X153947881Y-97917000D01*
X154461337Y-97704320D01*
X154854320Y-97311337D01*
X154945407Y-97091431D01*
X158556000Y-97091431D01*
X158556000Y-97980569D01*
X158896259Y-98802026D01*
X159524974Y-99430741D01*
X160346431Y-99771000D01*
X161235569Y-99771000D01*
X162057026Y-99430741D01*
X162685741Y-98802026D01*
X163026000Y-97980569D01*
X163026000Y-97091431D01*
X162685741Y-96269974D01*
X162057026Y-95641259D01*
X161235569Y-95301000D01*
X160346431Y-95301000D01*
X159524974Y-95641259D01*
X158896259Y-96269974D01*
X158556000Y-97091431D01*
X154945407Y-97091431D01*
X155067000Y-96797881D01*
X155067000Y-96242119D01*
X154854320Y-95728663D01*
X154461337Y-95335680D01*
X153947881Y-95123000D01*
X153392119Y-95123000D01*
X152878663Y-95335680D01*
X152485680Y-95728663D01*
X152400000Y-95935513D01*
X152314320Y-95728663D01*
X151921337Y-95335680D01*
X151407881Y-95123000D01*
X150852119Y-95123000D01*
X150820782Y-95135980D01*
X149180331Y-93495530D01*
X149137929Y-93432071D01*
X148886537Y-93264096D01*
X148664852Y-93220000D01*
X148664847Y-93220000D01*
X148590000Y-93205112D01*
X148515153Y-93220000D01*
X134934802Y-93220000D01*
X130212195Y-88497393D01*
X136480550Y-88497393D01*
X136480550Y-89048607D01*
X136691490Y-89557862D01*
X137081258Y-89947630D01*
X137590513Y-90158570D01*
X138141727Y-90158570D01*
X138650982Y-89947630D01*
X139040750Y-89557862D01*
X139251690Y-89048607D01*
X139251690Y-88497393D01*
X141362430Y-88497393D01*
X141362430Y-89048607D01*
X141573370Y-89557862D01*
X141963138Y-89947630D01*
X142472393Y-90158570D01*
X143023607Y-90158570D01*
X143532862Y-89947630D01*
X143922630Y-89557862D01*
X144133570Y-89048607D01*
X144133570Y-88497393D01*
X143922630Y-87988138D01*
X143532862Y-87598370D01*
X143023607Y-87387430D01*
X142472393Y-87387430D01*
X141963138Y-87598370D01*
X141573370Y-87988138D01*
X141362430Y-88497393D01*
X139251690Y-88497393D01*
X139040750Y-87988138D01*
X138650982Y-87598370D01*
X138141727Y-87387430D01*
X137590513Y-87387430D01*
X137081258Y-87598370D01*
X136691490Y-87988138D01*
X136480550Y-88497393D01*
X130212195Y-88497393D01*
X127615001Y-85900200D01*
X127615001Y-85108203D01*
X127710091Y-85171740D01*
X128128667Y-85255000D01*
X128411333Y-85255000D01*
X128829909Y-85171740D01*
X129304577Y-84854577D01*
X129540000Y-84502242D01*
X129775423Y-84854577D01*
X130250091Y-85171740D01*
X130668667Y-85255000D01*
X130951333Y-85255000D01*
X131369909Y-85171740D01*
X131844577Y-84854577D01*
X132080000Y-84502242D01*
X132315423Y-84854577D01*
X132790091Y-85171740D01*
X133208667Y-85255000D01*
X133491333Y-85255000D01*
X133909909Y-85171740D01*
X134384577Y-84854577D01*
X134620000Y-84502242D01*
X134855423Y-84854577D01*
X135330091Y-85171740D01*
X135748667Y-85255000D01*
X136031333Y-85255000D01*
X136449909Y-85171740D01*
X136924577Y-84854577D01*
X137160000Y-84502242D01*
X137395423Y-84854577D01*
X137870091Y-85171740D01*
X138288667Y-85255000D01*
X138571333Y-85255000D01*
X138989909Y-85171740D01*
X139464577Y-84854577D01*
X139700000Y-84502242D01*
X139935423Y-84854577D01*
X140410091Y-85171740D01*
X140828667Y-85255000D01*
X141111333Y-85255000D01*
X141529909Y-85171740D01*
X142004577Y-84854577D01*
X142240000Y-84502242D01*
X142475423Y-84854577D01*
X142950091Y-85171740D01*
X143368667Y-85255000D01*
X143651333Y-85255000D01*
X144069909Y-85171740D01*
X144544577Y-84854577D01*
X144780000Y-84502242D01*
X145015423Y-84854577D01*
X145490091Y-85171740D01*
X145908667Y-85255000D01*
X146191333Y-85255000D01*
X146609909Y-85171740D01*
X147084577Y-84854577D01*
X147320000Y-84502242D01*
X147555423Y-84854577D01*
X147830000Y-85038044D01*
X147830001Y-86640560D01*
X147740000Y-86640560D01*
X147492235Y-86689843D01*
X147282191Y-86830191D01*
X147141843Y-87040235D01*
X147092560Y-87288000D01*
X147092560Y-88988000D01*
X147141843Y-89235765D01*
X147282191Y-89445809D01*
X147492235Y-89586157D01*
X147740000Y-89635440D01*
X149440000Y-89635440D01*
X149687765Y-89586157D01*
X149897809Y-89445809D01*
X150038157Y-89235765D01*
X150047184Y-89190381D01*
X150059375Y-89208625D01*
X150550582Y-89536839D01*
X150983744Y-89623000D01*
X151276256Y-89623000D01*
X151709418Y-89536839D01*
X152200625Y-89208625D01*
X152400000Y-88910239D01*
X152599375Y-89208625D01*
X153090582Y-89536839D01*
X153523744Y-89623000D01*
X153816256Y-89623000D01*
X154249418Y-89536839D01*
X154740625Y-89208625D01*
X155068839Y-88717418D01*
X155184092Y-88138000D01*
X155083045Y-87630000D01*
X160410908Y-87630000D01*
X160526161Y-88209418D01*
X160854375Y-88700625D01*
X161152761Y-88900000D01*
X160854375Y-89099375D01*
X160526161Y-89590582D01*
X160410908Y-90170000D01*
X160526161Y-90749418D01*
X160854375Y-91240625D01*
X161345582Y-91568839D01*
X161778744Y-91655000D01*
X162071256Y-91655000D01*
X162504418Y-91568839D01*
X162995625Y-91240625D01*
X163323839Y-90749418D01*
X163439092Y-90170000D01*
X163323839Y-89590582D01*
X162995625Y-89099375D01*
X162697239Y-88900000D01*
X162995625Y-88700625D01*
X163323839Y-88209418D01*
X163439092Y-87630000D01*
X163323839Y-87050582D01*
X162995625Y-86559375D01*
X162676522Y-86346157D01*
X162806358Y-86285183D01*
X163196645Y-85856924D01*
X163366476Y-85446890D01*
X163245155Y-85217000D01*
X162052000Y-85217000D01*
X162052000Y-85237000D01*
X161798000Y-85237000D01*
X161798000Y-85217000D01*
X160604845Y-85217000D01*
X160483524Y-85446890D01*
X160653355Y-85856924D01*
X161043642Y-86285183D01*
X161173478Y-86346157D01*
X160854375Y-86559375D01*
X160526161Y-87050582D01*
X160410908Y-87630000D01*
X155083045Y-87630000D01*
X155068839Y-87558582D01*
X154740625Y-87067375D01*
X154430000Y-86859822D01*
X154430000Y-85038043D01*
X154704577Y-84854577D01*
X155021740Y-84379909D01*
X155133113Y-83820000D01*
X155021740Y-83260091D01*
X154704577Y-82785423D01*
X154229909Y-82468260D01*
X153811333Y-82385000D01*
X153528667Y-82385000D01*
X153110091Y-82468260D01*
X152635423Y-82785423D01*
X152400000Y-83137758D01*
X152164577Y-82785423D01*
X151689909Y-82468260D01*
X151271333Y-82385000D01*
X150988667Y-82385000D01*
X150570091Y-82468260D01*
X150095423Y-82785423D01*
X149860000Y-83137758D01*
X149624577Y-82785423D01*
X149149909Y-82468260D01*
X148731333Y-82385000D01*
X148448667Y-82385000D01*
X148030091Y-82468260D01*
X147555423Y-82785423D01*
X147320000Y-83137758D01*
X147084577Y-82785423D01*
X146609909Y-82468260D01*
X146191333Y-82385000D01*
X145908667Y-82385000D01*
X145490091Y-82468260D01*
X145015423Y-82785423D01*
X144780000Y-83137758D01*
X144544577Y-82785423D01*
X144069909Y-82468260D01*
X143651333Y-82385000D01*
X143368667Y-82385000D01*
X142950091Y-82468260D01*
X142475423Y-82785423D01*
X142240000Y-83137758D01*
X142004577Y-82785423D01*
X141529909Y-82468260D01*
X141111333Y-82385000D01*
X140828667Y-82385000D01*
X140410091Y-82468260D01*
X139935423Y-82785423D01*
X139700000Y-83137758D01*
X139464577Y-82785423D01*
X138989909Y-82468260D01*
X138571333Y-82385000D01*
X138288667Y-82385000D01*
X137870091Y-82468260D01*
X137395423Y-82785423D01*
X137160000Y-83137758D01*
X136924577Y-82785423D01*
X136632000Y-82589929D01*
X136632000Y-82243946D01*
X136831586Y-82110586D01*
X136832377Y-82109403D01*
X136987302Y-82264327D01*
X137220691Y-82361000D01*
X137636250Y-82361000D01*
X137795000Y-82202250D01*
X137795000Y-81153000D01*
X138049000Y-81153000D01*
X138049000Y-82202250D01*
X138207750Y-82361000D01*
X138623309Y-82361000D01*
X138856698Y-82264327D01*
X139035327Y-82085699D01*
X139132000Y-81852310D01*
X139132000Y-81311750D01*
X138973250Y-81153000D01*
X138049000Y-81153000D01*
X137795000Y-81153000D01*
X137775000Y-81153000D01*
X137775000Y-80899000D01*
X137795000Y-80899000D01*
X137795000Y-79849750D01*
X138049000Y-79849750D01*
X138049000Y-80899000D01*
X138973250Y-80899000D01*
X139132000Y-80740250D01*
X139132000Y-80199690D01*
X139053428Y-80010000D01*
X160410908Y-80010000D01*
X160526161Y-80589418D01*
X160854375Y-81080625D01*
X161152761Y-81280000D01*
X160854375Y-81479375D01*
X160526161Y-81970582D01*
X160410908Y-82550000D01*
X160526161Y-83129418D01*
X160854375Y-83620625D01*
X161173478Y-83833843D01*
X161043642Y-83894817D01*
X160653355Y-84323076D01*
X160483524Y-84733110D01*
X160604845Y-84963000D01*
X161798000Y-84963000D01*
X161798000Y-84943000D01*
X162052000Y-84943000D01*
X162052000Y-84963000D01*
X163245155Y-84963000D01*
X163366476Y-84733110D01*
X163196645Y-84323076D01*
X162806358Y-83894817D01*
X162676522Y-83833843D01*
X162995625Y-83620625D01*
X163323839Y-83129418D01*
X163439092Y-82550000D01*
X163323839Y-81970582D01*
X162995625Y-81479375D01*
X162697239Y-81280000D01*
X162995625Y-81080625D01*
X163323839Y-80589418D01*
X163439092Y-80010000D01*
X163323839Y-79430582D01*
X162995625Y-78939375D01*
X162676522Y-78726157D01*
X162806358Y-78665183D01*
X163196645Y-78236924D01*
X163366476Y-77826890D01*
X163245155Y-77597000D01*
X162052000Y-77597000D01*
X162052000Y-77617000D01*
X161798000Y-77617000D01*
X161798000Y-77597000D01*
X160604845Y-77597000D01*
X160483524Y-77826890D01*
X160653355Y-78236924D01*
X161043642Y-78665183D01*
X161173478Y-78726157D01*
X160854375Y-78939375D01*
X160526161Y-79430582D01*
X160410908Y-80010000D01*
X139053428Y-80010000D01*
X139035327Y-79966301D01*
X138856698Y-79787673D01*
X138623309Y-79691000D01*
X138207750Y-79691000D01*
X138049000Y-79849750D01*
X137795000Y-79849750D01*
X137636250Y-79691000D01*
X137220691Y-79691000D01*
X136987302Y-79787673D01*
X136832377Y-79942597D01*
X136831586Y-79941414D01*
X136540436Y-79746873D01*
X136197001Y-79678560D01*
X135546999Y-79678560D01*
X135203564Y-79746873D01*
X134912414Y-79941414D01*
X134717873Y-80232564D01*
X134649560Y-80575999D01*
X134649560Y-81476001D01*
X134717873Y-81819436D01*
X134912414Y-82110586D01*
X135112000Y-82243946D01*
X135112001Y-82613983D01*
X134855423Y-82785423D01*
X134620000Y-83137758D01*
X134384577Y-82785423D01*
X133909909Y-82468260D01*
X133491333Y-82385000D01*
X133208667Y-82385000D01*
X132790091Y-82468260D01*
X132315423Y-82785423D01*
X132080000Y-83137758D01*
X131844577Y-82785423D01*
X131369909Y-82468260D01*
X130951333Y-82385000D01*
X130668667Y-82385000D01*
X130250091Y-82468260D01*
X129775423Y-82785423D01*
X129540000Y-83137758D01*
X129304577Y-82785423D01*
X128829909Y-82468260D01*
X128411333Y-82385000D01*
X128128667Y-82385000D01*
X127710091Y-82468260D01*
X127615001Y-82531797D01*
X127615001Y-77488203D01*
X127710091Y-77551740D01*
X128128667Y-77635000D01*
X128411333Y-77635000D01*
X128829909Y-77551740D01*
X129304577Y-77234577D01*
X129540000Y-76882242D01*
X129775423Y-77234577D01*
X130250091Y-77551740D01*
X130668667Y-77635000D01*
X130951333Y-77635000D01*
X131369909Y-77551740D01*
X131844577Y-77234577D01*
X132080000Y-76882242D01*
X132315423Y-77234577D01*
X132790091Y-77551740D01*
X133208667Y-77635000D01*
X133491333Y-77635000D01*
X133909909Y-77551740D01*
X134384577Y-77234577D01*
X134620000Y-76882242D01*
X134855423Y-77234577D01*
X135330091Y-77551740D01*
X135748667Y-77635000D01*
X136031333Y-77635000D01*
X136449909Y-77551740D01*
X136924577Y-77234577D01*
X137160000Y-76882242D01*
X137395423Y-77234577D01*
X137870091Y-77551740D01*
X138288667Y-77635000D01*
X138571333Y-77635000D01*
X138989909Y-77551740D01*
X139464577Y-77234577D01*
X139720947Y-76850892D01*
X139817611Y-77055134D01*
X140232577Y-77431041D01*
X140620961Y-77591904D01*
X140843000Y-77469915D01*
X140843000Y-76327000D01*
X140823000Y-76327000D01*
X140823000Y-76073000D01*
X140843000Y-76073000D01*
X140843000Y-74930085D01*
X140620961Y-74808096D01*
X140232577Y-74968959D01*
X139817611Y-75344866D01*
X139720947Y-75549108D01*
X139464577Y-75165423D01*
X138989909Y-74848260D01*
X138571333Y-74765000D01*
X138288667Y-74765000D01*
X137870091Y-74848260D01*
X137395423Y-75165423D01*
X137160000Y-75517758D01*
X136924577Y-75165423D01*
X136449909Y-74848260D01*
X136031333Y-74765000D01*
X135748667Y-74765000D01*
X135330091Y-74848260D01*
X134855423Y-75165423D01*
X134620000Y-75517758D01*
X134384577Y-75165423D01*
X133909909Y-74848260D01*
X133491333Y-74765000D01*
X133208667Y-74765000D01*
X132790091Y-74848260D01*
X132315423Y-75165423D01*
X132080000Y-75517758D01*
X131844577Y-75165423D01*
X131369909Y-74848260D01*
X130951333Y-74765000D01*
X130668667Y-74765000D01*
X130250091Y-74848260D01*
X129775423Y-75165423D01*
X129540000Y-75517758D01*
X129304577Y-75165423D01*
X128829909Y-74848260D01*
X128411333Y-74765000D01*
X128128667Y-74765000D01*
X127710091Y-74848260D01*
X127235423Y-75165423D01*
X127000000Y-75517758D01*
X126764577Y-75165423D01*
X126289909Y-74848260D01*
X125871333Y-74765000D01*
X125699801Y-74765000D01*
X127568802Y-72896000D01*
X135662560Y-72896000D01*
X135662560Y-72986000D01*
X135711843Y-73233765D01*
X135852191Y-73443809D01*
X136062235Y-73584157D01*
X136310000Y-73633440D01*
X138010000Y-73633440D01*
X138257765Y-73584157D01*
X138467809Y-73443809D01*
X138608157Y-73233765D01*
X138617184Y-73188381D01*
X138629375Y-73206625D01*
X139120582Y-73534839D01*
X139553744Y-73621000D01*
X139846256Y-73621000D01*
X140279418Y-73534839D01*
X140304999Y-73517746D01*
X140304999Y-73680152D01*
X140290111Y-73754999D01*
X140304999Y-73829846D01*
X140304999Y-73829850D01*
X140349095Y-74051535D01*
X140517070Y-74302928D01*
X140580529Y-74345330D01*
X141141071Y-74905872D01*
X141097000Y-74930085D01*
X141097000Y-76073000D01*
X141117000Y-76073000D01*
X141117000Y-76327000D01*
X141097000Y-76327000D01*
X141097000Y-77469915D01*
X141319039Y-77591904D01*
X141707423Y-77431041D01*
X142122389Y-77055134D01*
X142219053Y-76850892D01*
X142475423Y-77234577D01*
X142950091Y-77551740D01*
X143368667Y-77635000D01*
X143651333Y-77635000D01*
X144069909Y-77551740D01*
X144544577Y-77234577D01*
X144780000Y-76882242D01*
X145015423Y-77234577D01*
X145490091Y-77551740D01*
X145908667Y-77635000D01*
X146191333Y-77635000D01*
X146609909Y-77551740D01*
X147084577Y-77234577D01*
X147320000Y-76882242D01*
X147555423Y-77234577D01*
X148030091Y-77551740D01*
X148448667Y-77635000D01*
X148731333Y-77635000D01*
X149149909Y-77551740D01*
X149624577Y-77234577D01*
X149860000Y-76882242D01*
X150095423Y-77234577D01*
X150570091Y-77551740D01*
X150988667Y-77635000D01*
X151271333Y-77635000D01*
X151689909Y-77551740D01*
X152164577Y-77234577D01*
X152400000Y-76882242D01*
X152635423Y-77234577D01*
X153110091Y-77551740D01*
X153528667Y-77635000D01*
X153811333Y-77635000D01*
X154229909Y-77551740D01*
X154704577Y-77234577D01*
X155021740Y-76759909D01*
X155133113Y-76200000D01*
X155021740Y-75640091D01*
X154704577Y-75165423D01*
X154229909Y-74848260D01*
X153811333Y-74765000D01*
X153528667Y-74765000D01*
X153110091Y-74848260D01*
X152635423Y-75165423D01*
X152400000Y-75517758D01*
X152164577Y-75165423D01*
X151890000Y-74981957D01*
X151890000Y-72390000D01*
X160410908Y-72390000D01*
X160526161Y-72969418D01*
X160854375Y-73460625D01*
X161152761Y-73660000D01*
X160854375Y-73859375D01*
X160526161Y-74350582D01*
X160410908Y-74930000D01*
X160526161Y-75509418D01*
X160854375Y-76000625D01*
X161173478Y-76213843D01*
X161043642Y-76274817D01*
X160653355Y-76703076D01*
X160483524Y-77113110D01*
X160604845Y-77343000D01*
X161798000Y-77343000D01*
X161798000Y-77323000D01*
X162052000Y-77323000D01*
X162052000Y-77343000D01*
X163245155Y-77343000D01*
X163366476Y-77113110D01*
X163196645Y-76703076D01*
X162806358Y-76274817D01*
X162676522Y-76213843D01*
X162995625Y-76000625D01*
X163323839Y-75509418D01*
X163439092Y-74930000D01*
X163323839Y-74350582D01*
X162995625Y-73859375D01*
X162697239Y-73660000D01*
X162995625Y-73460625D01*
X163323839Y-72969418D01*
X163439092Y-72390000D01*
X163323839Y-71810582D01*
X162995625Y-71319375D01*
X162973967Y-71304904D01*
X163134698Y-71238327D01*
X163313327Y-71059699D01*
X163410000Y-70826310D01*
X163410000Y-70135750D01*
X163251250Y-69977000D01*
X162052000Y-69977000D01*
X162052000Y-69997000D01*
X161798000Y-69997000D01*
X161798000Y-69977000D01*
X160598750Y-69977000D01*
X160440000Y-70135750D01*
X160440000Y-70826310D01*
X160536673Y-71059699D01*
X160715302Y-71238327D01*
X160876033Y-71304904D01*
X160854375Y-71319375D01*
X160526161Y-71810582D01*
X160410908Y-72390000D01*
X151890000Y-72390000D01*
X151890000Y-71956846D01*
X151904888Y-71881999D01*
X151890000Y-71807152D01*
X151890000Y-71807148D01*
X151845904Y-71585463D01*
X151735410Y-71420097D01*
X151720329Y-71397526D01*
X151720327Y-71397524D01*
X151677929Y-71334071D01*
X151614476Y-71291673D01*
X149196492Y-68873690D01*
X160440000Y-68873690D01*
X160440000Y-69564250D01*
X160598750Y-69723000D01*
X161798000Y-69723000D01*
X161798000Y-68523750D01*
X162052000Y-68523750D01*
X162052000Y-69723000D01*
X163251250Y-69723000D01*
X163410000Y-69564250D01*
X163410000Y-68873690D01*
X163313327Y-68640301D01*
X163134698Y-68461673D01*
X162901309Y-68365000D01*
X162210750Y-68365000D01*
X162052000Y-68523750D01*
X161798000Y-68523750D01*
X161639250Y-68365000D01*
X160948691Y-68365000D01*
X160715302Y-68461673D01*
X160536673Y-68640301D01*
X160440000Y-68873690D01*
X149196492Y-68873690D01*
X148164331Y-67841530D01*
X148121929Y-67778071D01*
X147870537Y-67610096D01*
X147648852Y-67566000D01*
X147648847Y-67566000D01*
X147574000Y-67551112D01*
X147499153Y-67566000D01*
X125042846Y-67566000D01*
X124967999Y-67551112D01*
X124893152Y-67566000D01*
X124893148Y-67566000D01*
X124671463Y-67610096D01*
X124671461Y-67610097D01*
X124671462Y-67610097D01*
X124483526Y-67735671D01*
X124483524Y-67735673D01*
X124420071Y-67778071D01*
X124377673Y-67841524D01*
X106517599Y-85701600D01*
X105494378Y-85701600D01*
X105286825Y-85390975D01*
X104988439Y-85191600D01*
X105286825Y-84992225D01*
X105615039Y-84501018D01*
X105730292Y-83921600D01*
X105615039Y-83342182D01*
X105286825Y-82850975D01*
X104988439Y-82651600D01*
X105286825Y-82452225D01*
X105615039Y-81961018D01*
X105730292Y-81381600D01*
X105615039Y-80802182D01*
X105286825Y-80310975D01*
X104988439Y-80111600D01*
X105286825Y-79912225D01*
X105615039Y-79421018D01*
X105730292Y-78841600D01*
X105615039Y-78262182D01*
X105286825Y-77770975D01*
X104988439Y-77571600D01*
X105286825Y-77372225D01*
X105615039Y-76881018D01*
X105730292Y-76301600D01*
X105615039Y-75722182D01*
X105286825Y-75230975D01*
X105268581Y-75218784D01*
X105313965Y-75209757D01*
X105524009Y-75069409D01*
X105664357Y-74859365D01*
X105713640Y-74611600D01*
X105713640Y-72911600D01*
X105664357Y-72663835D01*
X105524009Y-72453791D01*
X105313965Y-72313443D01*
X105066200Y-72264160D01*
X103366200Y-72264160D01*
X103118435Y-72313443D01*
X102908391Y-72453791D01*
X102768043Y-72663835D01*
X102718760Y-72911600D01*
X102718760Y-74611600D01*
X102768043Y-74859365D01*
X102908391Y-75069409D01*
X103118435Y-75209757D01*
X103163819Y-75218784D01*
X103145575Y-75230975D01*
X102817361Y-75722182D01*
X102702108Y-76301600D01*
X102310000Y-76301600D01*
X102310000Y-62091431D01*
X103556000Y-62091431D01*
X103556000Y-62980569D01*
X103896259Y-63802026D01*
X104524974Y-64430741D01*
X105346431Y-64771000D01*
X106235569Y-64771000D01*
X107057026Y-64430741D01*
X107685741Y-63802026D01*
X107925056Y-63224267D01*
X112198680Y-63224267D01*
X112399947Y-63767571D01*
X112793807Y-64192497D01*
X113308110Y-64431476D01*
X113538000Y-64310155D01*
X113538000Y-62992000D01*
X112338835Y-62992000D01*
X112198680Y-63224267D01*
X107925056Y-63224267D01*
X108026000Y-62980569D01*
X108026000Y-62505733D01*
X112198680Y-62505733D01*
X112338835Y-62738000D01*
X113538000Y-62738000D01*
X113538000Y-61419845D01*
X113792000Y-61419845D01*
X113792000Y-62738000D01*
X113812000Y-62738000D01*
X113812000Y-62992000D01*
X113792000Y-62992000D01*
X113792000Y-64310155D01*
X114021890Y-64431476D01*
X114536193Y-64192497D01*
X114911754Y-63787313D01*
X115094375Y-64060625D01*
X115585582Y-64388839D01*
X116165000Y-64504092D01*
X116744417Y-64388839D01*
X117235625Y-64060625D01*
X117278242Y-63996844D01*
X117430414Y-64224586D01*
X117721565Y-64419126D01*
X118065000Y-64487440D01*
X119265000Y-64487440D01*
X119608435Y-64419126D01*
X119899586Y-64224586D01*
X120094126Y-63933435D01*
X120162440Y-63590000D01*
X120162440Y-63224267D01*
X123628680Y-63224267D01*
X123829947Y-63767571D01*
X124223807Y-64192497D01*
X124738110Y-64431476D01*
X124968000Y-64310155D01*
X124968000Y-62992000D01*
X123768835Y-62992000D01*
X123628680Y-63224267D01*
X120162440Y-63224267D01*
X120162440Y-62505733D01*
X123628680Y-62505733D01*
X123768835Y-62738000D01*
X124968000Y-62738000D01*
X124968000Y-61419845D01*
X125222000Y-61419845D01*
X125222000Y-62738000D01*
X125242000Y-62738000D01*
X125242000Y-62992000D01*
X125222000Y-62992000D01*
X125222000Y-64310155D01*
X125451890Y-64431476D01*
X125966193Y-64192497D01*
X126341754Y-63787313D01*
X126524375Y-64060625D01*
X127015582Y-64388839D01*
X127595000Y-64504092D01*
X128174417Y-64388839D01*
X128665625Y-64060625D01*
X128708242Y-63996844D01*
X128860414Y-64224586D01*
X129151565Y-64419126D01*
X129495000Y-64487440D01*
X130695000Y-64487440D01*
X131038435Y-64419126D01*
X131329586Y-64224586D01*
X131524126Y-63933435D01*
X131592440Y-63590000D01*
X131592440Y-63224267D01*
X135058680Y-63224267D01*
X135259947Y-63767571D01*
X135653807Y-64192497D01*
X136168110Y-64431476D01*
X136398000Y-64310155D01*
X136398000Y-62992000D01*
X135198835Y-62992000D01*
X135058680Y-63224267D01*
X131592440Y-63224267D01*
X131592440Y-62505733D01*
X135058680Y-62505733D01*
X135198835Y-62738000D01*
X136398000Y-62738000D01*
X136398000Y-61419845D01*
X136652000Y-61419845D01*
X136652000Y-62738000D01*
X136672000Y-62738000D01*
X136672000Y-62992000D01*
X136652000Y-62992000D01*
X136652000Y-64310155D01*
X136881890Y-64431476D01*
X137396193Y-64192497D01*
X137771754Y-63787313D01*
X137954375Y-64060625D01*
X138445582Y-64388839D01*
X139025000Y-64504092D01*
X139604417Y-64388839D01*
X140095625Y-64060625D01*
X140138242Y-63996844D01*
X140290414Y-64224586D01*
X140581565Y-64419126D01*
X140925000Y-64487440D01*
X142125000Y-64487440D01*
X142468435Y-64419126D01*
X142759586Y-64224586D01*
X142954126Y-63933435D01*
X143022440Y-63590000D01*
X143022440Y-63224267D01*
X146488680Y-63224267D01*
X146689947Y-63767571D01*
X147083807Y-64192497D01*
X147598110Y-64431476D01*
X147828000Y-64310155D01*
X147828000Y-62992000D01*
X146628835Y-62992000D01*
X146488680Y-63224267D01*
X143022440Y-63224267D01*
X143022440Y-62505733D01*
X146488680Y-62505733D01*
X146628835Y-62738000D01*
X147828000Y-62738000D01*
X147828000Y-61419845D01*
X148082000Y-61419845D01*
X148082000Y-62738000D01*
X148102000Y-62738000D01*
X148102000Y-62992000D01*
X148082000Y-62992000D01*
X148082000Y-64310155D01*
X148311890Y-64431476D01*
X148826193Y-64192497D01*
X149201754Y-63787313D01*
X149384375Y-64060625D01*
X149875582Y-64388839D01*
X150455000Y-64504092D01*
X151034417Y-64388839D01*
X151525625Y-64060625D01*
X151568242Y-63996844D01*
X151720414Y-64224586D01*
X152011565Y-64419126D01*
X152355000Y-64487440D01*
X153555000Y-64487440D01*
X153898435Y-64419126D01*
X154189586Y-64224586D01*
X154384126Y-63933435D01*
X154452440Y-63590000D01*
X154452440Y-62140000D01*
X154384126Y-61796565D01*
X154189586Y-61505414D01*
X153898435Y-61310874D01*
X153555000Y-61242560D01*
X152355000Y-61242560D01*
X152011565Y-61310874D01*
X151720414Y-61505414D01*
X151568242Y-61733156D01*
X151525625Y-61669375D01*
X151034418Y-61341161D01*
X150455000Y-61225908D01*
X149875583Y-61341161D01*
X149384375Y-61669375D01*
X149201754Y-61942687D01*
X148826193Y-61537503D01*
X148311890Y-61298524D01*
X148082000Y-61419845D01*
X147828000Y-61419845D01*
X147598110Y-61298524D01*
X147083807Y-61537503D01*
X146689947Y-61962429D01*
X146488680Y-62505733D01*
X143022440Y-62505733D01*
X143022440Y-62140000D01*
X142954126Y-61796565D01*
X142759586Y-61505414D01*
X142468435Y-61310874D01*
X142125000Y-61242560D01*
X140925000Y-61242560D01*
X140581565Y-61310874D01*
X140290414Y-61505414D01*
X140138242Y-61733156D01*
X140095625Y-61669375D01*
X139604418Y-61341161D01*
X139025000Y-61225908D01*
X138445583Y-61341161D01*
X137954375Y-61669375D01*
X137771754Y-61942687D01*
X137396193Y-61537503D01*
X136881890Y-61298524D01*
X136652000Y-61419845D01*
X136398000Y-61419845D01*
X136168110Y-61298524D01*
X135653807Y-61537503D01*
X135259947Y-61962429D01*
X135058680Y-62505733D01*
X131592440Y-62505733D01*
X131592440Y-62140000D01*
X131524126Y-61796565D01*
X131329586Y-61505414D01*
X131038435Y-61310874D01*
X130695000Y-61242560D01*
X129495000Y-61242560D01*
X129151565Y-61310874D01*
X128860414Y-61505414D01*
X128708242Y-61733156D01*
X128665625Y-61669375D01*
X128174418Y-61341161D01*
X127595000Y-61225908D01*
X127015583Y-61341161D01*
X126524375Y-61669375D01*
X126341754Y-61942687D01*
X125966193Y-61537503D01*
X125451890Y-61298524D01*
X125222000Y-61419845D01*
X124968000Y-61419845D01*
X124738110Y-61298524D01*
X124223807Y-61537503D01*
X123829947Y-61962429D01*
X123628680Y-62505733D01*
X120162440Y-62505733D01*
X120162440Y-62140000D01*
X120094126Y-61796565D01*
X119899586Y-61505414D01*
X119608435Y-61310874D01*
X119265000Y-61242560D01*
X118065000Y-61242560D01*
X117721565Y-61310874D01*
X117430414Y-61505414D01*
X117278242Y-61733156D01*
X117235625Y-61669375D01*
X116744418Y-61341161D01*
X116165000Y-61225908D01*
X115585583Y-61341161D01*
X115094375Y-61669375D01*
X114911754Y-61942687D01*
X114536193Y-61537503D01*
X114021890Y-61298524D01*
X113792000Y-61419845D01*
X113538000Y-61419845D01*
X113308110Y-61298524D01*
X112793807Y-61537503D01*
X112399947Y-61962429D01*
X112198680Y-62505733D01*
X108026000Y-62505733D01*
X108026000Y-62091431D01*
X107685741Y-61269974D01*
X107057026Y-60641259D01*
X106235569Y-60301000D01*
X105346431Y-60301000D01*
X104524974Y-60641259D01*
X103896259Y-61269974D01*
X103556000Y-62091431D01*
X102310000Y-62091431D01*
X102310000Y-61004666D01*
X102372958Y-60506302D01*
X102541305Y-60081107D01*
X102810101Y-59711142D01*
X103162462Y-59419644D01*
X103576244Y-59224933D01*
X104058662Y-59132907D01*
X104151164Y-59130000D01*
X158992473Y-59130000D01*
X158618647Y-59284844D01*
X158618647Y-59284844D01*
G37*
X158618647Y-59284844D02*
X157539844Y-60363647D01*
X156956000Y-61773171D01*
X156956000Y-63298829D01*
X157539844Y-64708353D01*
X158618647Y-65787156D01*
X160028171Y-66371000D01*
X161553829Y-66371000D01*
X162963353Y-65787156D01*
X164042156Y-64708353D01*
X164390000Y-63868583D01*
X164390001Y-99015326D01*
X164327042Y-99513699D01*
X164158697Y-99938889D01*
X163889899Y-100308859D01*
X163537541Y-100600355D01*
X163123756Y-100795067D01*
X162641339Y-100887093D01*
X162548836Y-100890000D01*
X104184667Y-100890000D01*
X103686301Y-100827042D01*
X103261111Y-100658697D01*
X102891141Y-100389899D01*
X102599645Y-100037541D01*
X102404933Y-99623756D01*
X102312907Y-99141339D01*
X102310000Y-99048836D01*
X102310000Y-97091431D01*
X103556000Y-97091431D01*
X103556000Y-97980569D01*
X103896259Y-98802026D01*
X104524974Y-99430741D01*
X105346431Y-99771000D01*
X106235569Y-99771000D01*
X107057026Y-99430741D01*
X107685741Y-98802026D01*
X108026000Y-97980569D01*
X108026000Y-97702000D01*
X111532560Y-97702000D01*
X111532560Y-99402000D01*
X111581843Y-99649765D01*
X111722191Y-99859809D01*
X111932235Y-100000157D01*
X112180000Y-100049440D01*
X113880000Y-100049440D01*
X114127765Y-100000157D01*
X114337809Y-99859809D01*
X114478157Y-99649765D01*
X114498739Y-99546292D01*
X114803076Y-99823645D01*
X115213110Y-99993476D01*
X115443000Y-99872155D01*
X115443000Y-98679000D01*
X115423000Y-98679000D01*
X115423000Y-98425000D01*
X115443000Y-98425000D01*
X115443000Y-97231845D01*
X115213110Y-97110524D01*
X114803076Y-97280355D01*
X114498739Y-97557708D01*
X114478157Y-97454235D01*
X114337809Y-97244191D01*
X114127765Y-97103843D01*
X113880000Y-97054560D01*
X112180000Y-97054560D01*
X111932235Y-97103843D01*
X111722191Y-97244191D01*
X111581843Y-97454235D01*
X111532560Y-97702000D01*
X108026000Y-97702000D01*
X108026000Y-97091431D01*
X107685741Y-96269974D01*
X107057026Y-95641259D01*
X106235569Y-95301000D01*
X105346431Y-95301000D01*
X104524974Y-95641259D01*
X103896259Y-96269974D01*
X103556000Y-97091431D01*
X102310000Y-97091431D01*
X102310000Y-92995750D01*
X111937500Y-92995750D01*
X111937500Y-93536310D01*
X112034173Y-93769699D01*
X112212802Y-93948327D01*
X112446191Y-94045000D01*
X112774250Y-94045000D01*
X112933000Y-93886250D01*
X112933000Y-92837000D01*
X112096250Y-92837000D01*
X111937500Y-92995750D01*
X102310000Y-92995750D01*
X102310000Y-91898490D01*
X102774724Y-91898490D01*
X102944555Y-92308524D01*
X103334842Y-92736783D01*
X103859308Y-92983086D01*
X104089200Y-92862419D01*
X104089200Y-91668600D01*
X104343200Y-91668600D01*
X104343200Y-92862419D01*
X104573092Y-92983086D01*
X105097558Y-92736783D01*
X105487845Y-92308524D01*
X105657676Y-91898490D01*
X105649866Y-91883690D01*
X111937500Y-91883690D01*
X111937500Y-92424250D01*
X112096250Y-92583000D01*
X112933000Y-92583000D01*
X112933000Y-91533750D01*
X112774250Y-91375000D01*
X112446191Y-91375000D01*
X112212802Y-91471673D01*
X112034173Y-91650301D01*
X111937500Y-91883690D01*
X105649866Y-91883690D01*
X105536355Y-91668600D01*
X104343200Y-91668600D01*
X104089200Y-91668600D01*
X102896045Y-91668600D01*
X102774724Y-91898490D01*
X102310000Y-91898490D01*
X102310000Y-76301600D01*
X102702108Y-76301600D01*
X102817361Y-76881018D01*
X103145575Y-77372225D01*
X103443961Y-77571600D01*
X103145575Y-77770975D01*
X102817361Y-78262182D01*
X102702108Y-78841600D01*
X102817361Y-79421018D01*
X103145575Y-79912225D01*
X103443961Y-80111600D01*
X103145575Y-80310975D01*
X102817361Y-80802182D01*
X102702108Y-81381600D01*
X102817361Y-81961018D01*
X103145575Y-82452225D01*
X103443961Y-82651600D01*
X103145575Y-82850975D01*
X102817361Y-83342182D01*
X102702108Y-83921600D01*
X102817361Y-84501018D01*
X103145575Y-84992225D01*
X103443961Y-85191600D01*
X103145575Y-85390975D01*
X102817361Y-85882182D01*
X102702108Y-86461600D01*
X102817361Y-87041018D01*
X103145575Y-87532225D01*
X103443961Y-87731600D01*
X103145575Y-87930975D01*
X102817361Y-88422182D01*
X102702108Y-89001600D01*
X102817361Y-89581018D01*
X103145575Y-90072225D01*
X103464678Y-90285443D01*
X103334842Y-90346417D01*
X102944555Y-90774676D01*
X102774724Y-91184710D01*
X102896045Y-91414600D01*
X104089200Y-91414600D01*
X104089200Y-91394600D01*
X104343200Y-91394600D01*
X104343200Y-91414600D01*
X105536355Y-91414600D01*
X105657676Y-91184710D01*
X105487845Y-90774676D01*
X105097558Y-90346417D01*
X104967722Y-90285443D01*
X105286825Y-90072225D01*
X105615039Y-89581018D01*
X105730292Y-89001600D01*
X105615039Y-88422182D01*
X105286825Y-87930975D01*
X104988439Y-87731600D01*
X105286825Y-87532225D01*
X105494378Y-87221600D01*
X106757553Y-87221600D01*
X106832400Y-87236488D01*
X106907247Y-87221600D01*
X106907252Y-87221600D01*
X107128937Y-87177504D01*
X107380329Y-87009529D01*
X107422731Y-86946070D01*
X125282803Y-69086000D01*
X147259199Y-69086000D01*
X150370000Y-72196803D01*
X150370001Y-74981956D01*
X150095423Y-75165423D01*
X149860000Y-75517758D01*
X149624577Y-75165423D01*
X149149909Y-74848260D01*
X148731333Y-74765000D01*
X148483802Y-74765000D01*
X147339802Y-73621000D01*
X147466256Y-73621000D01*
X147899418Y-73534839D01*
X148390625Y-73206625D01*
X148718839Y-72715418D01*
X148834092Y-72136000D01*
X148718839Y-71556582D01*
X148390625Y-71065375D01*
X147899418Y-70737161D01*
X147466256Y-70651000D01*
X147173744Y-70651000D01*
X146953592Y-70694791D01*
X146132331Y-69873530D01*
X146089929Y-69810071D01*
X145838537Y-69642096D01*
X145616852Y-69598000D01*
X145616847Y-69598000D01*
X145542000Y-69583112D01*
X145467153Y-69598000D01*
X141552848Y-69598000D01*
X141478000Y-69583112D01*
X141403152Y-69598000D01*
X141403148Y-69598000D01*
X141181463Y-69642096D01*
X140930071Y-69810071D01*
X140887669Y-69873530D01*
X140580527Y-70180672D01*
X140517071Y-70223072D01*
X140474671Y-70286528D01*
X140474670Y-70286529D01*
X140349096Y-70474464D01*
X140294798Y-70747438D01*
X140279418Y-70737161D01*
X139846256Y-70651000D01*
X139553744Y-70651000D01*
X139333592Y-70694791D01*
X138512331Y-69873530D01*
X138469929Y-69810071D01*
X138218537Y-69642096D01*
X137996852Y-69598000D01*
X137996847Y-69598000D01*
X137922000Y-69583112D01*
X137847153Y-69598000D01*
X136218846Y-69598000D01*
X136143999Y-69583112D01*
X136069152Y-69598000D01*
X136069148Y-69598000D01*
X135847463Y-69642096D01*
X135596071Y-69810071D01*
X135553671Y-69873527D01*
X134559199Y-70868000D01*
X127074848Y-70868000D01*
X127000000Y-70853112D01*
X126925152Y-70868000D01*
X126925148Y-70868000D01*
X126751605Y-70902520D01*
X126703462Y-70912096D01*
X126585134Y-70991161D01*
X126452071Y-71080071D01*
X126409671Y-71143527D01*
X123891199Y-73662000D01*
X122502848Y-73662000D01*
X122428000Y-73647112D01*
X122353152Y-73662000D01*
X122353148Y-73662000D01*
X122179605Y-73696520D01*
X122131462Y-73706096D01*
X121946252Y-73829850D01*
X121880071Y-73874071D01*
X121837671Y-73937527D01*
X120973886Y-74801312D01*
X120791333Y-74765000D01*
X120508667Y-74765000D01*
X120090091Y-74848260D01*
X119615423Y-75165423D01*
X119298260Y-75640091D01*
X119186887Y-76200000D01*
X119298260Y-76759909D01*
X119615423Y-77234577D01*
X120090091Y-77551740D01*
X120508667Y-77635000D01*
X120791333Y-77635000D01*
X121209909Y-77551740D01*
X121684577Y-77234577D01*
X121920000Y-76882242D01*
X122155423Y-77234577D01*
X122630091Y-77551740D01*
X123048667Y-77635000D01*
X123331333Y-77635000D01*
X123749909Y-77551740D01*
X124224577Y-77234577D01*
X124460000Y-76882242D01*
X124695423Y-77234577D01*
X125170091Y-77551740D01*
X125588667Y-77635000D01*
X125871333Y-77635000D01*
X126053887Y-77598688D01*
X126095002Y-77639803D01*
X126095001Y-82429490D01*
X125871333Y-82385000D01*
X125588667Y-82385000D01*
X125170091Y-82468260D01*
X124695423Y-82785423D01*
X124460000Y-83137758D01*
X124224577Y-82785423D01*
X123749909Y-82468260D01*
X123331333Y-82385000D01*
X123048667Y-82385000D01*
X122630091Y-82468260D01*
X122155423Y-82785423D01*
X122074785Y-82906106D01*
X122048157Y-82772235D01*
X121907809Y-82562191D01*
X121697765Y-82421843D01*
X121450000Y-82372560D01*
X119850000Y-82372560D01*
X119602235Y-82421843D01*
X119392191Y-82562191D01*
X119251843Y-82772235D01*
X119202560Y-83020000D01*
X119202560Y-84620000D01*
X119251843Y-84867765D01*
X119392191Y-85077809D01*
X119602235Y-85218157D01*
X119850000Y-85267440D01*
X119890001Y-85267440D01*
X119890000Y-89975198D01*
X118721375Y-91143823D01*
X118555222Y-91075000D01*
X117904778Y-91075000D01*
X117303847Y-91323914D01*
X116843914Y-91783847D01*
X116775091Y-91950000D01*
X116009520Y-91950000D01*
X116002102Y-91912706D01*
X115808916Y-91623584D01*
X115519794Y-91430398D01*
X115178750Y-91362560D01*
X114691250Y-91362560D01*
X114350206Y-91430398D01*
X114061084Y-91623584D01*
X114060293Y-91624767D01*
X113907198Y-91471673D01*
X113673809Y-91375000D01*
X113345750Y-91375000D01*
X113187000Y-91533750D01*
X113187000Y-92583000D01*
X113207000Y-92583000D01*
X113207000Y-92837000D01*
X113187000Y-92837000D01*
X113187000Y-93886250D01*
X113345750Y-94045000D01*
X113673809Y-94045000D01*
X113907198Y-93948327D01*
X114060293Y-93795233D01*
X114061084Y-93796416D01*
X114350206Y-93989602D01*
X114691250Y-94057440D01*
X115178750Y-94057440D01*
X115519794Y-93989602D01*
X115808916Y-93796416D01*
X116002102Y-93507294D01*
X116009520Y-93470000D01*
X116775091Y-93470000D01*
X116843914Y-93636153D01*
X117303847Y-94096086D01*
X117904778Y-94345000D01*
X118555222Y-94345000D01*
X119156153Y-94096086D01*
X119616086Y-93636153D01*
X119865000Y-93035222D01*
X119865000Y-92384778D01*
X119796177Y-92218625D01*
X121134473Y-90880329D01*
X121197929Y-90837929D01*
X121257070Y-90749418D01*
X121365904Y-90586538D01*
X121402921Y-90400439D01*
X121410000Y-90364852D01*
X121410000Y-90364848D01*
X121424888Y-90290000D01*
X121410000Y-90215152D01*
X121410000Y-85267440D01*
X121450000Y-85267440D01*
X121697765Y-85218157D01*
X121907809Y-85077809D01*
X122048157Y-84867765D01*
X122074785Y-84733894D01*
X122155423Y-84854577D01*
X122180233Y-84871154D01*
X122149661Y-84916908D01*
X122149660Y-84916909D01*
X122024086Y-85104844D01*
X121965101Y-85401381D01*
X121979990Y-85476233D01*
X121979989Y-96147209D01*
X121016408Y-97110791D01*
X120796256Y-97067000D01*
X120503744Y-97067000D01*
X120070582Y-97153161D01*
X119579375Y-97481375D01*
X119380000Y-97779761D01*
X119180625Y-97481375D01*
X118689418Y-97153161D01*
X118256256Y-97067000D01*
X117963744Y-97067000D01*
X117530582Y-97153161D01*
X117039375Y-97481375D01*
X116826157Y-97800478D01*
X116765183Y-97670642D01*
X116336924Y-97280355D01*
X115926890Y-97110524D01*
X115697000Y-97231845D01*
X115697000Y-98425000D01*
X115717000Y-98425000D01*
X115717000Y-98679000D01*
X115697000Y-98679000D01*
X115697000Y-99872155D01*
X115926890Y-99993476D01*
X116336924Y-99823645D01*
X116765183Y-99433358D01*
X116826157Y-99303522D01*
X117039375Y-99622625D01*
X117530582Y-99950839D01*
X117963744Y-100037000D01*
X118256256Y-100037000D01*
X118689418Y-99950839D01*
X119180625Y-99622625D01*
X119380000Y-99324239D01*
X119579375Y-99622625D01*
X120070582Y-99950839D01*
X120503744Y-100037000D01*
X120796256Y-100037000D01*
X121229418Y-99950839D01*
X121720625Y-99622625D01*
X121920000Y-99324239D01*
X122119375Y-99622625D01*
X122610582Y-99950839D01*
X123043744Y-100037000D01*
X123336256Y-100037000D01*
X123769418Y-99950839D01*
X124260625Y-99622625D01*
X124460000Y-99324239D01*
X124659375Y-99622625D01*
X125150582Y-99950839D01*
X125583744Y-100037000D01*
X125876256Y-100037000D01*
X126309418Y-99950839D01*
X126800625Y-99622625D01*
X127128839Y-99131418D01*
X127244092Y-98552000D01*
X129803908Y-98552000D01*
X129919161Y-99131418D01*
X130247375Y-99622625D01*
X130738582Y-99950839D01*
X131171744Y-100037000D01*
X131464256Y-100037000D01*
X131897418Y-99950839D01*
X132388625Y-99622625D01*
X132400816Y-99604381D01*
X132409843Y-99649765D01*
X132550191Y-99859809D01*
X132760235Y-100000157D01*
X133008000Y-100049440D01*
X134708000Y-100049440D01*
X134955765Y-100000157D01*
X135165809Y-99859809D01*
X135306157Y-99649765D01*
X135355440Y-99402000D01*
X135355440Y-97702000D01*
X135315303Y-97500213D01*
X147789392Y-97500213D01*
X147858857Y-97742397D01*
X148382302Y-97929144D01*
X148937368Y-97901362D01*
X149321143Y-97742397D01*
X149390608Y-97500213D01*
X148590000Y-96699605D01*
X147789392Y-97500213D01*
X135315303Y-97500213D01*
X135306157Y-97454235D01*
X135165809Y-97244191D01*
X134955765Y-97103843D01*
X134708000Y-97054560D01*
X133008000Y-97054560D01*
X132760235Y-97103843D01*
X132550191Y-97244191D01*
X132409843Y-97454235D01*
X132400816Y-97499619D01*
X132388625Y-97481375D01*
X131897418Y-97153161D01*
X131464256Y-97067000D01*
X131171744Y-97067000D01*
X130738582Y-97153161D01*
X130247375Y-97481375D01*
X129919161Y-97972582D01*
X129803908Y-98552000D01*
X127244092Y-98552000D01*
X127128839Y-97972582D01*
X126800625Y-97481375D01*
X126309418Y-97153161D01*
X125876256Y-97067000D01*
X125583744Y-97067000D01*
X125150582Y-97153161D01*
X124659375Y-97481375D01*
X124460000Y-97779761D01*
X124260625Y-97481375D01*
X123950000Y-97273822D01*
X123950000Y-96312302D01*
X147180856Y-96312302D01*
X147208638Y-96867368D01*
X147367603Y-97251143D01*
X147609787Y-97320608D01*
X148410395Y-96520000D01*
X147609787Y-95719392D01*
X147367603Y-95788857D01*
X147180856Y-96312302D01*
X123950000Y-96312302D01*
X123950000Y-92384778D01*
X124095000Y-92384778D01*
X124095000Y-93035222D01*
X124343914Y-93636153D01*
X124803847Y-94096086D01*
X125404778Y-94345000D01*
X126055222Y-94345000D01*
X126656153Y-94096086D01*
X127116086Y-93636153D01*
X127365000Y-93035222D01*
X127365000Y-92384778D01*
X127116086Y-91783847D01*
X126656153Y-91323914D01*
X126055222Y-91075000D01*
X125404778Y-91075000D01*
X124803847Y-91323914D01*
X124343914Y-91783847D01*
X124095000Y-92384778D01*
X123950000Y-92384778D01*
X123950000Y-86674801D01*
X125406114Y-85218688D01*
X125588667Y-85255000D01*
X125871333Y-85255000D01*
X126095001Y-85210510D01*
X126095001Y-86140154D01*
X126080113Y-86215001D01*
X126095001Y-86289848D01*
X126095001Y-86289852D01*
X126139097Y-86511537D01*
X126307072Y-86762930D01*
X126370531Y-86805332D01*
X134029670Y-94464472D01*
X134072071Y-94527929D01*
X134323463Y-94695904D01*
X134545148Y-94740000D01*
X134545153Y-94740000D01*
X134620000Y-94754888D01*
X134694847Y-94740000D01*
X148275199Y-94740000D01*
X148653283Y-95118084D01*
X148242632Y-95138638D01*
X147858857Y-95297603D01*
X147789392Y-95539787D01*
X148590000Y-96340395D01*
X148604143Y-96326253D01*
X148783748Y-96505858D01*
X148769605Y-96520000D01*
X149570213Y-97320608D01*
X149812397Y-97251143D01*
X149862535Y-97110607D01*
X149945680Y-97311337D01*
X150338663Y-97704320D01*
X150852119Y-97917000D01*
X151407881Y-97917000D01*
X151921337Y-97704320D01*
X152314320Y-97311337D01*
X152400000Y-97104487D01*
X152485680Y-97311337D01*
X152878663Y-97704320D01*
X153392119Y-97917000D01*
X153947881Y-97917000D01*
X154461337Y-97704320D01*
X154854320Y-97311337D01*
X154945407Y-97091431D01*
X158556000Y-97091431D01*
X158556000Y-97980569D01*
X158896259Y-98802026D01*
X159524974Y-99430741D01*
X160346431Y-99771000D01*
X161235569Y-99771000D01*
X162057026Y-99430741D01*
X162685741Y-98802026D01*
X163026000Y-97980569D01*
X163026000Y-97091431D01*
X162685741Y-96269974D01*
X162057026Y-95641259D01*
X161235569Y-95301000D01*
X160346431Y-95301000D01*
X159524974Y-95641259D01*
X158896259Y-96269974D01*
X158556000Y-97091431D01*
X154945407Y-97091431D01*
X155067000Y-96797881D01*
X155067000Y-96242119D01*
X154854320Y-95728663D01*
X154461337Y-95335680D01*
X153947881Y-95123000D01*
X153392119Y-95123000D01*
X152878663Y-95335680D01*
X152485680Y-95728663D01*
X152400000Y-95935513D01*
X152314320Y-95728663D01*
X151921337Y-95335680D01*
X151407881Y-95123000D01*
X150852119Y-95123000D01*
X150820782Y-95135980D01*
X149180331Y-93495530D01*
X149137929Y-93432071D01*
X148886537Y-93264096D01*
X148664852Y-93220000D01*
X148664847Y-93220000D01*
X148590000Y-93205112D01*
X148515153Y-93220000D01*
X134934802Y-93220000D01*
X130212195Y-88497393D01*
X136480550Y-88497393D01*
X136480550Y-89048607D01*
X136691490Y-89557862D01*
X137081258Y-89947630D01*
X137590513Y-90158570D01*
X138141727Y-90158570D01*
X138650982Y-89947630D01*
X139040750Y-89557862D01*
X139251690Y-89048607D01*
X139251690Y-88497393D01*
X141362430Y-88497393D01*
X141362430Y-89048607D01*
X141573370Y-89557862D01*
X141963138Y-89947630D01*
X142472393Y-90158570D01*
X143023607Y-90158570D01*
X143532862Y-89947630D01*
X143922630Y-89557862D01*
X144133570Y-89048607D01*
X144133570Y-88497393D01*
X143922630Y-87988138D01*
X143532862Y-87598370D01*
X143023607Y-87387430D01*
X142472393Y-87387430D01*
X141963138Y-87598370D01*
X141573370Y-87988138D01*
X141362430Y-88497393D01*
X139251690Y-88497393D01*
X139040750Y-87988138D01*
X138650982Y-87598370D01*
X138141727Y-87387430D01*
X137590513Y-87387430D01*
X137081258Y-87598370D01*
X136691490Y-87988138D01*
X136480550Y-88497393D01*
X130212195Y-88497393D01*
X127615001Y-85900200D01*
X127615001Y-85108203D01*
X127710091Y-85171740D01*
X128128667Y-85255000D01*
X128411333Y-85255000D01*
X128829909Y-85171740D01*
X129304577Y-84854577D01*
X129540000Y-84502242D01*
X129775423Y-84854577D01*
X130250091Y-85171740D01*
X130668667Y-85255000D01*
X130951333Y-85255000D01*
X131369909Y-85171740D01*
X131844577Y-84854577D01*
X132080000Y-84502242D01*
X132315423Y-84854577D01*
X132790091Y-85171740D01*
X133208667Y-85255000D01*
X133491333Y-85255000D01*
X133909909Y-85171740D01*
X134384577Y-84854577D01*
X134620000Y-84502242D01*
X134855423Y-84854577D01*
X135330091Y-85171740D01*
X135748667Y-85255000D01*
X136031333Y-85255000D01*
X136449909Y-85171740D01*
X136924577Y-84854577D01*
X137160000Y-84502242D01*
X137395423Y-84854577D01*
X137870091Y-85171740D01*
X138288667Y-85255000D01*
X138571333Y-85255000D01*
X138989909Y-85171740D01*
X139464577Y-84854577D01*
X139700000Y-84502242D01*
X139935423Y-84854577D01*
X140410091Y-85171740D01*
X140828667Y-85255000D01*
X141111333Y-85255000D01*
X141529909Y-85171740D01*
X142004577Y-84854577D01*
X142240000Y-84502242D01*
X142475423Y-84854577D01*
X142950091Y-85171740D01*
X143368667Y-85255000D01*
X143651333Y-85255000D01*
X144069909Y-85171740D01*
X144544577Y-84854577D01*
X144780000Y-84502242D01*
X145015423Y-84854577D01*
X145490091Y-85171740D01*
X145908667Y-85255000D01*
X146191333Y-85255000D01*
X146609909Y-85171740D01*
X147084577Y-84854577D01*
X147320000Y-84502242D01*
X147555423Y-84854577D01*
X147830000Y-85038044D01*
X147830001Y-86640560D01*
X147740000Y-86640560D01*
X147492235Y-86689843D01*
X147282191Y-86830191D01*
X147141843Y-87040235D01*
X147092560Y-87288000D01*
X147092560Y-88988000D01*
X147141843Y-89235765D01*
X147282191Y-89445809D01*
X147492235Y-89586157D01*
X147740000Y-89635440D01*
X149440000Y-89635440D01*
X149687765Y-89586157D01*
X149897809Y-89445809D01*
X150038157Y-89235765D01*
X150047184Y-89190381D01*
X150059375Y-89208625D01*
X150550582Y-89536839D01*
X150983744Y-89623000D01*
X151276256Y-89623000D01*
X151709418Y-89536839D01*
X152200625Y-89208625D01*
X152400000Y-88910239D01*
X152599375Y-89208625D01*
X153090582Y-89536839D01*
X153523744Y-89623000D01*
X153816256Y-89623000D01*
X154249418Y-89536839D01*
X154740625Y-89208625D01*
X155068839Y-88717418D01*
X155184092Y-88138000D01*
X155083045Y-87630000D01*
X160410908Y-87630000D01*
X160526161Y-88209418D01*
X160854375Y-88700625D01*
X161152761Y-88900000D01*
X160854375Y-89099375D01*
X160526161Y-89590582D01*
X160410908Y-90170000D01*
X160526161Y-90749418D01*
X160854375Y-91240625D01*
X161345582Y-91568839D01*
X161778744Y-91655000D01*
X162071256Y-91655000D01*
X162504418Y-91568839D01*
X162995625Y-91240625D01*
X163323839Y-90749418D01*
X163439092Y-90170000D01*
X163323839Y-89590582D01*
X162995625Y-89099375D01*
X162697239Y-88900000D01*
X162995625Y-88700625D01*
X163323839Y-88209418D01*
X163439092Y-87630000D01*
X163323839Y-87050582D01*
X162995625Y-86559375D01*
X162676522Y-86346157D01*
X162806358Y-86285183D01*
X163196645Y-85856924D01*
X163366476Y-85446890D01*
X163245155Y-85217000D01*
X162052000Y-85217000D01*
X162052000Y-85237000D01*
X161798000Y-85237000D01*
X161798000Y-85217000D01*
X160604845Y-85217000D01*
X160483524Y-85446890D01*
X160653355Y-85856924D01*
X161043642Y-86285183D01*
X161173478Y-86346157D01*
X160854375Y-86559375D01*
X160526161Y-87050582D01*
X160410908Y-87630000D01*
X155083045Y-87630000D01*
X155068839Y-87558582D01*
X154740625Y-87067375D01*
X154430000Y-86859822D01*
X154430000Y-85038043D01*
X154704577Y-84854577D01*
X155021740Y-84379909D01*
X155133113Y-83820000D01*
X155021740Y-83260091D01*
X154704577Y-82785423D01*
X154229909Y-82468260D01*
X153811333Y-82385000D01*
X153528667Y-82385000D01*
X153110091Y-82468260D01*
X152635423Y-82785423D01*
X152400000Y-83137758D01*
X152164577Y-82785423D01*
X151689909Y-82468260D01*
X151271333Y-82385000D01*
X150988667Y-82385000D01*
X150570091Y-82468260D01*
X150095423Y-82785423D01*
X149860000Y-83137758D01*
X149624577Y-82785423D01*
X149149909Y-82468260D01*
X148731333Y-82385000D01*
X148448667Y-82385000D01*
X148030091Y-82468260D01*
X147555423Y-82785423D01*
X147320000Y-83137758D01*
X147084577Y-82785423D01*
X146609909Y-82468260D01*
X146191333Y-82385000D01*
X145908667Y-82385000D01*
X145490091Y-82468260D01*
X145015423Y-82785423D01*
X144780000Y-83137758D01*
X144544577Y-82785423D01*
X144069909Y-82468260D01*
X143651333Y-82385000D01*
X143368667Y-82385000D01*
X142950091Y-82468260D01*
X142475423Y-82785423D01*
X142240000Y-83137758D01*
X142004577Y-82785423D01*
X141529909Y-82468260D01*
X141111333Y-82385000D01*
X140828667Y-82385000D01*
X140410091Y-82468260D01*
X139935423Y-82785423D01*
X139700000Y-83137758D01*
X139464577Y-82785423D01*
X138989909Y-82468260D01*
X138571333Y-82385000D01*
X138288667Y-82385000D01*
X137870091Y-82468260D01*
X137395423Y-82785423D01*
X137160000Y-83137758D01*
X136924577Y-82785423D01*
X136632000Y-82589929D01*
X136632000Y-82243946D01*
X136831586Y-82110586D01*
X136832377Y-82109403D01*
X136987302Y-82264327D01*
X137220691Y-82361000D01*
X137636250Y-82361000D01*
X137795000Y-82202250D01*
X137795000Y-81153000D01*
X138049000Y-81153000D01*
X138049000Y-82202250D01*
X138207750Y-82361000D01*
X138623309Y-82361000D01*
X138856698Y-82264327D01*
X139035327Y-82085699D01*
X139132000Y-81852310D01*
X139132000Y-81311750D01*
X138973250Y-81153000D01*
X138049000Y-81153000D01*
X137795000Y-81153000D01*
X137775000Y-81153000D01*
X137775000Y-80899000D01*
X137795000Y-80899000D01*
X137795000Y-79849750D01*
X138049000Y-79849750D01*
X138049000Y-80899000D01*
X138973250Y-80899000D01*
X139132000Y-80740250D01*
X139132000Y-80199690D01*
X139053428Y-80010000D01*
X160410908Y-80010000D01*
X160526161Y-80589418D01*
X160854375Y-81080625D01*
X161152761Y-81280000D01*
X160854375Y-81479375D01*
X160526161Y-81970582D01*
X160410908Y-82550000D01*
X160526161Y-83129418D01*
X160854375Y-83620625D01*
X161173478Y-83833843D01*
X161043642Y-83894817D01*
X160653355Y-84323076D01*
X160483524Y-84733110D01*
X160604845Y-84963000D01*
X161798000Y-84963000D01*
X161798000Y-84943000D01*
X162052000Y-84943000D01*
X162052000Y-84963000D01*
X163245155Y-84963000D01*
X163366476Y-84733110D01*
X163196645Y-84323076D01*
X162806358Y-83894817D01*
X162676522Y-83833843D01*
X162995625Y-83620625D01*
X163323839Y-83129418D01*
X163439092Y-82550000D01*
X163323839Y-81970582D01*
X162995625Y-81479375D01*
X162697239Y-81280000D01*
X162995625Y-81080625D01*
X163323839Y-80589418D01*
X163439092Y-80010000D01*
X163323839Y-79430582D01*
X162995625Y-78939375D01*
X162676522Y-78726157D01*
X162806358Y-78665183D01*
X163196645Y-78236924D01*
X163366476Y-77826890D01*
X163245155Y-77597000D01*
X162052000Y-77597000D01*
X162052000Y-77617000D01*
X161798000Y-77617000D01*
X161798000Y-77597000D01*
X160604845Y-77597000D01*
X160483524Y-77826890D01*
X160653355Y-78236924D01*
X161043642Y-78665183D01*
X161173478Y-78726157D01*
X160854375Y-78939375D01*
X160526161Y-79430582D01*
X160410908Y-80010000D01*
X139053428Y-80010000D01*
X139035327Y-79966301D01*
X138856698Y-79787673D01*
X138623309Y-79691000D01*
X138207750Y-79691000D01*
X138049000Y-79849750D01*
X137795000Y-79849750D01*
X137636250Y-79691000D01*
X137220691Y-79691000D01*
X136987302Y-79787673D01*
X136832377Y-79942597D01*
X136831586Y-79941414D01*
X136540436Y-79746873D01*
X136197001Y-79678560D01*
X135546999Y-79678560D01*
X135203564Y-79746873D01*
X134912414Y-79941414D01*
X134717873Y-80232564D01*
X134649560Y-80575999D01*
X134649560Y-81476001D01*
X134717873Y-81819436D01*
X134912414Y-82110586D01*
X135112000Y-82243946D01*
X135112001Y-82613983D01*
X134855423Y-82785423D01*
X134620000Y-83137758D01*
X134384577Y-82785423D01*
X133909909Y-82468260D01*
X133491333Y-82385000D01*
X133208667Y-82385000D01*
X132790091Y-82468260D01*
X132315423Y-82785423D01*
X132080000Y-83137758D01*
X131844577Y-82785423D01*
X131369909Y-82468260D01*
X130951333Y-82385000D01*
X130668667Y-82385000D01*
X130250091Y-82468260D01*
X129775423Y-82785423D01*
X129540000Y-83137758D01*
X129304577Y-82785423D01*
X128829909Y-82468260D01*
X128411333Y-82385000D01*
X128128667Y-82385000D01*
X127710091Y-82468260D01*
X127615001Y-82531797D01*
X127615001Y-77488203D01*
X127710091Y-77551740D01*
X128128667Y-77635000D01*
X128411333Y-77635000D01*
X128829909Y-77551740D01*
X129304577Y-77234577D01*
X129540000Y-76882242D01*
X129775423Y-77234577D01*
X130250091Y-77551740D01*
X130668667Y-77635000D01*
X130951333Y-77635000D01*
X131369909Y-77551740D01*
X131844577Y-77234577D01*
X132080000Y-76882242D01*
X132315423Y-77234577D01*
X132790091Y-77551740D01*
X133208667Y-77635000D01*
X133491333Y-77635000D01*
X133909909Y-77551740D01*
X134384577Y-77234577D01*
X134620000Y-76882242D01*
X134855423Y-77234577D01*
X135330091Y-77551740D01*
X135748667Y-77635000D01*
X136031333Y-77635000D01*
X136449909Y-77551740D01*
X136924577Y-77234577D01*
X137160000Y-76882242D01*
X137395423Y-77234577D01*
X137870091Y-77551740D01*
X138288667Y-77635000D01*
X138571333Y-77635000D01*
X138989909Y-77551740D01*
X139464577Y-77234577D01*
X139720947Y-76850892D01*
X139817611Y-77055134D01*
X140232577Y-77431041D01*
X140620961Y-77591904D01*
X140843000Y-77469915D01*
X140843000Y-76327000D01*
X140823000Y-76327000D01*
X140823000Y-76073000D01*
X140843000Y-76073000D01*
X140843000Y-74930085D01*
X140620961Y-74808096D01*
X140232577Y-74968959D01*
X139817611Y-75344866D01*
X139720947Y-75549108D01*
X139464577Y-75165423D01*
X138989909Y-74848260D01*
X138571333Y-74765000D01*
X138288667Y-74765000D01*
X137870091Y-74848260D01*
X137395423Y-75165423D01*
X137160000Y-75517758D01*
X136924577Y-75165423D01*
X136449909Y-74848260D01*
X136031333Y-74765000D01*
X135748667Y-74765000D01*
X135330091Y-74848260D01*
X134855423Y-75165423D01*
X134620000Y-75517758D01*
X134384577Y-75165423D01*
X133909909Y-74848260D01*
X133491333Y-74765000D01*
X133208667Y-74765000D01*
X132790091Y-74848260D01*
X132315423Y-75165423D01*
X132080000Y-75517758D01*
X131844577Y-75165423D01*
X131369909Y-74848260D01*
X130951333Y-74765000D01*
X130668667Y-74765000D01*
X130250091Y-74848260D01*
X129775423Y-75165423D01*
X129540000Y-75517758D01*
X129304577Y-75165423D01*
X128829909Y-74848260D01*
X128411333Y-74765000D01*
X128128667Y-74765000D01*
X127710091Y-74848260D01*
X127235423Y-75165423D01*
X127000000Y-75517758D01*
X126764577Y-75165423D01*
X126289909Y-74848260D01*
X125871333Y-74765000D01*
X125699801Y-74765000D01*
X127568802Y-72896000D01*
X135662560Y-72896000D01*
X135662560Y-72986000D01*
X135711843Y-73233765D01*
X135852191Y-73443809D01*
X136062235Y-73584157D01*
X136310000Y-73633440D01*
X138010000Y-73633440D01*
X138257765Y-73584157D01*
X138467809Y-73443809D01*
X138608157Y-73233765D01*
X138617184Y-73188381D01*
X138629375Y-73206625D01*
X139120582Y-73534839D01*
X139553744Y-73621000D01*
X139846256Y-73621000D01*
X140279418Y-73534839D01*
X140304999Y-73517746D01*
X140304999Y-73680152D01*
X140290111Y-73754999D01*
X140304999Y-73829846D01*
X140304999Y-73829850D01*
X140349095Y-74051535D01*
X140517070Y-74302928D01*
X140580529Y-74345330D01*
X141141071Y-74905872D01*
X141097000Y-74930085D01*
X141097000Y-76073000D01*
X141117000Y-76073000D01*
X141117000Y-76327000D01*
X141097000Y-76327000D01*
X141097000Y-77469915D01*
X141319039Y-77591904D01*
X141707423Y-77431041D01*
X142122389Y-77055134D01*
X142219053Y-76850892D01*
X142475423Y-77234577D01*
X142950091Y-77551740D01*
X143368667Y-77635000D01*
X143651333Y-77635000D01*
X144069909Y-77551740D01*
X144544577Y-77234577D01*
X144780000Y-76882242D01*
X145015423Y-77234577D01*
X145490091Y-77551740D01*
X145908667Y-77635000D01*
X146191333Y-77635000D01*
X146609909Y-77551740D01*
X147084577Y-77234577D01*
X147320000Y-76882242D01*
X147555423Y-77234577D01*
X148030091Y-77551740D01*
X148448667Y-77635000D01*
X148731333Y-77635000D01*
X149149909Y-77551740D01*
X149624577Y-77234577D01*
X149860000Y-76882242D01*
X150095423Y-77234577D01*
X150570091Y-77551740D01*
X150988667Y-77635000D01*
X151271333Y-77635000D01*
X151689909Y-77551740D01*
X152164577Y-77234577D01*
X152400000Y-76882242D01*
X152635423Y-77234577D01*
X153110091Y-77551740D01*
X153528667Y-77635000D01*
X153811333Y-77635000D01*
X154229909Y-77551740D01*
X154704577Y-77234577D01*
X155021740Y-76759909D01*
X155133113Y-76200000D01*
X155021740Y-75640091D01*
X154704577Y-75165423D01*
X154229909Y-74848260D01*
X153811333Y-74765000D01*
X153528667Y-74765000D01*
X153110091Y-74848260D01*
X152635423Y-75165423D01*
X152400000Y-75517758D01*
X152164577Y-75165423D01*
X151890000Y-74981957D01*
X151890000Y-72390000D01*
X160410908Y-72390000D01*
X160526161Y-72969418D01*
X160854375Y-73460625D01*
X161152761Y-73660000D01*
X160854375Y-73859375D01*
X160526161Y-74350582D01*
X160410908Y-74930000D01*
X160526161Y-75509418D01*
X160854375Y-76000625D01*
X161173478Y-76213843D01*
X161043642Y-76274817D01*
X160653355Y-76703076D01*
X160483524Y-77113110D01*
X160604845Y-77343000D01*
X161798000Y-77343000D01*
X161798000Y-77323000D01*
X162052000Y-77323000D01*
X162052000Y-77343000D01*
X163245155Y-77343000D01*
X163366476Y-77113110D01*
X163196645Y-76703076D01*
X162806358Y-76274817D01*
X162676522Y-76213843D01*
X162995625Y-76000625D01*
X163323839Y-75509418D01*
X163439092Y-74930000D01*
X163323839Y-74350582D01*
X162995625Y-73859375D01*
X162697239Y-73660000D01*
X162995625Y-73460625D01*
X163323839Y-72969418D01*
X163439092Y-72390000D01*
X163323839Y-71810582D01*
X162995625Y-71319375D01*
X162973967Y-71304904D01*
X163134698Y-71238327D01*
X163313327Y-71059699D01*
X163410000Y-70826310D01*
X163410000Y-70135750D01*
X163251250Y-69977000D01*
X162052000Y-69977000D01*
X162052000Y-69997000D01*
X161798000Y-69997000D01*
X161798000Y-69977000D01*
X160598750Y-69977000D01*
X160440000Y-70135750D01*
X160440000Y-70826310D01*
X160536673Y-71059699D01*
X160715302Y-71238327D01*
X160876033Y-71304904D01*
X160854375Y-71319375D01*
X160526161Y-71810582D01*
X160410908Y-72390000D01*
X151890000Y-72390000D01*
X151890000Y-71956846D01*
X151904888Y-71881999D01*
X151890000Y-71807152D01*
X151890000Y-71807148D01*
X151845904Y-71585463D01*
X151735410Y-71420097D01*
X151720329Y-71397526D01*
X151720327Y-71397524D01*
X151677929Y-71334071D01*
X151614476Y-71291673D01*
X149196492Y-68873690D01*
X160440000Y-68873690D01*
X160440000Y-69564250D01*
X160598750Y-69723000D01*
X161798000Y-69723000D01*
X161798000Y-68523750D01*
X162052000Y-68523750D01*
X162052000Y-69723000D01*
X163251250Y-69723000D01*
X163410000Y-69564250D01*
X163410000Y-68873690D01*
X163313327Y-68640301D01*
X163134698Y-68461673D01*
X162901309Y-68365000D01*
X162210750Y-68365000D01*
X162052000Y-68523750D01*
X161798000Y-68523750D01*
X161639250Y-68365000D01*
X160948691Y-68365000D01*
X160715302Y-68461673D01*
X160536673Y-68640301D01*
X160440000Y-68873690D01*
X149196492Y-68873690D01*
X148164331Y-67841530D01*
X148121929Y-67778071D01*
X147870537Y-67610096D01*
X147648852Y-67566000D01*
X147648847Y-67566000D01*
X147574000Y-67551112D01*
X147499153Y-67566000D01*
X125042846Y-67566000D01*
X124967999Y-67551112D01*
X124893152Y-67566000D01*
X124893148Y-67566000D01*
X124671463Y-67610096D01*
X124671461Y-67610097D01*
X124671462Y-67610097D01*
X124483526Y-67735671D01*
X124483524Y-67735673D01*
X124420071Y-67778071D01*
X124377673Y-67841524D01*
X106517599Y-85701600D01*
X105494378Y-85701600D01*
X105286825Y-85390975D01*
X104988439Y-85191600D01*
X105286825Y-84992225D01*
X105615039Y-84501018D01*
X105730292Y-83921600D01*
X105615039Y-83342182D01*
X105286825Y-82850975D01*
X104988439Y-82651600D01*
X105286825Y-82452225D01*
X105615039Y-81961018D01*
X105730292Y-81381600D01*
X105615039Y-80802182D01*
X105286825Y-80310975D01*
X104988439Y-80111600D01*
X105286825Y-79912225D01*
X105615039Y-79421018D01*
X105730292Y-78841600D01*
X105615039Y-78262182D01*
X105286825Y-77770975D01*
X104988439Y-77571600D01*
X105286825Y-77372225D01*
X105615039Y-76881018D01*
X105730292Y-76301600D01*
X105615039Y-75722182D01*
X105286825Y-75230975D01*
X105268581Y-75218784D01*
X105313965Y-75209757D01*
X105524009Y-75069409D01*
X105664357Y-74859365D01*
X105713640Y-74611600D01*
X105713640Y-72911600D01*
X105664357Y-72663835D01*
X105524009Y-72453791D01*
X105313965Y-72313443D01*
X105066200Y-72264160D01*
X103366200Y-72264160D01*
X103118435Y-72313443D01*
X102908391Y-72453791D01*
X102768043Y-72663835D01*
X102718760Y-72911600D01*
X102718760Y-74611600D01*
X102768043Y-74859365D01*
X102908391Y-75069409D01*
X103118435Y-75209757D01*
X103163819Y-75218784D01*
X103145575Y-75230975D01*
X102817361Y-75722182D01*
X102702108Y-76301600D01*
X102310000Y-76301600D01*
X102310000Y-62091431D01*
X103556000Y-62091431D01*
X103556000Y-62980569D01*
X103896259Y-63802026D01*
X104524974Y-64430741D01*
X105346431Y-64771000D01*
X106235569Y-64771000D01*
X107057026Y-64430741D01*
X107685741Y-63802026D01*
X107925056Y-63224267D01*
X112198680Y-63224267D01*
X112399947Y-63767571D01*
X112793807Y-64192497D01*
X113308110Y-64431476D01*
X113538000Y-64310155D01*
X113538000Y-62992000D01*
X112338835Y-62992000D01*
X112198680Y-63224267D01*
X107925056Y-63224267D01*
X108026000Y-62980569D01*
X108026000Y-62505733D01*
X112198680Y-62505733D01*
X112338835Y-62738000D01*
X113538000Y-62738000D01*
X113538000Y-61419845D01*
X113792000Y-61419845D01*
X113792000Y-62738000D01*
X113812000Y-62738000D01*
X113812000Y-62992000D01*
X113792000Y-62992000D01*
X113792000Y-64310155D01*
X114021890Y-64431476D01*
X114536193Y-64192497D01*
X114911754Y-63787313D01*
X115094375Y-64060625D01*
X115585582Y-64388839D01*
X116165000Y-64504092D01*
X116744417Y-64388839D01*
X117235625Y-64060625D01*
X117278242Y-63996844D01*
X117430414Y-64224586D01*
X117721565Y-64419126D01*
X118065000Y-64487440D01*
X119265000Y-64487440D01*
X119608435Y-64419126D01*
X119899586Y-64224586D01*
X120094126Y-63933435D01*
X120162440Y-63590000D01*
X120162440Y-63224267D01*
X123628680Y-63224267D01*
X123829947Y-63767571D01*
X124223807Y-64192497D01*
X124738110Y-64431476D01*
X124968000Y-64310155D01*
X124968000Y-62992000D01*
X123768835Y-62992000D01*
X123628680Y-63224267D01*
X120162440Y-63224267D01*
X120162440Y-62505733D01*
X123628680Y-62505733D01*
X123768835Y-62738000D01*
X124968000Y-62738000D01*
X124968000Y-61419845D01*
X125222000Y-61419845D01*
X125222000Y-62738000D01*
X125242000Y-62738000D01*
X125242000Y-62992000D01*
X125222000Y-62992000D01*
X125222000Y-64310155D01*
X125451890Y-64431476D01*
X125966193Y-64192497D01*
X126341754Y-63787313D01*
X126524375Y-64060625D01*
X127015582Y-64388839D01*
X127595000Y-64504092D01*
X128174417Y-64388839D01*
X128665625Y-64060625D01*
X128708242Y-63996844D01*
X128860414Y-64224586D01*
X129151565Y-64419126D01*
X129495000Y-64487440D01*
X130695000Y-64487440D01*
X131038435Y-64419126D01*
X131329586Y-64224586D01*
X131524126Y-63933435D01*
X131592440Y-63590000D01*
X131592440Y-63224267D01*
X135058680Y-63224267D01*
X135259947Y-63767571D01*
X135653807Y-64192497D01*
X136168110Y-64431476D01*
X136398000Y-64310155D01*
X136398000Y-62992000D01*
X135198835Y-62992000D01*
X135058680Y-63224267D01*
X131592440Y-63224267D01*
X131592440Y-62505733D01*
X135058680Y-62505733D01*
X135198835Y-62738000D01*
X136398000Y-62738000D01*
X136398000Y-61419845D01*
X136652000Y-61419845D01*
X136652000Y-62738000D01*
X136672000Y-62738000D01*
X136672000Y-62992000D01*
X136652000Y-62992000D01*
X136652000Y-64310155D01*
X136881890Y-64431476D01*
X137396193Y-64192497D01*
X137771754Y-63787313D01*
X137954375Y-64060625D01*
X138445582Y-64388839D01*
X139025000Y-64504092D01*
X139604417Y-64388839D01*
X140095625Y-64060625D01*
X140138242Y-63996844D01*
X140290414Y-64224586D01*
X140581565Y-64419126D01*
X140925000Y-64487440D01*
X142125000Y-64487440D01*
X142468435Y-64419126D01*
X142759586Y-64224586D01*
X142954126Y-63933435D01*
X143022440Y-63590000D01*
X143022440Y-63224267D01*
X146488680Y-63224267D01*
X146689947Y-63767571D01*
X147083807Y-64192497D01*
X147598110Y-64431476D01*
X147828000Y-64310155D01*
X147828000Y-62992000D01*
X146628835Y-62992000D01*
X146488680Y-63224267D01*
X143022440Y-63224267D01*
X143022440Y-62505733D01*
X146488680Y-62505733D01*
X146628835Y-62738000D01*
X147828000Y-62738000D01*
X147828000Y-61419845D01*
X148082000Y-61419845D01*
X148082000Y-62738000D01*
X148102000Y-62738000D01*
X148102000Y-62992000D01*
X148082000Y-62992000D01*
X148082000Y-64310155D01*
X148311890Y-64431476D01*
X148826193Y-64192497D01*
X149201754Y-63787313D01*
X149384375Y-64060625D01*
X149875582Y-64388839D01*
X150455000Y-64504092D01*
X151034417Y-64388839D01*
X151525625Y-64060625D01*
X151568242Y-63996844D01*
X151720414Y-64224586D01*
X152011565Y-64419126D01*
X152355000Y-64487440D01*
X153555000Y-64487440D01*
X153898435Y-64419126D01*
X154189586Y-64224586D01*
X154384126Y-63933435D01*
X154452440Y-63590000D01*
X154452440Y-62140000D01*
X154384126Y-61796565D01*
X154189586Y-61505414D01*
X153898435Y-61310874D01*
X153555000Y-61242560D01*
X152355000Y-61242560D01*
X152011565Y-61310874D01*
X151720414Y-61505414D01*
X151568242Y-61733156D01*
X151525625Y-61669375D01*
X151034418Y-61341161D01*
X150455000Y-61225908D01*
X149875583Y-61341161D01*
X149384375Y-61669375D01*
X149201754Y-61942687D01*
X148826193Y-61537503D01*
X148311890Y-61298524D01*
X148082000Y-61419845D01*
X147828000Y-61419845D01*
X147598110Y-61298524D01*
X147083807Y-61537503D01*
X146689947Y-61962429D01*
X146488680Y-62505733D01*
X143022440Y-62505733D01*
X143022440Y-62140000D01*
X142954126Y-61796565D01*
X142759586Y-61505414D01*
X142468435Y-61310874D01*
X142125000Y-61242560D01*
X140925000Y-61242560D01*
X140581565Y-61310874D01*
X140290414Y-61505414D01*
X140138242Y-61733156D01*
X140095625Y-61669375D01*
X139604418Y-61341161D01*
X139025000Y-61225908D01*
X138445583Y-61341161D01*
X137954375Y-61669375D01*
X137771754Y-61942687D01*
X137396193Y-61537503D01*
X136881890Y-61298524D01*
X136652000Y-61419845D01*
X136398000Y-61419845D01*
X136168110Y-61298524D01*
X135653807Y-61537503D01*
X135259947Y-61962429D01*
X135058680Y-62505733D01*
X131592440Y-62505733D01*
X131592440Y-62140000D01*
X131524126Y-61796565D01*
X131329586Y-61505414D01*
X131038435Y-61310874D01*
X130695000Y-61242560D01*
X129495000Y-61242560D01*
X129151565Y-61310874D01*
X128860414Y-61505414D01*
X128708242Y-61733156D01*
X128665625Y-61669375D01*
X128174418Y-61341161D01*
X127595000Y-61225908D01*
X127015583Y-61341161D01*
X126524375Y-61669375D01*
X126341754Y-61942687D01*
X125966193Y-61537503D01*
X125451890Y-61298524D01*
X125222000Y-61419845D01*
X124968000Y-61419845D01*
X124738110Y-61298524D01*
X124223807Y-61537503D01*
X123829947Y-61962429D01*
X123628680Y-62505733D01*
X120162440Y-62505733D01*
X120162440Y-62140000D01*
X120094126Y-61796565D01*
X119899586Y-61505414D01*
X119608435Y-61310874D01*
X119265000Y-61242560D01*
X118065000Y-61242560D01*
X117721565Y-61310874D01*
X117430414Y-61505414D01*
X117278242Y-61733156D01*
X117235625Y-61669375D01*
X116744418Y-61341161D01*
X116165000Y-61225908D01*
X115585583Y-61341161D01*
X115094375Y-61669375D01*
X114911754Y-61942687D01*
X114536193Y-61537503D01*
X114021890Y-61298524D01*
X113792000Y-61419845D01*
X113538000Y-61419845D01*
X113308110Y-61298524D01*
X112793807Y-61537503D01*
X112399947Y-61962429D01*
X112198680Y-62505733D01*
X108026000Y-62505733D01*
X108026000Y-62091431D01*
X107685741Y-61269974D01*
X107057026Y-60641259D01*
X106235569Y-60301000D01*
X105346431Y-60301000D01*
X104524974Y-60641259D01*
X103896259Y-61269974D01*
X103556000Y-62091431D01*
X102310000Y-62091431D01*
X102310000Y-61004666D01*
X102372958Y-60506302D01*
X102541305Y-60081107D01*
X102810101Y-59711142D01*
X103162462Y-59419644D01*
X103576244Y-59224933D01*
X104058662Y-59132907D01*
X104151164Y-59130000D01*
X158992473Y-59130000D01*
X158618647Y-59284844D01*
G04 #@! TD*
M02*
