G04 #@! TF.GenerationSoftware,KiCad,Pcbnew,(5.0.2)-1*
G04 #@! TF.CreationDate,2019-02-09T20:55:45-06:00*
G04 #@! TF.ProjectId,Halloween-Controller,48616c6c-6f77-4656-956e-2d436f6e7472,0.1*
G04 #@! TF.SameCoordinates,Original*
G04 #@! TF.FileFunction,Paste,Bot*
G04 #@! TF.FilePolarity,Positive*
%FSLAX46Y46*%
G04 Gerber Fmt 4.6, Leading zero omitted, Abs format (unit mm)*
G04 Created by KiCad (PCBNEW (5.0.2)-1) date 2/9/2019 8:55:45 PM*
%MOMM*%
%LPD*%
G01*
G04 APERTURE LIST*
%ADD10C,0.100000*%
%ADD11C,1.150000*%
%ADD12C,0.975000*%
G04 APERTURE END LIST*
D10*
G04 #@! TO.C,D1*
G36*
X136221505Y-80327204D02*
X136245773Y-80330804D01*
X136269572Y-80336765D01*
X136292671Y-80345030D01*
X136314850Y-80355520D01*
X136335893Y-80368132D01*
X136355599Y-80382747D01*
X136373777Y-80399223D01*
X136390253Y-80417401D01*
X136404868Y-80437107D01*
X136417480Y-80458150D01*
X136427970Y-80480329D01*
X136436235Y-80503428D01*
X136442196Y-80527227D01*
X136445796Y-80551495D01*
X136447000Y-80575999D01*
X136447000Y-81476001D01*
X136445796Y-81500505D01*
X136442196Y-81524773D01*
X136436235Y-81548572D01*
X136427970Y-81571671D01*
X136417480Y-81593850D01*
X136404868Y-81614893D01*
X136390253Y-81634599D01*
X136373777Y-81652777D01*
X136355599Y-81669253D01*
X136335893Y-81683868D01*
X136314850Y-81696480D01*
X136292671Y-81706970D01*
X136269572Y-81715235D01*
X136245773Y-81721196D01*
X136221505Y-81724796D01*
X136197001Y-81726000D01*
X135546999Y-81726000D01*
X135522495Y-81724796D01*
X135498227Y-81721196D01*
X135474428Y-81715235D01*
X135451329Y-81706970D01*
X135429150Y-81696480D01*
X135408107Y-81683868D01*
X135388401Y-81669253D01*
X135370223Y-81652777D01*
X135353747Y-81634599D01*
X135339132Y-81614893D01*
X135326520Y-81593850D01*
X135316030Y-81571671D01*
X135307765Y-81548572D01*
X135301804Y-81524773D01*
X135298204Y-81500505D01*
X135297000Y-81476001D01*
X135297000Y-80575999D01*
X135298204Y-80551495D01*
X135301804Y-80527227D01*
X135307765Y-80503428D01*
X135316030Y-80480329D01*
X135326520Y-80458150D01*
X135339132Y-80437107D01*
X135353747Y-80417401D01*
X135370223Y-80399223D01*
X135388401Y-80382747D01*
X135408107Y-80368132D01*
X135429150Y-80355520D01*
X135451329Y-80345030D01*
X135474428Y-80336765D01*
X135498227Y-80330804D01*
X135522495Y-80327204D01*
X135546999Y-80326000D01*
X136197001Y-80326000D01*
X136221505Y-80327204D01*
X136221505Y-80327204D01*
G37*
D11*
X135872000Y-81026000D03*
D10*
G36*
X138271505Y-80327204D02*
X138295773Y-80330804D01*
X138319572Y-80336765D01*
X138342671Y-80345030D01*
X138364850Y-80355520D01*
X138385893Y-80368132D01*
X138405599Y-80382747D01*
X138423777Y-80399223D01*
X138440253Y-80417401D01*
X138454868Y-80437107D01*
X138467480Y-80458150D01*
X138477970Y-80480329D01*
X138486235Y-80503428D01*
X138492196Y-80527227D01*
X138495796Y-80551495D01*
X138497000Y-80575999D01*
X138497000Y-81476001D01*
X138495796Y-81500505D01*
X138492196Y-81524773D01*
X138486235Y-81548572D01*
X138477970Y-81571671D01*
X138467480Y-81593850D01*
X138454868Y-81614893D01*
X138440253Y-81634599D01*
X138423777Y-81652777D01*
X138405599Y-81669253D01*
X138385893Y-81683868D01*
X138364850Y-81696480D01*
X138342671Y-81706970D01*
X138319572Y-81715235D01*
X138295773Y-81721196D01*
X138271505Y-81724796D01*
X138247001Y-81726000D01*
X137596999Y-81726000D01*
X137572495Y-81724796D01*
X137548227Y-81721196D01*
X137524428Y-81715235D01*
X137501329Y-81706970D01*
X137479150Y-81696480D01*
X137458107Y-81683868D01*
X137438401Y-81669253D01*
X137420223Y-81652777D01*
X137403747Y-81634599D01*
X137389132Y-81614893D01*
X137376520Y-81593850D01*
X137366030Y-81571671D01*
X137357765Y-81548572D01*
X137351804Y-81524773D01*
X137348204Y-81500505D01*
X137347000Y-81476001D01*
X137347000Y-80575999D01*
X137348204Y-80551495D01*
X137351804Y-80527227D01*
X137357765Y-80503428D01*
X137366030Y-80480329D01*
X137376520Y-80458150D01*
X137389132Y-80437107D01*
X137403747Y-80417401D01*
X137420223Y-80399223D01*
X137438401Y-80382747D01*
X137458107Y-80368132D01*
X137479150Y-80355520D01*
X137501329Y-80345030D01*
X137524428Y-80336765D01*
X137548227Y-80330804D01*
X137572495Y-80327204D01*
X137596999Y-80326000D01*
X138247001Y-80326000D01*
X138271505Y-80327204D01*
X138271505Y-80327204D01*
G37*
D11*
X137922000Y-81026000D03*
G04 #@! TD*
D10*
G04 #@! TO.C,R3*
G36*
X113327642Y-92011174D02*
X113351303Y-92014684D01*
X113374507Y-92020496D01*
X113397029Y-92028554D01*
X113418653Y-92038782D01*
X113439170Y-92051079D01*
X113458383Y-92065329D01*
X113476107Y-92081393D01*
X113492171Y-92099117D01*
X113506421Y-92118330D01*
X113518718Y-92138847D01*
X113528946Y-92160471D01*
X113537004Y-92182993D01*
X113542816Y-92206197D01*
X113546326Y-92229858D01*
X113547500Y-92253750D01*
X113547500Y-93166250D01*
X113546326Y-93190142D01*
X113542816Y-93213803D01*
X113537004Y-93237007D01*
X113528946Y-93259529D01*
X113518718Y-93281153D01*
X113506421Y-93301670D01*
X113492171Y-93320883D01*
X113476107Y-93338607D01*
X113458383Y-93354671D01*
X113439170Y-93368921D01*
X113418653Y-93381218D01*
X113397029Y-93391446D01*
X113374507Y-93399504D01*
X113351303Y-93405316D01*
X113327642Y-93408826D01*
X113303750Y-93410000D01*
X112816250Y-93410000D01*
X112792358Y-93408826D01*
X112768697Y-93405316D01*
X112745493Y-93399504D01*
X112722971Y-93391446D01*
X112701347Y-93381218D01*
X112680830Y-93368921D01*
X112661617Y-93354671D01*
X112643893Y-93338607D01*
X112627829Y-93320883D01*
X112613579Y-93301670D01*
X112601282Y-93281153D01*
X112591054Y-93259529D01*
X112582996Y-93237007D01*
X112577184Y-93213803D01*
X112573674Y-93190142D01*
X112572500Y-93166250D01*
X112572500Y-92253750D01*
X112573674Y-92229858D01*
X112577184Y-92206197D01*
X112582996Y-92182993D01*
X112591054Y-92160471D01*
X112601282Y-92138847D01*
X112613579Y-92118330D01*
X112627829Y-92099117D01*
X112643893Y-92081393D01*
X112661617Y-92065329D01*
X112680830Y-92051079D01*
X112701347Y-92038782D01*
X112722971Y-92028554D01*
X112745493Y-92020496D01*
X112768697Y-92014684D01*
X112792358Y-92011174D01*
X112816250Y-92010000D01*
X113303750Y-92010000D01*
X113327642Y-92011174D01*
X113327642Y-92011174D01*
G37*
D12*
X113060000Y-92710000D03*
D10*
G36*
X115202642Y-92011174D02*
X115226303Y-92014684D01*
X115249507Y-92020496D01*
X115272029Y-92028554D01*
X115293653Y-92038782D01*
X115314170Y-92051079D01*
X115333383Y-92065329D01*
X115351107Y-92081393D01*
X115367171Y-92099117D01*
X115381421Y-92118330D01*
X115393718Y-92138847D01*
X115403946Y-92160471D01*
X115412004Y-92182993D01*
X115417816Y-92206197D01*
X115421326Y-92229858D01*
X115422500Y-92253750D01*
X115422500Y-93166250D01*
X115421326Y-93190142D01*
X115417816Y-93213803D01*
X115412004Y-93237007D01*
X115403946Y-93259529D01*
X115393718Y-93281153D01*
X115381421Y-93301670D01*
X115367171Y-93320883D01*
X115351107Y-93338607D01*
X115333383Y-93354671D01*
X115314170Y-93368921D01*
X115293653Y-93381218D01*
X115272029Y-93391446D01*
X115249507Y-93399504D01*
X115226303Y-93405316D01*
X115202642Y-93408826D01*
X115178750Y-93410000D01*
X114691250Y-93410000D01*
X114667358Y-93408826D01*
X114643697Y-93405316D01*
X114620493Y-93399504D01*
X114597971Y-93391446D01*
X114576347Y-93381218D01*
X114555830Y-93368921D01*
X114536617Y-93354671D01*
X114518893Y-93338607D01*
X114502829Y-93320883D01*
X114488579Y-93301670D01*
X114476282Y-93281153D01*
X114466054Y-93259529D01*
X114457996Y-93237007D01*
X114452184Y-93213803D01*
X114448674Y-93190142D01*
X114447500Y-93166250D01*
X114447500Y-92253750D01*
X114448674Y-92229858D01*
X114452184Y-92206197D01*
X114457996Y-92182993D01*
X114466054Y-92160471D01*
X114476282Y-92138847D01*
X114488579Y-92118330D01*
X114502829Y-92099117D01*
X114518893Y-92081393D01*
X114536617Y-92065329D01*
X114555830Y-92051079D01*
X114576347Y-92038782D01*
X114597971Y-92028554D01*
X114620493Y-92020496D01*
X114643697Y-92014684D01*
X114667358Y-92011174D01*
X114691250Y-92010000D01*
X115178750Y-92010000D01*
X115202642Y-92011174D01*
X115202642Y-92011174D01*
G37*
D12*
X114935000Y-92710000D03*
G04 #@! TD*
M02*
