G04 #@! TF.GenerationSoftware,KiCad,Pcbnew,(5.0.2)-1*
G04 #@! TF.CreationDate,2019-02-09T20:55:45-06:00*
G04 #@! TF.ProjectId,Halloween-Controller,48616c6c-6f77-4656-956e-2d436f6e7472,0.1*
G04 #@! TF.SameCoordinates,Original*
G04 #@! TF.FileFunction,Legend,Top*
G04 #@! TF.FilePolarity,Positive*
%FSLAX46Y46*%
G04 Gerber Fmt 4.6, Leading zero omitted, Abs format (unit mm)*
G04 Created by KiCad (PCBNEW (5.0.2)-1) date 2/9/2019 8:55:45 PM*
%MOMM*%
%LPD*%
G01*
G04 APERTURE LIST*
%ADD10C,0.150000*%
%ADD11C,0.100000*%
%ADD12C,0.200000*%
%ADD13C,0.120000*%
G04 APERTURE END LIST*
D10*
X102616380Y-71318380D02*
X102616380Y-70318380D01*
X102997333Y-70318380D01*
X103092571Y-70366000D01*
X103140190Y-70413619D01*
X103187809Y-70508857D01*
X103187809Y-70651714D01*
X103140190Y-70746952D01*
X103092571Y-70794571D01*
X102997333Y-70842190D01*
X102616380Y-70842190D01*
X103759238Y-71318380D02*
X103664000Y-71270761D01*
X103616380Y-71223142D01*
X103568761Y-71127904D01*
X103568761Y-70842190D01*
X103616380Y-70746952D01*
X103664000Y-70699333D01*
X103759238Y-70651714D01*
X103902095Y-70651714D01*
X103997333Y-70699333D01*
X104044952Y-70746952D01*
X104092571Y-70842190D01*
X104092571Y-71127904D01*
X104044952Y-71223142D01*
X103997333Y-71270761D01*
X103902095Y-71318380D01*
X103759238Y-71318380D01*
X104425904Y-70651714D02*
X104616380Y-71318380D01*
X104806857Y-70842190D01*
X104997333Y-71318380D01*
X105187809Y-70651714D01*
X105949714Y-71270761D02*
X105854476Y-71318380D01*
X105664000Y-71318380D01*
X105568761Y-71270761D01*
X105521142Y-71175523D01*
X105521142Y-70794571D01*
X105568761Y-70699333D01*
X105664000Y-70651714D01*
X105854476Y-70651714D01*
X105949714Y-70699333D01*
X105997333Y-70794571D01*
X105997333Y-70889809D01*
X105521142Y-70985047D01*
X106425904Y-71318380D02*
X106425904Y-70651714D01*
X106425904Y-70842190D02*
X106473523Y-70746952D01*
X106521142Y-70699333D01*
X106616380Y-70651714D01*
X106711619Y-70651714D01*
X107806857Y-71318380D02*
X107806857Y-70318380D01*
X108283047Y-70651714D02*
X108283047Y-71318380D01*
X108283047Y-70746952D02*
X108330666Y-70699333D01*
X108425904Y-70651714D01*
X108568761Y-70651714D01*
X108664000Y-70699333D01*
X108711619Y-70794571D01*
X108711619Y-71318380D01*
D11*
X107378571Y-88779000D02*
X107307142Y-88743285D01*
X107200000Y-88743285D01*
X107092857Y-88779000D01*
X107021428Y-88850428D01*
X106985714Y-88921857D01*
X106950000Y-89064714D01*
X106950000Y-89171857D01*
X106985714Y-89314714D01*
X107021428Y-89386142D01*
X107092857Y-89457571D01*
X107200000Y-89493285D01*
X107271428Y-89493285D01*
X107378571Y-89457571D01*
X107414285Y-89421857D01*
X107414285Y-89171857D01*
X107271428Y-89171857D01*
X107735714Y-89493285D02*
X107735714Y-88743285D01*
X108164285Y-89493285D01*
X108164285Y-88743285D01*
X108521428Y-89493285D02*
X108521428Y-88743285D01*
X108700000Y-88743285D01*
X108807142Y-88779000D01*
X108878571Y-88850428D01*
X108914285Y-88921857D01*
X108950000Y-89064714D01*
X108950000Y-89171857D01*
X108914285Y-89314714D01*
X108878571Y-89386142D01*
X108807142Y-89457571D01*
X108700000Y-89493285D01*
X108521428Y-89493285D01*
X107311142Y-91283285D02*
X106954000Y-91283285D01*
X106918285Y-91640428D01*
X106954000Y-91604714D01*
X107025428Y-91569000D01*
X107204000Y-91569000D01*
X107275428Y-91604714D01*
X107311142Y-91640428D01*
X107346857Y-91711857D01*
X107346857Y-91890428D01*
X107311142Y-91961857D01*
X107275428Y-91997571D01*
X107204000Y-92033285D01*
X107025428Y-92033285D01*
X106954000Y-91997571D01*
X106918285Y-91961857D01*
X107561142Y-91283285D02*
X107811142Y-92033285D01*
X108061142Y-91283285D01*
X108311142Y-92033285D02*
X108311142Y-91283285D01*
X108489714Y-91283285D01*
X108596857Y-91319000D01*
X108668285Y-91390428D01*
X108704000Y-91461857D01*
X108739714Y-91604714D01*
X108739714Y-91711857D01*
X108704000Y-91854714D01*
X108668285Y-91926142D01*
X108596857Y-91997571D01*
X108489714Y-92033285D01*
X108311142Y-92033285D01*
X109489714Y-91961857D02*
X109454000Y-91997571D01*
X109346857Y-92033285D01*
X109275428Y-92033285D01*
X109168285Y-91997571D01*
X109096857Y-91926142D01*
X109061142Y-91854714D01*
X109025428Y-91711857D01*
X109025428Y-91604714D01*
X109061142Y-91461857D01*
X109096857Y-91390428D01*
X109168285Y-91319000D01*
X109275428Y-91283285D01*
X109346857Y-91283285D01*
X109454000Y-91319000D01*
X109489714Y-91354714D01*
X128463000Y-101177285D02*
X128463000Y-100427285D01*
X128748714Y-100427285D01*
X128820142Y-100463000D01*
X128855857Y-100498714D01*
X128891571Y-100570142D01*
X128891571Y-100677285D01*
X128855857Y-100748714D01*
X128820142Y-100784428D01*
X128748714Y-100820142D01*
X128463000Y-100820142D01*
X129320142Y-101177285D02*
X129248714Y-101141571D01*
X129213000Y-101105857D01*
X129177285Y-101034428D01*
X129177285Y-100820142D01*
X129213000Y-100748714D01*
X129248714Y-100713000D01*
X129320142Y-100677285D01*
X129427285Y-100677285D01*
X129498714Y-100713000D01*
X129534428Y-100748714D01*
X129570142Y-100820142D01*
X129570142Y-101034428D01*
X129534428Y-101105857D01*
X129498714Y-101141571D01*
X129427285Y-101177285D01*
X129320142Y-101177285D01*
X129820142Y-100677285D02*
X129963000Y-101177285D01*
X130105857Y-100820142D01*
X130248714Y-101177285D01*
X130391571Y-100677285D01*
X130963000Y-101141571D02*
X130891571Y-101177285D01*
X130748714Y-101177285D01*
X130677285Y-101141571D01*
X130641571Y-101070142D01*
X130641571Y-100784428D01*
X130677285Y-100713000D01*
X130748714Y-100677285D01*
X130891571Y-100677285D01*
X130963000Y-100713000D01*
X130998714Y-100784428D01*
X130998714Y-100855857D01*
X130641571Y-100927285D01*
X131320142Y-101177285D02*
X131320142Y-100677285D01*
X131320142Y-100820142D02*
X131355857Y-100748714D01*
X131391571Y-100713000D01*
X131463000Y-100677285D01*
X131534428Y-100677285D01*
X132034428Y-100784428D02*
X132141571Y-100820142D01*
X132177285Y-100855857D01*
X132213000Y-100927285D01*
X132213000Y-101034428D01*
X132177285Y-101105857D01*
X132141571Y-101141571D01*
X132070142Y-101177285D01*
X131784428Y-101177285D01*
X131784428Y-100427285D01*
X132034428Y-100427285D01*
X132105857Y-100463000D01*
X132141571Y-100498714D01*
X132177285Y-100570142D01*
X132177285Y-100641571D01*
X132141571Y-100713000D01*
X132105857Y-100748714D01*
X132034428Y-100784428D01*
X131784428Y-100784428D01*
X132641571Y-101177285D02*
X132570142Y-101141571D01*
X132534428Y-101105857D01*
X132498714Y-101034428D01*
X132498714Y-100820142D01*
X132534428Y-100748714D01*
X132570142Y-100713000D01*
X132641571Y-100677285D01*
X132748714Y-100677285D01*
X132820142Y-100713000D01*
X132855857Y-100748714D01*
X132891571Y-100820142D01*
X132891571Y-101034428D01*
X132855857Y-101105857D01*
X132820142Y-101141571D01*
X132748714Y-101177285D01*
X132641571Y-101177285D01*
X133320142Y-101177285D02*
X133248714Y-101141571D01*
X133213000Y-101105857D01*
X133177285Y-101034428D01*
X133177285Y-100820142D01*
X133213000Y-100748714D01*
X133248714Y-100713000D01*
X133320142Y-100677285D01*
X133427285Y-100677285D01*
X133498714Y-100713000D01*
X133534428Y-100748714D01*
X133570142Y-100820142D01*
X133570142Y-101034428D01*
X133534428Y-101105857D01*
X133498714Y-101141571D01*
X133427285Y-101177285D01*
X133320142Y-101177285D01*
X133855857Y-101141571D02*
X133927285Y-101177285D01*
X134070142Y-101177285D01*
X134141571Y-101141571D01*
X134177285Y-101070142D01*
X134177285Y-101034428D01*
X134141571Y-100963000D01*
X134070142Y-100927285D01*
X133963000Y-100927285D01*
X133891571Y-100891571D01*
X133855857Y-100820142D01*
X133855857Y-100784428D01*
X133891571Y-100713000D01*
X133963000Y-100677285D01*
X134070142Y-100677285D01*
X134141571Y-100713000D01*
X134391571Y-100677285D02*
X134677285Y-100677285D01*
X134498714Y-100427285D02*
X134498714Y-101070142D01*
X134534428Y-101141571D01*
X134605857Y-101177285D01*
X134677285Y-101177285D01*
X135463000Y-101141571D02*
X135570142Y-101177285D01*
X135748714Y-101177285D01*
X135820142Y-101141571D01*
X135855857Y-101105857D01*
X135891571Y-101034428D01*
X135891571Y-100963000D01*
X135855857Y-100891571D01*
X135820142Y-100855857D01*
X135748714Y-100820142D01*
X135605857Y-100784428D01*
X135534428Y-100748714D01*
X135498714Y-100713000D01*
X135463000Y-100641571D01*
X135463000Y-100570142D01*
X135498714Y-100498714D01*
X135534428Y-100463000D01*
X135605857Y-100427285D01*
X135784428Y-100427285D01*
X135891571Y-100463000D01*
X136141571Y-100427285D02*
X136320142Y-101177285D01*
X136463000Y-100641571D01*
X136605857Y-101177285D01*
X136784428Y-100427285D01*
X118647857Y-100784428D02*
X118397857Y-100784428D01*
X118397857Y-101177285D02*
X118397857Y-100427285D01*
X118755000Y-100427285D01*
X118933571Y-100427285D02*
X119362142Y-100427285D01*
X119147857Y-101177285D02*
X119147857Y-100427285D01*
X119612142Y-101177285D02*
X119612142Y-100427285D01*
X119790714Y-100427285D01*
X119897857Y-100463000D01*
X119969285Y-100534428D01*
X120005000Y-100605857D01*
X120040714Y-100748714D01*
X120040714Y-100855857D01*
X120005000Y-100998714D01*
X119969285Y-101070142D01*
X119897857Y-101141571D01*
X119790714Y-101177285D01*
X119612142Y-101177285D01*
X120362142Y-101177285D02*
X120362142Y-100427285D01*
X164306285Y-90223571D02*
X164877714Y-90223571D01*
X164306285Y-85143571D02*
X164877714Y-85143571D01*
X164592000Y-85429285D02*
X164592000Y-84857857D01*
X164377714Y-87290714D02*
X164413428Y-87255000D01*
X164484857Y-87219285D01*
X164663428Y-87219285D01*
X164734857Y-87255000D01*
X164770571Y-87290714D01*
X164806285Y-87362142D01*
X164806285Y-87433571D01*
X164770571Y-87540714D01*
X164342000Y-87969285D01*
X164806285Y-87969285D01*
D12*
X163830000Y-91186000D02*
X164084000Y-91186000D01*
X164084000Y-84074000D02*
X163830000Y-84074000D01*
X164084000Y-84074000D02*
X164084000Y-91186000D01*
D11*
X164306285Y-77523571D02*
X164877714Y-77523571D01*
X164592000Y-77809285D02*
X164592000Y-77237857D01*
X164806285Y-80349285D02*
X164377714Y-80349285D01*
X164592000Y-80349285D02*
X164592000Y-79599285D01*
X164520571Y-79706428D01*
X164449142Y-79777857D01*
X164377714Y-79813571D01*
X164306285Y-82603571D02*
X164877714Y-82603571D01*
D12*
X163830000Y-83566000D02*
X164084000Y-83566000D01*
X164084000Y-76454000D02*
X164084000Y-83566000D01*
X164084000Y-76454000D02*
X163830000Y-76454000D01*
D11*
X164556285Y-71979285D02*
X164627714Y-71979285D01*
X164699142Y-72015000D01*
X164734857Y-72050714D01*
X164770571Y-72122142D01*
X164806285Y-72265000D01*
X164806285Y-72443571D01*
X164770571Y-72586428D01*
X164734857Y-72657857D01*
X164699142Y-72693571D01*
X164627714Y-72729285D01*
X164556285Y-72729285D01*
X164484857Y-72693571D01*
X164449142Y-72657857D01*
X164413428Y-72586428D01*
X164377714Y-72443571D01*
X164377714Y-72265000D01*
X164413428Y-72122142D01*
X164449142Y-72050714D01*
X164484857Y-72015000D01*
X164556285Y-71979285D01*
X164306285Y-74983571D02*
X164877714Y-74983571D01*
X164306285Y-69903571D02*
X164877714Y-69903571D01*
X164592000Y-70189285D02*
X164592000Y-69617857D01*
D12*
X163830000Y-75946000D02*
X164084000Y-75946000D01*
X164084000Y-68834000D02*
X164084000Y-75946000D01*
X164084000Y-68834000D02*
X163830000Y-68834000D01*
D10*
X159059904Y-67714761D02*
X159202761Y-67762380D01*
X159440857Y-67762380D01*
X159536095Y-67714761D01*
X159583714Y-67667142D01*
X159631333Y-67571904D01*
X159631333Y-67476666D01*
X159583714Y-67381428D01*
X159536095Y-67333809D01*
X159440857Y-67286190D01*
X159250380Y-67238571D01*
X159155142Y-67190952D01*
X159107523Y-67143333D01*
X159059904Y-67048095D01*
X159059904Y-66952857D01*
X159107523Y-66857619D01*
X159155142Y-66810000D01*
X159250380Y-66762380D01*
X159488476Y-66762380D01*
X159631333Y-66810000D01*
X160440857Y-67714761D02*
X160345619Y-67762380D01*
X160155142Y-67762380D01*
X160059904Y-67714761D01*
X160012285Y-67619523D01*
X160012285Y-67238571D01*
X160059904Y-67143333D01*
X160155142Y-67095714D01*
X160345619Y-67095714D01*
X160440857Y-67143333D01*
X160488476Y-67238571D01*
X160488476Y-67333809D01*
X160012285Y-67429047D01*
X160917047Y-67095714D02*
X160917047Y-67762380D01*
X160917047Y-67190952D02*
X160964666Y-67143333D01*
X161059904Y-67095714D01*
X161202761Y-67095714D01*
X161298000Y-67143333D01*
X161345619Y-67238571D01*
X161345619Y-67762380D01*
X161774190Y-67714761D02*
X161869428Y-67762380D01*
X162059904Y-67762380D01*
X162155142Y-67714761D01*
X162202761Y-67619523D01*
X162202761Y-67571904D01*
X162155142Y-67476666D01*
X162059904Y-67429047D01*
X161917047Y-67429047D01*
X161821809Y-67381428D01*
X161774190Y-67286190D01*
X161774190Y-67238571D01*
X161821809Y-67143333D01*
X161917047Y-67095714D01*
X162059904Y-67095714D01*
X162155142Y-67143333D01*
X162774190Y-67762380D02*
X162678952Y-67714761D01*
X162631333Y-67667142D01*
X162583714Y-67571904D01*
X162583714Y-67286190D01*
X162631333Y-67190952D01*
X162678952Y-67143333D01*
X162774190Y-67095714D01*
X162917047Y-67095714D01*
X163012285Y-67143333D01*
X163059904Y-67190952D01*
X163107523Y-67286190D01*
X163107523Y-67571904D01*
X163059904Y-67667142D01*
X163012285Y-67714761D01*
X162917047Y-67762380D01*
X162774190Y-67762380D01*
X163536095Y-67762380D02*
X163536095Y-67095714D01*
X163536095Y-67286190D02*
X163583714Y-67190952D01*
X163631333Y-67143333D01*
X163726571Y-67095714D01*
X163821809Y-67095714D01*
X164107523Y-67714761D02*
X164202761Y-67762380D01*
X164393238Y-67762380D01*
X164488476Y-67714761D01*
X164536095Y-67619523D01*
X164536095Y-67571904D01*
X164488476Y-67476666D01*
X164393238Y-67429047D01*
X164250380Y-67429047D01*
X164155142Y-67381428D01*
X164107523Y-67286190D01*
X164107523Y-67238571D01*
X164155142Y-67143333D01*
X164250380Y-67095714D01*
X164393238Y-67095714D01*
X164488476Y-67143333D01*
D12*
X148336000Y-70104000D02*
X148336000Y-69850000D01*
X146050000Y-69850000D02*
X148336000Y-69850000D01*
X141224000Y-69850000D02*
X143510000Y-69850000D01*
X141224000Y-69850000D02*
X141224000Y-70104000D01*
X140716000Y-70104000D02*
X140716000Y-69850000D01*
X139446000Y-69850000D02*
X140716000Y-69850000D01*
X135890000Y-69850000D02*
X137160000Y-69850000D01*
X135890000Y-69850000D02*
X135890000Y-70104000D01*
D10*
X144012142Y-70153571D02*
X144119285Y-70189285D01*
X144297857Y-70189285D01*
X144369285Y-70153571D01*
X144405000Y-70117857D01*
X144440714Y-70046428D01*
X144440714Y-69975000D01*
X144405000Y-69903571D01*
X144369285Y-69867857D01*
X144297857Y-69832142D01*
X144155000Y-69796428D01*
X144083571Y-69760714D01*
X144047857Y-69725000D01*
X144012142Y-69653571D01*
X144012142Y-69582142D01*
X144047857Y-69510714D01*
X144083571Y-69475000D01*
X144155000Y-69439285D01*
X144333571Y-69439285D01*
X144440714Y-69475000D01*
X144762142Y-70189285D02*
X144762142Y-69439285D01*
X145047857Y-69439285D01*
X145119285Y-69475000D01*
X145155000Y-69510714D01*
X145190714Y-69582142D01*
X145190714Y-69689285D01*
X145155000Y-69760714D01*
X145119285Y-69796428D01*
X145047857Y-69832142D01*
X144762142Y-69832142D01*
X145512142Y-70189285D02*
X145512142Y-69439285D01*
X137697857Y-70189285D02*
X137697857Y-69439285D01*
X138019285Y-69510714D02*
X138055000Y-69475000D01*
X138126428Y-69439285D01*
X138305000Y-69439285D01*
X138376428Y-69475000D01*
X138412142Y-69510714D01*
X138447857Y-69582142D01*
X138447857Y-69653571D01*
X138412142Y-69760714D01*
X137983571Y-70189285D01*
X138447857Y-70189285D01*
X139197857Y-70117857D02*
X139162142Y-70153571D01*
X139055000Y-70189285D01*
X138983571Y-70189285D01*
X138876428Y-70153571D01*
X138805000Y-70082142D01*
X138769285Y-70010714D01*
X138733571Y-69867857D01*
X138733571Y-69760714D01*
X138769285Y-69617857D01*
X138805000Y-69546428D01*
X138876428Y-69475000D01*
X138983571Y-69439285D01*
X139055000Y-69439285D01*
X139162142Y-69475000D01*
X139197857Y-69510714D01*
X145558095Y-67000380D02*
X145081904Y-67000380D01*
X145081904Y-66000380D01*
X145891428Y-66476571D02*
X146224761Y-66476571D01*
X146367619Y-67000380D02*
X145891428Y-67000380D01*
X145891428Y-66000380D01*
X146367619Y-66000380D01*
X146796190Y-67000380D02*
X146796190Y-66000380D01*
X147034285Y-66000380D01*
X147177142Y-66048000D01*
X147272380Y-66143238D01*
X147320000Y-66238476D01*
X147367619Y-66428952D01*
X147367619Y-66571809D01*
X147320000Y-66762285D01*
X147272380Y-66857523D01*
X147177142Y-66952761D01*
X147034285Y-67000380D01*
X146796190Y-67000380D01*
X147796190Y-66619428D02*
X148558095Y-66619428D01*
X149034285Y-67000380D02*
X149034285Y-66000380D01*
X149272380Y-66000380D01*
X149415238Y-66048000D01*
X149510476Y-66143238D01*
X149558095Y-66238476D01*
X149605714Y-66428952D01*
X149605714Y-66571809D01*
X149558095Y-66762285D01*
X149510476Y-66857523D01*
X149415238Y-66952761D01*
X149272380Y-67000380D01*
X149034285Y-67000380D01*
X134128095Y-67000380D02*
X133651904Y-67000380D01*
X133651904Y-66000380D01*
X134461428Y-66476571D02*
X134794761Y-66476571D01*
X134937619Y-67000380D02*
X134461428Y-67000380D01*
X134461428Y-66000380D01*
X134937619Y-66000380D01*
X135366190Y-67000380D02*
X135366190Y-66000380D01*
X135604285Y-66000380D01*
X135747142Y-66048000D01*
X135842380Y-66143238D01*
X135890000Y-66238476D01*
X135937619Y-66428952D01*
X135937619Y-66571809D01*
X135890000Y-66762285D01*
X135842380Y-66857523D01*
X135747142Y-66952761D01*
X135604285Y-67000380D01*
X135366190Y-67000380D01*
X136366190Y-66619428D02*
X137128095Y-66619428D01*
X138175714Y-66905142D02*
X138128095Y-66952761D01*
X137985238Y-67000380D01*
X137890000Y-67000380D01*
X137747142Y-66952761D01*
X137651904Y-66857523D01*
X137604285Y-66762285D01*
X137556666Y-66571809D01*
X137556666Y-66428952D01*
X137604285Y-66238476D01*
X137651904Y-66143238D01*
X137747142Y-66048000D01*
X137890000Y-66000380D01*
X137985238Y-66000380D01*
X138128095Y-66048000D01*
X138175714Y-66095619D01*
X122698095Y-67000380D02*
X122221904Y-67000380D01*
X122221904Y-66000380D01*
X123031428Y-66476571D02*
X123364761Y-66476571D01*
X123507619Y-67000380D02*
X123031428Y-67000380D01*
X123031428Y-66000380D01*
X123507619Y-66000380D01*
X123936190Y-67000380D02*
X123936190Y-66000380D01*
X124174285Y-66000380D01*
X124317142Y-66048000D01*
X124412380Y-66143238D01*
X124460000Y-66238476D01*
X124507619Y-66428952D01*
X124507619Y-66571809D01*
X124460000Y-66762285D01*
X124412380Y-66857523D01*
X124317142Y-66952761D01*
X124174285Y-67000380D01*
X123936190Y-67000380D01*
X124936190Y-66619428D02*
X125698095Y-66619428D01*
X126507619Y-66476571D02*
X126650476Y-66524190D01*
X126698095Y-66571809D01*
X126745714Y-66667047D01*
X126745714Y-66809904D01*
X126698095Y-66905142D01*
X126650476Y-66952761D01*
X126555238Y-67000380D01*
X126174285Y-67000380D01*
X126174285Y-66000380D01*
X126507619Y-66000380D01*
X126602857Y-66048000D01*
X126650476Y-66095619D01*
X126698095Y-66190857D01*
X126698095Y-66286095D01*
X126650476Y-66381333D01*
X126602857Y-66428952D01*
X126507619Y-66476571D01*
X126174285Y-66476571D01*
X111339523Y-67000380D02*
X110863333Y-67000380D01*
X110863333Y-66000380D01*
X111672857Y-66476571D02*
X112006190Y-66476571D01*
X112149047Y-67000380D02*
X111672857Y-67000380D01*
X111672857Y-66000380D01*
X112149047Y-66000380D01*
X112577619Y-67000380D02*
X112577619Y-66000380D01*
X112815714Y-66000380D01*
X112958571Y-66048000D01*
X113053809Y-66143238D01*
X113101428Y-66238476D01*
X113149047Y-66428952D01*
X113149047Y-66571809D01*
X113101428Y-66762285D01*
X113053809Y-66857523D01*
X112958571Y-66952761D01*
X112815714Y-67000380D01*
X112577619Y-67000380D01*
X113577619Y-66619428D02*
X114339523Y-66619428D01*
X114768095Y-66714666D02*
X115244285Y-66714666D01*
X114672857Y-67000380D02*
X115006190Y-66000380D01*
X115339523Y-67000380D01*
X118753714Y-71255380D02*
X118753714Y-70255380D01*
X118753714Y-70731571D02*
X119325142Y-70731571D01*
X119325142Y-71255380D02*
X119325142Y-70255380D01*
X120229904Y-71255380D02*
X120229904Y-70731571D01*
X120182285Y-70636333D01*
X120087047Y-70588714D01*
X119896571Y-70588714D01*
X119801333Y-70636333D01*
X120229904Y-71207761D02*
X120134666Y-71255380D01*
X119896571Y-71255380D01*
X119801333Y-71207761D01*
X119753714Y-71112523D01*
X119753714Y-71017285D01*
X119801333Y-70922047D01*
X119896571Y-70874428D01*
X120134666Y-70874428D01*
X120229904Y-70826809D01*
X120848952Y-71255380D02*
X120753714Y-71207761D01*
X120706095Y-71112523D01*
X120706095Y-70255380D01*
X121372761Y-71255380D02*
X121277523Y-71207761D01*
X121229904Y-71112523D01*
X121229904Y-70255380D01*
X121896571Y-71255380D02*
X121801333Y-71207761D01*
X121753714Y-71160142D01*
X121706095Y-71064904D01*
X121706095Y-70779190D01*
X121753714Y-70683952D01*
X121801333Y-70636333D01*
X121896571Y-70588714D01*
X122039428Y-70588714D01*
X122134666Y-70636333D01*
X122182285Y-70683952D01*
X122229904Y-70779190D01*
X122229904Y-71064904D01*
X122182285Y-71160142D01*
X122134666Y-71207761D01*
X122039428Y-71255380D01*
X121896571Y-71255380D01*
X122563238Y-70588714D02*
X122753714Y-71255380D01*
X122944190Y-70779190D01*
X123134666Y-71255380D01*
X123325142Y-70588714D01*
X124087047Y-71207761D02*
X123991809Y-71255380D01*
X123801333Y-71255380D01*
X123706095Y-71207761D01*
X123658476Y-71112523D01*
X123658476Y-70731571D01*
X123706095Y-70636333D01*
X123801333Y-70588714D01*
X123991809Y-70588714D01*
X124087047Y-70636333D01*
X124134666Y-70731571D01*
X124134666Y-70826809D01*
X123658476Y-70922047D01*
X124944190Y-71207761D02*
X124848952Y-71255380D01*
X124658476Y-71255380D01*
X124563238Y-71207761D01*
X124515619Y-71112523D01*
X124515619Y-70731571D01*
X124563238Y-70636333D01*
X124658476Y-70588714D01*
X124848952Y-70588714D01*
X124944190Y-70636333D01*
X124991809Y-70731571D01*
X124991809Y-70826809D01*
X124515619Y-70922047D01*
X125420380Y-70588714D02*
X125420380Y-71255380D01*
X125420380Y-70683952D02*
X125468000Y-70636333D01*
X125563238Y-70588714D01*
X125706095Y-70588714D01*
X125801333Y-70636333D01*
X125848952Y-70731571D01*
X125848952Y-71255380D01*
X126325142Y-70874428D02*
X127087047Y-70874428D01*
X127991809Y-71255380D02*
X127991809Y-70255380D01*
X127991809Y-71207761D02*
X127896571Y-71255380D01*
X127706095Y-71255380D01*
X127610857Y-71207761D01*
X127563238Y-71160142D01*
X127515619Y-71064904D01*
X127515619Y-70779190D01*
X127563238Y-70683952D01*
X127610857Y-70636333D01*
X127706095Y-70588714D01*
X127896571Y-70588714D01*
X127991809Y-70636333D01*
X128896571Y-70588714D02*
X128896571Y-71255380D01*
X128468000Y-70588714D02*
X128468000Y-71112523D01*
X128515619Y-71207761D01*
X128610857Y-71255380D01*
X128753714Y-71255380D01*
X128848952Y-71207761D01*
X128896571Y-71160142D01*
X129372761Y-71255380D02*
X129372761Y-70588714D01*
X129372761Y-70255380D02*
X129325142Y-70303000D01*
X129372761Y-70350619D01*
X129420380Y-70303000D01*
X129372761Y-70255380D01*
X129372761Y-70350619D01*
X129848952Y-70588714D02*
X129848952Y-71255380D01*
X129848952Y-70683952D02*
X129896571Y-70636333D01*
X129991809Y-70588714D01*
X130134666Y-70588714D01*
X130229904Y-70636333D01*
X130277523Y-70731571D01*
X130277523Y-71255380D01*
X130896571Y-71255380D02*
X130801333Y-71207761D01*
X130753714Y-71160142D01*
X130706095Y-71064904D01*
X130706095Y-70779190D01*
X130753714Y-70683952D01*
X130801333Y-70636333D01*
X130896571Y-70588714D01*
X131039428Y-70588714D01*
X131134666Y-70636333D01*
X131182285Y-70683952D01*
X131229904Y-70779190D01*
X131229904Y-71064904D01*
X131182285Y-71160142D01*
X131134666Y-71207761D01*
X131039428Y-71255380D01*
X130896571Y-71255380D01*
X120444190Y-72238714D02*
X120682285Y-72905380D01*
X120920380Y-72238714D01*
X121253714Y-72000619D02*
X121301333Y-71953000D01*
X121396571Y-71905380D01*
X121634666Y-71905380D01*
X121729904Y-71953000D01*
X121777523Y-72000619D01*
X121825142Y-72095857D01*
X121825142Y-72191095D01*
X121777523Y-72333952D01*
X121206095Y-72905380D01*
X121825142Y-72905380D01*
X122444190Y-71905380D02*
X122539428Y-71905380D01*
X122634666Y-71953000D01*
X122682285Y-72000619D01*
X122729904Y-72095857D01*
X122777523Y-72286333D01*
X122777523Y-72524428D01*
X122729904Y-72714904D01*
X122682285Y-72810142D01*
X122634666Y-72857761D01*
X122539428Y-72905380D01*
X122444190Y-72905380D01*
X122348952Y-72857761D01*
X122301333Y-72810142D01*
X122253714Y-72714904D01*
X122206095Y-72524428D01*
X122206095Y-72286333D01*
X122253714Y-72095857D01*
X122301333Y-72000619D01*
X122348952Y-71953000D01*
X122444190Y-71905380D01*
X123729904Y-72905380D02*
X123158476Y-72905380D01*
X123444190Y-72905380D02*
X123444190Y-71905380D01*
X123348952Y-72048238D01*
X123253714Y-72143476D01*
X123158476Y-72191095D01*
X124206095Y-72905380D02*
X124396571Y-72905380D01*
X124491809Y-72857761D01*
X124539428Y-72810142D01*
X124634666Y-72667285D01*
X124682285Y-72476809D01*
X124682285Y-72095857D01*
X124634666Y-72000619D01*
X124587047Y-71953000D01*
X124491809Y-71905380D01*
X124301333Y-71905380D01*
X124206095Y-71953000D01*
X124158476Y-72000619D01*
X124110857Y-72095857D01*
X124110857Y-72333952D01*
X124158476Y-72429190D01*
X124206095Y-72476809D01*
X124301333Y-72524428D01*
X124491809Y-72524428D01*
X124587047Y-72476809D01*
X124634666Y-72429190D01*
X124682285Y-72333952D01*
X125110857Y-72810142D02*
X125158476Y-72857761D01*
X125110857Y-72905380D01*
X125063238Y-72857761D01*
X125110857Y-72810142D01*
X125110857Y-72905380D01*
X125777523Y-71905380D02*
X125872761Y-71905380D01*
X125968000Y-71953000D01*
X126015619Y-72000619D01*
X126063238Y-72095857D01*
X126110857Y-72286333D01*
X126110857Y-72524428D01*
X126063238Y-72714904D01*
X126015619Y-72810142D01*
X125968000Y-72857761D01*
X125872761Y-72905380D01*
X125777523Y-72905380D01*
X125682285Y-72857761D01*
X125634666Y-72810142D01*
X125587047Y-72714904D01*
X125539428Y-72524428D01*
X125539428Y-72286333D01*
X125587047Y-72095857D01*
X125634666Y-72000619D01*
X125682285Y-71953000D01*
X125777523Y-71905380D01*
X126491809Y-72000619D02*
X126539428Y-71953000D01*
X126634666Y-71905380D01*
X126872761Y-71905380D01*
X126968000Y-71953000D01*
X127015619Y-72000619D01*
X127063238Y-72095857D01*
X127063238Y-72191095D01*
X127015619Y-72333952D01*
X126444190Y-72905380D01*
X127063238Y-72905380D01*
X127491809Y-72810142D02*
X127539428Y-72857761D01*
X127491809Y-72905380D01*
X127444190Y-72857761D01*
X127491809Y-72810142D01*
X127491809Y-72905380D01*
X128158476Y-71905380D02*
X128253714Y-71905380D01*
X128348952Y-71953000D01*
X128396571Y-72000619D01*
X128444190Y-72095857D01*
X128491809Y-72286333D01*
X128491809Y-72524428D01*
X128444190Y-72714904D01*
X128396571Y-72810142D01*
X128348952Y-72857761D01*
X128253714Y-72905380D01*
X128158476Y-72905380D01*
X128063238Y-72857761D01*
X128015619Y-72810142D01*
X127968000Y-72714904D01*
X127920380Y-72524428D01*
X127920380Y-72286333D01*
X127968000Y-72095857D01*
X128015619Y-72000619D01*
X128063238Y-71953000D01*
X128158476Y-71905380D01*
X128968000Y-72905380D02*
X129158476Y-72905380D01*
X129253714Y-72857761D01*
X129301333Y-72810142D01*
X129396571Y-72667285D01*
X129444190Y-72476809D01*
X129444190Y-72095857D01*
X129396571Y-72000619D01*
X129348952Y-71953000D01*
X129253714Y-71905380D01*
X129063238Y-71905380D01*
X128968000Y-71953000D01*
X128920380Y-72000619D01*
X128872761Y-72095857D01*
X128872761Y-72333952D01*
X128920380Y-72429190D01*
X128968000Y-72476809D01*
X129063238Y-72524428D01*
X129253714Y-72524428D01*
X129348952Y-72476809D01*
X129396571Y-72429190D01*
X129444190Y-72333952D01*
X148665714Y-90049000D02*
X148594285Y-90013285D01*
X148487142Y-90013285D01*
X148380000Y-90049000D01*
X148308571Y-90120428D01*
X148272857Y-90191857D01*
X148237142Y-90334714D01*
X148237142Y-90441857D01*
X148272857Y-90584714D01*
X148308571Y-90656142D01*
X148380000Y-90727571D01*
X148487142Y-90763285D01*
X148558571Y-90763285D01*
X148665714Y-90727571D01*
X148701428Y-90691857D01*
X148701428Y-90441857D01*
X148558571Y-90441857D01*
X149022857Y-90763285D02*
X149022857Y-90013285D01*
X149308571Y-90013285D01*
X149380000Y-90049000D01*
X149415714Y-90084714D01*
X149451428Y-90156142D01*
X149451428Y-90263285D01*
X149415714Y-90334714D01*
X149380000Y-90370428D01*
X149308571Y-90406142D01*
X149022857Y-90406142D01*
X149772857Y-90763285D02*
X149772857Y-90013285D01*
X150272857Y-90013285D02*
X150415714Y-90013285D01*
X150487142Y-90049000D01*
X150558571Y-90120428D01*
X150594285Y-90263285D01*
X150594285Y-90513285D01*
X150558571Y-90656142D01*
X150487142Y-90727571D01*
X150415714Y-90763285D01*
X150272857Y-90763285D01*
X150201428Y-90727571D01*
X150130000Y-90656142D01*
X150094285Y-90513285D01*
X150094285Y-90263285D01*
X150130000Y-90120428D01*
X150201428Y-90049000D01*
X150272857Y-90013285D01*
X151808571Y-90013285D02*
X151665714Y-90013285D01*
X151594285Y-90049000D01*
X151558571Y-90084714D01*
X151487142Y-90191857D01*
X151451428Y-90334714D01*
X151451428Y-90620428D01*
X151487142Y-90691857D01*
X151522857Y-90727571D01*
X151594285Y-90763285D01*
X151737142Y-90763285D01*
X151808571Y-90727571D01*
X151844285Y-90691857D01*
X151880000Y-90620428D01*
X151880000Y-90441857D01*
X151844285Y-90370428D01*
X151808571Y-90334714D01*
X151737142Y-90299000D01*
X151594285Y-90299000D01*
X151522857Y-90334714D01*
X151487142Y-90370428D01*
X151451428Y-90441857D01*
X152201428Y-90691857D02*
X152237142Y-90727571D01*
X152201428Y-90763285D01*
X152165714Y-90727571D01*
X152201428Y-90691857D01*
X152201428Y-90763285D01*
X152487142Y-90013285D02*
X152987142Y-90013285D01*
X152665714Y-90763285D01*
X153272857Y-90691857D02*
X153308571Y-90727571D01*
X153272857Y-90763285D01*
X153237142Y-90727571D01*
X153272857Y-90691857D01*
X153272857Y-90763285D01*
X153737142Y-90334714D02*
X153665714Y-90299000D01*
X153630000Y-90263285D01*
X153594285Y-90191857D01*
X153594285Y-90156142D01*
X153630000Y-90084714D01*
X153665714Y-90049000D01*
X153737142Y-90013285D01*
X153880000Y-90013285D01*
X153951428Y-90049000D01*
X153987142Y-90084714D01*
X154022857Y-90156142D01*
X154022857Y-90191857D01*
X153987142Y-90263285D01*
X153951428Y-90299000D01*
X153880000Y-90334714D01*
X153737142Y-90334714D01*
X153665714Y-90370428D01*
X153630000Y-90406142D01*
X153594285Y-90477571D01*
X153594285Y-90620428D01*
X153630000Y-90691857D01*
X153665714Y-90727571D01*
X153737142Y-90763285D01*
X153880000Y-90763285D01*
X153951428Y-90727571D01*
X153987142Y-90691857D01*
X154022857Y-90620428D01*
X154022857Y-90477571D01*
X153987142Y-90406142D01*
X153951428Y-90370428D01*
X153880000Y-90334714D01*
D12*
X106426000Y-92964000D02*
X106172000Y-92964000D01*
X106426000Y-87884000D02*
X106426000Y-92964000D01*
X106172000Y-87884000D02*
X106426000Y-87884000D01*
D13*
G04 #@! TO.C,IC1*
X119320000Y-79010000D02*
G75*
G02X119320000Y-81010000I0J-1000000D01*
G01*
X119320000Y-81010000D02*
X119320000Y-82660000D01*
X119320000Y-82660000D02*
X155000000Y-82660000D01*
X155000000Y-82660000D02*
X155000000Y-77360000D01*
X155000000Y-77360000D02*
X119320000Y-77360000D01*
X119320000Y-77360000D02*
X119320000Y-79010000D01*
X119260000Y-85150000D02*
X155060000Y-85150000D01*
X155060000Y-85150000D02*
X155060000Y-74870000D01*
X155060000Y-74870000D02*
X119260000Y-74870000D01*
X119260000Y-74870000D02*
X119260000Y-85150000D01*
G04 #@! TO.C,C2*
X138632000Y-93219748D02*
X138632000Y-93742252D01*
X137212000Y-93219748D02*
X137212000Y-93742252D01*
G04 #@! TO.C,C3*
X142038000Y-93219748D02*
X142038000Y-93742252D01*
X143458000Y-93219748D02*
X143458000Y-93742252D01*
G04 #@! TO.C,J1*
X121515000Y-65615000D02*
X121515000Y-64365000D01*
X120265000Y-65615000D02*
X121515000Y-65615000D01*
X111865000Y-60115000D02*
X116165000Y-60115000D01*
X111865000Y-63065000D02*
X111865000Y-60115000D01*
X111115000Y-63065000D02*
X111865000Y-63065000D01*
X120465000Y-60115000D02*
X116165000Y-60115000D01*
X120465000Y-63065000D02*
X120465000Y-60115000D01*
X121215000Y-63065000D02*
X120465000Y-63065000D01*
X111115000Y-65315000D02*
X112915000Y-65315000D01*
X111115000Y-64565000D02*
X111115000Y-65315000D01*
X112915000Y-64565000D02*
X111115000Y-64565000D01*
X112915000Y-65315000D02*
X112915000Y-64565000D01*
X119415000Y-65315000D02*
X121215000Y-65315000D01*
X119415000Y-64565000D02*
X119415000Y-65315000D01*
X121215000Y-64565000D02*
X119415000Y-64565000D01*
X121215000Y-65315000D02*
X121215000Y-64565000D01*
X114415000Y-65315000D02*
X117915000Y-65315000D01*
X114415000Y-64565000D02*
X114415000Y-65315000D01*
X117915000Y-64565000D02*
X114415000Y-64565000D01*
X117915000Y-65315000D02*
X117915000Y-64565000D01*
X111105000Y-65325000D02*
X121225000Y-65325000D01*
X111105000Y-59355000D02*
X111105000Y-65325000D01*
X121225000Y-59355000D02*
X111105000Y-59355000D01*
X121225000Y-65325000D02*
X121225000Y-59355000D01*
G04 #@! TO.C,J2*
X127060000Y-99882000D02*
X127060000Y-97222000D01*
X114300000Y-99882000D02*
X127060000Y-99882000D01*
X114300000Y-97222000D02*
X127060000Y-97222000D01*
X114300000Y-99882000D02*
X114300000Y-97222000D01*
X113030000Y-99882000D02*
X111700000Y-99882000D01*
X111700000Y-99882000D02*
X111700000Y-98552000D01*
G04 #@! TO.C,J3*
X160595000Y-91500000D02*
X163255000Y-91500000D01*
X160595000Y-71120000D02*
X160595000Y-91500000D01*
X163255000Y-71120000D02*
X163255000Y-91500000D01*
X160595000Y-71120000D02*
X163255000Y-71120000D01*
X160595000Y-69850000D02*
X160595000Y-68520000D01*
X160595000Y-68520000D02*
X161925000Y-68520000D01*
G04 #@! TO.C,J4*
X132655000Y-65325000D02*
X132655000Y-59355000D01*
X132655000Y-59355000D02*
X122535000Y-59355000D01*
X122535000Y-59355000D02*
X122535000Y-65325000D01*
X122535000Y-65325000D02*
X132655000Y-65325000D01*
X129345000Y-65315000D02*
X129345000Y-64565000D01*
X129345000Y-64565000D02*
X125845000Y-64565000D01*
X125845000Y-64565000D02*
X125845000Y-65315000D01*
X125845000Y-65315000D02*
X129345000Y-65315000D01*
X132645000Y-65315000D02*
X132645000Y-64565000D01*
X132645000Y-64565000D02*
X130845000Y-64565000D01*
X130845000Y-64565000D02*
X130845000Y-65315000D01*
X130845000Y-65315000D02*
X132645000Y-65315000D01*
X124345000Y-65315000D02*
X124345000Y-64565000D01*
X124345000Y-64565000D02*
X122545000Y-64565000D01*
X122545000Y-64565000D02*
X122545000Y-65315000D01*
X122545000Y-65315000D02*
X124345000Y-65315000D01*
X132645000Y-63065000D02*
X131895000Y-63065000D01*
X131895000Y-63065000D02*
X131895000Y-60115000D01*
X131895000Y-60115000D02*
X127595000Y-60115000D01*
X122545000Y-63065000D02*
X123295000Y-63065000D01*
X123295000Y-63065000D02*
X123295000Y-60115000D01*
X123295000Y-60115000D02*
X127595000Y-60115000D01*
X131695000Y-65615000D02*
X132945000Y-65615000D01*
X132945000Y-65615000D02*
X132945000Y-64365000D01*
G04 #@! TO.C,J5*
X144085000Y-65325000D02*
X144085000Y-59355000D01*
X144085000Y-59355000D02*
X133965000Y-59355000D01*
X133965000Y-59355000D02*
X133965000Y-65325000D01*
X133965000Y-65325000D02*
X144085000Y-65325000D01*
X140775000Y-65315000D02*
X140775000Y-64565000D01*
X140775000Y-64565000D02*
X137275000Y-64565000D01*
X137275000Y-64565000D02*
X137275000Y-65315000D01*
X137275000Y-65315000D02*
X140775000Y-65315000D01*
X144075000Y-65315000D02*
X144075000Y-64565000D01*
X144075000Y-64565000D02*
X142275000Y-64565000D01*
X142275000Y-64565000D02*
X142275000Y-65315000D01*
X142275000Y-65315000D02*
X144075000Y-65315000D01*
X135775000Y-65315000D02*
X135775000Y-64565000D01*
X135775000Y-64565000D02*
X133975000Y-64565000D01*
X133975000Y-64565000D02*
X133975000Y-65315000D01*
X133975000Y-65315000D02*
X135775000Y-65315000D01*
X144075000Y-63065000D02*
X143325000Y-63065000D01*
X143325000Y-63065000D02*
X143325000Y-60115000D01*
X143325000Y-60115000D02*
X139025000Y-60115000D01*
X133975000Y-63065000D02*
X134725000Y-63065000D01*
X134725000Y-63065000D02*
X134725000Y-60115000D01*
X134725000Y-60115000D02*
X139025000Y-60115000D01*
X143125000Y-65615000D02*
X144375000Y-65615000D01*
X144375000Y-65615000D02*
X144375000Y-64365000D01*
G04 #@! TO.C,J6*
X148650000Y-73466000D02*
X148650000Y-70806000D01*
X138430000Y-73466000D02*
X148650000Y-73466000D01*
X138430000Y-70806000D02*
X148650000Y-70806000D01*
X138430000Y-73466000D02*
X138430000Y-70806000D01*
X137160000Y-73466000D02*
X135830000Y-73466000D01*
X135830000Y-73466000D02*
X135830000Y-72136000D01*
G04 #@! TO.C,J7*
X155805000Y-65615000D02*
X155805000Y-64365000D01*
X154555000Y-65615000D02*
X155805000Y-65615000D01*
X146155000Y-60115000D02*
X150455000Y-60115000D01*
X146155000Y-63065000D02*
X146155000Y-60115000D01*
X145405000Y-63065000D02*
X146155000Y-63065000D01*
X154755000Y-60115000D02*
X150455000Y-60115000D01*
X154755000Y-63065000D02*
X154755000Y-60115000D01*
X155505000Y-63065000D02*
X154755000Y-63065000D01*
X145405000Y-65315000D02*
X147205000Y-65315000D01*
X145405000Y-64565000D02*
X145405000Y-65315000D01*
X147205000Y-64565000D02*
X145405000Y-64565000D01*
X147205000Y-65315000D02*
X147205000Y-64565000D01*
X153705000Y-65315000D02*
X155505000Y-65315000D01*
X153705000Y-64565000D02*
X153705000Y-65315000D01*
X155505000Y-64565000D02*
X153705000Y-64565000D01*
X155505000Y-65315000D02*
X155505000Y-64565000D01*
X148705000Y-65315000D02*
X152205000Y-65315000D01*
X148705000Y-64565000D02*
X148705000Y-65315000D01*
X152205000Y-64565000D02*
X148705000Y-64565000D01*
X152205000Y-65315000D02*
X152205000Y-64565000D01*
X145395000Y-65325000D02*
X155515000Y-65325000D01*
X145395000Y-59355000D02*
X145395000Y-65325000D01*
X155515000Y-59355000D02*
X145395000Y-59355000D01*
X155515000Y-65325000D02*
X155515000Y-59355000D01*
G04 #@! TO.C,R1*
X158373578Y-71680000D02*
X157856422Y-71680000D01*
X158373578Y-73100000D02*
X157856422Y-73100000D01*
G04 #@! TO.C,R2*
X116883922Y-68655000D02*
X117401078Y-68655000D01*
X116883922Y-67235000D02*
X117401078Y-67235000D01*
G04 #@! TO.C,R4*
X158373578Y-80720000D02*
X157856422Y-80720000D01*
X158373578Y-79300000D02*
X157856422Y-79300000D01*
G04 #@! TO.C,R5*
X128313922Y-68655000D02*
X128831078Y-68655000D01*
X128313922Y-67235000D02*
X128831078Y-67235000D01*
G04 #@! TO.C,R6*
X158373578Y-86920000D02*
X157856422Y-86920000D01*
X158373578Y-88340000D02*
X157856422Y-88340000D01*
G04 #@! TO.C,R7*
X139743922Y-68655000D02*
X140261078Y-68655000D01*
X139743922Y-67235000D02*
X140261078Y-67235000D01*
G04 #@! TO.C,R8*
X151173922Y-67235000D02*
X151691078Y-67235000D01*
X151173922Y-68655000D02*
X151691078Y-68655000D01*
D10*
G04 #@! TO.C,Y1*
X145006060Y-87772240D02*
X145206720Y-88173560D01*
X145206720Y-88173560D02*
X145308320Y-88773000D01*
X145308320Y-88773000D02*
X145206720Y-89273380D01*
X145206720Y-89273380D02*
X144807940Y-89971880D01*
X144807940Y-89971880D02*
X144205960Y-90373200D01*
X144205960Y-90373200D02*
X143606520Y-90573860D01*
X143606520Y-90573860D02*
X137007600Y-90573860D01*
X137007600Y-90573860D02*
X136306560Y-90373200D01*
X136306560Y-90373200D02*
X135907780Y-90073480D01*
X135907780Y-90073480D02*
X135506460Y-89573100D01*
X135506460Y-89573100D02*
X135305800Y-88973660D01*
X135305800Y-88973660D02*
X135305800Y-88473280D01*
X135305800Y-88473280D02*
X135506460Y-87972900D01*
X135506460Y-87972900D02*
X136006840Y-87373460D01*
X136006840Y-87373460D02*
X136507220Y-87073740D01*
X136507220Y-87073740D02*
X137007600Y-86972140D01*
X137106660Y-86972140D02*
X143708120Y-86972140D01*
X143708120Y-86972140D02*
X144106900Y-87073740D01*
X144106900Y-87073740D02*
X144607280Y-87373460D01*
X144607280Y-87373460D02*
X145107660Y-87873840D01*
X137116820Y-86443820D02*
X136657080Y-86492080D01*
X136657080Y-86492080D02*
X136258300Y-86603840D01*
X136258300Y-86603840D02*
X135826500Y-86822280D01*
X135826500Y-86822280D02*
X135536940Y-87053420D01*
X135536940Y-87053420D02*
X135206740Y-87403940D01*
X135206740Y-87403940D02*
X134917180Y-87942420D01*
X134917180Y-87942420D02*
X134787640Y-88541860D01*
X134787640Y-88541860D02*
X134787640Y-89052400D01*
X134787640Y-89052400D02*
X134957820Y-89753440D01*
X134957820Y-89753440D02*
X135356600Y-90342720D01*
X135356600Y-90342720D02*
X135816340Y-90713560D01*
X135816340Y-90713560D02*
X136237980Y-90921840D01*
X136237980Y-90921840D02*
X136687560Y-91081860D01*
X136687560Y-91081860D02*
X137126980Y-91112340D01*
X144467580Y-90893900D02*
X144846040Y-90672920D01*
X144846040Y-90672920D02*
X145166080Y-90393520D01*
X145166080Y-90393520D02*
X145417540Y-90063320D01*
X145417540Y-90063320D02*
X145717260Y-89512140D01*
X145717260Y-89512140D02*
X145826480Y-89042240D01*
X145826480Y-89042240D02*
X145846800Y-88582500D01*
X145846800Y-88582500D02*
X145757900Y-88122760D01*
X145757900Y-88122760D02*
X145567400Y-87673180D01*
X145567400Y-87673180D02*
X145206720Y-87203280D01*
X145206720Y-87203280D02*
X144856200Y-86883240D01*
X144856200Y-86883240D02*
X144467580Y-86652100D01*
X144467580Y-86652100D02*
X144038320Y-86512400D01*
X144038320Y-86512400D02*
X143596360Y-86443820D01*
X137106660Y-91102180D02*
X143558260Y-91102180D01*
X143558260Y-91102180D02*
X143977360Y-91064080D01*
X143977360Y-91064080D02*
X144467580Y-90893900D01*
X137106660Y-86443820D02*
X143558260Y-86443820D01*
D13*
G04 #@! TO.C,C1*
X116610000Y-90090000D02*
X127350000Y-90090000D01*
X116610000Y-95330000D02*
X127350000Y-95330000D01*
X116610000Y-90090000D02*
X116610000Y-95330000D01*
X127350000Y-90090000D02*
X127350000Y-95330000D01*
G04 #@! TO.C,VTR1*
X102886200Y-92871600D02*
X105546200Y-92871600D01*
X102886200Y-75031600D02*
X102886200Y-92871600D01*
X105546200Y-75031600D02*
X105546200Y-92871600D01*
X102886200Y-75031600D02*
X105546200Y-75031600D01*
X102886200Y-73761600D02*
X102886200Y-72431600D01*
X102886200Y-72431600D02*
X104216200Y-72431600D01*
D10*
G04 #@! TO.C,RV1*
X146304000Y-91694000D02*
X146304000Y-101346000D01*
X146304000Y-101346000D02*
X155956000Y-101346000D01*
X155956000Y-101346000D02*
X155956000Y-91694000D01*
X155956000Y-91694000D02*
X146304000Y-91694000D01*
X155455464Y-96520000D02*
G75*
G03X155455464Y-96520000I-4325464J0D01*
G01*
D13*
G04 #@! TO.C,SW1*
X129988000Y-97222000D02*
X129988000Y-99882000D01*
X132588000Y-97222000D02*
X129988000Y-97222000D01*
X132588000Y-99882000D02*
X129988000Y-99882000D01*
X132588000Y-97222000D02*
X132588000Y-99882000D01*
X133858000Y-97222000D02*
X135188000Y-97222000D01*
X135188000Y-97222000D02*
X135188000Y-98552000D01*
G04 #@! TO.C,C4*
X109851436Y-92562000D02*
X111055564Y-92562000D01*
X109851436Y-94382000D02*
X111055564Y-94382000D01*
G04 #@! TO.C,J8*
X155000000Y-89468000D02*
X155000000Y-86808000D01*
X149860000Y-89468000D02*
X155000000Y-89468000D01*
X149860000Y-86808000D02*
X155000000Y-86808000D01*
X149860000Y-89468000D02*
X149860000Y-86808000D01*
X148590000Y-89468000D02*
X147260000Y-89468000D01*
X147260000Y-89468000D02*
X147260000Y-88138000D01*
G04 #@! TO.C,IC1*
D10*
X121578809Y-80462380D02*
X121578809Y-79462380D01*
X122626428Y-80367142D02*
X122578809Y-80414761D01*
X122435952Y-80462380D01*
X122340714Y-80462380D01*
X122197857Y-80414761D01*
X122102619Y-80319523D01*
X122055000Y-80224285D01*
X122007380Y-80033809D01*
X122007380Y-79890952D01*
X122055000Y-79700476D01*
X122102619Y-79605238D01*
X122197857Y-79510000D01*
X122340714Y-79462380D01*
X122435952Y-79462380D01*
X122578809Y-79510000D01*
X122626428Y-79557619D01*
X123578809Y-80462380D02*
X123007380Y-80462380D01*
X123293095Y-80462380D02*
X123293095Y-79462380D01*
X123197857Y-79605238D01*
X123102619Y-79700476D01*
X123007380Y-79748095D01*
G04 #@! TO.C,C2*
X135723333Y-92813142D02*
X135675714Y-92860761D01*
X135532857Y-92908380D01*
X135437619Y-92908380D01*
X135294761Y-92860761D01*
X135199523Y-92765523D01*
X135151904Y-92670285D01*
X135104285Y-92479809D01*
X135104285Y-92336952D01*
X135151904Y-92146476D01*
X135199523Y-92051238D01*
X135294761Y-91956000D01*
X135437619Y-91908380D01*
X135532857Y-91908380D01*
X135675714Y-91956000D01*
X135723333Y-92003619D01*
X136104285Y-92003619D02*
X136151904Y-91956000D01*
X136247142Y-91908380D01*
X136485238Y-91908380D01*
X136580476Y-91956000D01*
X136628095Y-92003619D01*
X136675714Y-92098857D01*
X136675714Y-92194095D01*
X136628095Y-92336952D01*
X136056666Y-92908380D01*
X136675714Y-92908380D01*
G04 #@! TO.C,C3*
X140549333Y-92813142D02*
X140501714Y-92860761D01*
X140358857Y-92908380D01*
X140263619Y-92908380D01*
X140120761Y-92860761D01*
X140025523Y-92765523D01*
X139977904Y-92670285D01*
X139930285Y-92479809D01*
X139930285Y-92336952D01*
X139977904Y-92146476D01*
X140025523Y-92051238D01*
X140120761Y-91956000D01*
X140263619Y-91908380D01*
X140358857Y-91908380D01*
X140501714Y-91956000D01*
X140549333Y-92003619D01*
X140882666Y-91908380D02*
X141501714Y-91908380D01*
X141168380Y-92289333D01*
X141311238Y-92289333D01*
X141406476Y-92336952D01*
X141454095Y-92384571D01*
X141501714Y-92479809D01*
X141501714Y-92717904D01*
X141454095Y-92813142D01*
X141406476Y-92860761D01*
X141311238Y-92908380D01*
X141025523Y-92908380D01*
X140930285Y-92860761D01*
X140882666Y-92813142D01*
G04 #@! TO.C,J1*
X118411666Y-60412380D02*
X118411666Y-61126666D01*
X118364047Y-61269523D01*
X118268809Y-61364761D01*
X118125952Y-61412380D01*
X118030714Y-61412380D01*
X119411666Y-61412380D02*
X118840238Y-61412380D01*
X119125952Y-61412380D02*
X119125952Y-60412380D01*
X119030714Y-60555238D01*
X118935476Y-60650476D01*
X118840238Y-60698095D01*
G04 #@! TO.C,J4*
X129841666Y-60412380D02*
X129841666Y-61126666D01*
X129794047Y-61269523D01*
X129698809Y-61364761D01*
X129555952Y-61412380D01*
X129460714Y-61412380D01*
X130746428Y-60745714D02*
X130746428Y-61412380D01*
X130508333Y-60364761D02*
X130270238Y-61079047D01*
X130889285Y-61079047D01*
G04 #@! TO.C,J5*
X141271666Y-60412380D02*
X141271666Y-61126666D01*
X141224047Y-61269523D01*
X141128809Y-61364761D01*
X140985952Y-61412380D01*
X140890714Y-61412380D01*
X142224047Y-60412380D02*
X141747857Y-60412380D01*
X141700238Y-60888571D01*
X141747857Y-60840952D01*
X141843095Y-60793333D01*
X142081190Y-60793333D01*
X142176428Y-60840952D01*
X142224047Y-60888571D01*
X142271666Y-60983809D01*
X142271666Y-61221904D01*
X142224047Y-61317142D01*
X142176428Y-61364761D01*
X142081190Y-61412380D01*
X141843095Y-61412380D01*
X141747857Y-61364761D01*
X141700238Y-61317142D01*
G04 #@! TO.C,J7*
X152701666Y-60412380D02*
X152701666Y-61126666D01*
X152654047Y-61269523D01*
X152558809Y-61364761D01*
X152415952Y-61412380D01*
X152320714Y-61412380D01*
X153082619Y-60412380D02*
X153749285Y-60412380D01*
X153320714Y-61412380D01*
G04 #@! TO.C,R1*
X158075333Y-71318380D02*
X157742000Y-70842190D01*
X157503904Y-71318380D02*
X157503904Y-70318380D01*
X157884857Y-70318380D01*
X157980095Y-70366000D01*
X158027714Y-70413619D01*
X158075333Y-70508857D01*
X158075333Y-70651714D01*
X158027714Y-70746952D01*
X157980095Y-70794571D01*
X157884857Y-70842190D01*
X157503904Y-70842190D01*
X159027714Y-71318380D02*
X158456285Y-71318380D01*
X158742000Y-71318380D02*
X158742000Y-70318380D01*
X158646761Y-70461238D01*
X158551523Y-70556476D01*
X158456285Y-70604095D01*
G04 #@! TO.C,R2*
X119721333Y-68524380D02*
X119388000Y-68048190D01*
X119149904Y-68524380D02*
X119149904Y-67524380D01*
X119530857Y-67524380D01*
X119626095Y-67572000D01*
X119673714Y-67619619D01*
X119721333Y-67714857D01*
X119721333Y-67857714D01*
X119673714Y-67952952D01*
X119626095Y-68000571D01*
X119530857Y-68048190D01*
X119149904Y-68048190D01*
X120102285Y-67619619D02*
X120149904Y-67572000D01*
X120245142Y-67524380D01*
X120483238Y-67524380D01*
X120578476Y-67572000D01*
X120626095Y-67619619D01*
X120673714Y-67714857D01*
X120673714Y-67810095D01*
X120626095Y-67952952D01*
X120054666Y-68524380D01*
X120673714Y-68524380D01*
G04 #@! TO.C,R4*
X157948333Y-78938380D02*
X157615000Y-78462190D01*
X157376904Y-78938380D02*
X157376904Y-77938380D01*
X157757857Y-77938380D01*
X157853095Y-77986000D01*
X157900714Y-78033619D01*
X157948333Y-78128857D01*
X157948333Y-78271714D01*
X157900714Y-78366952D01*
X157853095Y-78414571D01*
X157757857Y-78462190D01*
X157376904Y-78462190D01*
X158805476Y-78271714D02*
X158805476Y-78938380D01*
X158567380Y-77890761D02*
X158329285Y-78605047D01*
X158948333Y-78605047D01*
G04 #@! TO.C,R5*
X131151333Y-68524380D02*
X130818000Y-68048190D01*
X130579904Y-68524380D02*
X130579904Y-67524380D01*
X130960857Y-67524380D01*
X131056095Y-67572000D01*
X131103714Y-67619619D01*
X131151333Y-67714857D01*
X131151333Y-67857714D01*
X131103714Y-67952952D01*
X131056095Y-68000571D01*
X130960857Y-68048190D01*
X130579904Y-68048190D01*
X132056095Y-67524380D02*
X131579904Y-67524380D01*
X131532285Y-68000571D01*
X131579904Y-67952952D01*
X131675142Y-67905333D01*
X131913238Y-67905333D01*
X132008476Y-67952952D01*
X132056095Y-68000571D01*
X132103714Y-68095809D01*
X132103714Y-68333904D01*
X132056095Y-68429142D01*
X132008476Y-68476761D01*
X131913238Y-68524380D01*
X131675142Y-68524380D01*
X131579904Y-68476761D01*
X131532285Y-68429142D01*
G04 #@! TO.C,R6*
X157948333Y-86558380D02*
X157615000Y-86082190D01*
X157376904Y-86558380D02*
X157376904Y-85558380D01*
X157757857Y-85558380D01*
X157853095Y-85606000D01*
X157900714Y-85653619D01*
X157948333Y-85748857D01*
X157948333Y-85891714D01*
X157900714Y-85986952D01*
X157853095Y-86034571D01*
X157757857Y-86082190D01*
X157376904Y-86082190D01*
X158805476Y-85558380D02*
X158615000Y-85558380D01*
X158519761Y-85606000D01*
X158472142Y-85653619D01*
X158376904Y-85796476D01*
X158329285Y-85986952D01*
X158329285Y-86367904D01*
X158376904Y-86463142D01*
X158424523Y-86510761D01*
X158519761Y-86558380D01*
X158710238Y-86558380D01*
X158805476Y-86510761D01*
X158853095Y-86463142D01*
X158900714Y-86367904D01*
X158900714Y-86129809D01*
X158853095Y-86034571D01*
X158805476Y-85986952D01*
X158710238Y-85939333D01*
X158519761Y-85939333D01*
X158424523Y-85986952D01*
X158376904Y-86034571D01*
X158329285Y-86129809D01*
G04 #@! TO.C,R7*
X142581333Y-68524380D02*
X142248000Y-68048190D01*
X142009904Y-68524380D02*
X142009904Y-67524380D01*
X142390857Y-67524380D01*
X142486095Y-67572000D01*
X142533714Y-67619619D01*
X142581333Y-67714857D01*
X142581333Y-67857714D01*
X142533714Y-67952952D01*
X142486095Y-68000571D01*
X142390857Y-68048190D01*
X142009904Y-68048190D01*
X142914666Y-67524380D02*
X143581333Y-67524380D01*
X143152761Y-68524380D01*
G04 #@! TO.C,R8*
X154011333Y-68524380D02*
X153678000Y-68048190D01*
X153439904Y-68524380D02*
X153439904Y-67524380D01*
X153820857Y-67524380D01*
X153916095Y-67572000D01*
X153963714Y-67619619D01*
X154011333Y-67714857D01*
X154011333Y-67857714D01*
X153963714Y-67952952D01*
X153916095Y-68000571D01*
X153820857Y-68048190D01*
X153439904Y-68048190D01*
X154582761Y-67952952D02*
X154487523Y-67905333D01*
X154439904Y-67857714D01*
X154392285Y-67762476D01*
X154392285Y-67714857D01*
X154439904Y-67619619D01*
X154487523Y-67572000D01*
X154582761Y-67524380D01*
X154773238Y-67524380D01*
X154868476Y-67572000D01*
X154916095Y-67619619D01*
X154963714Y-67714857D01*
X154963714Y-67762476D01*
X154916095Y-67857714D01*
X154868476Y-67905333D01*
X154773238Y-67952952D01*
X154582761Y-67952952D01*
X154487523Y-68000571D01*
X154439904Y-68048190D01*
X154392285Y-68143428D01*
X154392285Y-68333904D01*
X154439904Y-68429142D01*
X154487523Y-68476761D01*
X154582761Y-68524380D01*
X154773238Y-68524380D01*
X154868476Y-68476761D01*
X154916095Y-68429142D01*
X154963714Y-68333904D01*
X154963714Y-68143428D01*
X154916095Y-68048190D01*
X154868476Y-68000571D01*
X154773238Y-67952952D01*
G04 #@! TO.C,Y1*
X139830869Y-88749190D02*
X139830869Y-89225380D01*
X139497536Y-88225380D02*
X139830869Y-88749190D01*
X140164202Y-88225380D01*
X141021345Y-89225380D02*
X140449917Y-89225380D01*
X140735631Y-89225380D02*
X140735631Y-88225380D01*
X140640393Y-88368238D01*
X140545155Y-88463476D01*
X140449917Y-88511095D01*
G04 #@! TO.C,C1*
X121813333Y-89317142D02*
X121765714Y-89364761D01*
X121622857Y-89412380D01*
X121527619Y-89412380D01*
X121384761Y-89364761D01*
X121289523Y-89269523D01*
X121241904Y-89174285D01*
X121194285Y-88983809D01*
X121194285Y-88840952D01*
X121241904Y-88650476D01*
X121289523Y-88555238D01*
X121384761Y-88460000D01*
X121527619Y-88412380D01*
X121622857Y-88412380D01*
X121765714Y-88460000D01*
X121813333Y-88507619D01*
X122765714Y-89412380D02*
X122194285Y-89412380D01*
X122480000Y-89412380D02*
X122480000Y-88412380D01*
X122384761Y-88555238D01*
X122289523Y-88650476D01*
X122194285Y-88698095D01*
G04 #@! TO.C,RV1*
X150534761Y-99512380D02*
X150201428Y-99036190D01*
X149963333Y-99512380D02*
X149963333Y-98512380D01*
X150344285Y-98512380D01*
X150439523Y-98560000D01*
X150487142Y-98607619D01*
X150534761Y-98702857D01*
X150534761Y-98845714D01*
X150487142Y-98940952D01*
X150439523Y-98988571D01*
X150344285Y-99036190D01*
X149963333Y-99036190D01*
X150820476Y-98512380D02*
X151153809Y-99512380D01*
X151487142Y-98512380D01*
X152344285Y-99512380D02*
X151772857Y-99512380D01*
X152058571Y-99512380D02*
X152058571Y-98512380D01*
X151963333Y-98655238D01*
X151868095Y-98750476D01*
X151772857Y-98798095D01*
G04 #@! TO.C,C4*
X110286833Y-95607142D02*
X110239214Y-95654761D01*
X110096357Y-95702380D01*
X110001119Y-95702380D01*
X109858261Y-95654761D01*
X109763023Y-95559523D01*
X109715404Y-95464285D01*
X109667785Y-95273809D01*
X109667785Y-95130952D01*
X109715404Y-94940476D01*
X109763023Y-94845238D01*
X109858261Y-94750000D01*
X110001119Y-94702380D01*
X110096357Y-94702380D01*
X110239214Y-94750000D01*
X110286833Y-94797619D01*
X111143976Y-95035714D02*
X111143976Y-95702380D01*
X110905880Y-94654761D02*
X110667785Y-95369047D01*
X111286833Y-95369047D01*
G04 #@! TD*
M02*
